<?xml version="1.0" encoding="utf-8"?>
<!-- Generator: Adobe Illustrator 18.1.1, SVG Export Plug-In . SVG Version: 6.00 Build 0)  -->
<svg version="1.1" id="Layer_1" xmlns="http://www.w3.org/2000/svg" xmlns:xlink="http://www.w3.org/1999/xlink" x="0px" y="0px"
	 viewBox="0 0 1164 479" enable-background="new 0 0 1164 479" xml:space="preserve">
<g>
	<path fill="#FEFDFE" d="M13,469c0-151.3,0-302.7,0-454c378,0,756,0,1134,0c0,151.3,0,302.7,0,454C769,469,391,469,13,469z
		 M277.1,29.2c0-0.5,0-1,0-1.5c-19.4,0.8-38.9,1.2-58.3,2.6c-25.2,1.9-50.5,3.7-75.5,7.2c-32.7,4.7-65.2,10.9-97.7,16.8
		c-12.9,2.3-18.2,9.2-18.3,22.2c-0.1,14.5,0.2,29-0.1,43.5c-0.3,11.4,4,19.4,14.3,25.1c15.7,8.8,24.8,23.2,27.5,40.7
		c2.6,17.1,4,34.3,5,51.6c2,31.9,7.6,63,19,92.9c12.2,31.8,30.8,59.1,57.3,80.7c36,29.4,78.3,41.9,123.9,44.7
		c30.8,1.9,61.1-1.2,90.8-9.9c27.8-8.2,53.1-21.1,75-40.3c37-32.5,57.5-74.3,68.3-121.7c4.5-19.6,5.3-39.5,6.9-59.4
		c1.5-19,10-32.5,28.5-38.5c21.3-6.9,42.9-7,64.3-1c17.2,4.9,28,16,30.3,34.3c2,16.2,2.8,32.5,5.2,48.6c4,27.4,11.9,53.8,24.9,78.4
		c16.5,31.3,39.1,57.2,69.1,76.3c34,21.6,71.8,30.6,111.4,33.1c25.9,1.6,51.5-0.3,76.8-6.4c48-11.7,86.9-36.7,114.8-77.9
		c14.6-21.5,25.1-45,30.6-70.3c3.8-17.8,6.8-35.8,9.1-53.9c2.5-19.1,3.1-38.5,5.9-57.5c3-21,12.4-38.5,33.9-46.1
		c10-3.6,13.6-10.5,13.8-20.1c0.2-14.3,0.6-28.7-0.2-43c-0.7-12.1-2.3-20.9-16.4-24c-23.4-5.2-46.8-10-70.4-14.1
		c-18.2-3.2-36.5-5.3-54.9-7.3c-21-2.3-42-4.5-63.1-5.5c-23.4-1.1-47-1.1-70.4-1.2c-26.4-0.1-52.5,2.6-78,9.8
		c-29.3,8.3-55.1,22.8-77.4,43.6c-17.9,16.7-32.3,36.2-44.3,57.4c-1.4,2.5-2.4,3-5.4,1.7c-15.1-6.6-30.5-11.8-47-14.1
		c-36.1-5-71-1.4-104.3,14c-3.2,1.5-4.3,0.5-5.8-2c-4.6-7.5-9.3-15-14.3-22.2c-39.3-56.8-94.7-84-162.7-87.3
		C305.1,28.6,291.1,29.2,277.1,29.2z"/>
	<path fill="#6C469D" d="M277.1,29.2c14,0,28-0.6,42,0.1c68,3.3,123.4,30.5,162.7,87.3c5,7.2,9.7,14.7,14.3,22.2
		c1.6,2.5,2.7,3.5,5.8,2c33.3-15.4,68.1-19,104.3-14c16.4,2.3,31.9,7.4,47,14.1c3,1.3,3.9,0.8,5.4-1.7c12-21.3,26.4-40.7,44.3-57.4
		c22.3-20.8,48.1-35.3,77.4-43.6c25.5-7.2,51.6-9.9,78-9.8c23.5,0.1,47,0,70.4,1.2c21.1,1,42.1,3.2,63.1,5.5
		c18.3,2,36.7,4.1,54.9,7.3c23.6,4.1,47.1,8.9,70.4,14.1c14.1,3.1,15.8,12,16.4,24c0.8,14.3,0.4,28.7,0.2,43
		c-0.1,9.6-3.7,16.5-13.8,20.1c-21.4,7.6-30.9,25-33.9,46.1c-2.7,19.1-3.4,38.4-5.9,57.5c-2.4,18.1-5.3,36.1-9.1,53.9
		c-5.5,25.4-16,48.8-30.6,70.3c-27.9,41.2-66.8,66.2-114.8,77.9c-25.3,6.1-51,8-76.8,6.4c-39.6-2.4-77.4-11.4-111.4-33.1
		c-30.1-19.1-52.6-44.9-69.1-76.3c-13-24.6-20.9-51-24.9-78.4c-2.3-16.1-3.1-32.4-5.2-48.6c-2.3-18.2-13-29.4-30.3-34.3
		c-21.4-6.1-43-5.9-64.3,1c-18.6,6-27.1,19.5-28.5,38.5c-1.6,19.9-2.4,39.8-6.9,59.4c-10.8,47.4-31.3,89.2-68.3,121.7
		c-21.9,19.2-47.2,32.1-75,40.3c-29.7,8.7-60,11.8-90.8,9.9c-45.6-2.8-87.8-15.3-123.9-44.7c-26.5-21.6-45.1-48.9-57.3-80.7
		c-11.5-29.9-17.1-61-19-92.9c-1.1-17.2-2.4-34.5-5-51.6C66.1,168.4,57,154,41.3,145.2C31,139.4,26.8,131.5,27,120
		c0.3-14.5,0-29,0.1-43.5c0.1-13,5.5-19.9,18.3-22.2c32.5-5.9,65-12.1,97.7-16.8c25-3.6,50.3-5.4,75.5-7.2
		c19.4-1.4,38.9-1.8,58.3-2.6C277.1,28.2,277.1,28.7,277.1,29.2z M288.6,73.6c-7.5,0.4-15,0.6-22.4,1.1c-23.5,1.6-46,7.3-66.8,18.4
		c-48.4,25.7-69.9,68.5-75.5,120.9c-2.2,20.5-1.5,40.9,2,61.2c4.5,26.4,13.2,51.2,29,73.1c22.7,31.5,53.9,49.2,91.6,57
		c37.1,7.7,73.5,5.6,109.4-5.5c28.1-8.7,51.9-24.4,70.6-47.3c27.7-33.9,38.7-73.8,40.4-116.6c0.9-22.9-3.2-45.4-11.6-66.9
		c-17.3-44.7-49.8-72.5-95.1-86.1C336.8,76,312.8,73.7,288.6,73.6z M868,73.9c-27.7-0.1-50.7,2.5-73.3,9c-29,8.3-54,23.1-73.2,46.8
		c-22.5,27.8-32.1,60.4-33.6,95.6c-1.4,35.3,5.6,68.8,22,100.2c13.1,25.1,31.6,45,55.8,59.7c28.1,17,59.2,23.1,91.4,24.7
		c24.7,1.2,49-2.4,72.6-10.5c45.9-15.8,75.4-47.9,90.9-93.1c9.1-26.7,12.6-54.3,10.7-82.5c-1.3-19.7-4.7-39-12-57.4
		c-18.2-45.8-51.9-73.9-99.2-86.3C901.6,75.1,882.8,73.9,868,73.9z"/>
	<path fill="#FEFEFE" d="M288.6,73.6c24.3,0,48.2,2.4,71.5,9.3c45.3,13.6,77.8,41.4,95.1,86.1c8.3,21.5,12.4,44,11.6,66.9
		c-1.6,42.8-12.7,82.7-40.4,116.6c-18.7,22.9-42.5,38.6-70.6,47.3c-35.9,11.2-72.3,13.2-109.4,5.5c-37.7-7.9-68.9-25.5-91.6-57
		c-15.8-21.9-24.4-46.7-29-73.1c-3.5-20.3-4.2-40.7-2-61.2c5.6-52.5,27-95.2,75.5-120.9c20.9-11.1,43.3-16.8,66.8-18.4
		C273.6,74.2,281.1,74,288.6,73.6z"/>
	<path fill="#FDFDFD" d="M868,73.9c14.8-0.1,33.7,1.2,52.2,6.1c47.3,12.5,81,40.6,99.2,86.3c7.3,18.4,10.7,37.6,12,57.4
		c1.9,28.3-1.6,55.9-10.7,82.5c-15.5,45.3-45,77.3-90.9,93.1c-23.6,8.1-47.8,11.8-72.6,10.5c-32.1-1.6-63.3-7.7-91.4-24.7
		c-24.2-14.6-42.8-34.6-55.8-59.7c-16.4-31.4-23.5-64.9-22-100.2c1.4-35.2,11-67.8,33.6-95.6c19.2-23.7,44.2-38.4,73.2-46.8
		C817.2,76.4,840.3,73.8,868,73.9z M812.9,349.8c1.1,0.6,2.1,1.1,3.2,1.7c2.3,0.8,4.7,1.5,7,2.3c0.7,0.3,1.3,0.6,2,0.9
		c1.4,0.3,2.7,0.6,4.1,0.9c1,0.4,1.9,0.7,2.9,1.1c2.4,0.3,4.7,0.7,7.1,1c3.7,0.6,7.3,1.1,11,1.7c1,0.1,2,0.2,3.1,0.3
		c3.9,0,7.9,0,11.8,0.1c0.7-0.1,1.4-0.2,2-0.2c2.6-0.3,5.2-0.7,7.9-1c1-0.1,2.1-0.3,3.1-0.4c0.7-0.1,1.3-0.2,2-0.4
		c1-0.1,2-0.2,3-0.3c2.3-0.5,4.7-1.1,7-1.6c0.7-0.1,1.3-0.3,2-0.4c3.7-1.4,7.4-2.8,11.1-4.3l0.1,0.1c1.4-0.4,2.9-0.6,4.2-1.2
		c35.7-17.4,59-44.7,67.3-84.1c0.3-0.4,0.7-0.8,0.8-1.2c2.7-18.9,2.4-37.5-3.2-55.9c-1.5-4.5-2.7-9.2-4.6-13.6
		c-8.8-20.2-22.1-36.9-40.3-49.5c-0.8-0.5-1.6-1.1-2.4-1.6c-3.3-2.2-6.4-4.9-9.9-6.3c-9.5-3.9-19.3-7.2-29-10.8
		c-2.5-0.7-5-1.5-7.6-2c-11.9-2.2-23.8-2.4-35.7-0.7c-13.5,1.9-26.3,6-38,13.4c-6.6,4.4-13.2,8.8-19.8,13.1
		c-1.5,1.3-2.8,2.6-4.4,3.8c-9.2,7.2-16.2,16.2-21.9,26.3c-9.4,14.8-14.7,31.1-16.5,48.5c-1.3,12.3-1,24.5,2.2,36.5
		c0.6,2.3,1.1,4.7,1.7,7c0.3,1.3,0.7,2.6,1,4c1.8,4.7,3.5,9.3,5.3,14c5.3,8.7,9.9,18.1,16.1,26.1c11,14.1,25.1,24.5,41.5,31.9
		C810.9,349.3,811.9,349.6,812.9,349.8z"/>
	<path fill="#36ACBE" d="M974.7,266c-8.2,39.4-31.6,66.7-67.3,84.1c-1.3,0.6-2.8,0.8-4.2,1.2c0.7-3.7,1.3-7.5,2-11.2
		c0.5-0.6,1.4-1.1,1.6-1.8c1.8-8.2,4.5-16.3,5-24.6c0.5-8.1-1.2-16.4-1.9-24.6c11.1,0.5,21.3-3,31.2-7.3c7.2-3.1,14-7.2,20.9-10.8
		C966.3,269.3,970.5,267.6,974.7,266z"/>
	<path fill="#F8BB22" d="M744.4,266c-3.2-12-3.5-24.2-2.2-36.5c1.8-17.4,7.1-33.7,16.5-48.5c2.6-1,5.2-1.8,7.8-3
		c5.5-2.6,10.9-5.3,16.4-8c0.2,8.3,0.4,16.6,0.6,24.9c2.3,9.7,4.5,19.3,6.8,29c-1.3,0.3-2.7,0.3-3.8,1
		c-15.3,8.8-26.9,21.1-34.4,37.1C749.5,263.3,746.9,264.7,744.4,266z"/>
	<path fill="#A02D9B" d="M886.1,127c9.7,3.6,19.4,6.9,29,10.8c3.6,1.5,6.6,4.2,9.9,6.3c0.4,0.6,0.7,1.2,1.1,1.9
		c0.7,3.3,1.5,6.6,2.2,9.9c0.3,1,0.6,2.1,0.8,3.1c0,0.6,0.1,1.3,0.1,1.9c0.6,2.7,1.3,5.4,1.9,8.1c0,0.6,0.1,1.2,0.1,1.9
		c0.3,1.4,0.5,2.8,0.8,4.1c0.1,1.3,0.1,2.6,0.2,3.9c-0.1,2.3-0.2,4.6-0.2,6.9c0,6.5-0.7,7-6.9,5.1c-4.2-9.3-10.3-16.4-20.6-19.1
		c-12.9-3.4-23.3,1.1-32.2,10.1c-0.1-0.6-0.3-1.2-0.4-1.7c0.5-12.5,0-25-3-37.2c0.9-1.4,1.5-3,2.7-4
		C876.3,134.9,881.2,131,886.1,127z"/>
	<path fill="#29A0DB" d="M974.7,266c-4.2,1.7-8.5,3.4-12.7,5c-0.5-2.1-0.6-4.4-1.7-6.1c-4.6-7.1-9.1-14.2-14.4-20.8
		c-5.8-7.2-12.9-12.9-23.1-12.2c0.4-1.4,0.8-2.9,1.3-4.2c2.3-6,5.2-11.8,6.9-17.9c1.6-5.5,2-11.3,2.9-16.9
		c11.1,1.6,21.2,5.9,30.6,12c2.4,1.6,5.2,2.6,7.8,3.9c5.6,18.4,5.9,37.1,3.2,55.9C975.5,265.2,975,265.6,974.7,266z"/>
	<path fill="#F8CE10" d="M810,349c-16.3-7.4-30.5-17.8-41.5-31.9c-6.3-8-10.8-17.4-16.1-26.1c1-0.7,2.1-1.3,3.1-2
		c3.3-2.3,6.5-4.8,9.9-6.9c2.3-1.4,5.1-2.1,7.6-3.2c9,2.3,18,4.7,27,7c3.5,15.3,6.9,30.5,10.4,45.8c1.1,4.8,2.5,9.6,3.8,14.4
		c0,0,0,0,0,0C812.8,347.1,811.4,348.1,810,349z"/>
	<path fill="#36C25B" d="M905.2,340.1c-0.7,3.7-1.3,7.5-2,11.2c0,0-0.1-0.1-0.1-0.1c-3.7,1.4-7.4,2.8-11.1,4.3
		c-0.7,0.1-1.3,0.3-2,0.4c-2.3,0.5-4.7,1.1-7,1.6c-1,0.1-2,0.2-3,0.3c-0.7,0.1-1.3,0.2-2,0.4c-1,0.1-2.1,0.3-3.1,0.4
		c-2.6,0.3-5.2,0.7-7.9,1c-0.7,0.1-1.4,0.2-2,0.2c-3.9,0-7.9,0-11.8-0.1c-1-0.1-2-0.2-3.1-0.3c-3.7-0.6-7.3-1.1-11-1.7
		c-2.4-0.3-4.7-0.7-7.1-1c-1-0.4-1.9-0.7-2.9-1.1c-1.4-0.3-2.7-0.6-4.1-0.9c-0.7-0.3-1.3-0.6-2-0.9c-2.3-0.8-4.7-1.5-7-2.3
		c-0.6-0.8-1.2-1.6-1.8-2.4c0-1-0.1-2-0.1-2.9c0,0,0,0,0,0c9-3.2,18-6.5,27-9.7c2.6-1,5.1-2,7.7-3.1c0.4-0.2,0.7-0.4,1.1-0.6
		c0.7-0.3,1.3-0.6,2-1c0.6-0.3,1.2-0.6,1.8-1c0,0,0.1-0.1,0.1-0.1c1.7-0.9,3.3-1.9,5-2.8c0,0,0.1,0,0.1,0c0.4-0.3,0.7-0.6,1.1-0.9
		c1-0.7,2-1.3,3-2c0.5-0.4,1.1-0.7,1.6-1.1c0.5-0.3,0.9-0.6,1.4-1c0.6-0.1,1.3-0.2,1.9-0.3c0.5,0.8,0.8,1.8,1.5,2.4
		c7.9,7.7,18.2,10.2,28.3,12.9C900.2,338.6,902.7,339.4,905.2,340.1z"/>
	<path fill="#DA1381" d="M886.1,127c-4.8,4-9.7,7.9-14.5,12c-1.2,1-1.8,2.7-2.7,4c-3.7,3.7-7.3,7.4-11,11.1c-3.6,3.6-5.4,9.6-12.1,9
		c-3.9-2-7.9-4-11.8-6.1c-1.6-0.7-3.3-1.4-4.9-2.1c-1.3-1.5-2.5-3.2-4.1-4.3c-6.7-4.4-13.5-8.6-20.3-12.9
		c11.6-7.4,24.4-11.4,38-13.4c11.9-1.7,23.9-1.4,35.7,0.7C881,125.5,883.5,126.3,886.1,127z"/>
	<path fill="#4373BC" d="M972.3,208.8c-2.6-1.3-5.4-2.3-7.8-3.9c-9.4-6.1-19.5-10.4-30.6-12c0-2.5,0.3-5,0-7.4
		c-0.3-2.2-1.1-4.4-1.6-6.6c-0.1-1.3-0.1-2.6-0.2-3.9c-0.3-1.4-0.5-2.8-0.8-4.1c0-0.6-0.1-1.2-0.1-1.9c-0.6-2.7-1.3-5.4-1.9-8.1
		c0-0.6-0.1-1.3-0.1-1.9c-0.3-1-0.6-2.1-0.8-3.1c-0.7-3.3-1.5-6.6-2.2-9.9c0.4-0.1,0.9-0.2,1.3-0.3c18.2,12.6,31.4,29.3,40.3,49.5
		C969.6,199.6,970.8,204.3,972.3,208.8z"/>
	<path fill="#EA0F17" d="M804.8,137.7c6.8,4.3,13.6,8.5,20.3,12.9c1.6,1.1,2.7,2.8,4.1,4.3c-1.7,1.1-3.4,2.1-5.1,3.2
		c-8.5,2.5-16.9,5.2-25.5,7.6c-5.1,1.4-10.3,2.3-15.4,3.4c0.6-6,1.2-12.1,1.8-18.1C791.6,146.5,798.2,142.1,804.8,137.7z"/>
	<path fill="#F7CA04" d="M773,279c-2.6,1-5.3,1.8-7.6,3.2c-3.5,2-6.6,4.6-9.9,6.9c-1,0.7-2,1.3-3.1,2c-1.8-4.7-3.5-9.3-5.3-14
		c-0.3-1.3-0.7-2.6-1-4c-0.6-2.3-1.1-4.7-1.7-7c2.5-1.3,5.1-2.7,7.6-4c1.3,1.8,2.2,4.1,3.9,5.4C761.4,271.4,767.3,275.1,773,279z"/>
	<path fill="#F69E20" d="M785,150.8c-0.6,6-1.2,12.1-1.8,18.1c-0.1,0.4-0.2,0.7-0.3,1.1c-5.5,2.7-10.9,5.4-16.4,8
		c-2.5,1.2-5.2,2-7.8,3c5.7-10.1,12.7-19.1,21.9-26.3C782.1,153.5,783.5,152.1,785,150.8z"/>
	<path fill="#48C470" d="M853.1,359.7c3.9,0,7.9,0,11.8,0.1C861,359.7,857,359.7,853.1,359.7z"/>
	<path fill="#48C470" d="M891.9,355.4c3.7-1.4,7.4-2.8,11.1-4.3C899.4,352.6,895.7,354,891.9,355.4z"/>
	<path fill="#48C470" d="M839.1,357.7c3.7,0.6,7.3,1.1,11,1.7C846.4,358.9,842.7,358.3,839.1,357.7z"/>
	<path fill="#48C470" d="M867,359.5c2.6-0.3,5.2-0.7,7.9-1C872.2,358.9,869.6,359.2,867,359.5z"/>
	<path fill="#F0BC16" d="M814.2,346.2c0,1,0.1,2,0.1,2.9c-0.5,0.2-0.9,0.5-1.4,0.7c-1-0.3-1.9-0.5-2.9-0.8
		C811.4,348.1,812.8,347.1,814.2,346.2z"/>
	<path fill="#48C470" d="M883,357.5c2.3-0.5,4.7-1.1,7-1.6C887.6,356.4,885.3,356.9,883,357.5z"/>
	<path fill="#F8CE10" d="M746.1,273c0.3,1.3,0.7,2.6,1,4C746.7,275.6,746.4,274.3,746.1,273z"/>
	<path fill="#48C470" d="M812.9,349.8c0.5-0.2,0.9-0.5,1.4-0.7c0.6,0.8,1.2,1.6,1.8,2.4C815,350.9,813.9,350.4,812.9,349.8z"/>
	<path fill="#48C470" d="M829.1,355.7c1,0.4,1.9,0.7,2.9,1.1C831.1,356.4,830.1,356,829.1,355.7z"/>
	<path fill="#755DB0" d="M927.4,145.7c-0.4,0.1-0.9,0.2-1.3,0.3c-0.4-0.6-0.7-1.2-1.1-1.9C925.8,144.7,926.6,145.2,927.4,145.7z"/>
	<path fill="#48C470" d="M823.1,353.8c0.7,0.3,1.3,0.6,2,0.9C824.4,354.4,823.7,354.1,823.1,353.8z"/>
	<path fill="#48C470" d="M877.9,358.1c0.7-0.1,1.3-0.2,2-0.4C879.3,357.9,878.6,358,877.9,358.1z"/>
	<path fill="#45A5DB" d="M922.8,232c10.2-0.8,17.3,4.9,23.1,12.2c5.3,6.6,9.8,13.7,14.4,20.8c1.1,1.7,1.1,4.1,1.7,6.1
		c-7,3.6-13.7,7.8-20.9,10.8c-9.9,4.2-20.1,7.7-31.2,7.3c-0.5,0-1-0.1-1.5-0.1c-0.6-2.4-1.2-4.7-1.9-7.1c6.3-8,12-16.5,13.6-26.8
		c1.2-7.7,1.2-15.5,1.8-23.3C922.3,231.9,922.5,232,922.8,232z"/>
	<path fill="#48C470" d="M908.4,289c0.5,0,1,0.1,1.5,0.1c0.7,8.2,2.4,16.4,1.9,24.6c-0.5,8.3-3.2,16.4-5,24.6
		c-0.2,0.7-1,1.2-1.6,1.8c-2.5-0.7-5.1-1.4-7.6-2.1c-10.2-2.7-20.4-5.2-28.3-12.9c-0.7-0.6-1-1.6-1.5-2.4c0.1-0.5,0.3-1,0.4-1.4
		c4.7-4.3,9.4-8.5,14-12.8c1.9-2.1,3.8-4.3,5.7-6.4l0,0c0.4-0.6,0.8-1.2,1.2-1.7c0,0,0.1,0,0.1,0c1.9-2.6,3.7-5.2,5.6-7.8
		c1.8-1.3,3.5-2.6,5.3-3.9C902.9,288.7,905.7,288.8,908.4,289z"/>
	<path fill="#FBD027" d="M773,279c-5.8-3.8-11.6-7.5-17.2-11.6c-1.7-1.2-2.6-3.5-3.9-5.4c7.5-16,19.1-28.3,34.4-37.1
		c1.1-0.6,2.5-0.7,3.8-1c2.5,3.8,5.1,7.5,7.6,11.3c0.9,7.4,1.3,14.8,2.7,22.1c2,10.5,8.4,18.9,15,27c-1.6,0.6-3.1,1.5-4.7,1.6
		c-3.6,0.2-7.1,0.1-10.7,0.1C791,283.6,782,281.3,773,279z"/>
	<path fill="#F23F28" d="M782.8,170c0.1-0.4,0.2-0.7,0.3-1.1c5.1-1.1,10.4-2,15.4-3.4c8.5-2.3,17-5,25.5-7.6c-0.7,2-1.9,3.9-2.1,5.9
		c-0.5,6.3-0.7,12.7-0.9,19.1c0,3.2,0,6.3,0,9.5c-0.4,0.3-0.9,0.5-1.3,0.8c-1.1,1-2.3,2.1-3.4,3.1l0.1,0.2
		c-7.9-1.5-15.5-0.3-22.8,2.7c-6.7,2.8-6.6,3-9-3.5c-0.1-0.4-0.8-0.5-1.2-0.8C783.2,186.6,783,178.3,782.8,170z"/>
	<path fill="#EF5832" d="M783.4,194.9c0.4,0.3,1.1,0.4,1.2,0.8c2.4,6.5,2.3,6.3,9,3.5c7.3-3.1,14.9-4.3,22.8-2.7
		c-2.7,3.5-5.4,7.1-8,10.6c-6.1,8.4-8.3,18.2-10.6,28c-2.5-3.8-5.1-7.5-7.6-11.3C787.9,214.3,785.6,204.6,783.4,194.9z"/>
	<path fill="#030302" d="M797.8,235.2c2.2-9.8,4.5-19.7,10.6-28c2.6-3.6,5.4-7.1,8-10.6c0,0-0.1-0.2-0.1-0.2c1.1-1,2.3-2.1,3.4-3.1
		c0.4-0.3,0.9-0.5,1.3-0.8c2.1-1.5,4.1-2.9,6.2-4.4c0.3-0.2,0.6-0.4,0.9-0.6c0.2-0.2,0.5-0.4,0.7-0.5c0.7-0.3,1.4-0.7,2.1-1
		c9-2.2,18-4.4,27-6.6c4.6,0.3,9.2,0.6,13.9,0.8c0.1,0.6,0.3,1.2,0.4,1.7c-10.5,14.7-8.9,32,4,43c12,10.3,29.9,9.3,41.6-2.2
		c0.9,1.1,2.2,2.2,2.7,3.5c0.7,1.8,1,3.8,1.4,5.7c-0.6,7.8-0.6,15.6-1.8,23.3c-1.6,10.3-7.3,18.8-13.6,26.8
		c-2.1,2.2-4.2,4.4-6.4,6.5c-1.8,1.3-3.5,2.6-5.3,3.9c-1.4,0.5-2.9,0.8-4.1,1.5c-8.3,4.8-17.1,8.1-26.8,7.9
		c-7.7-0.2-15.4-1.3-23.1-1.9c-8.5-5.2-17-10.4-25.5-15.6c-6.6-8.1-12.9-16.5-15-27C799.1,250,798.7,242.6,797.8,235.2z"/>
	<path fill="#FAF9FA" d="M917.9,222.7c-11.6,11.5-29.5,12.5-41.6,2.2c-12.9-11-14.5-28.3-4-43c8.9-9.1,19.3-13.5,32.2-10.1
		c10.4,2.7,16.5,9.8,20.6,19.1C928.9,203,926.5,213.6,917.9,222.7z"/>
	<path fill="#D0178E" d="M871.9,180.2c-4.6-0.3-9.2-0.6-13.9-0.8c-0.5-1.2-0.9-2.5-1.7-3.4c-3.5-4.3-7-8.6-10.6-12.9
		c6.7,0.7,8.6-5.3,12.1-9c3.6-3.7,7.3-7.4,11-11.1C871.9,155.2,872.4,167.7,871.9,180.2z"/>
	<path fill="#755DB0" d="M917.9,222.7c8.6-9.2,11.1-19.7,7.3-31.8c6.2,1.9,6.8,1.4,6.9-5.1c0-2.3,0.1-4.6,0.2-6.9
		c0.6,2.2,1.4,4.4,1.6,6.6c0.3,2.4,0,4.9,0,7.4c-0.9,5.6-1.3,11.4-2.9,16.9c-1.8,6.1-4.6,11.9-6.9,17.9c-0.5,1.4-0.9,2.8-1.3,4.2
		c-0.3,0-0.5,0-0.8-0.1c-0.4-1.9-0.7-3.9-1.4-5.7C920,224.9,918.8,223.9,917.9,222.7z"/>
	<path fill="#755DB0" d="M929.3,160.9c0.6,2.7,1.3,5.4,1.9,8.1C930.5,166.3,929.9,163.6,929.3,160.9z"/>
	<path fill="#755DB0" d="M931.3,170.8c0.3,1.4,0.5,2.8,0.8,4.1C931.8,173.6,931.6,172.2,931.3,170.8z"/>
	<path fill="#755DB0" d="M928.3,155.9c0.3,1,0.6,2.1,0.8,3.1C928.8,157.9,928.6,156.9,928.3,155.9z"/>
	<path fill="#F0BC16" d="M815.5,284.3c8.5,5.2,17,10.4,25.5,15.6c0,0.4,0,0.7,0,1.1c-3.5-0.2-3.2,2.3-3,4.4
		c1,10.4,2.1,20.7,3.1,31.1c-9,3.2-18,6.5-27,9.7c-1.3-4.8-2.6-9.6-3.8-14.4c-3.5-15.3-6.9-30.5-10.4-45.8c3.6,0,7.2,0.2,10.7-0.1
		C812.3,285.8,813.9,284.9,815.5,284.3z"/>
	<path fill="#F6DA1E" d="M882.3,308.4c-4.7,4.3-9.4,8.5-14,12.8c-0.8,0.6-1.5,1.1-2.3,1.7c-0.5,0.3-0.9,0.6-1.4,1
		c-0.5,0-1.1,0.1-1.7,0.1c-1.5-1.2-3-2.4-4.4-3.8c-3.6-3.7-7.3-7.4-10.4-11.5c-0.9-1.2-0.1-3.8,0-5.8c4.2,0.6,8.6,2.3,12.6,1.6
		c8.1-1.3,15.9-4,24-5.8c1.4-0.3,3.1,0.9,4.7,1.4c0,0-0.1,0-0.1,0c-0.4,0.6-0.8,1.2-1.2,1.7c0,0,0,0,0,0
		C886.1,304.1,884.2,306.3,882.3,308.4z"/>
	<path fill="#F2D212" d="M848,303c0,2-0.9,4.5,0,5.8c3.1,4.1,6.9,7.7,10.4,11.5c1.3,1.4,2.9,2.5,4.4,3.8c0,0.3,0,0.6,0.1,0.9
		c-1,0.7-2,1.3-3,2c-0.4,0.3-0.7,0.6-1.1,0.9c0,0-0.1,0-0.1,0c-1.7,0.9-3.3,1.9-5,2.8c0,0-0.1,0.1-0.1,0.1c-0.6,0.3-1.2,0.6-1.8,1
		c-0.7,0.3-1.3,0.6-2,1c-0.4,0.2-0.7,0.4-1.1,0.6c-2.6,1-5.1,2-7.7,3.1c-1-10.4-2.1-20.7-3.1-31.1c-0.2-2.1-0.5-4.6,3-4.4
		C843.4,301.7,845.7,302.3,848,303z"/>
	<path fill="#CDC933" d="M853.9,330.7c1.7-0.9,3.3-1.9,5-2.8C857.2,328.9,855.5,329.8,853.9,330.7z"/>
	<path fill="#CDC933" d="M866,322.9c0.8-0.6,1.5-1.1,2.3-1.7c-0.1,0.5-0.3,1-0.4,1.4C867.2,322.7,866.6,322.8,866,322.9z"/>
	<path fill="#CDC933" d="M858.9,327.9c0.4-0.3,0.7-0.6,1.1-0.9C859.6,327.3,859.3,327.6,858.9,327.9z"/>
	<path fill="#CDC933" d="M852,331.8c0.6-0.3,1.2-0.6,1.8-1C853.2,331.2,852.6,331.5,852,331.8z"/>
	<path fill="#CDC933" d="M848.9,333.4c0.4-0.2,0.7-0.4,1.1-0.6C849.6,333,849.2,333.2,848.9,333.4z"/>
	<path fill="#CDC933" d="M863,324.9c0-0.3-0.1-0.6-0.1-0.9c0.6,0,1.1-0.1,1.7-0.1C864,324.2,863.5,324.6,863,324.9z"/>
	<path fill="#EC4058" d="M845.8,163.1c3.5,4.3,7.1,8.5,10.6,12.9c0.8,1,1.1,2.3,1.7,3.4c-9,2.2-18,4.4-27,6.6
		c-2.6-6.8-2.7-13.7-0.1-20.5c1.1-2.8,2.1-5.6,3.1-8.5C837.9,159,841.9,161,845.8,163.1z"/>
	<path fill="#F44F3A" d="M834,157c-1,2.8-2,5.7-3.1,8.5c-2.6,6.9-2.5,13.7,0.1,20.5c-0.7,0.3-1.4,0.7-2.1,1
		c-0.3,0.1-0.6,0.3-0.7,0.5c-0.3,0.2-0.6,0.4-0.9,0.6c-2.1-1.7-4.1-3.4-6.2-5.1c0.3-6.4,0.4-12.7,0.9-19.1c0.2-2,1.4-3.9,2.1-5.9
		c1.7-1.1,3.4-2.1,5.1-3.2C830.8,155.6,832.4,156.3,834,157z"/>
	<path fill="#CDC933" d="M900.2,288.5c2.1-2.2,4.3-4.4,6.4-6.5c0.6,2.4,1.2,4.7,1.8,7.1C905.7,288.8,902.9,288.7,900.2,288.5z"/>
	<path fill="#CDC933" d="M848,303c-2.3-0.7-4.7-1.3-7-2c0-0.4,0-0.7,0-1.1c7.7,0.7,15.4,1.7,23.1,1.9c9.7,0.2,18.5-3.1,26.8-7.9
		c1.2-0.7,2.7-1,4.1-1.5c-1.9,2.6-3.7,5.2-5.6,7.8c-1.6-0.5-3.3-1.7-4.7-1.4c-8,1.8-15.9,4.5-24,5.8
		C856.7,305.2,852.3,303.6,848,303z"/>
	<path fill="#CDC933" d="M882.3,308.4c1.9-2.1,3.8-4.3,5.7-6.4C886.1,304.1,884.2,306.3,882.3,308.4z"/>
	<path fill="#CDC933" d="M888,302c0.4-0.6,0.8-1.2,1.2-1.7C888.8,300.8,888.4,301.4,888,302z"/>
	<path fill="#EF5832" d="M821,183c2.1,1.7,4.1,3.4,6.2,5.1c-2.1,1.5-4.1,2.9-6.2,4.4C821,189.3,821,186.2,821,183z"/>
	<path fill="#EF5832" d="M819.7,193.3c-1.1,1-2.3,2.1-3.4,3.1C817.5,195.3,818.6,194.3,819.7,193.3z"/>
	<path fill="#EF5832" d="M828.1,187.6c0.2-0.3,0.4-0.4,0.7-0.5C828.6,187.2,828.4,187.4,828.1,187.6z"/>
</g>
</svg>
