<?xml version="1.0" encoding="UTF-8"?>
<svg version="1.1" xmlns="http://www.w3.org/2000/svg" width="814" height="658">
<path d="M0 0 C5.18183041 0.01543053 10.36363637 0.00731399 15.54548001 0.00231326 C25.65485843 -0.00386554 35.76409817 0.01095999 45.87345003 0.03303888 C57.66538058 0.0578919 69.45728684 0.06065014 81.2492397 0.06244264 C102.28988049 0.06630609 123.33045933 0.0886872 144.37107205 0.12223208 C164.75974657 0.15471068 185.1483884 0.17592519 205.53708768 0.18375552 C206.79510402 0.18424101 208.05312036 0.1847265 209.34925841 0.1852267 C214.40692981 0.1871557 219.46460122 0.18906783 224.52227264 0.19094281 C244.00432562 0.19848039 263.4863733 0.21410088 282.96841975 0.23143941 C288.84251957 0.23666675 294.71661929 0.24160023 300.59071994 0.24580133 C312.92754025 0.25473244 325.26434502 0.26655691 337.60115169 0.28736737 C342.69852187 0.29593595 347.79588146 0.30303802 352.89325833 0.30588305 C357.56457663 0.30856671 362.23586433 0.31590256 366.90717031 0.32687352 C368.59096868 0.33005631 370.27477114 0.33161435 371.95857249 0.33132323 C384.91790861 0.33060809 397.68310681 0.55897582 410.35398221 3.54142153 C411.27912625 3.75693667 412.2042703 3.97245181 413.15744901 4.1944977 C454.71153766 14.26199444 492.3023307 35.58735743 520.04148221 68.47892153 C520.66925565 69.21755435 521.29702909 69.95618716 521.94382596 70.71720278 C543.01373366 96.20970497 555.86511502 127.74785771 560.04148221 160.47892153 C560.15234159 161.32712466 560.26320096 162.17532778 560.37741971 163.04923403 C563.63736143 192.56492262 557.70158829 222.95970041 539.90085721 247.17032778 C537.11955475 250.62358357 534.17485449 253.90931189 531.15476346 257.15470278 C529.00781326 259.4531621 529.00781326 259.4531621 527.11570096 261.97501528 C524.80945769 264.7590114 522.33734384 266.94000184 519.54148221 269.22892153 C518.60304471 270.00751528 517.66460721 270.78610903 516.69773221 271.58829653 C514.21531346 273.35519458 512.9840455 274.08411442 510.04148221 274.47892153 C507.54137753 273.16510614 505.22888439 271.80222424 502.85398221 270.29142153 C495.57154205 265.88273516 488.70848003 263.80041904 480.39304471 262.23282778 C477.04148221 261.47892153 477.04148221 261.47892153 475.04148221 259.47892153 C475.56057157 259.07576724 476.07966092 258.67261294 476.61448026 258.25724185 C478.98626929 256.4148393 481.35762917 254.57188519 483.72898221 252.72892153 C484.5456033 252.09470278 485.3622244 251.46048403 486.20359159 250.80704653 C486.99958768 250.18829653 487.79558377 249.56954653 488.61570096 248.93204653 C489.38575467 248.33456606 490.15580838 247.7370856 490.94919705 247.12149966 C492.65383588 245.78324878 494.33056643 244.40950952 495.99851346 243.02579653 C498.04148221 241.47892153 498.04148221 241.47892153 500.04148221 241.47892153 C500.04148221 240.81892153 500.04148221 240.15892153 500.04148221 239.47892153 C501.53757596 238.04142153 501.53757596 238.04142153 503.47898221 236.47892153 C506.19336459 234.3336711 506.19336459 234.3336711 508.04148221 231.47892153 C508.70148221 231.47892153 509.36148221 231.47892153 510.04148221 231.47892153 C510.30960721 230.90657778 510.57773221 230.33423403 510.85398221 229.74454653 C512.08280857 227.40007519 513.46670397 225.35487215 515.04148221 223.22892153 C515.55710721 222.52251528 516.07273221 221.81610903 516.60398221 221.08829653 C517.31554471 220.29165591 517.31554471 220.29165591 518.04148221 219.47892153 C518.70148221 219.47892153 519.36148221 219.47892153 520.04148221 219.47892153 C520.30831815 218.7789606 520.57515409 218.07899966 520.85007596 217.35782778 C522.56198022 213.22119357 524.65056404 209.29554282 526.70163846 205.31876528 C530.62838733 196.9958894 530.09828858 186.92431589 527.54148221 178.22892153 C521.44610117 162.18059313 506.4320076 152.42540252 492.04148221 144.47892153 C491.06437284 143.9336481 490.08726346 143.38837466 489.08054471 142.82657778 C460.83335948 127.91174749 428.67154411 122.97161372 397.08002591 123.10469973 C395.07063744 123.10195034 393.06125042 123.09789079 391.05186689 123.09265608 C385.59896197 123.08218926 380.14622385 123.09011916 374.69332647 123.10140657 C368.78597484 123.11032342 362.8786433 123.10178369 356.97129178 123.09554446 C345.42646678 123.08609804 333.88170467 123.09261955 322.33688436 123.1048074 C312.94875197 123.11447407 303.5606351 123.1176883 294.17249799 123.11641276 C293.50314822 123.11632873 292.83379845 123.1162447 292.14416536 123.11615812 C289.4264227 123.11580582 286.70868005 123.11542179 283.9909374 123.11499254 C258.54865533 123.11103636 233.10640637 123.12370381 207.66413377 123.14451911 C185.10387308 123.16288983 162.54364411 123.16869941 139.98337674 123.1632477 C138.53429404 123.16290127 137.08521135 123.16255517 135.63612865 123.16220941 C134.91969853 123.16203842 134.2032684 123.16186742 133.46512828 123.16169125 C129.85803095 123.16083758 126.25093361 123.16001381 122.64383626 123.15922225 C121.93207033 123.15906516 121.22030439 123.15890808 120.4869698 123.15874624 C101.58415189 123.15474874 82.68133701 123.1602417 63.77852094 123.16873354 C61.74258216 123.16964049 59.70664338 123.17054614 57.67070459 123.17144877 C56.32036453 123.17204988 54.97002446 123.17265849 53.6196844 123.17327468 C43.57607621 123.17777919 33.5324749 123.17780701 23.48886609 123.17576563 C12.06046472 123.17363679 0.63209372 123.17891993 -10.79629911 123.19337919 C-16.61955941 123.20058946 -22.44277562 123.20472914 -28.26603961 123.20013583 C-33.60903088 123.19602405 -38.9519316 123.20132406 -44.29490922 123.2137619 C-46.21518484 123.21666118 -48.13546915 123.21629956 -50.0557424 123.21211883 C-66.89649582 123.17881705 -83.64868188 124.12883947 -100.14601779 127.72892153 C-101.15156711 127.9450812 -102.15711642 128.16124087 -103.19313693 128.38395083 C-129.63309902 134.29673833 -162.11781564 147.37457183 -178.08351779 170.54142153 C-182.407443 178.57394414 -183.76254649 186.57241761 -181.95851779 195.47892153 C-181.80511935 196.25622622 -181.65172091 197.03353091 -181.49367404 197.83439028 C-178.00145359 211.82609707 -168.77585862 223.85389374 -157.89601779 232.97892153 C-156.92664279 233.80392153 -155.95726779 234.62892153 -154.95851779 235.47892153 C-154.95851779 236.13892153 -154.95851779 236.79892153 -154.95851779 237.47892153 C-154.38198459 237.74986636 -153.80545138 238.02081118 -153.21144748 238.29996645 C-150.93900607 239.48913199 -148.97570336 240.82243215 -146.91164279 242.34220278 C-146.14851779 242.89972231 -145.38539279 243.45724185 -144.59914279 244.03165591 C-143.41578341 244.90273989 -143.41578341 244.90273989 -142.20851779 245.79142153 C-137.05471808 249.58375915 -131.92929247 253.22281287 -126.38332248 256.42496645 C-125.91313693 256.77277163 -125.44295138 257.12057681 -124.95851779 257.47892153 C-124.95851779 258.13892153 -124.95851779 258.79892153 -124.95851779 259.47892153 C-130.41543248 261.50694987 -135.87801003 263.5185751 -141.34645724 265.51529849 C-143.20552319 266.19670201 -145.0629689 266.88254317 -146.91872287 267.57291567 C-149.58799448 268.56505329 -152.26270487 269.54103427 -154.93898654 270.51407778 C-155.76625751 270.82547198 -156.59352847 271.13686617 -157.44586825 271.45769656 C-164.77114445 274.0892643 -164.77114445 274.0892643 -168.95851779 272.47892153 C-171.1407933 270.9362785 -173.08719894 269.41966062 -175.08351779 267.66642153 C-175.64973849 267.17504702 -176.2159592 266.68367251 -176.7993381 266.17740786 C-195.78472029 249.39919587 -209.57409656 228.18405238 -211.95851779 202.47892153 C-214.39144712 153.43714859 -203.35300872 110.3828589 -173.19191623 71.1295563 C-172.06176057 69.61708948 -171.0058305 68.04989059 -169.95851779 66.47892153 C-169.29851779 66.47892153 -168.63851779 66.47892153 -167.95851779 66.47892153 C-167.69079562 65.88740298 -167.42307345 65.29588442 -167.14723849 64.68644106 C-165.15242952 60.98197141 -162.1145199 58.29697301 -159.14601779 55.35392153 C-158.13668185 54.35195742 -158.13668185 54.35195742 -157.10695529 53.32975161 C-151.10799851 47.46848275 -144.81821492 42.31557559 -137.95851779 37.47892153 C-137.40293185 37.07898989 -136.84734591 36.67905825 -136.27492404 36.26700747 C-120.85880531 25.2292762 -103.96815547 16.4067383 -85.95851779 10.47892153 C-85.2347092 10.22803774 -84.5109006 9.97715395 -83.76515841 9.71866763 C-56.29246721 0.2390668 -28.70218562 -0.11040196 0 0 Z " fill="#01432A" transform="translate(238.9585177898407,14.52107846736908)"/>
<path d="M0 0 C0.66 0 1.32 0 2 0 C2.08564209 0.73637695 2.17128418 1.47275391 2.25952148 2.23144531 C2.64948539 5.57128469 3.04344826 8.91064056 3.4375 12.25 C3.57220703 13.40886719 3.70691406 14.56773437 3.84570312 15.76171875 C3.97783203 16.87675781 4.10996094 17.99179687 4.24609375 19.140625 C4.36654053 20.16704102 4.4869873 21.19345703 4.61108398 22.25097656 C4.93963924 24.57334451 5.40056451 26.73791194 6 29 C6.78331904 33.46491853 6.93058974 35.65891917 4.30859375 39.4375 C2.7415832 41.26885841 1.16388548 43.09110279 -0.421875 44.90625 C-11.35054612 57.66460814 -19.23737264 74.9708789 -18.39453125 91.9453125 C-17.11032663 101.8883621 -12.55378032 109.80476752 -5.6875 117 C-4.95358032 117.78080933 -4.95358032 117.78080933 -4.20483398 118.57739258 C-2.8090357 120.05710012 -1.40477412 121.52881105 0 123 C0.91652344 123.99580078 0.91652344 123.99580078 1.8515625 125.01171875 C26.68052566 151.24724879 67.46828592 167.52197984 103.11952747 169.09342512 C105.26661189 169.12793787 107.41172318 169.13458361 109.55907536 169.12863445 C110.37508578 169.13038749 111.1910962 169.13214053 112.03183421 169.13394669 C114.75366705 169.13858164 117.47544588 169.13614767 120.19728088 169.13371277 C122.17354991 169.13558201 124.14981858 169.13788316 126.12608665 169.14057809 C131.54762233 169.14668863 136.96914257 169.14656337 142.39068091 169.14538372 C148.24160157 169.14517952 154.09251731 169.15070033 159.94343567 169.15544128 C171.40378801 169.16374461 182.86413521 169.16649599 194.32449032 169.16705366 C203.64240826 169.16752903 212.96032463 169.1695742 222.27824211 169.17275429 C224.96279126 169.17365187 227.64734042 169.17454168 230.33188957 169.17542917 C230.99932942 169.17565021 231.66676928 169.17587126 232.35443458 169.17609901 C251.12391398 169.18225168 269.89339281 169.18619974 288.66287327 169.18575573 C289.7239362 169.18573236 289.7239362 169.18573236 290.80643474 169.18570852 C294.39149355 169.18562542 297.97655237 169.18552638 301.56161118 169.18542381 C302.27358201 169.18540387 302.98555283 169.18538392 303.71909853 169.18536337 C305.15887754 169.18532294 306.59865655 169.18528114 308.03843556 169.18523798 C330.42870637 169.18462551 352.81896204 169.19212724 375.20922852 169.20581055 C400.38108687 169.22118752 425.55293527 169.22977577 450.72479862 169.22884732 C453.41154826 169.2287727 456.09829789 169.22872399 458.78504753 169.22869301 C459.44656249 169.22868135 460.10807745 169.2286697 460.78963832 169.22865769 C470.75621856 169.22862888 480.72278677 169.23396537 490.68936348 169.24202538 C502.03328208 169.25114053 513.37717584 169.25329732 524.72109652 169.24651595 C530.50529471 169.24325572 536.28944528 169.2431761 542.07363892 169.2518692 C547.37684141 169.25975719 552.6799587 169.25827934 557.98315918 169.24958507 C559.89366055 169.24805512 561.80416836 169.24984702 563.71466214 169.25544515 C603.09921625 169.36313382 638.57579788 157.69482894 669 132.3125 C669.52819336 131.87309082 670.05638672 131.43368164 670.60058594 130.98095703 C673.24833505 128.71400207 675.57552903 126.3789046 677.75 123.66796875 C678.4925 122.78753906 679.235 121.90710938 680 121 C680.66 121 681.32 121 682 121 C682.26167969 120.43152344 682.52335938 119.86304688 682.79296875 119.27734375 C684.09352479 116.82354385 685.63198052 114.77214092 687.3125 112.5625 C694.31049644 102.62797479 698.27494466 91.41994704 696.4375 79.28515625 C693.5202588 64.80541891 685.85441426 48.33154875 673.7265625 39.30859375 C670.9218925 35.55845807 671.75876852 31.76337082 672.125 27.25 C672.18486084 26.32292236 672.24472168 25.39584473 672.30639648 24.44067383 C672.87523503 16.25263322 673.81689397 8.12093168 675 0 C679.16741523 1.39161902 681.79416663 3.33207679 685 6.3125 C685.825 7.07175781 686.65 7.83101563 687.5 8.61328125 C710.18046872 30.26604123 725.44196007 56.43855069 726.203125 88.38671875 C726.3616073 103.20684523 725.83231537 117.44085111 723 132 C722.86609863 132.72509766 722.73219727 133.45019531 722.59423828 134.19726562 C717.02982097 163.631347 702.41323109 190.94446092 682.0625 212.78515625 C680.06168122 214.93376278 678.15299818 217.1397974 676.25 219.375 C673.71569292 222.2888692 671.07710962 224.6516795 668 227 C667.25234375 227.75796875 666.5046875 228.5159375 665.734375 229.296875 C645.50624248 249.29382886 618.14553357 263.26306206 591 271 C589.78763672 271.34587158 589.78763672 271.34587158 588.55078125 271.69873047 C586.01866194 272.40585914 583.48083655 273.08441023 580.9375 273.75 C580.19556396 273.94891846 579.45362793 274.14783691 578.68920898 274.3527832 C564.55713443 277.86958322 550.12506015 278.29601758 535.64517212 278.26069641 C533.85800117 278.26372488 532.07083152 278.26761781 530.28366411 278.27228898 C525.42185049 278.28248801 520.56011127 278.28040804 515.69829178 278.27610838 C510.43572971 278.27362634 505.17318489 278.2826735 499.91062927 278.29014587 C489.62011296 278.30285359 479.32962279 278.30469152 469.03909995 278.30234561 C460.6701003 278.30055806 452.30110854 278.30232144 443.93210983 278.30657005 C442.73816748 278.30716524 441.54422513 278.30776043 440.3141027 278.30837366 C437.88813667 278.30958548 435.46217065 278.31079962 433.03620462 278.31201603 C410.31875087 278.32287623 387.60131199 278.32073616 364.88385741 278.31463119 C344.13050547 278.30946215 323.37720047 278.32071987 302.62385781 278.33972941 C281.2784192 278.35913039 259.93300277 278.36735992 238.58755529 278.36360615 C226.61805321 278.3616977 214.64859108 278.36414701 202.67909622 278.37832069 C192.49047035 278.39026423 182.30190903 278.39160604 172.11328222 278.37953053 C166.92203521 278.37366299 161.73090612 278.37248329 156.53966713 278.38453293 C151.77505393 278.39546321 147.01065609 278.39220444 142.24605267 278.37827124 C140.53492865 278.37564386 138.82378735 278.37792818 137.11268039 278.38600711 C89.00527766 278.5971341 43.07433057 258.47902807 8.47949219 225.41210938 C7.4983516 224.4756544 6.51204753 223.54457769 5.52050781 222.61914062 C-22.75694765 196.18708272 -40.22517305 160.05569413 -46 122 C-46.18433594 120.84757812 -46.36867188 119.69515625 -46.55859375 118.5078125 C-47.34896677 111.91792854 -47.24437912 105.25335421 -47.25 98.625 C-47.25067474 97.91135284 -47.25134949 97.19770569 -47.25204468 96.46243286 C-47.20195486 63.09746549 -36.45894735 36.01749372 -13 12 C-11.22857687 10.38153107 -9.4266634 8.83211748 -7.5703125 7.3125 C-5.22445977 5.35178727 -3.12938255 3.19201145 -1 1 C-0.67 0.67 -0.34 0.34 0 0 Z " fill="#01432A" transform="translate(74,364)"/>
<path d="M0 0 C0.60457031 0.474375 1.20914062 0.94875 1.83203125 1.4375 C5.10690294 4.09056061 8.06797011 6.98173393 11 10 C15.1707211 8.69238908 19.01163393 7.10243339 22.9375 5.1875 C52.4893568 -8.57868386 80.88416201 -6.84322621 111 4 C112.54046631 4.59064679 114.07829687 5.18821834 115.61328125 5.79296875 C116.34272949 6.07873779 117.07217773 6.36450684 117.82373047 6.65893555 C119.19770268 7.2056362 120.56575471 7.76754427 121.92626953 8.34692383 C125.46983949 9.77902284 125.46983949 9.77902284 129.19140625 9.46875 C131.13733495 7.99550918 131.13733495 7.99550918 132.828125 5.70703125 C135.46114259 2.42523055 138.36510615 0.15204059 141.75 -2.3125 C142.40468262 -2.78961426 143.05936523 -3.26672852 143.73388672 -3.75830078 C166.7356074 -20.06006671 194.54467264 -26.17336091 222 -30 C222.75168457 -30.10530029 223.50336914 -30.21060059 224.27783203 -30.3190918 C249.83851331 -33.37436185 276.7824231 -31.6143638 302 -27 C302.88896973 -26.84466797 303.77793945 -26.68933594 304.69384766 -26.52929688 C319.70118407 -23.80122707 334.02368982 -18.37636492 348.38304138 -13.36322021 C355.94720494 -10.72340025 363.52501411 -8.14734015 371.15234375 -5.6953125 C371.97819977 -5.4297908 372.80405579 -5.1642691 373.65493774 -4.89070129 C377.58564407 -3.63008312 381.51911165 -2.3786073 385.45507812 -1.13452148 C415.14602784 8.307734 415.14602784 8.307734 419.328125 15.18359375 C419.63234375 15.92738281 419.9365625 16.67117188 420.25 17.4375 C420.56453125 18.17871094 420.8790625 18.91992188 421.203125 19.68359375 C423.95690277 27.68844775 424.531456 37.44496927 420.94921875 45.2578125 C417.56809642 51.46349381 415.28343458 53.1675009 408.5 55.25 C407.3965625 55.54390625 406.293125 55.8378125 405.15625 56.140625 C399.33804952 57.55734462 399.33804952 57.55734462 395.25 61.5625 C392.93511999 67.92842001 392.92113979 74.67094715 392.70996094 81.39282227 C392.36942137 91.84288557 391.23296792 101.79376919 389 112 C388.83516113 112.78197754 388.67032227 113.56395508 388.50048828 114.36962891 C383.25891136 138.82223982 372.88604252 160.69477615 357 180 C356.57734863 180.52198975 356.15469727 181.04397949 355.71923828 181.58178711 C352.16657268 185.93013681 348.28796347 189.40837248 344 193 C343.17371094 193.71414063 342.34742188 194.42828125 341.49609375 195.1640625 C312.69156386 219.56615332 276.79717945 228.35020284 239.6484375 225.7265625 C196.6302541 222.01694004 162.36835036 201.76585781 134 170 C129.4169743 164.35071934 125.55610376 158.33689421 122 152 C121.61714844 151.32275879 121.23429687 150.64551758 120.83984375 149.94775391 C105.55654242 122.38322829 98.20597435 87.09651196 106.80078125 56.11328125 C107.31422354 54.68002291 107.84513673 53.25275534 108.40234375 51.8359375 C109.37762192 48.83998495 109.19927057 46.12190558 109 43 C102.47774293 40.96847731 95.91244381 39.13434826 89.3125 37.375 C88.50514404 37.15690674 87.69778809 36.93881348 86.8659668 36.71411133 C69.80216256 32.20593099 54.70936671 34.00297522 38.25 40 C37.21214355 40.37342529 37.21214355 40.37342529 36.15332031 40.75439453 C32.60557925 42.11077926 31.16339661 42.75490508 29 46 C29.29653146 50.54681566 30.43360357 54.82681876 31.5 59.25 C39.14796492 92.08028844 31.24664105 126.6773785 13.75683594 155.01416016 C7.45050786 164.92512263 0.32188138 173.72163173 -8 182 C-8.93328125 182.93328125 -9.8665625 183.8665625 -10.828125 184.828125 C-41.61270239 214.26692852 -81.06573039 226.96779195 -123.125 226.25 C-152.9093893 225.28547962 -180.83967978 213.31281134 -204 195 C-204.680625 194.46375 -205.36125 193.9275 -206.0625 193.375 C-227.44734982 175.80887336 -240.23338614 148.98117257 -248 123 C-248.28359375 122.10925781 -248.5671875 121.21851563 -248.859375 120.30078125 C-252.85918184 106.97489418 -254.30747879 93.06504763 -254.62158203 79.20556641 C-254.81673002 72.22254379 -255.23699099 64.5034768 -260 59 C-262.64159365 58.00503852 -265.03052426 57.27562477 -267.75 56.625 C-274.28423229 54.80827492 -279.29298369 53.0572162 -283 47 C-287.83363192 37.05048028 -285.81793565 27.31587897 -283 17 C-280.12507444 10.00018125 -273.54850222 7.96274332 -267 5 C-262.73153001 3.33886648 -258.41181262 1.87170983 -254.0625 0.4375 C-247.6085691 -1.72153493 -241.19303211 -3.8968274 -234.8671875 -6.41015625 C-226.41129546 -9.69831218 -217.75232938 -12.28610274 -209.0625 -14.875 C-208.18428589 -15.13667969 -207.30607178 -15.39835937 -206.40124512 -15.66796875 C-184.22552189 -22.24717115 -162.27580285 -27.8314398 -139.25 -30.4375 C-138.51535522 -30.52185303 -137.78071045 -30.60620605 -137.02380371 -30.69311523 C-91.25479224 -35.80803599 -37.11888683 -29.24136416 0 0 Z M-200 26 C-216.45513704 44.0577243 -223.78768861 64.90968473 -223.21875 89.11328125 C-222.12707932 108.50992986 -217.47725274 126.06297824 -208 143 C-207.51789063 143.91007813 -207.03578125 144.82015625 -206.5390625 145.7578125 C-194.10965556 168.10200648 -172.33426669 183.92884329 -148.0703125 191.21875 C-115.90753144 200.32550613 -82.03321459 194.73637762 -53 179 C-45.24442291 174.53416929 -37.5188098 169.14383401 -31 163 C-31 162.34 -31 161.68 -31 161 C-29.68 160.34 -28.36 159.68 -27 159 C-27 158.34 -27 157.68 -27 157 C-26.34 157 -25.68 157 -25 157 C-23.35806567 155.16274263 -21.85992284 153.33435067 -20.375 151.375 C-19.9305957 150.79032959 -19.48619141 150.20565918 -19.02832031 149.60327148 C-2.76398294 127.74188315 6.23169439 101.91097761 2.68359375 74.56103516 C-1.28251367 51.97251315 -12.95842581 33.12746996 -31 19 C-34.23184577 16.79210536 -37.56036174 14.86461926 -41 13 C-42.35544922 12.24396484 -42.35544922 12.24396484 -43.73828125 11.47265625 C-57.77864097 4.00599675 -72.3787941 1.016255 -88 -1 C-89.25449951 -1.17273438 -90.50899902 -1.34546875 -91.80151367 -1.5234375 C-127.40875747 -5.93954354 -173.70316102 -0.71507897 -200 26 Z M196 6 C195.3930127 6.21382324 194.78602539 6.42764648 194.16064453 6.64794922 C185.43016561 9.76487757 177.59332191 13.61938177 170 19 C169.19046875 19.56332031 168.3809375 20.12664062 167.546875 20.70703125 C164.68109779 22.74033452 164.68109779 22.74033452 162 25 C162 25.66 162 26.32 162 27 C161.360625 27.268125 160.72125 27.53625 160.0625 27.8125 C157.66868314 28.88667752 157.66868314 28.88667752 157 32 C155.515 32.495 155.515 32.495 154 33 C152.42413452 34.92999255 151.01420531 36.81754355 149.625 38.875 C149.22579346 39.46361816 148.82658691 40.05223633 148.4152832 40.65869141 C135.72397373 59.79502828 131.93210979 84.43131227 135.46435547 106.96191406 C139.83729154 126.84673594 150.14633261 145.12652386 165 159 C165.78375 159.804375 166.5675 160.60875 167.375 161.4375 C168.24125 162.283125 169.1075 163.12875 170 164 C170.55300781 164.56074219 171.10601563 165.12148438 171.67578125 165.69921875 C193.02741733 186.1387461 223.15039255 195.44718939 252.1875 195.3125 C253.46326904 195.30686035 254.73903809 195.3012207 256.0534668 195.29541016 C282.07240641 194.96168574 306.44433618 186.60718282 326 169 C326.6703125 168.41089844 327.340625 167.82179688 328.03125 167.21484375 C349.75350401 146.91488018 359.9765261 116.77573596 362.16796875 87.77734375 C362.37880264 67.91679165 356.62764441 48.51396314 344 33 C343.34 33 342.68 33 342 33 C341.75765625 32.43667969 341.5153125 31.87335938 341.265625 31.29296875 C333.16953091 16.6250452 313.37947345 7.29730664 298.125 2.875 C265.87250218 -5.36520022 227.52005542 -5.32197235 196 6 Z " fill="#04442B" transform="translate(344,294)"/>
<path d="M0 0 C0.87369232 0.00141495 1.74738464 0.0028299 2.64755249 0.00428772 C5.39788453 0.00981951 8.14813068 0.02235851 10.8984375 0.03515625 C12.77994673 0.04018009 14.66145725 0.04474144 16.54296875 0.04882812 C21.11982402 0.05976646 25.69661627 0.07698263 30.2734375 0.09765625 C29.9434375 1.08765625 29.6134375 2.07765625 29.2734375 3.09765625 C24.0630731 3.12260826 18.85274445 3.14063412 13.64233398 3.15258789 C11.87442416 3.15757789 10.10651839 3.16437226 8.33862305 3.1730957 C-10.49737845 3.2636278 -10.49737845 3.2636278 -19.7265625 2.09765625 C-19.7265625 1.76765625 -19.7265625 1.43765625 -19.7265625 1.09765625 C-13.12521221 0.32748962 -6.6437672 -0.04164798 0 0 Z " fill="#5D8878" transform="translate(585.7265625,262.90234375)"/>
<path d="M0 0 C7.26 0.99 14.52 1.98 22 3 C21.67 3.66 21.34 4.32 21 5 C13.45326965 4.59722507 6.26026753 4.17808026 -1 2 C-0.67 1.34 -0.34 0.68 0 0 Z " fill="#2D4E3D" transform="translate(173,636)"/>
<path d="M0 0 C0.33 0 0.66 0 1 0 C3.29612756 14.59681093 3.29612756 14.59681093 3 22 C2.34 22 1.68 22 1 22 C0.63491323 19.45947886 0.28268543 16.9182372 -0.0625 14.375 C-0.16626953 13.66214844 -0.27003906 12.94929688 -0.37695312 12.21484375 C-0.95108834 7.89893076 -0.97103611 4.30515309 0 0 Z " fill="#576E62" transform="translate(77,379)"/>
<path d="M0 0 C4.31730413 0.47409648 6.33647461 3.03396703 9.25 6.0625 C10.14203125 6.98160156 11.0340625 7.90070313 11.953125 8.84765625 C12.62859375 9.55792969 13.3040625 10.26820312 14 11 C13.34 11.66 12.68 12.32 12 13 C10.82737096 11.88121617 9.66204862 10.75476949 8.5 9.625 C7.52546875 8.68527344 7.52546875 8.68527344 6.53125 7.7265625 C5 6 5 6 5 4 C4.360625 3.71125 3.72125 3.4225 3.0625 3.125 C1 2 1 2 0 0 Z " fill="#3B5B49" transform="translate(738,64)"/>
<path d="M0 0 C2.3129482 2.3129482 2.49580975 3.47904875 3.125 6.625 C3.29257813 7.44226563 3.46015625 8.25953125 3.6328125 9.1015625 C3.81457031 10.04128906 3.81457031 10.04128906 4 11 C3.01 11.33 2.02 11.66 1 12 C-0.41404314 8.19975907 -1.34892324 5.07077118 -1 1 C-0.67 0.67 -0.34 0.34 0 0 Z " fill="#174932" transform="translate(98,414)"/>
<path d="M0 0 C2.99220268 1.36370299 5.29026529 2.94908083 7.75 5.125 C8.67039062 5.93324219 8.67039062 5.93324219 9.609375 6.7578125 C10.06828125 7.16773438 10.5271875 7.57765625 11 8 C10.34 9.32 9.68 10.64 9 12 C7.86966702 10.75482035 6.74594964 9.50363348 5.625 8.25 C4.99851562 7.55390625 4.37203125 6.8578125 3.7265625 6.140625 C2.12494817 4.15491312 1.03479932 2.32045907 0 0 Z " fill="#2E5643" transform="translate(677,315)"/>
<path d="M0 0 C2.16874252 0.50603992 3.99967627 0.99983813 6 2 C6 2.66 6 3.32 6 4 C4.54293274 4.50367757 3.08429904 5.00282556 1.625 5.5 C0.40683594 5.91765625 0.40683594 5.91765625 -0.8359375 6.34375 C-3 7 -3 7 -5 7 C-5 6.34 -5 5.68 -5 5 C-3.35 4.34 -1.7 3.68 0 3 C0 2.01 0 1.02 0 0 Z " fill="#224835" transform="translate(108,270)"/>
<path d="M0 0 C-0.33 0.66 -0.66 1.32 -1 2 C-0.34 2.33 0.32 2.66 1 3 C-5.0546875 3.9765625 -5.0546875 3.9765625 -7 4 C-7.66 3.34 -8.32 2.68 -9 2 C-5.96271914 -1.03728086 -4.06215635 -1.35405212 0 0 Z " fill="#1A4C36" transform="translate(723,272)"/>
<path d="M0 0 C3.21524305 1.40844718 5.32183868 3.10344786 7.75 5.625 C8.67039062 6.57246094 8.67039062 6.57246094 9.609375 7.5390625 C10.29773438 8.26222656 10.29773438 8.26222656 11 9 C10.34 9.66 9.68 10.32 9 11 C7.68141572 9.73548068 6.37032369 8.46314525 5.0625 7.1875 C4.33160156 6.47980469 3.60070313 5.77210938 2.84765625 5.04296875 C1 3 1 3 0 0 Z " fill="#355545" transform="translate(50,267)"/>
<path d="M0 0 C0.67095703 0.58007812 0.67095703 0.58007812 1.35546875 1.171875 C4.8521026 4.18390075 8.37407463 7.14321031 12 10 C11.34 11.32 10.68 12.64 10 14 C9.29423828 13.07767578 9.29423828 13.07767578 8.57421875 12.13671875 C7.95160156 11.32847656 7.32898438 10.52023438 6.6875 9.6875 C6.07261719 8.88699219 5.45773437 8.08648437 4.82421875 7.26171875 C3.0971954 5.0242888 3.0971954 5.0242888 1.26953125 3.33203125 C0 2 0 2 0 0 Z " fill="#214533" transform="translate(753,172)"/>
<path d="M0 0 C3.39192363 0.59283621 5.2107757 1.76743189 7.75 4.0625 C8.67039063 4.88427734 8.67039063 4.88427734 9.609375 5.72265625 C10.29773438 6.35494141 10.29773438 6.35494141 11 7 C10.34 7.66 9.68 8.32 9 9 C7.49704815 7.69088122 5.99770689 6.37761608 4.5 5.0625 C3.6646875 4.33160156 2.829375 3.60070312 1.96875 2.84765625 C1.3190625 2.23792969 0.669375 1.62820313 0 1 C0 0.67 0 0.34 0 0 Z " fill="#416252" transform="translate(133,482)"/>
<path d="M0 0 C-1 2 -1 2 -2.84765625 2.6328125 C-3.57855469 2.79523437 -4.30945313 2.95765625 -5.0625 3.125 C-5.79597656 3.29257812 -6.52945313 3.46015625 -7.28515625 3.6328125 C-7.85105469 3.75398437 -8.41695312 3.87515625 -9 4 C-9.33 3.01 -9.66 2.02 -10 1 C-3.71428571 -1.42857143 -3.71428571 -1.42857143 0 0 Z " fill="#1D4D37" transform="translate(700,525)"/>
<path d="M0 0 C0.66 0.33 1.32 0.66 2 1 C-0.31 3.64 -2.62 6.28 -5 9 C-5.66 8.01 -6.32 7.02 -7 6 C-4.69 4.02 -2.38 2.04 0 0 Z " fill="#1E4634" transform="translate(746,494)"/>
<path d="M0 0 C-0.33 0.99 -0.66 1.98 -1 3 C-4.61642624 4.6691198 -8.20574012 3.65669883 -12 3 C-12 2.67 -12 2.34 -12 2 C-10.56342755 1.66269158 -9.12569907 1.33030409 -7.6875 1 C-6.88699219 0.814375 -6.08648437 0.62875 -5.26171875 0.4375 C-3 0 -3 0 0 0 Z " fill="#2A5440" transform="translate(180,268)"/>
<path d="M0 0 C2.93200474 2.85276137 5.64315404 5.65079784 8 9 C7.01 9 6.02 9 5 9 C0 3.76744186 0 3.76744186 0 0 Z " fill="#254A37" transform="translate(121,466)"/>
<path d="M0 0 C6.0546875 -0.1953125 6.0546875 -0.1953125 8 0 C8.66 0.66 9.32 1.32 10 2 C6.33694766 2.74926071 3.57644848 3.2380014 0 2 C0 1.34 0 0.68 0 0 Z " fill="#22503B" transform="translate(725,276)"/>
<path d="M0 0 C1.32 0.33 2.64 0.66 4 1 C2.7260411 3.03833424 1.38938077 5.03852126 0 7 C-0.66 7 -1.32 7 -2 7 C-2 5.35 -2 3.7 -2 2 C-1.34 2 -0.68 2 0 2 C0 1.34 0 0.68 0 0 Z " fill="#2C5643" transform="translate(779,255)"/>
<path d="M0 0 C0.66 0.99 1.32 1.98 2 3 C1.01 4.32 0.02 5.64 -1 7 C-2.32 6.67 -3.64 6.34 -5 6 C-3.625 4 -3.625 4 -2 2 C-1.34 2 -0.68 2 0 2 C0 1.34 0 0.68 0 0 Z " fill="#23513C" transform="translate(71,79)"/>
<path d="M0 0 C3.7952131 1.49097658 5.61042731 3.75700849 8 7 C5 7 5 7 2.3125 4.625 C0 2 0 2 0 0 Z " fill="#4C6556" transform="translate(502,447)"/>
<path d="M0 0 C1.83836919 3.67673838 2.93651813 7.04992447 4 11 C2.68 10.34 1.36 9.68 0 9 C0 6.03 0 3.06 0 0 Z " fill="#1A4634" transform="translate(126,414)"/>
<path d="M0 0 C0.33 0 0.66 0 1 0 C1.38897161 1.62171239 1.76078298 3.24754925 2.125 4.875 C2.33382812 5.77992188 2.54265625 6.68484375 2.7578125 7.6171875 C2.83773437 8.40351563 2.91765625 9.18984375 3 10 C2.34 10.66 1.68 11.32 1 12 C-0.47075246 7.58774263 -1.36884358 4.51718381 0 0 Z " fill="#365948" transform="translate(94,401)"/>
<path d="M0 0 C0.66 0 1.32 0 2 0 C4 6.625 4 6.625 4 10 C2 8.9375 2 8.9375 0 7 C-0.25 3.3125 -0.25 3.3125 0 0 Z " fill="#4F6556" transform="translate(746,394)"/>
<path d="M0 0 C2.93200474 2.85276137 5.64315404 5.65079784 8 9 C7.01 9 6.02 9 5 9 C3.61328125 7.5390625 3.61328125 7.5390625 2.3125 5.625 C1.65701172 4.68527344 1.65701172 4.68527344 0.98828125 3.7265625 C0 2 0 2 0 0 Z " fill="#1F422F" transform="translate(42,256)"/>
<path d="M0 0 C0 0.99 0 1.98 0 3 C-0.66 3 -1.32 3 -2 3 C-2.33 3.99 -2.66 4.98 -3 6 C-4.32 6 -5.64 6 -7 6 C-7 5.34 -7 4.68 -7 4 C-4.69 2.68 -2.38 1.36 0 0 Z " fill="#234937" transform="translate(115,43)"/>
<path d="M0 0 C0 3 0 3 -1 6 C-4.0625 7.1875 -4.0625 7.1875 -7 8 C-6.02133662 6.85373678 -5.04205413 5.70800212 -4.0625 4.5625 C-3.51722656 3.92441406 -2.97195312 3.28632813 -2.41015625 2.62890625 C-1.63204305 1.73008851 -0.84063472 0.84063472 0 0 Z " fill="#3E6050" transform="translate(61,376)"/>
<path d="M0 0 C3.36720387 1.39332574 4.9859524 2.9789286 7 6 C4 6 4 6 1.8125 4.125 C0 2 0 2 0 0 Z " fill="#2D5140" transform="translate(71,486)"/>
<path d="M0 0 C-0.33 0.99 -0.66 1.98 -1 3 C-3.64 3 -6.28 3 -9 3 C-7.14340032 -0.71319936 -3.69365381 -0.09982848 0 0 Z " fill="#103824" transform="translate(633,485)"/>
<path d="M0 0 C0.92538169 3.70152678 1.08174162 4.63458162 0 8 C-1.32 8.33 -2.64 8.66 -4 9 C-2.68 6.03 -1.36 3.06 0 0 Z " fill="#264E39" transform="translate(693,430)"/>
<path d="M0 0 C0.66 0.33 1.32 0.66 2 1 C1.34 2.98 0.68 4.96 0 7 C-0.99 6.67 -1.98 6.34 -3 6 C-3.33 5.01 -3.66 4.02 -4 3 C-2.68 2.01 -1.36 1.02 0 0 Z " fill="#346450" transform="translate(74,364)"/>
<path d="M0 0 C1.98 0.99 1.98 0.99 4 2 C3.34 4.31 2.68 6.62 2 9 C1.67 9 1.34 9 1 9 C0.67 6.03 0.34 3.06 0 0 Z " fill="#0F402B" transform="translate(749,364)"/>
<path d="M0 0 C0.33 0.99 0.66 1.98 1 3 C-3.75 7 -3.75 7 -6 7 C-6 6.34 -6 5.68 -6 5 C-4.04072937 3.2856382 -2.04119788 1.61594832 0 0 Z " fill="#3A5849" transform="translate(761,341)"/>
<path d="M0 0 C2 2 2 2 2 5 C1.34 5 0.68 5 0 5 C-0.33 5.99 -0.66 6.98 -1 8 C-1.93065133 5.39417629 -2.14917407 4.35801776 -1.0625 1.75 C-0.711875 1.1725 -0.36125 0.595 0 0 Z " fill="#1E4933" transform="translate(35,144)"/>
<path d="M0 0 C3.25543229 0.34879632 4.01873107 1.02133261 6.25 3.5625 C6.8275 4.366875 7.405 5.17125 8 6 C7.01 6 6.02 6 5 6 C5 5.34 5 4.68 5 4 C4.360625 3.71125 3.72125 3.4225 3.0625 3.125 C1 2 1 2 0 0 Z " fill="#466452" transform="translate(738,64)"/>
<path d="M0 0 C2.64752004 2.57784846 4.94432065 4.91648098 7 8 C6.01 8.495 6.01 8.495 5 9 C4.16094435 7.87926138 3.32892169 6.75325453 2.5 5.625 C2.0359375 4.99851562 1.571875 4.37203125 1.09375 3.7265625 C0 2 0 2 0 0 Z " fill="#1D3E2B" transform="translate(64,567)"/>
<path d="M0 0 C0.99 0 1.98 0 3 0 C2.3125 1.9375 2.3125 1.9375 1 4 C-1.625 4.75 -1.625 4.75 -4 5 C-3.34 4.67 -2.68 4.34 -2 4 C-0.86649466 1.98330173 -0.86649466 1.98330173 0 0 Z " fill="#325A48" transform="translate(321,447)"/>
<path d="" fill="#E7F9F2" transform="translate(0,0)"/>
</svg>
