<?xml version="1.0" encoding="UTF-8"?>
<svg version="1.1" xmlns="http://www.w3.org/2000/svg" width="613" height="679">
<path d="M0 0 C2.25 1.9375 2.25 1.9375 3.25 4.9375 C4.24 4.9375 5.23 4.9375 6.25 4.9375 C7.28435556 6.58306566 8.27763513 8.2545608 9.25 9.9375 C10.136875 10.80375 11.02375 11.67 11.9375 12.5625 C14.25 14.9375 14.25 14.9375 14.25 17.9375 C14.73191777 19.25267731 15.23066298 20.56171448 15.73828125 21.8671875 C18.35126908 30.31907406 17.56290232 39.31430817 17.4375 48.0625 C17.4224276 49.89582235 17.40874371 51.72915668 17.39648438 53.5625 C17.36367723 58.02113256 17.31203596 62.47918224 17.25 66.9375 C18.09932098 66.91022324 18.94864197 66.88294647 19.82369995 66.85484314 C31.25654581 66.49346252 42.69029538 66.17169632 54.125 65.875 C55.072612 65.85038948 56.020224 65.82577896 56.99655151 65.80042267 C93.92246486 64.85602016 130.81606825 64.91998039 167.75 65.3125 C169.03786156 65.32616985 170.32572311 65.33983971 171.65261078 65.3539238 C187.51872631 65.52451899 203.38447257 65.71911117 219.25 65.9375 C219.22905273 64.78338623 219.20810547 63.62927246 219.18652344 62.44018555 C219.11348973 58.11088736 219.06797251 53.78164231 219.03027344 49.4519043 C219.01030105 47.58690193 218.98311332 45.72196102 218.94824219 43.85717773 C218.56206047 22.65693733 218.56206047 22.65693733 223.25 14.9375 C224.5588545 13.58012922 225.89013267 12.24376047 227.25 10.9375 C228.48512079 8.80440808 228.48512079 8.80440808 229.25 6.9375 C229.91 6.9375 230.57 6.9375 231.25 6.9375 C231.25 6.2775 231.25 5.6175 231.25 4.9375 C231.91 4.9375 232.57 4.9375 233.25 4.9375 C233.25 4.2775 233.25 3.6175 233.25 2.9375 C244.24819848 -3.99676467 255.26608466 -7.64284773 268.25 -5.0625 C273.89756612 -3.44129841 278.39578562 -1.63045778 282.25 2.9375 C283.11625 3.618125 283.9825 4.29875 284.875 5 C287.25 6.9375 287.25 6.9375 289.25 9.9375 C289.91 10.576875 290.57 11.21625 291.25 11.875 C293.15150019 13.83592207 294.18354956 15.44911563 295.25 17.9375 C294.59 17.9375 293.93 17.9375 293.25 17.9375 C293.57597168 18.55391357 293.90194336 19.17032715 294.23779297 19.80541992 C295.67236079 24.24441428 295.49639745 28.41548254 295.4453125 33.05078125 C295.44106766 34.50510811 295.44106766 34.50510811 295.43673706 35.98881531 C295.42556991 39.07600405 295.40047152 42.16289939 295.375 45.25 C295.36496573 47.34700101 295.35584066 49.44400658 295.34765625 51.54101562 C295.32564188 56.6732896 295.29113571 61.8053451 295.25 66.9375 C295.86815079 66.92639694 296.48630157 66.91529388 297.1231842 66.90385437 C303.62958134 66.79216441 310.13570085 66.71738415 316.64282227 66.6628418 C319.06253137 66.6378897 321.48216662 66.60391561 323.90161133 66.56030273 C343.21782206 66.22114184 357.99606549 67.72972163 374.25 78.9375 C375.26388686 79.92341756 376.26785294 80.91996025 377.25 81.9375 C377.930625 82.246875 378.61125 82.55625 379.3125 82.875 C381.7376123 84.20490029 382.03737199 85.51224398 383.25 87.9375 C384.178125 88.4015625 384.178125 88.4015625 385.125 88.875 C387.98948657 90.30724329 389.29400903 92.43138657 391.25 94.9375 C391.971875 95.47375 392.69375 96.01 393.4375 96.5625 C395.25 97.9375 395.25 97.9375 396.25 100.9375 C397.24 101.5975 398.23 102.2575 399.25 102.9375 C399.58 103.9275 399.91 104.9175 400.25 105.9375 C400.91 105.9375 401.57 105.9375 402.25 105.9375 C402.3428125 107.2678125 402.3428125 107.2678125 402.4375 108.625 C402.94942992 112.32721786 404.20840236 115.48746792 405.625 118.9375 C410.94468557 132.42934703 411.68987374 145.33847878 411.63095093 159.64146423 C411.63441453 161.49092034 411.63918378 163.34037438 411.64513266 165.18982416 C411.65757591 170.23300626 411.65150287 175.27601652 411.64217401 180.31919897 C411.63535628 185.77329149 411.64587823 191.22735549 411.65411377 196.68144226 C411.66742459 207.35090785 411.66458511 218.02030998 411.65587585 228.68977802 C411.64908891 237.36491774 411.64818695 246.04003973 411.6514473 254.71518135 C411.651907 255.95189127 411.65236669 257.18860119 411.65284032 258.46278717 C411.65379954 260.97548846 411.65477218 263.48818975 411.6557581 266.00089104 C411.6640609 288.86947209 411.65546368 311.73802451 411.63973031 334.60659945 C411.62549661 355.45381591 411.62676729 376.30097738 411.64111328 397.14819336 C411.65720061 420.60392762 411.66347867 444.05963564 411.65427649 467.5153752 C411.65332089 470.01891775 411.65237778 472.52246032 411.6514473 475.02600288 C411.65098447 476.25764807 411.65052164 477.48929326 411.65004479 478.75826104 C411.64745971 487.41768975 411.65181552 496.0770989 411.65888596 504.73652458 C411.6673195 515.29712201 411.66498194 525.85765257 411.64904372 536.41824239 C411.64118571 541.80149953 411.63802711 547.18464541 411.64799118 552.56790161 C411.65699003 557.50452942 411.65192045 562.44094376 411.63605852 567.37755246 C411.63273255 569.15462926 411.634355 570.93172443 411.64168589 572.70878922 C411.73691145 597.72944341 406.34489611 620.90062471 388.58203125 639.6015625 C387.81246094 640.37242187 387.04289063 641.14328125 386.25 641.9375 C385.49074219 642.70835937 384.73148438 643.47921875 383.94921875 644.2734375 C365.09181343 662.35926322 341.60341099 666.25931741 316.4006958 666.19819641 C314.61967648 666.20122199 312.83865845 666.20511351 311.0576427 666.20978898 C306.19433214 666.22002535 301.33109567 666.21789832 296.46777916 666.21360838 C291.21063833 666.21113319 285.95351497 666.22016518 280.69638062 666.22764587 C270.40866089 666.24037313 260.12096729 666.24218901 249.83324102 666.23984561 C241.46746565 666.23805999 233.10169819 666.23981732 224.73592377 666.24407005 C223.54363737 666.24466524 222.35135097 666.24526043 221.12293468 666.24587366 C218.70050806 666.24708545 216.27808143 666.24829959 213.85565481 666.24951603 C191.15497059 666.26038408 168.45430124 666.25823263 145.75361618 666.25213119 C125.00835859 666.24696334 104.26314797 666.2582153 83.51789966 666.27722941 C62.19293756 666.2966243 40.86799766 666.30486086 19.54302669 666.30110615 C7.58023581 666.29919654 -4.3825151 666.3016583 -16.34529877 666.31582069 C-26.53005305 666.32775655 -36.71474275 666.32911471 -46.89949796 666.31703053 C-52.09046937 666.31115718 -57.28132279 666.30999951 -62.47228622 666.32203293 C-67.23448729 666.33294361 -71.99647261 666.3297272 -76.7586638 666.31577124 C-78.47121768 666.31313851 -80.18378875 666.31544549 -81.89632568 666.32350711 C-101.77942673 666.41052566 -119.64811207 663.19816776 -136.9609375 652.953125 C-138.85189051 651.8139074 -138.85189051 651.8139074 -141.5 650.9375 C-147.49716183 648.27209474 -154.79798736 639.84152528 -157.75 633.9375 C-158.41 633.6075 -159.07 633.2775 -159.75 632.9375 C-160.08 631.9475 -160.41 630.9575 -160.75 629.9375 C-161.34683594 629.38191406 -161.94367188 628.82632813 -162.55859375 628.25390625 C-165.50402966 625.14045973 -167.0410248 621.74641055 -168.8125 617.875 C-169.33855835 616.73816772 -169.33855835 616.73816772 -169.87524414 615.57836914 C-174.8233365 604.63674728 -176.90979803 593.97073474 -176.88422108 581.97558022 C-176.88657331 581.21197404 -176.88892554 580.44836786 -176.89134905 579.66162211 C-176.89798705 577.11201614 -176.89758241 574.56246175 -176.89717102 572.0128479 C-176.90047289 570.16261098 -176.90419913 568.31237478 -176.9083125 566.46213949 C-176.91830386 561.38425603 -176.92204467 556.30638439 -176.92470181 551.2284925 C-176.92861335 545.74902329 -176.93819106 540.26956336 -176.94691467 534.7901001 C-176.96665458 521.56075316 -176.97674194 508.33140548 -176.98564246 495.1020475 C-176.99002922 488.86718863 -176.99539501 482.63233059 -177.00063133 476.39747238 C-177.01764077 455.66329184 -177.03215899 434.92911176 -177.03938007 414.19492531 C-177.03985482 412.85490917 -177.04033071 411.51489303 -177.04080774 410.17487689 C-177.04104411 409.51037952 -177.04128049 408.84588214 -177.04152403 408.16124849 C-177.04272517 404.79483623 -177.04394064 401.42842397 -177.04516602 398.06201172 C-177.04540617 397.39394926 -177.04564632 396.7258868 -177.04589374 396.03758003 C-177.05378176 374.39101993 -177.0772047 352.74451472 -177.10972196 331.09797858 C-177.14407277 308.18884101 -177.16373496 285.27972555 -177.16702431 262.37056005 C-177.1691866 249.89176653 -177.17789412 237.41305368 -177.20348549 224.93428421 C-177.22523304 214.30550034 -177.23322293 203.67681676 -177.22351871 193.04801317 C-177.21898586 187.63008631 -177.22080112 182.21236619 -177.24028015 176.79446793 C-177.25799716 171.82349191 -177.25684532 166.85287215 -177.24138286 161.88189189 C-177.2390197 160.09446963 -177.24326233 158.30702214 -177.25521151 156.51963826 C-177.34845303 141.63682162 -176.02720069 126.24816163 -168.75 112.9375 C-168.32332031 112.11378906 -167.89664063 111.29007812 -167.45703125 110.44140625 C-164.08660999 104.10580499 -164.08660999 104.10580499 -161.75 102.9375 C-160.7293645 100.96096782 -160.7293645 100.96096782 -159.9375 98.9375 C-158.75 96.9375 -158.75 96.9375 -156.75 96 C-153.98522314 94.53121229 -153.8441202 92.80956552 -152.75 89.9375 C-150.41132095 87.22161465 -149.18018282 86.08089427 -145.75 84.9375 C-144.925 84.1125 -144.1 83.2875 -143.25 82.4375 C-140.75 79.9375 -140.75 79.9375 -137.75 78.9375 C-137.09 78.36 -136.43 77.7825 -135.75 77.1875 C-114.33907574 61.1293068 -83.72331595 64.62811558 -58.75 65.9375 C-58.7814209 64.16088989 -58.7814209 64.16088989 -58.81347656 62.34838867 C-58.8864867 57.90727069 -58.93201923 53.46620451 -58.96972656 49.0246582 C-58.98970419 47.11115566 -59.01689599 45.19771308 -59.05175781 43.28442383 C-59.28084565 30.3780196 -59.35620503 18.42631238 -50.75 7.9375 C-49.42479497 7.25481862 -48.09187818 6.5867959 -46.75 5.9375 C-46.193125 4.7928125 -46.193125 4.7928125 -45.625 3.625 C-42.05504605 -1.49193399 -35.56266311 -3.69975269 -29.6875 -5.375 C-19.34943659 -7.18005869 -9.0791486 -5.66626382 0 0 Z " fill="#FAFAFA" transform="translate(191.75,7.0625)"/>
<path d="M0 0 C2.25 1.9375 2.25 1.9375 3.25 4.9375 C4.24 4.9375 5.23 4.9375 6.25 4.9375 C7.28435556 6.58306566 8.27763513 8.2545608 9.25 9.9375 C10.136875 10.80375 11.02375 11.67 11.9375 12.5625 C14.25 14.9375 14.25 14.9375 14.25 17.9375 C14.73191777 19.25267731 15.23066298 20.56171448 15.73828125 21.8671875 C18.35126908 30.31907406 17.56290232 39.31430817 17.4375 48.0625 C17.4224276 49.89582235 17.40874371 51.72915668 17.39648438 53.5625 C17.36367723 58.02113256 17.31203596 62.47918224 17.25 66.9375 C18.09932098 66.91022324 18.94864197 66.88294647 19.82369995 66.85484314 C31.25654581 66.49346252 42.69029538 66.17169632 54.125 65.875 C55.072612 65.85038948 56.020224 65.82577896 56.99655151 65.80042267 C93.92246486 64.85602016 130.81606825 64.91998039 167.75 65.3125 C169.03786156 65.32616985 170.32572311 65.33983971 171.65261078 65.3539238 C187.51872631 65.52451899 203.38447257 65.71911117 219.25 65.9375 C219.22905273 64.78338623 219.20810547 63.62927246 219.18652344 62.44018555 C219.11348973 58.11088736 219.06797251 53.78164231 219.03027344 49.4519043 C219.01030105 47.58690193 218.98311332 45.72196102 218.94824219 43.85717773 C218.56206047 22.65693733 218.56206047 22.65693733 223.25 14.9375 C224.5588545 13.58012922 225.89013267 12.24376047 227.25 10.9375 C228.48512079 8.80440808 228.48512079 8.80440808 229.25 6.9375 C229.91 6.9375 230.57 6.9375 231.25 6.9375 C231.25 6.2775 231.25 5.6175 231.25 4.9375 C231.91 4.9375 232.57 4.9375 233.25 4.9375 C233.25 4.2775 233.25 3.6175 233.25 2.9375 C244.24819848 -3.99676467 255.26608466 -7.64284773 268.25 -5.0625 C273.89756612 -3.44129841 278.39578562 -1.63045778 282.25 2.9375 C283.11625 3.618125 283.9825 4.29875 284.875 5 C287.25 6.9375 287.25 6.9375 289.25 9.9375 C289.91 10.576875 290.57 11.21625 291.25 11.875 C293.15150019 13.83592207 294.18354956 15.44911563 295.25 17.9375 C294.59 17.9375 293.93 17.9375 293.25 17.9375 C293.57597168 18.55391357 293.90194336 19.17032715 294.23779297 19.80541992 C295.67236079 24.24441428 295.49639745 28.41548254 295.4453125 33.05078125 C295.44106766 34.50510811 295.44106766 34.50510811 295.43673706 35.98881531 C295.42556991 39.07600405 295.40047152 42.16289939 295.375 45.25 C295.36496573 47.34700101 295.35584066 49.44400658 295.34765625 51.54101562 C295.32564188 56.6732896 295.29113571 61.8053451 295.25 66.9375 C295.86815079 66.92639694 296.48630157 66.91529388 297.1231842 66.90385437 C303.62958134 66.79216441 310.13570085 66.71738415 316.64282227 66.6628418 C319.06253137 66.6378897 321.48216662 66.60391561 323.90161133 66.56030273 C343.21782206 66.22114184 357.99606549 67.72972163 374.25 78.9375 C375.26388686 79.92341756 376.26785294 80.91996025 377.25 81.9375 C377.930625 82.246875 378.61125 82.55625 379.3125 82.875 C381.7376123 84.20490029 382.03737199 85.51224398 383.25 87.9375 C384.178125 88.4015625 384.178125 88.4015625 385.125 88.875 C387.98948657 90.30724329 389.29400903 92.43138657 391.25 94.9375 C391.971875 95.47375 392.69375 96.01 393.4375 96.5625 C395.25 97.9375 395.25 97.9375 396.25 100.9375 C397.24 101.5975 398.23 102.2575 399.25 102.9375 C399.58 103.9275 399.91 104.9175 400.25 105.9375 C400.91 105.9375 401.57 105.9375 402.25 105.9375 C402.3428125 107.2678125 402.3428125 107.2678125 402.4375 108.625 C402.94942992 112.32721786 404.20840236 115.48746792 405.625 118.9375 C410.94468557 132.42934703 411.68987374 145.33847878 411.63095093 159.64146423 C411.63441453 161.49092034 411.63918378 163.34037438 411.64513266 165.18982416 C411.65757591 170.23300626 411.65150287 175.27601652 411.64217401 180.31919897 C411.63535628 185.77329149 411.64587823 191.22735549 411.65411377 196.68144226 C411.66742459 207.35090785 411.66458511 218.02030998 411.65587585 228.68977802 C411.64908891 237.36491774 411.64818695 246.04003973 411.6514473 254.71518135 C411.651907 255.95189127 411.65236669 257.18860119 411.65284032 258.46278717 C411.65379954 260.97548846 411.65477218 263.48818975 411.6557581 266.00089104 C411.6640609 288.86947209 411.65546368 311.73802451 411.63973031 334.60659945 C411.62549661 355.45381591 411.62676729 376.30097738 411.64111328 397.14819336 C411.65720061 420.60392762 411.66347867 444.05963564 411.65427649 467.5153752 C411.65332089 470.01891775 411.65237778 472.52246032 411.6514473 475.02600288 C411.65098447 476.25764807 411.65052164 477.48929326 411.65004479 478.75826104 C411.64745971 487.41768975 411.65181552 496.0770989 411.65888596 504.73652458 C411.6673195 515.29712201 411.66498194 525.85765257 411.64904372 536.41824239 C411.64118571 541.80149953 411.63802711 547.18464541 411.64799118 552.56790161 C411.65699003 557.50452942 411.65192045 562.44094376 411.63605852 567.37755246 C411.63273255 569.15462926 411.634355 570.93172443 411.64168589 572.70878922 C411.73691145 597.72944341 406.34489611 620.90062471 388.58203125 639.6015625 C387.81246094 640.37242187 387.04289063 641.14328125 386.25 641.9375 C385.49074219 642.70835937 384.73148438 643.47921875 383.94921875 644.2734375 C365.09181343 662.35926322 341.60341099 666.25931741 316.4006958 666.19819641 C314.61967648 666.20122199 312.83865845 666.20511351 311.0576427 666.20978898 C306.19433214 666.22002535 301.33109567 666.21789832 296.46777916 666.21360838 C291.21063833 666.21113319 285.95351497 666.22016518 280.69638062 666.22764587 C270.40866089 666.24037313 260.12096729 666.24218901 249.83324102 666.23984561 C241.46746565 666.23805999 233.10169819 666.23981732 224.73592377 666.24407005 C223.54363737 666.24466524 222.35135097 666.24526043 221.12293468 666.24587366 C218.70050806 666.24708545 216.27808143 666.24829959 213.85565481 666.24951603 C191.15497059 666.26038408 168.45430124 666.25823263 145.75361618 666.25213119 C125.00835859 666.24696334 104.26314797 666.2582153 83.51789966 666.27722941 C62.19293756 666.2966243 40.86799766 666.30486086 19.54302669 666.30110615 C7.58023581 666.29919654 -4.3825151 666.3016583 -16.34529877 666.31582069 C-26.53005305 666.32775655 -36.71474275 666.32911471 -46.89949796 666.31703053 C-52.09046937 666.31115718 -57.28132279 666.30999951 -62.47228622 666.32203293 C-67.23448729 666.33294361 -71.99647261 666.3297272 -76.7586638 666.31577124 C-78.47121768 666.31313851 -80.18378875 666.31544549 -81.89632568 666.32350711 C-101.77942673 666.41052566 -119.64811207 663.19816776 -136.9609375 652.953125 C-138.85189051 651.8139074 -138.85189051 651.8139074 -141.5 650.9375 C-147.49716183 648.27209474 -154.79798736 639.84152528 -157.75 633.9375 C-158.41 633.6075 -159.07 633.2775 -159.75 632.9375 C-160.08 631.9475 -160.41 630.9575 -160.75 629.9375 C-161.34683594 629.38191406 -161.94367188 628.82632813 -162.55859375 628.25390625 C-165.50402966 625.14045973 -167.0410248 621.74641055 -168.8125 617.875 C-169.33855835 616.73816772 -169.33855835 616.73816772 -169.87524414 615.57836914 C-174.8233365 604.63674728 -176.90979803 593.97073474 -176.88422108 581.97558022 C-176.88657331 581.21197404 -176.88892554 580.44836786 -176.89134905 579.66162211 C-176.89798705 577.11201614 -176.89758241 574.56246175 -176.89717102 572.0128479 C-176.90047289 570.16261098 -176.90419913 568.31237478 -176.9083125 566.46213949 C-176.91830386 561.38425603 -176.92204467 556.30638439 -176.92470181 551.2284925 C-176.92861335 545.74902329 -176.93819106 540.26956336 -176.94691467 534.7901001 C-176.96665458 521.56075316 -176.97674194 508.33140548 -176.98564246 495.1020475 C-176.99002922 488.86718863 -176.99539501 482.63233059 -177.00063133 476.39747238 C-177.01764077 455.66329184 -177.03215899 434.92911176 -177.03938007 414.19492531 C-177.03985482 412.85490917 -177.04033071 411.51489303 -177.04080774 410.17487689 C-177.04104411 409.51037952 -177.04128049 408.84588214 -177.04152403 408.16124849 C-177.04272517 404.79483623 -177.04394064 401.42842397 -177.04516602 398.06201172 C-177.04540617 397.39394926 -177.04564632 396.7258868 -177.04589374 396.03758003 C-177.05378176 374.39101993 -177.0772047 352.74451472 -177.10972196 331.09797858 C-177.14407277 308.18884101 -177.16373496 285.27972555 -177.16702431 262.37056005 C-177.1691866 249.89176653 -177.17789412 237.41305368 -177.20348549 224.93428421 C-177.22523304 214.30550034 -177.23322293 203.67681676 -177.22351871 193.04801317 C-177.21898586 187.63008631 -177.22080112 182.21236619 -177.24028015 176.79446793 C-177.25799716 171.82349191 -177.25684532 166.85287215 -177.24138286 161.88189189 C-177.2390197 160.09446963 -177.24326233 158.30702214 -177.25521151 156.51963826 C-177.34845303 141.63682162 -176.02720069 126.24816163 -168.75 112.9375 C-168.32332031 112.11378906 -167.89664063 111.29007812 -167.45703125 110.44140625 C-164.08660999 104.10580499 -164.08660999 104.10580499 -161.75 102.9375 C-160.7293645 100.96096782 -160.7293645 100.96096782 -159.9375 98.9375 C-158.75 96.9375 -158.75 96.9375 -156.75 96 C-153.98522314 94.53121229 -153.8441202 92.80956552 -152.75 89.9375 C-150.41132095 87.22161465 -149.18018282 86.08089427 -145.75 84.9375 C-144.925 84.1125 -144.1 83.2875 -143.25 82.4375 C-140.75 79.9375 -140.75 79.9375 -137.75 78.9375 C-137.09 78.36 -136.43 77.7825 -135.75 77.1875 C-114.33907574 61.1293068 -83.72331595 64.62811558 -58.75 65.9375 C-58.7814209 64.16088989 -58.7814209 64.16088989 -58.81347656 62.34838867 C-58.8864867 57.90727069 -58.93201923 53.46620451 -58.96972656 49.0246582 C-58.98970419 47.11115566 -59.01689599 45.19771308 -59.05175781 43.28442383 C-59.28084565 30.3780196 -59.35620503 18.42631238 -50.75 7.9375 C-49.42479497 7.25481862 -48.09187818 6.5867959 -46.75 5.9375 C-46.193125 4.7928125 -46.193125 4.7928125 -45.625 3.625 C-42.05504605 -1.49193399 -35.56266311 -3.69975269 -29.6875 -5.375 C-19.34943659 -7.18005869 -9.0791486 -5.66626382 0 0 Z M-155.75 225.9375 C-155.811875 285.21375 -155.87375 344.49 -155.9375 405.5625 C-155.96481201 424.28178223 -155.99212402 443.00106445 -156.02026367 462.28759766 C-156.03029674 479.06181253 -156.03029674 479.06181253 -156.03633118 495.83602905 C-156.03912703 503.30960932 -156.05012417 510.78312219 -156.06672668 518.25668335 C-156.08585737 526.8810759 -156.09449972 535.50540389 -156.09033485 544.12981781 C-156.08853187 548.53915343 -156.09133948 552.94834485 -156.10764539 557.35765386 C-156.12232757 561.35230679 -156.12291662 565.34671457 -156.11270332 569.34137917 C-156.11144074 570.77828991 -156.11516185 572.21521652 -156.12464774 573.65209651 C-156.23947816 592.14750649 -152.15469658 608.21179697 -140.75 622.9375 C-140.09451172 623.85789062 -140.09451172 623.85789062 -139.42578125 624.796875 C-130.67938604 636.24861168 -115.52987808 643.20396217 -101.75 645.9375 C-99.10705089 646.11357478 -96.57394289 646.21070193 -93.93587399 646.19476891 C-92.81444214 646.20002802 -92.81444214 646.20002802 -91.67035511 646.20539337 C-89.17509448 646.21466788 -86.68006928 646.20979432 -84.18479919 646.20492554 C-82.37367106 646.2086638 -80.56254453 646.21326603 -78.75142056 646.21865618 C-73.78174354 646.23088007 -68.81213387 646.23062642 -63.84244525 646.22826743 C-58.47959347 646.2278591 -53.11676324 646.23890004 -47.75392151 646.24838257 C-37.24895098 646.26499093 -26.7440029 646.27049207 -16.23902034 646.27160732 C-7.69766927 646.27255801 0.84367439 646.27666936 9.38502312 646.28300858 C33.61028924 646.30062166 57.83553765 646.30984751 82.06081022 646.30834763 C83.36662419 646.30826772 84.67243817 646.3081878 86.01782227 646.30810547 C87.3252341 646.30802371 88.63264593 646.30794195 89.9796763 646.30785771 C111.159872 646.30704511 132.33999653 646.326176 153.52017165 646.3543822 C175.27663117 646.38312677 197.033056 646.39692158 218.78953499 646.39519465 C231.00050895 646.39453122 243.21140834 646.40000263 255.42236519 646.42155075 C265.82104091 646.43978335 276.21960825 646.44409287 286.61829305 646.4305319 C291.92040547 646.4240124 297.22231011 646.42384828 302.52440262 646.4412384 C307.38605616 646.45701938 312.24733804 646.45405428 317.10898279 646.43667014 C318.86001006 646.43361126 320.61106542 646.43719032 322.36205954 646.44839029 C341.51685096 646.56271528 357.74548003 642.77734504 372.04296875 629.1328125 C372.77128906 628.40835937 373.49960937 627.68390625 374.25 626.9375 C375.07951172 626.16019531 375.07951172 626.16019531 375.92578125 625.3671875 C379.64728747 621.53534012 382.00753013 616.95785924 384.4375 612.25 C384.93757568 611.29758423 384.93757568 611.29758423 385.44775391 610.32592773 C390.81893004 599.46058175 391.68826486 588.55850455 391.61076355 576.59967041 C391.6120786 575.08328082 391.61471444 573.56689191 391.61854553 572.05050659 C391.625231 567.90627599 391.61329414 563.76228072 391.59821819 559.61807996 C391.58506114 555.07193497 391.58950577 550.52579979 391.59167194 545.97964096 C391.59326305 537.16604661 391.57944893 528.35254439 391.56016796 519.53897367 C391.5385229 509.33831072 391.53618125 499.13770269 391.53381348 488.93701172 C391.51807829 462.02049327 391.47619477 435.10399524 391.4375 408.1875 C391.375625 348.045 391.31375 287.9025 391.25 225.9375 C210.74 225.9375 30.23 225.9375 -155.75 225.9375 Z " fill="#512A9E" transform="translate(191.75,7.0625)"/>
<path d="M0 0 C1.96873974 0.01507681 3.93749067 0.0287599 5.90625 0.04101562 C10.68778058 0.07377745 15.46876423 0.12539362 20.25 0.1875 C20.2593457 1.37190674 20.26869141 2.55631348 20.27832031 3.77661133 C20.3185316 8.21822172 20.38437335 12.65916189 20.45751953 17.1003418 C20.48555003 19.01366493 20.50685265 20.9271 20.52099609 22.84057617 C20.62835101 36.54979838 20.82998371 49.47978383 30.96484375 59.9609375 C39.5318297 68.00202926 48.55300399 70.54025118 60.125 70.3984375 C70.54819387 69.69487191 78.93613168 64.94293047 86.0625 57.4375 C98.90822993 41.90936707 94.78016036 18.04140618 95.25 0.1875 C162.24 0.1875 229.23 0.1875 298.25 0.1875 C298.58 13.0575 298.91 25.9275 299.25 39.1875 C303.67449036 52.46097107 308.32392542 61.12992867 320.7109375 67.44140625 C330.24960568 71.45547922 341.09563788 71.76333593 350.87890625 68.27734375 C359.95711263 64.1046591 365.99806231 58.28326444 370.25 49.1875 C372.03330598 43.17428422 372.57964591 37.68977414 372.6640625 31.4375 C372.68342865 30.53878174 372.7027948 29.64006348 372.7227478 28.71411133 C372.78204608 25.87200104 372.82872808 23.02984915 372.875 20.1875 C372.91322567 18.24868124 372.95228 16.30987862 372.9921875 14.37109375 C373.0877061 9.6433619 373.1719186 4.91555068 373.25 0.1875 C378.81432059 0.08731834 384.37809639 0.01542323 389.94311523 -0.03222656 C391.82927617 -0.0521265 393.71537722 -0.07925654 395.60131836 -0.11425781 C416.37459419 -0.4896452 434.34981093 2.77904531 449.9765625 17.82421875 C476.81486449 45.72314093 469.25 75.83483387 469.25 116.1875 C289.07 116.1875 108.89 116.1875 -76.75 116.1875 C-76.75 38.53040844 -76.75 38.53040844 -57.57421875 17.83984375 C-52.81204568 13.17371451 -47.77245172 9.82715836 -41.875 6.8125 C-40.94010742 6.32982666 -40.94010742 6.32982666 -39.98632812 5.83740234 C-26.99558245 -0.42291878 -14.08819673 -0.18855415 0 0 Z " fill="#FAFAFA" transform="translate(113.75,93.8125)"/>
<path d="M0 0 C4.34731067 3.10522191 7.51828044 6.9196548 9.625 11.875 C9.88226891 13.82849503 9.88226891 13.82849503 9.89242554 15.90875244 C9.90095551 16.70203445 9.90948547 17.49531647 9.91827393 18.31263733 C9.91736755 19.17400803 9.91646118 20.03537872 9.91552734 20.92285156 C9.92224457 21.83717453 9.92896179 22.7514975 9.93588257 23.69352722 C9.95488675 26.71761506 9.9587883 29.74148115 9.9609375 32.765625 C9.96736482 34.87066743 9.97409314 36.97570896 9.98110962 39.08074951 C9.99308921 43.4957486 9.99678985 47.9106694 9.99560547 52.32568359 C9.99540249 57.972601 10.02267988 63.61901394 10.05714989 69.26581192 C10.07943249 73.61537971 10.08344255 77.96482648 10.08238602 82.3144455 C10.08474087 84.39558395 10.09355784 86.4767258 10.10905075 88.55780792 C10.12873349 91.47541659 10.12286301 94.39194274 10.11083984 97.30957031 C10.12207886 98.16284409 10.13331787 99.01611786 10.14489746 99.89524841 C10.08461591 105.67666931 8.84957939 110.03308863 5.625 114.875 C1.27288503 119.11552228 -2.78029782 120.9551036 -8.8125 121.1875 C-13.85128017 121.03733768 -17.30975514 119.88081335 -21.00390625 116.29296875 C-26.59761995 110.10618661 -27.67367364 105.0297015 -27.6496582 96.86547852 C-27.65476913 95.96730408 -27.65988007 95.06912964 -27.66514587 94.14373779 C-27.67902408 91.18039247 -27.67808648 88.21728017 -27.67578125 85.25390625 C-27.67966904 83.19034234 -27.68400388 81.12677924 -27.68876648 79.06321716 C-27.6962248 74.73995366 -27.69594012 70.41677183 -27.69067383 66.09350586 C-27.68487854 60.5574774 -27.70181365 55.02178344 -27.7250185 49.48581028 C-27.73976048 45.22468618 -27.74062692 40.96364256 -27.73750877 36.70249748 C-27.73802171 34.6615832 -27.74325427 32.62066438 -27.75332069 30.57977486 C-27.76567715 27.7242683 -27.75889813 24.8694124 -27.74731445 22.01391602 C-27.75495819 21.17372421 -27.76260193 20.33353241 -27.77047729 19.46788025 C-27.71370893 13.12653208 -26.28593765 9.03737682 -22 4.1875 C-15.24697917 -1.76158978 -8.66998965 -2.88999655 0 0 Z " fill="#FAFAFA" transform="translate(458.375,25.125)"/>
<path d="M0 0 C4.75814358 2.66873921 8.00029965 6.12589896 9.75 11.375 C9.85720914 14.40170123 9.9072763 17.40571077 9.91113281 20.43286133 C9.91858017 21.82357597 9.91858017 21.82357597 9.92617798 23.24238586 C9.9407999 26.31394184 9.94760177 29.38544617 9.953125 32.45703125 C9.95887656 34.59071352 9.96463429 36.72439577 9.97039795 38.858078 C9.98090811 43.33450563 9.98675064 47.81091529 9.99023438 52.28735352 C9.99571822 58.02071007 10.01974397 63.75382904 10.04820633 69.48711109 C10.06683892 73.89577424 10.07203865 78.30438025 10.07357025 82.71307945 C10.07659604 84.82656846 10.08462208 86.94005648 10.09775543 89.05350685 C10.11482818 92.01217293 10.11293252 94.9702596 10.10644531 97.92895508 C10.12026749 99.23603424 10.12026749 99.23603424 10.1343689 100.56951904 C10.09407968 106.44143596 9.15677494 110.76583717 5.03125 115.23828125 C4.4434375 115.71652344 3.855625 116.19476563 3.25 116.6875 C2.36828125 117.42419922 2.36828125 117.42419922 1.46875 118.17578125 C-2.92722175 121.24297063 -8.12527956 120.80005506 -13.25 120.375 C-18.6951873 118.59484261 -22.03226393 114.986739 -25.25 110.375 C-26.5869435 106.36416951 -26.40580419 102.49982282 -26.41113281 98.31713867 C-26.41609772 97.38999557 -26.42106262 96.46285248 -26.42617798 95.50761414 C-26.4407999 92.43605816 -26.44760177 89.36455383 -26.453125 86.29296875 C-26.45887656 84.15928648 -26.46463429 82.02560423 -26.47039795 79.891922 C-26.48090811 75.41549437 -26.48675064 70.93908471 -26.49023438 66.46264648 C-26.49571822 60.72928993 -26.51974397 54.99617096 -26.54820633 49.26288891 C-26.56683892 44.85422576 -26.57203865 40.44561975 -26.57357025 36.03692055 C-26.57659604 33.92343154 -26.58462208 31.80994352 -26.59775543 29.69649315 C-26.61482818 26.73782707 -26.61293252 23.7797404 -26.60644531 20.82104492 C-26.6156601 19.94965881 -26.62487488 19.07827271 -26.6343689 18.18048096 C-26.59407968 12.30856404 -25.65677494 7.98416283 -21.53125 3.51171875 C-20.9434375 3.03347656 -20.355625 2.55523437 -19.75 2.0625 C-19.1621875 1.57136719 -18.574375 1.08023437 -17.96875 0.57421875 C-12.72758374 -3.08268589 -5.59778425 -2.55989754 0 0 Z " fill="#FAFAFA" transform="translate(179.25,25.625)"/>
<path d="M0 0 C0.94147888 -0.01283524 1.88295776 -0.02567047 2.85296631 -0.03889465 C4.38416107 -0.04997505 4.38416107 -0.04997505 5.94628906 -0.0612793 C6.99463928 -0.06935104 8.0429895 -0.07742279 9.12310791 -0.08573914 C11.34572695 -0.09958739 13.56836733 -0.11030621 15.79101562 -0.11816406 C19.18433183 -0.13535829 22.57666923 -0.1792365 25.96972656 -0.22338867 C28.12857356 -0.2335171 30.28742885 -0.24203273 32.44628906 -0.2487793 C33.96533844 -0.27504143 33.96533844 -0.27504143 35.51507568 -0.30183411 C41.47301825 -0.28356496 44.93684967 0.17731783 49.46191406 4.17700195 C50.63150702 6.51618788 50.60673786 7.94001115 50.63891602 10.54736328 C50.65816887 11.90436089 50.65816887 11.90436089 50.67781067 13.28877258 C50.6851976 14.26895859 50.69258453 15.24914459 50.70019531 16.2590332 C50.70826706 17.26536301 50.71633881 18.27169281 50.72465515 19.30851746 C50.73850123 21.44117507 50.74922103 23.57385489 50.75708008 25.70654297 C50.77428999 28.96600415 50.81817159 32.22445042 50.86230469 35.48364258 C50.87243173 37.55459865 50.8809478 39.62556336 50.88769531 41.6965332 C50.9052034 42.67064651 50.92271149 43.64475983 50.94075012 44.64839172 C50.92690409 48.97471671 50.87089181 51.48929173 48.62280273 55.26953125 C45.44986213 58.07036562 42.8697118 58.30464866 38.79443359 58.33813477 C37.37748703 58.35254608 37.37748703 58.35254608 35.93191528 58.36724854 C34.91314301 58.37149841 33.89437073 58.37574829 32.84472656 58.38012695 C31.27076614 58.38867706 31.27076614 58.38867706 29.66500854 58.3973999 C27.44416309 58.40684882 25.22330362 58.41338345 23.00244141 58.41723633 C19.60717294 58.42694403 16.21250925 58.4579698 12.81738281 58.48950195 C10.65983432 58.49603191 8.50228151 58.50128241 6.34472656 58.50512695 C4.82264084 58.52364716 4.82264084 58.52364716 3.26980591 58.5425415 C-5.64444482 58.51440863 -5.64444482 58.51440863 -9.53808594 55.17700195 C-11.62683823 52.04387352 -11.7966441 51.26955646 -11.84448242 47.69311523 C-11.86046982 46.7885257 -11.87645721 45.88393616 -11.89292908 44.95193481 C-11.89829178 43.9769101 -11.90365448 43.00188538 -11.90917969 41.99731445 C-11.91820816 40.9923996 -11.92723663 39.98748474 -11.9365387 38.95211792 C-11.95105066 36.82544946 -11.95993028 34.69873625 -11.96362305 32.57202148 C-11.9755161 29.32109179 -12.02469066 26.072062 -12.07519531 22.8215332 C-12.08465986 20.75513622 -12.09189474 18.68872757 -12.09667969 16.62231445 C-12.11621201 15.6513382 -12.13574432 14.68036194 -12.15586853 13.67996216 C-12.12457173 8.9893836 -12.09092116 6.8859259 -9.12817383 3.08666992 C-5.74367086 0.59128089 -4.12808989 0.04895077 0 0 Z " fill="#4E279B" transform="translate(133.5380859375,361.822998046875)"/>
<path d="M0 0 C0.98152039 -0.01606293 1.96304077 -0.03212585 2.9743042 -0.04867554 C7.47016744 -0.09312124 11.96588245 -0.13419872 16.46191406 -0.15722656 C18.83245669 -0.17377882 21.20294956 -0.20105888 23.57324219 -0.23925781 C26.99082336 -0.29405729 30.40723378 -0.31590715 33.82519531 -0.33056641 C34.88164246 -0.35323578 35.9380896 -0.37590515 37.02655029 -0.39926147 C45.26387415 -0.37564616 45.26387415 -0.37564616 48.9465332 2.06347656 C52.31349938 6.58214188 52.12531789 10.28134611 52.04003906 15.78662109 C52.04340775 16.8109021 52.04677643 17.83518311 52.05024719 18.89050293 C52.04994868 21.05237864 52.03473147 23.21429691 52.00561523 25.37597656 C51.96594903 28.68214283 51.98490841 31.98429535 52.01074219 35.29052734 C52.0031827 37.39340746 51.99222886 39.49627869 51.97753906 41.59912109 C51.98801521 43.07898499 51.98801521 43.07898499 51.998703 44.58874512 C51.90192873 49.3002227 51.83323711 51.48173517 48.85961914 55.29248047 C45.51352288 57.75592635 43.90881767 58.32047353 39.83203125 58.36987305 C38.91057312 58.38270828 37.98911499 58.39554352 37.03973389 58.4087677 C35.54134979 58.4198481 35.54134979 58.4198481 34.01269531 58.43115234 C32.98654114 58.43922409 31.96038696 58.44729584 30.90313721 58.45561218 C28.72759698 58.46945998 26.55203495 58.48017901 24.37646484 58.48803711 C21.0555679 58.50523003 17.73567146 58.54910831 14.41503906 58.59326172 C12.30176514 58.60339029 10.18848274 58.61190587 8.07519531 58.61865234 C7.08436951 58.63616043 6.0935437 58.65366852 5.07269287 58.67170715 C-0.69829143 58.65363199 -4.20897488 58.1727386 -8.72167969 54.19287109 C-10.79923182 51.0765429 -10.97745159 50.34615747 -11.01220703 46.80078125 C-11.02496674 45.91621246 -11.03772644 45.03164368 -11.0508728 44.12026978 C-11.05309845 43.16711884 -11.0553241 42.2139679 -11.05761719 41.23193359 C-11.06427399 40.24921478 -11.07093079 39.26649597 -11.07778931 38.2539978 C-11.0879172 36.17439649 -11.09260628 34.09476267 -11.09228516 32.01513672 C-11.09665359 28.83685566 -11.13295911 25.65996845 -11.17089844 22.48193359 C-11.17676752 20.46110501 -11.1807363 18.44026983 -11.18261719 16.41943359 C-11.19698822 15.47033112 -11.21135925 14.52122864 -11.22616577 13.54336548 C-11.19640836 9.23506646 -11.1273067 6.84838682 -8.81787109 3.11621094 C-5.75355222 0.30457524 -4.06130232 0.06033228 0 0 Z " fill="#4E289C" transform="translate(132.7216796875,539.80712890625)"/>
<path d="M0 0 C0.98474808 -0.01283524 1.96949615 -0.02567047 2.98408508 -0.03889465 C4.0517662 -0.04628159 5.11944733 -0.05366852 6.21948242 -0.0612793 C7.31459641 -0.06935104 8.40971039 -0.07742279 9.53800964 -0.08573914 C11.85898247 -0.09958709 14.17997573 -0.11030605 16.50097656 -0.11816406 C20.050116 -0.13537759 23.59832433 -0.17925864 27.1472168 -0.22338867 C29.40046514 -0.23351529 31.65372142 -0.24203149 33.90698242 -0.2487793 C34.96859085 -0.26628738 36.03019928 -0.28379547 37.12397766 -0.30183411 C44.50591578 -0.28011186 44.50591578 -0.28011186 48.40966797 2.07861328 C51.00259768 5.01526249 51.39203853 6.61680447 51.45532227 10.43969727 C51.47138519 11.32111389 51.48744812 12.20253052 51.5039978 13.11065674 C51.54848677 17.14855176 51.58952385 21.18628229 51.61254883 25.22436523 C51.62909557 27.35240627 51.65636854 29.48039202 51.69458008 31.6081543 C51.74942915 34.67827148 51.77123657 37.74708536 51.78588867 40.81762695 C51.80855804 41.7647052 51.83122742 42.71178345 51.85458374 43.68756104 C51.84049594 48.1067485 51.723937 51.21678141 48.91723633 54.76196289 C45.52658298 57.84641598 43.21170976 58.29912864 38.79443359 58.35400391 C37.89307175 58.36683914 36.9917099 58.37967438 36.06303406 58.39289856 C34.60520256 58.40397896 34.60520256 58.40397896 33.11791992 58.4152832 C32.11537674 58.42335495 31.11283356 58.4314267 30.07991028 58.43974304 C27.95742519 58.45357558 25.83491793 58.46430145 23.71240234 58.47216797 C20.47279556 58.48938058 17.23420942 58.5332747 13.99487305 58.57739258 C11.9317295 58.58751982 9.86857729 58.59603583 7.80541992 58.6027832 C6.83960495 58.62029129 5.87378998 58.63779938 4.87870789 58.65583801 C-0.80710804 58.63757505 -4.32952863 58.15124608 -8.73754883 54.17700195 C-10.49607249 51.29285969 -10.99429211 49.12090409 -11.02807617 45.76318359 C-11.04083588 44.89871109 -11.05359558 44.03423859 -11.06674194 43.14356995 C-11.06896759 42.21745407 -11.07119324 41.2913382 -11.07348633 40.3371582 C-11.08014313 39.37805038 -11.08679993 38.41894257 -11.09365845 37.43077087 C-11.10377433 35.40422481 -11.1084758 33.37764551 -11.1081543 31.35107422 C-11.11252824 28.25407985 -11.14886134 25.15850996 -11.18676758 22.06176758 C-11.19263582 20.09106932 -11.19660516 18.1203643 -11.19848633 16.1496582 C-11.21285736 15.22556656 -11.22722839 14.30147491 -11.24203491 13.34938049 C-11.2118868 9.09842204 -11.12308178 6.79683096 -8.83374023 3.11621094 C-5.76486318 0.27716011 -4.08108005 0.04624607 0 0 Z " fill="#4E279B" transform="translate(237.737548828125,539.822998046875)"/>
<path d="M0 0 C0.98467255 -0.0127597 1.96934509 -0.02551941 2.9838562 -0.03866577 C4.57763596 -0.04200424 4.57763596 -0.04200424 6.20361328 -0.04541016 C7.84416183 -0.05539536 7.84416183 -0.05539536 9.51785278 -0.06558228 C11.83284827 -0.07571305 14.14787299 -0.08039916 16.46289062 -0.08007812 C20.00325742 -0.08444715 23.54237372 -0.12075247 27.08251953 -0.15869141 C29.33121318 -0.16456026 31.57991276 -0.16852919 33.82861328 -0.17041016 C34.88708466 -0.18478119 35.94555603 -0.19915222 37.03610229 -0.21395874 C44.39097658 -0.16829022 44.39097658 -0.16829022 48.29394531 2.19433594 C50.92217516 5.1643256 51.27936983 6.78887191 51.34179688 10.66088867 C51.3578598 11.56555374 51.37392273 12.47021881 51.39047241 13.40229797 C51.43491439 17.54154735 51.47598681 21.68063622 51.49902344 25.82006836 C51.51558508 28.003445 51.54287767 30.18676738 51.58105469 32.36987305 C51.63581022 35.51688785 51.65769567 38.66263165 51.67236328 41.81005859 C51.69503265 42.78417191 51.71770203 43.75828522 51.74105835 44.76191711 C51.72653496 49.42015166 51.69033858 51.57659064 48.80371094 55.38305664 C45.37143518 57.84915656 42.89116028 58.41535935 38.77270508 58.45166016 C37.89136398 58.4612677 37.01002289 58.47087524 36.10197449 58.48077393 C34.67695366 58.48714874 34.67695366 58.48714874 33.22314453 58.49365234 C32.24279739 58.49935242 31.26245026 58.50505249 30.25239563 58.51092529 C28.17698241 58.52037338 26.1015542 58.52690852 24.02612305 58.53076172 C20.85910695 58.5404579 17.69274244 58.57147948 14.52587891 58.60302734 C12.50830463 58.60955856 10.49072572 58.61480856 8.47314453 58.61865234 C7.52920334 58.63099915 6.58526215 58.64334595 5.61271667 58.65606689 C0.41134191 58.63854345 -3.45424717 58.3897985 -7.85107422 55.29052734 C-11.72559649 50.93437404 -11.28684876 46.09964078 -11.24951172 40.57177734 C-11.2523819 39.63628052 -11.25525208 38.70078369 -11.25820923 37.73693848 C-11.26024637 35.76342156 -11.25474102 33.78988429 -11.2421875 31.81640625 C-11.22612897 28.80080894 -11.24204817 25.78655186 -11.26123047 22.77099609 C-11.25924797 20.85042023 -11.25540417 18.92984519 -11.24951172 17.00927734 C-11.25558441 16.11019653 -11.2616571 15.21111572 -11.26791382 14.28479004 C-11.21416691 9.48568935 -11.03036319 6.14862486 -7.85107422 2.29052734 C-4.62535238 0.14004612 -3.72247542 0.03275083 0 0 Z " fill="#4F289C" transform="translate(341.85107421875,539.70947265625)"/>
<path d="M0 0 C0.90136185 -0.00960754 1.80272369 -0.01921509 2.73139954 -0.02911377 C3.7032872 -0.03336365 4.67517487 -0.03761353 5.67651367 -0.04199219 C7.18032845 -0.0505423 7.18032845 -0.0505423 8.71452332 -0.05926514 C10.83701523 -0.06871379 12.9595218 -0.07524858 15.08203125 -0.07910156 C18.32146969 -0.0887983 21.56027126 -0.11981967 24.79956055 -0.15136719 C26.86270783 -0.15789832 28.92585964 -0.16314836 30.98901367 -0.16699219 C31.95482864 -0.17933899 32.92064362 -0.19168579 33.91572571 -0.20440674 C39.1632094 -0.18711655 43.08458765 0.04210058 47.53198242 3.16113281 C49.3294006 6.0536707 49.79201536 8.287651 49.83837891 11.66674805 C49.8543663 12.5512413 49.8703537 13.43573456 49.88682556 14.34703064 C49.89218826 15.29502029 49.89755096 16.24300995 49.90307617 17.21972656 C49.91661888 18.69168236 49.91661888 18.69168236 49.93043518 20.19337463 C49.94493035 22.26698763 49.95382259 24.34064628 49.95751953 26.41430664 C49.96942728 29.58395389 50.01863016 32.75166127 50.0690918 35.92089844 C50.07855502 37.93716499 50.08579053 39.95344348 50.09057617 41.96972656 C50.11010849 42.91569199 50.12964081 43.86165741 50.14976501 44.83628845 C50.1180446 49.46901969 50.06105015 51.48617081 47.12207031 55.2355957 C43.73365555 57.75462928 42.12181462 58.28917573 37.97802734 58.33813477 C37.03332077 58.35097 36.0886142 58.36380524 35.11528015 58.37702942 C34.09134659 58.38441635 33.06741302 58.39180328 32.01245117 58.39941406 C30.96172928 58.40748581 29.91100739 58.41555756 28.82844543 58.4238739 C26.60163019 58.43772096 24.37479365 58.44844032 22.14794922 58.45629883 C18.74364967 58.47351063 15.34032132 58.51739194 11.9362793 58.56152344 C9.77417707 58.57165026 7.61206658 58.5801664 5.44995117 58.58691406 C3.92315987 58.61317619 3.92315987 58.61317619 2.36552429 58.63996887 C-1.99506688 58.62659883 -4.7014678 58.60656783 -8.52539062 56.38452148 C-11.47906657 53.00396011 -12.70954021 50.34813216 -12.77441406 45.85498047 C-12.79040146 45.01375641 -12.80638885 44.17253235 -12.82286072 43.30581665 C-12.82822342 42.40471161 -12.83358612 41.50360657 -12.83911133 40.57519531 C-12.8481398 39.64065521 -12.85716827 38.70611511 -12.86647034 37.74325562 C-12.88096415 35.76799722 -12.88985741 33.79269092 -12.89355469 31.81738281 C-12.9054489 28.80353482 -12.95464066 25.79173623 -13.00512695 22.77832031 C-13.01459195 20.85645528 -13.02182662 18.9345777 -13.02661133 17.01269531 C-13.04614365 16.11563873 -13.06567596 15.21858215 -13.08580017 14.29434204 C-13.05491948 9.98808483 -12.84985219 7.05444373 -10.12060547 3.60791016 C-6.73246106 0.48264708 -4.43865703 0.03824605 0 0 Z " fill="#502A9D" transform="translate(343.468017578125,361.8388671875)"/>
<path d="M0 0 C1.38691544 -0.01441132 1.38691544 -0.01441132 2.80184937 -0.02911377 C3.79874786 -0.03336365 4.79564636 -0.03761353 5.82275391 -0.04199219 C6.84986481 -0.04769226 7.87697571 -0.05339233 8.93521118 -0.05926514 C11.10897797 -0.06871352 13.28275906 -0.07524847 15.45654297 -0.07910156 C18.77938851 -0.08880897 22.101616 -0.11983504 25.42431641 -0.15136719 C27.5362919 -0.15789719 29.64827182 -0.16314767 31.76025391 -0.16699219 C32.75310394 -0.17933899 33.74595398 -0.19168579 34.76889038 -0.20440674 C41.04007225 -0.18418959 44.4549298 0.49995897 49.21191406 4.76318359 C51.13609442 8.56892251 50.85179349 12.32384135 50.82275391 16.52832031 C50.82562408 17.44066437 50.82849426 18.35300842 50.83145142 19.29299927 C50.8334909 21.22121807 50.82796912 23.14945761 50.81542969 25.07763672 C50.79941133 28.01870428 50.81526315 30.9583899 50.83447266 33.89941406 C50.83248948 35.77571916 50.82864427 37.65202341 50.82275391 39.52832031 C50.83186295 40.84109451 50.83186295 40.84109451 50.84115601 42.1803894 C50.78340733 47.23379836 50.2888788 50.814233 47.42431641 55.16113281 C44.18231802 57.32246507 43.232683 57.42239311 39.48144531 57.4675293 C38.47675201 57.48351669 37.47205872 57.49950409 36.43692017 57.51597595 C35.35252655 57.52133865 34.26813293 57.52670135 33.15087891 57.53222656 C32.03498383 57.54125504 30.91908875 57.55028351 29.76937866 57.55958557 C27.40731495 57.57410151 25.0452109 57.58297813 22.68310547 57.58666992 C19.07011108 57.59856435 15.45882512 57.64773824 11.84619141 57.69824219 C9.55192892 57.70770639 7.25765593 57.71494144 4.96337891 57.71972656 C3.34286118 57.74902504 3.34286118 57.74902504 1.68960571 57.77891541 C-5.82516334 57.73373951 -5.82516334 57.73373951 -9.734375 54.7512207 C-12.01741757 51.53976503 -12.70156432 49.94376108 -12.76855469 46.08203125 C-12.78461761 45.24065613 -12.80068054 44.39928101 -12.81723022 43.53240967 C-12.8617394 39.67770203 -12.90275761 35.82316643 -12.92578125 31.96826172 C-12.94232543 29.93722055 -12.96959509 27.90623724 -13.0078125 25.87548828 C-13.06268477 22.94435476 -13.0844723 20.01458637 -13.09912109 17.08300781 C-13.12179047 16.17967712 -13.14445984 15.27634644 -13.16781616 14.34564209 C-13.15338294 10.02087676 -12.97305212 7.06668118 -10.23046875 3.60351562 C-6.80476848 0.45189658 -4.48232386 0.03763533 0 0 Z " fill="#50299D" transform="translate(451.57568359375,361.8388671875)"/>
<path d="M0 0 C1.11306519 -0.00241196 2.22613037 -0.00482391 3.3729248 -0.00730896 C5.72309944 -0.00633072 8.07329718 0.00705724 10.42333984 0.03198242 C14.0187007 0.06628651 17.61160317 0.0526392 21.20703125 0.03320312 C23.49219795 0.04010172 25.77735832 0.04977421 28.0625 0.0625 C29.13657104 0.05754013 30.21064209 0.05258026 31.31726074 0.04747009 C38.76509299 0.16488314 38.76509299 0.16488314 42.68554688 2.53930664 C45.2592855 5.45314644 45.6584093 7.02359384 45.69238281 10.81567383 C45.70199036 11.68029739 45.7115979 12.54492096 45.72149658 13.43574524 C45.72574646 14.37218369 45.72999634 15.30862213 45.734375 16.2734375 C45.74007507 17.23537521 45.74577515 18.19731293 45.75164795 19.18840027 C45.76110513 21.22690732 45.76763477 23.26542972 45.77148438 25.30395508 C45.7811784 28.4184043 45.81219038 31.53219046 45.84375 34.64648438 C45.85028116 36.62629816 45.85553119 38.60611667 45.859375 40.5859375 C45.8717218 41.51630325 45.8840686 42.44666901 45.89678955 43.40522766 C45.8801631 48.2477378 45.84906253 51.7973105 42.53125 55.62890625 C39.50017105 57.48881016 37.1896027 57.88763255 33.65844727 57.91943359 C32.693871 57.9321933 31.72929474 57.944953 30.73548889 57.95809937 C29.18226173 57.96143784 29.18226173 57.96143784 27.59765625 57.96484375 C26.52756821 57.97150055 25.45748016 57.97815735 24.35496521 57.98501587 C22.09302488 57.99513595 19.83105474 57.99983309 17.5690918 57.99951172 C14.11001407 58.00388568 10.65221145 58.04021573 7.19335938 58.078125 C4.99479603 58.0839931 2.79622662 58.08796254 0.59765625 58.08984375 C-0.43580429 58.10421478 -1.46926483 58.11858582 -2.53404236 58.13339233 C-9.71460683 58.08773503 -9.71460683 58.08773503 -13.59790039 55.72509766 C-16.245318 52.75880148 -16.59906491 51.13857147 -16.66162109 47.25854492 C-16.67768402 46.35387985 -16.69374695 45.44921478 -16.71029663 44.51713562 C-16.75473861 40.37788625 -16.79581103 36.23879738 -16.81884766 32.09936523 C-16.8354093 29.91598859 -16.86270188 27.73266621 -16.90087891 25.54956055 C-16.95563444 22.40254575 -16.97751989 19.25680195 -16.9921875 16.109375 C-17.01485687 15.13526169 -17.03752625 14.16114838 -17.06088257 13.15751648 C-17.04745719 8.85145841 -16.85014837 6.2833034 -14.65283203 2.51318359 C-9.85089623 -0.3285079 -5.48514287 -0.06770797 0 0 Z " fill="#4E279B" transform="translate(243.46875,362.37109375)"/>
<path d="M0 0 C1.50715324 -0.01925285 1.50715324 -0.01925285 3.04475403 -0.03889465 C4.13430893 -0.04628159 5.22386383 -0.05366852 6.34643555 -0.0612793 C7.46374557 -0.06935104 8.5810556 -0.07742279 9.73222351 -0.08573914 C12.10027511 -0.09958751 14.46834673 -0.11030628 16.83642578 -0.11816406 C20.45798568 -0.13537841 24.07863329 -0.17925933 27.69995117 -0.22338867 C29.99877257 -0.2335152 32.29760175 -0.24203142 34.59643555 -0.2487793 C35.67991776 -0.26628738 36.76339996 -0.28379547 37.87971497 -0.30183411 C45.38488476 -0.28018519 45.38488476 -0.28018519 49.33154297 2.01611328 C51.8888194 5.02081974 52.29561258 7.46416207 52.34765625 11.27783203 C52.3669091 12.50975029 52.3669091 12.50975029 52.3865509 13.76655579 C52.39393784 14.65094833 52.40132477 15.53534088 52.40893555 16.4465332 C52.41700729 17.36029221 52.42507904 18.27405121 52.43339539 19.21549988 C52.44722436 21.14966948 52.45795182 23.08386337 52.46582031 25.01806641 C52.48302888 27.96800239 52.52692481 30.91681616 52.57104492 33.86645508 C52.5811727 35.74730623 52.58968854 37.62816689 52.59643555 39.5090332 C52.61394363 40.38735306 52.63145172 41.26567291 52.64949036 42.17060852 C52.63024321 47.63596926 51.92611161 50.90475026 48.1706543 55.17700195 C45.3004176 56.13374752 43.41332433 56.32446539 40.42724609 56.36987305 C39.46582199 56.38593597 38.50439789 56.4019989 37.51383972 56.41854858 C33.1221902 56.46309534 28.73068984 56.50405523 24.33886719 56.52709961 C22.0236608 56.54366348 19.70850563 56.57095888 17.39355469 56.60913086 C14.05205816 56.66392902 10.71175854 56.685778 7.36987305 56.70043945 C5.82271858 56.73444351 5.82271858 56.73444351 4.24430847 56.76913452 C-3.78410858 56.74556697 -3.78410858 56.74556697 -7.46679688 53.83178711 C-10.35041013 50.59148427 -10.94770768 48.35918244 -11.00634766 44.16796875 C-11.01918289 43.36671066 -11.03201813 42.56545258 -11.04524231 41.73991394 C-11.05262924 40.87739517 -11.06001617 40.0148764 -11.06762695 39.1262207 C-11.0756987 38.23465775 -11.08377045 37.34309479 -11.09208679 36.42451477 C-11.10591477 34.53742409 -11.11664268 32.65030853 -11.12451172 30.76318359 C-11.14171916 27.88566396 -11.18561558 25.00929514 -11.22973633 22.13208008 C-11.23986425 20.29680205 -11.24838004 18.46151427 -11.25512695 16.6262207 C-11.27263504 15.76977463 -11.29014313 14.91332855 -11.30818176 14.03092957 C-11.2880721 8.45826777 -10.46438451 5.45911573 -6.8293457 1.17700195 C-4.37811172 -0.04861504 -2.74098141 0.03043788 0 0 Z " fill="#4F289C" transform="translate(449.829345703125,276.822998046875)"/>
<path d="M0 0 C1.53718437 -0.02893593 1.53718437 -0.02893593 3.10542297 -0.05845642 C7.79420553 -0.11608824 12.48283302 -0.16546673 17.171875 -0.19628906 C19.64630063 -0.21789055 22.12064943 -0.25201817 24.59472656 -0.29882812 C28.15879507 -0.36567076 31.72128262 -0.39326322 35.28588867 -0.41235352 C36.94392265 -0.4540995 36.94392265 -0.4540995 38.63545227 -0.49668884 C45.88740661 -0.47723449 45.88740661 -0.47723449 48.8993988 1.25691223 C52.29099277 4.70461761 52.66212358 8.44384566 52.69664001 13.0113678 C52.6771077 13.86153976 52.65757538 14.71171173 52.63745117 15.58764648 C52.63395409 16.92218117 52.63395409 16.92218117 52.63038635 18.28367615 C52.62067752 20.15715172 52.59895659 22.0305992 52.56591797 23.90380859 C52.51645384 26.76566199 52.50443056 29.62579445 52.4987793 32.48803711 C52.48469372 34.31292512 52.46848946 36.13779827 52.44995117 37.96264648 C52.44458847 38.81484268 52.43922577 39.66703888 52.43370056 40.5450592 C52.32122497 46.18106061 51.90708242 50.05375 48.14331055 54.49023438 C43.52913709 57.07780344 39.25307994 56.76159108 34.04760742 56.70483398 C32.97893433 56.70628922 31.91026123 56.70774445 30.8092041 56.70924377 C28.55319488 56.70758622 26.29717419 56.69604108 24.04125977 56.67529297 C20.59106335 56.64634265 17.14240429 56.6546871 13.69213867 56.66772461 C11.4981208 56.66148683 9.30410777 56.65309558 7.11010742 56.64233398 C6.07978394 56.64526962 5.04946045 56.64820526 3.98791504 56.65122986 C-5.32188015 56.52879651 -5.32188015 56.52879651 -8.92114258 53.20874023 C-11.59907256 48.83445044 -11.24408341 43.93904559 -11.25708008 38.96264648 C-11.26373688 38.07391342 -11.27039368 37.18518036 -11.2772522 36.26951599 C-11.28735376 34.3943793 -11.29206999 32.51920684 -11.29174805 30.64404297 C-11.29612284 27.78414442 -11.33247245 24.92578808 -11.37036133 22.06616211 C-11.3762298 20.23999549 -11.38019899 18.41382157 -11.38208008 16.58764648 C-11.39645111 15.73747452 -11.41082214 14.88730255 -11.42562866 14.0113678 C-11.38320041 8.46580024 -10.53149469 5.47379981 -6.92114258 1.20874023 C-4.45402972 -0.0248162 -2.75981449 0.04845608 0 0 Z " fill="#4F289C" transform="translate(449.921142578125,452.791259765625)"/>
<path d="M0 0 C1.13526123 -0.0071553 2.27052246 -0.01431061 3.44018555 -0.02168274 C5.83739435 -0.02945773 8.23467398 -0.02445205 10.63183594 -0.00756836 C14.30018588 0.01165422 17.96474716 -0.02773116 21.6328125 -0.07226562 C23.96354392 -0.07255599 26.29427882 -0.06941599 28.625 -0.0625 C30.26891724 -0.08542366 30.26891724 -0.08542366 31.94604492 -0.10881042 C40.41965156 0.02091398 40.41965156 0.02091398 43.50146484 3.12182617 C46.20454652 7.31474931 46.03025694 11.85742259 45.9765625 16.69921875 C45.98134613 17.653125 45.98612976 18.60703125 45.99105835 19.58984375 C45.99445046 21.60027726 45.98529638 23.61076644 45.96435547 25.62109375 C45.93757992 28.69005882 45.96412654 31.7553668 45.99609375 34.82421875 C45.99278953 36.78256012 45.98638304 38.74089922 45.9765625 40.69921875 C45.98668365 41.611875 45.99680481 42.52453125 46.00723267 43.46484375 C45.93381313 47.47613039 45.70790632 50.85229904 43.48779297 54.27880859 C38.76039185 57.88233425 34.64053562 57.52519168 28.84375 57.42578125 C27.73068481 57.42677826 26.61761963 57.42777527 25.4708252 57.42880249 C23.1206141 57.42412744 20.77039244 57.40470755 18.42041016 57.37158203 C14.82493471 57.32438199 11.23242542 57.33046355 7.63671875 57.34375 C5.35154483 57.33259607 3.0663834 57.31837606 0.78125 57.30078125 C-0.82985657 57.30351547 -0.82985657 57.30351547 -2.47351074 57.30630493 C-9.91932429 57.16499959 -9.91932429 57.16499959 -13.84179688 54.78662109 C-16.43673176 51.8518733 -16.81732895 50.24373842 -16.88037109 46.4206543 C-16.89643402 45.53600998 -16.91249695 44.65136566 -16.92904663 43.73991394 C-16.97349715 39.69225823 -17.01456141 35.64476653 -17.03759766 31.59692383 C-17.05415841 29.46204732 -17.08144988 27.32722629 -17.11962891 25.19262695 C-17.17439333 22.11510445 -17.19627113 19.03888164 -17.2109375 15.9609375 C-17.23360687 15.00869797 -17.25627625 14.05645844 -17.27963257 13.07536316 C-17.26609925 8.8297504 -17.04940712 6.32125581 -14.88525391 2.6015625 C-10.03105441 -0.28620071 -5.55357276 -0.03539112 0 0 Z " fill="#4E279B" transform="translate(243.6875,452.30078125)"/>
<path d="M0 0 C1.00476883 -0.01606293 2.00953766 -0.03212585 3.04475403 -0.04867554 C7.64197153 -0.09307996 12.23904405 -0.13418828 16.83642578 -0.15722656 C19.26230458 -0.17379211 21.68813445 -0.20108966 24.11376953 -0.23925781 C27.60824958 -0.29397429 31.10158503 -0.31589332 34.59643555 -0.33056641 C35.67991776 -0.35323578 36.76339996 -0.37590515 37.87971497 -0.39926147 C42.47550496 -0.38634702 45.3481859 -0.29418569 49.35253906 2.07714844 C51.97987161 6.57963508 51.88855544 10.43621778 51.8347168 15.56787109 C51.83950043 16.56995605 51.84428406 17.57204102 51.84921265 18.60449219 C51.85260908 20.71925429 51.84342471 22.83406907 51.82250977 24.94873047 C51.79574143 28.1823453 51.82226722 31.41248899 51.85424805 34.64599609 C51.8509439 36.70329541 51.84453758 38.76059257 51.8347168 40.81787109 C51.84483795 41.78257324 51.85495911 42.74727539 51.86538696 43.74121094 C51.79086398 48.01773501 51.53598401 50.57339896 49.33447266 54.30639648 C44.58465295 57.13854841 40.31800931 56.85201074 34.88549805 56.75146484 C33.24563683 56.74796776 33.24563683 56.74796776 31.57264709 56.74440002 C29.26531147 56.73467051 26.95799947 56.71290199 24.65087891 56.67993164 C21.11739787 56.63050041 17.58530936 56.61844862 14.05151367 56.61279297 C11.8086603 56.5987075 9.56581903 56.58250329 7.32299805 56.56396484 C6.2656395 56.55860214 5.20828094 56.55323944 4.11888123 56.54771423 C3.13428421 56.53172684 2.14968719 56.51573944 1.13525391 56.49926758 C0.27097275 56.48862778 -0.59330841 56.47798798 -1.48377991 56.46702576 C-4.05194042 56.16685376 -5.65168348 55.57364952 -7.8293457 54.19287109 C-11.219333 49.19315623 -11.28312183 44.67244522 -11.26293945 38.84912109 C-11.2681813 37.96180298 -11.27342316 37.07448486 -11.27882385 36.16027832 C-11.2852247 34.29110761 -11.28393224 32.42189652 -11.27539062 30.55273438 C-11.26687172 27.70157906 -11.29568249 24.85242302 -11.32739258 22.00146484 C-11.32900464 20.17985086 -11.32842696 18.35823334 -11.32543945 16.53662109 C-11.33667343 15.68958618 -11.34790741 14.84255127 -11.35948181 13.96984863 C-11.29474083 8.44167095 -10.42371888 5.44728131 -6.8293457 1.19287109 C-4.38147768 -0.03106292 -2.73723069 0.03970944 0 0 Z " fill="#4E279B" transform="translate(132.829345703125,452.80712890625)"/>
<path d="M0 0 C0.96472733 -0.01283524 1.92945465 -0.02567047 2.92341614 -0.03889465 C4.49212715 -0.04997505 4.49212715 -0.04997505 6.0925293 -0.0612793 C7.16544724 -0.06935104 8.23836517 -0.07742279 9.34379578 -0.08573914 C11.61768982 -0.09958665 13.89160471 -0.11030581 16.16552734 -0.11816406 C19.64224666 -0.13537674 23.11801524 -0.17925793 26.59448242 -0.22338867 C28.80215771 -0.23351539 31.00984109 -0.24203156 33.2175293 -0.2487793 C34.25726395 -0.26628738 35.2969986 -0.28379547 36.36824036 -0.30183411 C40.73621833 -0.28871665 43.56307213 -0.26459484 47.42529297 1.89111328 C51.69134204 6.94655152 51.66214823 11.68151831 51.6550293 18.02075195 C51.65931442 18.8674646 51.66359955 19.71417725 51.66801453 20.58654785 C51.67374208 22.37173572 51.67426972 24.15694691 51.66992188 25.94213867 C51.66675853 28.66796728 51.69025175 31.39271335 51.71557617 34.1184082 C51.71784905 35.85668809 51.71855272 37.59497088 51.7175293 39.33325195 C51.72673904 40.14483765 51.73594879 40.95642334 51.74543762 41.79260254 C51.70779742 46.41118043 51.36975477 49.450134 48.35424805 53.17700195 C45.38411933 55.81881426 43.53351501 56.55378008 39.57324219 56.56518555 C38.62868668 56.57464203 37.68413116 56.58409851 36.71095276 56.59384155 C35.19053627 56.58473251 35.19053627 56.58473251 33.6394043 56.57543945 C32.0675663 56.57974472 32.0675663 56.57974472 30.463974 56.58413696 C28.24908915 56.58617733 26.03418626 56.58064939 23.81933594 56.56811523 C20.43277558 56.55207785 17.04741163 56.56795716 13.66088867 56.5871582 C11.50789125 56.58517545 9.35489457 56.58133112 7.2019043 56.57543945 C6.19031754 56.58151215 5.17873077 56.58758484 4.13648987 56.59384155 C-4.8910228 56.5037626 -4.8910228 56.5037626 -8.64575195 53.17700195 C-10.36368075 50.31616271 -10.90207839 48.17443394 -10.9362793 44.85498047 C-10.949039 44.01052872 -10.96179871 43.16607697 -10.97494507 42.29603577 C-10.97717072 41.39179367 -10.97939636 40.48755157 -10.98168945 39.5559082 C-10.98834625 38.61899643 -10.99500305 37.68208466 -11.00186157 36.71678162 C-11.0119765 34.73731446 -11.01667895 32.75781329 -11.01635742 30.77832031 C-11.02073136 27.75374093 -11.05706515 24.7306202 -11.0949707 21.70629883 C-11.10083898 19.7811736 -11.1048083 17.85604146 -11.10668945 15.9309082 C-11.12106049 15.02869034 -11.13543152 14.12647247 -11.15023804 13.19691467 C-11.11973775 8.99553721 -11.0138701 6.76618925 -8.74194336 3.12988281 C-5.70452292 0.30012203 -4.04850915 0.04683473 0 0 Z " fill="#4E289B" transform="translate(341.645751953125,276.822998046875)"/>
<path d="M0 0 C1.11306519 -0.0071553 2.22613037 -0.01431061 3.3729248 -0.02168274 C5.723055 -0.02945706 8.07325745 -0.02445345 10.42333984 -0.00756836 C14.01928869 0.01165481 17.61137271 -0.02773201 21.20703125 -0.07226562 C23.4921898 -0.07255599 25.7773519 -0.06941598 28.0625 -0.0625 C29.13657104 -0.07778244 30.21064209 -0.09306488 31.31726074 -0.10881042 C36.22405696 -0.032194 38.72728682 0.08681068 42.70874023 3.11962891 C45.43432417 7.32363329 45.23049974 11.87549095 45.16015625 16.734375 C45.16256821 17.69065292 45.16498016 18.64693085 45.16746521 19.63218689 C45.16648876 21.64684206 45.15314365 23.66152473 45.12817383 25.67602539 C45.09381772 28.75564813 45.10753756 31.83240691 45.12695312 34.91210938 C45.12005549 36.8737101 45.11038386 38.83530344 45.09765625 40.796875 C45.10261612 41.71469254 45.10757599 42.63251007 45.11268616 43.57814026 C45.03501853 47.80165399 44.90312682 50.10426336 42.62084961 53.75561523 C39.56269705 56.60010087 37.86987549 56.83174688 33.79370117 56.89208984 C32.80895309 56.90815277 31.82420502 56.9242157 30.80961609 56.94076538 C26.30399219 56.9851767 21.79851614 57.02627843 17.29272461 57.04931641 C14.91534642 57.06588124 12.53801814 57.09317787 10.16088867 57.13134766 C6.73590213 57.1860713 3.31208341 57.20798417 -0.11328125 57.22265625 C-1.17488968 57.24532562 -2.23649811 57.267995 -3.33027649 57.29135132 C-7.87753906 57.27831591 -10.67796247 57.16953532 -14.63696289 54.81494141 C-17.28318941 50.31392278 -17.18672478 46.46289037 -17.1328125 41.32421875 C-17.13759613 40.32213379 -17.14237976 39.32004883 -17.14730835 38.28759766 C-17.15070478 36.17283556 -17.14152041 34.05802077 -17.12060547 31.94335938 C-17.09383713 28.70974454 -17.12036293 25.47960085 -17.15234375 22.24609375 C-17.14903961 20.18879444 -17.14263328 18.13149728 -17.1328125 16.07421875 C-17.14293365 15.1095166 -17.15305481 14.14481445 -17.16348267 13.15087891 C-17.08913727 8.88454568 -16.83419244 6.32101852 -14.64404297 2.59448242 C-9.8560356 -0.26337558 -5.4829035 -0.03565234 0 0 Z " fill="#4D279A" transform="translate(348.46875,452.30078125)"/>
<path d="M0 0 C1.39164368 -0.00945648 1.39164368 -0.00945648 2.81140137 -0.019104 C4.30371277 -0.01303131 4.30371277 -0.01303131 5.82617188 -0.00683594 C7.36827332 -0.00970612 7.36827332 -0.00970612 8.94152832 -0.01263428 C11.11352788 -0.0139943 13.28553562 -0.01031062 15.45751953 -0.00195312 C18.78241227 0.0087488 22.10676469 -0.00185478 25.43164062 -0.01464844 C27.5423189 -0.01332681 29.65299684 -0.01076435 31.76367188 -0.00683594 C32.75854614 -0.0108844 33.75342041 -0.01493286 34.77844238 -0.019104 C35.70620483 -0.01279968 36.63396729 -0.00649536 37.58984375 0 C38.81084778 0.00238678 38.81084778 0.00238678 40.05651855 0.00482178 C42.52130772 0.2844746 44.15917544 1.02708613 46.29492188 2.25878906 C45.30492187 2.58878906 44.31492187 2.91878906 43.29492188 3.25878906 C43.29492188 3.91878906 43.29492188 4.57878906 43.29492188 5.25878906 C25.47492188 5.58878906 7.65492188 5.91878906 -10.70507812 6.25878906 C-8.02050044 0.88963368 -5.82913226 0.0113946 0 0 Z " fill="#442090" transform="translate(451.705078125,361.7412109375)"/>
<path d="M0 0 C3.37644826 3.37644826 3.37644826 3.37644826 3.41992188 7.39208984 C3.43583374 8.27665863 3.45174561 9.16122742 3.46813965 10.07260132 C3.46834106 11.02575226 3.46854248 11.9789032 3.46875 12.9609375 C3.48017029 14.43501572 3.48017029 14.43501572 3.49182129 15.93887329 C3.50262984 18.0184678 3.50547234 20.09811663 3.50097656 22.17773438 C3.50000568 25.35639357 3.54158899 28.53262789 3.5859375 31.7109375 C3.59114556 33.7317658 3.59383268 35.75260249 3.59375 37.7734375 C3.6183429 39.19709122 3.6183429 39.19709122 3.64343262 40.64950562 C3.59498875 45.28737669 3.52950687 47.32461077 0.58789062 51.07666016 C-2.79931226 53.59405491 -4.4118837 54.12806319 -8.55395508 54.17700195 C-9.49866165 54.18983719 -10.44336823 54.20267242 -11.41670227 54.21589661 C-12.44063583 54.22328354 -13.4645694 54.23067047 -14.51953125 54.23828125 C-15.57025314 54.246353 -16.62097504 54.25442474 -17.70353699 54.26274109 C-19.93035224 54.27658815 -22.15718877 54.28730751 -24.3840332 54.29516602 C-27.78833276 54.31237781 -31.1916611 54.35625913 -34.59570312 54.40039062 C-36.75780535 54.41051745 -38.91991584 54.41903358 -41.08203125 54.42578125 C-42.60882256 54.45204338 -42.60882256 54.45204338 -44.16645813 54.47883606 C-51.282348 54.45701797 -51.282348 54.45701797 -55.18237305 51.97338867 C-55.78218994 51.32217041 -56.38200684 50.67095215 -57 50 C-56.67 49.34 -56.34 48.68 -56 48 C-55.60126678 48.48732101 -55.20253357 48.97464203 -54.79171753 49.47673035 C-52.49690223 51.42772008 -51.31552563 51.37457395 -48.33251953 51.37231445 C-47.38788849 51.37854324 -46.44325745 51.38477203 -45.47000122 51.39118958 C-44.45122894 51.38197983 -43.43245667 51.37277008 -42.3828125 51.36328125 C-41.33350555 51.36377975 -40.28419861 51.36427826 -39.20309448 51.36479187 C-36.98221953 51.36245024 -34.76134198 51.35271655 -32.54052734 51.33618164 C-29.14526539 51.31264051 -25.7507913 51.31561393 -22.35546875 51.32226562 C-20.19791199 51.3166871 -18.04035854 51.30957613 -15.8828125 51.30078125 C-14.86808868 51.30169266 -13.85336487 51.30260406 -12.80789185 51.30354309 C-11.85695648 51.29401108 -10.90602112 51.28447906 -9.92626953 51.2746582 C-9.09370636 51.27005081 -8.26114319 51.26544342 -7.40335083 51.26069641 C-4.48179741 51.05284741 -4.48179741 51.05284741 0 49 C0 32.83 0 16.66 0 0 Z " fill="#3C1A85" transform="translate(390,366)"/>
<path d="M0 0 C1.07794075 0.48797562 1.07794075 0.48797562 2.17765808 0.98580933 C5.06992137 2.0251258 7.10374549 2.24251268 10.1574707 2.22705078 C11.15813065 2.22689972 12.15879059 2.22674866 13.18977356 2.22659302 C14.2576561 2.21627045 15.32553864 2.20594788 16.42578125 2.1953125 C17.52850876 2.1924826 18.63123627 2.18965271 19.76737976 2.18673706 C23.28253114 2.17555981 26.79742589 2.15045937 30.3125 2.125 C32.69856402 2.11496704 35.08463205 2.10584174 37.47070312 2.09765625 C43.31388935 2.07562849 49.15692634 2.04217514 55 2 C54.67 2.66 54.34 3.32 54 4 C51.18819772 4.93726743 49.42877825 5.13613076 46.51611328 5.16113281 C45.61152374 5.17074036 44.7069342 5.1803479 43.77493286 5.19024658 C42.79990814 5.19449646 41.82488342 5.19874634 40.8203125 5.203125 C39.31294022 5.21167511 39.31294022 5.21167511 37.77511597 5.22039795 C35.64842786 5.22984577 33.52172513 5.23638107 31.39501953 5.24023438 C28.14459667 5.24994148 24.89480574 5.28096785 21.64453125 5.3125 C19.57812875 5.31903006 17.51172174 5.32428052 15.4453125 5.328125 C13.98884811 5.3466452 13.98884811 5.3466452 12.50296021 5.36553955 C3.84171775 5.33700358 3.84171775 5.33700358 0 2 C0 1.34 0 0.68 0 0 Z " fill="#53319D" transform="translate(230,593)"/>
<path d="M0 0 C2.40441359 1.69317754 3.82627172 3.08345115 4.38500977 6.03121948 C4.53023255 8.64125129 4.55410437 11.22579022 4.53125 13.83984375 C4.5350769 14.79895157 4.53890381 15.75805939 4.54284668 16.74623108 C4.54556627 18.77280732 4.53820183 20.79941863 4.52148438 22.82592773 C4.50009899 25.92316279 4.52127251 29.01807201 4.546875 32.11523438 C4.54423127 34.08594261 4.53910537 36.0566494 4.53125 38.02734375 C4.53934692 38.95143539 4.54744385 39.87552704 4.55578613 40.82762146 C4.49259177 45.17614549 4.39306654 47.39619353 1.96679688 51.12329102 C1.31775391 51.74260498 0.66871094 52.36191895 0 53 C-0.66 52.67 -1.32 52.34 -2 52 C-1.67 50.68 -1.34 49.36 -1 48 C-0.01 48.33 0.98 48.66 2 49 C1.88244909 42.50368978 1.75761669 36.00754894 1.62768555 29.51147461 C1.58433448 27.30089502 1.54265954 25.09028191 1.50268555 22.87963867 C1.44498734 19.70481251 1.38129138 16.53015514 1.31640625 13.35546875 C1.29133751 11.86940376 1.29133751 11.86940376 1.26576233 10.35331726 C1.24581711 9.43258926 1.22587189 8.51186127 1.20532227 7.56323242 C1.18977798 6.7527092 1.1742337 5.94218597 1.15821838 5.10710144 C1.07190279 2.80853317 1.07190279 2.80853317 0 0 Z " fill="#38157E" transform="translate(285,455)"/>
<path d="M0 0 C0 3 0 3 -1.3125 4.625 C-4.2140731 6.98924475 -6.87939831 7.12358712 -10.47143555 7.11352539 C-11.82249641 7.11341209 -11.82249641 7.11341209 -13.20085144 7.11329651 C-14.16968765 7.10813522 -15.13852386 7.10297394 -16.13671875 7.09765625 C-17.62858452 7.09553383 -17.62858452 7.09553383 -19.15058899 7.09336853 C-22.32958982 7.08776761 -25.50852043 7.07521496 -28.6875 7.0625 C-30.84179586 7.05748512 -32.99609282 7.05292219 -35.15039062 7.04882812 C-40.43361774 7.03779788 -45.71680385 7.02105886 -51 7 C-51.33 6.34 -51.66 5.68 -52 5 C-51.11130219 4.99453156 -51.11130219 4.99453156 -50.20465088 4.98895264 C-44.04000577 4.94715293 -37.87610694 4.87782542 -31.71191406 4.79248047 C-29.41120873 4.76424896 -27.11040601 4.74304534 -24.80957031 4.72900391 C-21.50274721 4.70760514 -18.19709774 4.66096892 -14.890625 4.609375 C-13.86132874 4.60814636 -12.83203247 4.60691772 -11.77154541 4.60565186 C-6.13444962 4.58933628 -6.13444962 4.58933628 -1.31933594 1.96191406 C-0.66626465 0.9907666 -0.66626465 0.9907666 0 0 Z " fill="#593C9F" transform="translate(391,591)"/>
<path d="M0 0 C0.98079025 0.00022659 1.96158051 0.00045319 2.97209167 0.00068665 C4.028423 0.0161705 5.08475433 0.03165436 6.1730957 0.04760742 C7.25645706 0.05185226 8.33981842 0.05609711 9.45600891 0.06047058 C12.92054972 0.07728048 16.38451157 0.11493769 19.84887695 0.15307617 C22.19587377 0.16811999 24.54287969 0.18180892 26.88989258 0.1940918 C32.647252 0.22719156 38.40427312 0.27741412 44.16137695 0.34057617 C44.16137695 0.67057617 44.16137695 1.00057617 44.16137695 1.34057617 C28.98137695 1.34057617 13.80137695 1.34057617 -1.83862305 1.34057617 C-1.83862305 2.00057617 -1.83862305 2.66057617 -1.83862305 3.34057617 C-3.81862305 3.34057617 -5.79862305 3.34057617 -7.83862305 3.34057617 C-5.39004092 0.31720043 -3.83549229 -0.02957963 0 0 Z " fill="#582FAB" transform="translate(132.838623046875,363.659423828125)"/>
<path d="M0 0 C0.99 0.33 1.98 0.66 3 1 C3 1.66 3 2.32 3 3 C10.59 3 18.18 3 26 3 C22.7840895 5.14394034 21.88969066 5.25580474 18.18359375 5.265625 C16.79043945 5.26949219 16.79043945 5.26949219 15.36914062 5.2734375 C14.40169922 5.26570312 13.43425781 5.25796875 12.4375 5.25 C10.98053711 5.26160156 10.98053711 5.26160156 9.49414062 5.2734375 C8.56666016 5.27085937 7.63917969 5.26828125 6.68359375 5.265625 C5.83337646 5.26336914 4.98315918 5.26111328 4.10717773 5.25878906 C2 5 2 5 0 3 C0 2.01 0 1.02 0 0 Z " fill="#F5F6F1" transform="translate(127,596)"/>
<path d="M0 0 C0.99 0.66 1.98 1.32 3 2 C5.8086043 2.36844508 5.8086043 2.36844508 8.98046875 2.4140625 C10.72553711 2.47207031 10.72553711 2.47207031 12.50585938 2.53125 C13.72080078 2.5621875 14.93574219 2.593125 16.1875 2.625 C17.41404297 2.66367187 18.64058594 2.70234375 19.90429688 2.7421875 C22.93604656 2.83656103 25.96778841 2.92214549 29 3 C29 3.33 29 3.66 29 4 C24.92492428 4.04946866 20.84996503 4.08575189 16.7746582 4.10986328 C15.38855952 4.1199157 14.00248201 4.1335597 12.61645508 4.15087891 C10.6233025 4.17515952 8.62999467 4.18542031 6.63671875 4.1953125 C4.83787231 4.21102295 4.83787231 4.21102295 3.00268555 4.22705078 C0 4 0 4 -3 2 C-2.01 1.34 -1.02 0.68 0 0 Z " fill="#4C2691" transform="translate(233,540)"/>
<path d="M0 0 C1.66413655 3.3282731 0.81867406 6.99733973 0.5625 10.625 C0.51029297 11.42679688 0.45808594 12.22859375 0.40429688 13.0546875 C0.27451629 15.03679103 0.13790265 17.01844499 0 19 C-0.33 19 -0.66 19 -1 19 C-1.33 17.02 -1.66 15.04 -2 13 C-2.33 13 -2.66 13 -3 13 C-3.31563182 7.73946963 -2.66590937 4.55426184 0 0 Z " fill="#F0ECF3" transform="translate(434,32)"/>
<path d="M0 0 C5.20011102 2.90594439 10.02822777 5.65891236 12.375 11.3125 C12.58125 12.199375 12.7875 13.08625 13 14 C8.445213 10.19985226 4.04720741 6.34334454 0 2 C0 1.34 0 0.68 0 0 Z " fill="#7A4ECC" transform="translate(37,644)"/>
<path d="M0 0 C3.63 0.66 7.26 1.32 11 2 C10.67 2.99 10.34 3.98 10 5 C7 4 7 4 5 3 C5 3.99 5 4.98 5 6 C3.35 5.67 1.7 5.34 0 5 C0 3.33333333 0 1.66666667 0 0 Z " fill="#421E8D" transform="translate(79,650)"/>
<path d="M0 0 C0.66 0.33 1.32 0.66 2 1 C-1.3 4.3 -4.6 7.6 -8 11 C-8.33 10.01 -8.66 9.02 -9 8 C-6.03 5.36 -3.06 2.72 0 0 Z " fill="#4B2299" transform="translate(49,90)"/>
<path d="M0 0 C0.08121924 1.60332791 0.13929134 3.20784026 0.1875 4.8125 C0.23970703 6.15248047 0.23970703 6.15248047 0.29296875 7.51953125 C0 10 0 10 -3 13 C-3 9.04 -3 5.08 -3 1 C-1 0 -1 0 0 0 Z " fill="#F0ECF3" transform="translate(468,37)"/>
<path d="M0 0 C0 3 0 3 -1.17578125 4.67578125 C-3.62213504 6.45161409 -5.1979771 6.30397492 -8.1875 6.1875 C-9.53908203 6.14689453 -9.53908203 6.14689453 -10.91796875 6.10546875 C-11.60503906 6.07066406 -12.29210937 6.03585937 -13 6 C-13 5.67 -13 5.34 -13 5 C-12.09507812 4.96132813 -12.09507812 4.96132813 -11.171875 4.921875 C-5.89464661 4.59668017 -5.89464661 4.59668017 -1.4375 1.9375 C-0.963125 1.298125 -0.48875 0.65875 0 0 Z " fill="#2C0F7D" transform="translate(391,591)"/>
<path d="M0 0 C1.65 0 3.3 0 5 0 C5 0.66 5 1.32 5 2 C7.97 2.495 7.97 2.495 11 3 C11 3.33 11 3.66 11 4 C3.49230769 3.38461538 3.49230769 3.38461538 1 1.4375 C0.67 0.963125 0.34 0.48875 0 0 Z " fill="#381982" transform="translate(154,160)"/>
<path d="M0 0 C1.875 0.1875 1.875 0.1875 4 1 C5.25 3.5625 5.25 3.5625 6 6 C5.34 6.66 4.68 7.32 4 8 C0 2.25 0 2.25 0 0 Z " fill="#683DB8" transform="translate(479,17)"/>
<path d="M0 0 C0.33 0 0.66 0 1 0 C0.67 3.63 0.34 7.26 0 11 C-0.66 11 -1.32 11 -2 11 C-2 8.03 -2 5.06 -2 2 C-1.34 2 -0.68 2 0 2 C0 1.34 0 0.68 0 0 Z " fill="#36157F" transform="translate(37,142)"/>
<path d="M0 0 C0.33 0.66 0.66 1.32 1 2 C0.01 3.485 0.01 3.485 -1 5 C-3.625 5.1875 -3.625 5.1875 -6 5 C-6 4.34 -6 3.68 -6 3 C-4.02 2.01 -2.04 1.02 0 0 Z " fill="#F1EFF5" transform="translate(73,100)"/>
<path d="M0 0 C0.99 0 1.98 0 3 0 C3.66 1.98 4.32 3.96 5 6 C4.01 6 3.02 6 2 6 C1.34 4.02 0.68 2.04 0 0 Z " fill="#6F44C0" transform="translate(25,627)"/>
<path d="M0 0 C1.17539996 0.92652701 2.34010577 1.86663387 3.5 2.8125 C4.1496875 3.33457031 4.799375 3.85664062 5.46875 4.39453125 C7 6 7 6 7 9 C5.82737096 7.88121617 4.66204862 6.75476949 3.5 5.625 C2.8503125 4.99851562 2.200625 4.37203125 1.53125 3.7265625 C0 2 0 2 0 0 Z " fill="#9062E1" transform="translate(509,47)"/>
<path d="M0 0 C2.31 1.98 4.62 3.96 7 6 C4 6 4 6 1.8125 4.125 C0 2 0 2 0 0 Z " fill="#673EC4" transform="translate(208,27)"/>
<path d="M0 0 C0.66 0.66 1.32 1.32 2 2 C1.67 2.99 1.34 3.98 1 5 C0.01 3.68 -0.98 2.36 -2 1 C-1.34 0.67 -0.68 0.34 0 0 Z " fill="#7448CC" transform="translate(222,39)"/>
<path d="M0 0 C0.99 0.33 1.98 0.66 3 1 C2.67 1.99 2.34 2.98 2 4 C1.34 4 0.68 4 0 4 C0 2.68 0 1.36 0 0 Z " fill="#7C51D2" transform="translate(597,118)"/>
<path d="M0 0 C0.66 0.66 1.32 1.32 2 2 C1.01 2.33 0.02 2.66 -1 3 C-1.33 2.34 -1.66 1.68 -2 1 C-1.34 0.67 -0.68 0.34 0 0 Z " fill="#7B4FD2" transform="translate(218,35)"/>
<path d="M0 0 C0.99 0.33 1.98 0.66 3 1 C2.67 1.66 2.34 2.32 2 3 C1.34 2.01 0.68 1.02 0 0 Z " fill="#663DC1" transform="translate(56,662)"/>
<path d="M0 0 C0.99 0.495 0.99 0.495 2 1 C1.67 1.66 1.34 2.32 1 3 C0.67 2.01 0.34 1.02 0 0 Z " fill="#9262E3" transform="translate(493,31)"/>
<path d="M0 0 C0.66 0 1.32 0 2 0 C1.67 0.66 1.34 1.32 1 2 C0.67 1.34 0.34 0.68 0 0 Z " fill="#8F62E0" transform="translate(605,126)"/>
<path d="M0 0 C0.66 0 1.32 0 2 0 C1.67 0.66 1.34 1.32 1 2 C0.67 1.34 0.34 0.68 0 0 Z " fill="#9062E3" transform="translate(532,71)"/>
<path d="M0 0 C0.99 0.495 0.99 0.495 2 1 C1.01 1.495 1.01 1.495 0 2 C0 1.34 0 0.68 0 0 Z " fill="#6841C4" transform="translate(210,68)"/>
<path d="M0 0 C0.66 0 1.32 0 2 0 C1.67 0.66 1.34 1.32 1 2 C0.67 1.34 0.34 0.68 0 0 Z " fill="#9265E3" transform="translate(525,64)"/>
<path d="M0 0 C0.66 0 1.32 0 2 0 C1.67 0.66 1.34 1.32 1 2 C0.67 1.34 0.34 0.68 0 0 Z " fill="#8F63E0" transform="translate(521,60)"/>
<path d="M0 0 C0.66 0 1.32 0 2 0 C1.67 0.66 1.34 1.32 1 2 C0.67 1.34 0.34 0.68 0 0 Z " fill="#9062E2" transform="translate(240,58)"/>
<path d="M0 0 C0.66 0 1.32 0 2 0 C1.67 0.66 1.34 1.32 1 2 C0.67 1.34 0.34 0.68 0 0 Z " fill="#9063E3" transform="translate(517,56)"/>
<path d="M0 0 C0.66 0 1.32 0 2 0 C1.67 0.66 1.34 1.32 1 2 C0.67 1.34 0.34 0.68 0 0 Z " fill="#683EC4" transform="translate(218,38)"/>
<path d="" fill="#9062E1" transform="translate(0,0)"/>
<path d="" fill="#6842C6" transform="translate(0,0)"/>
<path d="M0 0 C2 1 2 1 2 1 Z " fill="#6940C6" transform="translate(214,68)"/>
<path d="M0 0 C2 1 2 1 2 1 Z " fill="#8F61DF" transform="translate(237,55)"/>
<path d="" fill="#8F62E2" transform="translate(0,0)"/>
<path d="M0 0 C2 1 2 1 2 1 Z " fill="#8F62E1" transform="translate(230,48)"/>
<path d="" fill="#9162E2" transform="translate(0,0)"/>
<path d="" fill="#8F63E2" transform="translate(0,0)"/>
<path d="M0 0 C2 1 2 1 2 1 Z " fill="#8F62E4" transform="translate(225,43)"/>
<path d="" fill="#683FC2" transform="translate(0,0)"/>
<path d="" fill="#9062E2" transform="translate(0,0)"/>
<path d="" fill="#673EC2" transform="translate(0,0)"/>
<path d="" fill="#9164E3" transform="translate(0,0)"/>
<path d="" fill="#6A3EC6" transform="translate(0,0)"/>
<path d="" fill="#9263E5" transform="translate(0,0)"/>
<path d="" fill="#663CC2" transform="translate(0,0)"/>
<path d="" fill="#9265E4" transform="translate(0,0)"/>
<path d="" fill="#683DC3" transform="translate(0,0)"/>
<path d="" fill="#9265E3" transform="translate(0,0)"/>
<path d="" fill="#693EC2" transform="translate(0,0)"/>
<path d="" fill="#9063E3" transform="translate(0,0)"/>
<path d="" fill="#663CBD" transform="translate(0,0)"/>
<path d="" fill="#9266E4" transform="translate(0,0)"/>
<path d="" fill="#6940C7" transform="translate(0,0)"/>
<path d="" fill="#663BC0" transform="translate(0,0)"/>
<path d="" fill="#9368E5" transform="translate(0,0)"/>
<path d="" fill="#663BC0" transform="translate(0,0)"/>
<path d="" fill="#9263E4" transform="translate(0,0)"/>
<path d="" fill="#6842C8" transform="translate(0,0)"/>
<path d="" fill="#673DC2" transform="translate(0,0)"/>
<path d="" fill="#9263E7" transform="translate(0,0)"/>
<path d="" fill="#673CC1" transform="translate(0,0)"/>
<path d="" fill="#9365E6" transform="translate(0,0)"/>
<path d="" fill="#653BC1" transform="translate(0,0)"/>
<path d="" fill="#9165E2" transform="translate(0,0)"/>
<path d="" fill="#663ABE" transform="translate(0,0)"/>
<path d="" fill="#9164E6" transform="translate(0,0)"/>
<path d="" fill="#673BC0" transform="translate(0,0)"/>
<path d="" fill="#9463E4" transform="translate(0,0)"/>
<path d="" fill="#9265E5" transform="translate(0,0)"/>
<path d="" fill="#9267E3" transform="translate(0,0)"/>
<path d="" fill="#9365E5" transform="translate(0,0)"/>
<path d="" fill="#633BBE" transform="translate(0,0)"/>
<path d="" fill="#9265E6" transform="translate(0,0)"/>
<path d="" fill="#5F36BA" transform="translate(0,0)"/>
<path d="" fill="#9365E7" transform="translate(0,0)"/>
<path d="" fill="#6436BE" transform="translate(0,0)"/>
<path d="" fill="#9364E8" transform="translate(0,0)"/>
<path d="" fill="#9365E4" transform="translate(0,0)"/>
<path d="" fill="#996FED" transform="translate(0,0)"/>
<path d="" fill="#986CEA" transform="translate(0,0)"/>
<path d="" fill="#8F60DE" transform="translate(0,0)"/>
<path d="" fill="#8F5EDE" transform="translate(0,0)"/>
<path d="" fill="#905FDF" transform="translate(0,0)"/>
<path d="" fill="#8F61DE" transform="translate(0,0)"/>
<path d="" fill="#6943C5" transform="translate(0,0)"/>
<path d="" fill="#6943C5" transform="translate(0,0)"/>
<path d="" fill="#653BC1" transform="translate(0,0)"/>
<path d="" fill="#653EC1" transform="translate(0,0)"/>
<path d="" fill="#8F5FDE" transform="translate(0,0)"/>
<path d="" fill="#9165E4" transform="translate(0,0)"/>
<path d="" fill="#663EC2" transform="translate(0,0)"/>
<path d="" fill="#9367E5" transform="translate(0,0)"/>
<path d="" fill="#683DC2" transform="translate(0,0)"/>
<path d="" fill="#9464E3" transform="translate(0,0)"/>
<path d="" fill="#6840C2" transform="translate(0,0)"/>
<path d="" fill="#9066E3" transform="translate(0,0)"/>
<path d="" fill="#6940C3" transform="translate(0,0)"/>
<path d="" fill="#9265E5" transform="translate(0,0)"/>
<path d="" fill="#663CC2" transform="translate(0,0)"/>
<path d="" fill="#663EC4" transform="translate(0,0)"/>
<path d="" fill="#683FC4" transform="translate(0,0)"/>
<path d="" fill="#673DC4" transform="translate(0,0)"/>
<path d="" fill="#683FC2" transform="translate(0,0)"/>
<path d="" fill="#683EC3" transform="translate(0,0)"/>
<path d="" fill="#8F61E1" transform="translate(0,0)"/>
<path d="" fill="#663CBE" transform="translate(0,0)"/>
<path d="" fill="#9061E1" transform="translate(0,0)"/>
<path d="" fill="#663FBF" transform="translate(0,0)"/>
<path d="" fill="#9666E4" transform="translate(0,0)"/>
<path d="" fill="#9262E3" transform="translate(0,0)"/>
<path d="" fill="#643BC1" transform="translate(0,0)"/>
<path d="" fill="#653CC3" transform="translate(0,0)"/>
<path d="" fill="#9164E4" transform="translate(0,0)"/>
<path d="" fill="#633BC1" transform="translate(0,0)"/>
<path d="" fill="#9064E3" transform="translate(0,0)"/>
<path d="" fill="#9266E3" transform="translate(0,0)"/>
<path d="" fill="#9567E7" transform="translate(0,0)"/>
<path d="" fill="#9B6CEB" transform="translate(0,0)"/>
<path d="" fill="#9A6FEF" transform="translate(0,0)"/>
<path d="" fill="#996CEB" transform="translate(0,0)"/>
<path d="" fill="#A070F0" transform="translate(0,0)"/>
<path d="" fill="#976DED" transform="translate(0,0)"/>
<path d="" fill="#9B70EE" transform="translate(0,0)"/>
<path d="" fill="#8F61DE" transform="translate(0,0)"/>
<path d="" fill="#9E72EE" transform="translate(0,0)"/>
<path d="" fill="#9A6DF0" transform="translate(0,0)"/>
<path d="" fill="#986DEB" transform="translate(0,0)"/>
<path d="" fill="#996CEA" transform="translate(0,0)"/>
<path d="" fill="#9A6EEE" transform="translate(0,0)"/>
<path d="" fill="#9B6FEF" transform="translate(0,0)"/>
<path d="" fill="#673DC2" transform="translate(0,0)"/>
<path d="" fill="#6842C9" transform="translate(0,0)"/>
<path d="" fill="#9061E6" transform="translate(0,0)"/>
<path d="" fill="#693CC8" transform="translate(0,0)"/>
<path d="" fill="#6941C7" transform="translate(0,0)"/>
<path d="" fill="#693DC3" transform="translate(0,0)"/>
<path d="" fill="#6944C7" transform="translate(0,0)"/>
<path d="" fill="#8F64E2" transform="translate(0,0)"/>
<path d="" fill="#683CC2" transform="translate(0,0)"/>
<path d="" fill="#6942C6" transform="translate(0,0)"/>
<path d="" fill="#6840C5" transform="translate(0,0)"/>
<path d="" fill="#8F60DF" transform="translate(0,0)"/>
<path d="" fill="#8F63E5" transform="translate(0,0)"/>
<path d="" fill="#683EC0" transform="translate(0,0)"/>
<path d="" fill="#9064E3" transform="translate(0,0)"/>
<path d="" fill="#693DC3" transform="translate(0,0)"/>
<path d="" fill="#8F64E3" transform="translate(0,0)"/>
<path d="" fill="#673DC4" transform="translate(0,0)"/>
<path d="" fill="#9063E4" transform="translate(0,0)"/>
<path d="" fill="#6842C3" transform="translate(0,0)"/>
<path d="" fill="#6942C8" transform="translate(0,0)"/>
<path d="" fill="#9265E4" transform="translate(0,0)"/>
<path d="" fill="#643DC0" transform="translate(0,0)"/>
<path d="" fill="#6941C5" transform="translate(0,0)"/>
<path d="" fill="#8F63E6" transform="translate(0,0)"/>
<path d="" fill="#693DC1" transform="translate(0,0)"/>
<path d="" fill="#6943C6" transform="translate(0,0)"/>
<path d="" fill="#8F60DB" transform="translate(0,0)"/>
<path d="" fill="#9467E7" transform="translate(0,0)"/>
<path d="" fill="#6941C5" transform="translate(0,0)"/>
<path d="" fill="#9465E5" transform="translate(0,0)"/>
<path d="" fill="#663CC0" transform="translate(0,0)"/>
<path d="" fill="#9264E4" transform="translate(0,0)"/>
<path d="" fill="#663DC1" transform="translate(0,0)"/>
<path d="" fill="#6841C4" transform="translate(0,0)"/>
<path d="" fill="#693FC3" transform="translate(0,0)"/>
<path d="" fill="#9464E6" transform="translate(0,0)"/>
<path d="" fill="#673FC7" transform="translate(0,0)"/>
<path d="" fill="#6940C4" transform="translate(0,0)"/>
<path d="" fill="#9264E4" transform="translate(0,0)"/>
<path d="" fill="#683CC4" transform="translate(0,0)"/>
<path d="" fill="#9264E2" transform="translate(0,0)"/>
<path d="" fill="#683FC1" transform="translate(0,0)"/>
<path d="" fill="#6940C5" transform="translate(0,0)"/>
<path d="" fill="#9368E7" transform="translate(0,0)"/>
<path d="" fill="#683FC5" transform="translate(0,0)"/>
<path d="" fill="#9064E3" transform="translate(0,0)"/>
<path d="" fill="#643EC1" transform="translate(0,0)"/>
<path d="" fill="#683DC2" transform="translate(0,0)"/>
<path d="" fill="#8F62E0" transform="translate(0,0)"/>
<path d="" fill="#6840C4" transform="translate(0,0)"/>
<path d="" fill="#6943C5" transform="translate(0,0)"/>
<path d="" fill="#6A3EC2" transform="translate(0,0)"/>
<path d="" fill="#8F61E1" transform="translate(0,0)"/>
<path d="" fill="#693EC3" transform="translate(0,0)"/>
<path d="" fill="#9162E4" transform="translate(0,0)"/>
<path d="" fill="#6742C4" transform="translate(0,0)"/>
<path d="" fill="#9265E5" transform="translate(0,0)"/>
<path d="" fill="#6A3EC3" transform="translate(0,0)"/>
<path d="" fill="#6740C3" transform="translate(0,0)"/>
<path d="" fill="#6940C5" transform="translate(0,0)"/>
<path d="" fill="#8F60DF" transform="translate(0,0)"/>
<path d="" fill="#673EC2" transform="translate(0,0)"/>
<path d="" fill="#683CC4" transform="translate(0,0)"/>
<path d="" fill="#6942C5" transform="translate(0,0)"/>
<path d="" fill="#663EC3" transform="translate(0,0)"/>
<path d="" fill="#683DC4" transform="translate(0,0)"/>
<path d="" fill="#6840C5" transform="translate(0,0)"/>
<path d="" fill="#8F60DF" transform="translate(0,0)"/>
<path d="" fill="#693FC3" transform="translate(0,0)"/>
<path d="" fill="#673FC3" transform="translate(0,0)"/>
<path d="" fill="#9061E4" transform="translate(0,0)"/>
<path d="" fill="#6841C4" transform="translate(0,0)"/>
<path d="" fill="#6940C5" transform="translate(0,0)"/>
<path d="" fill="#683DC2" transform="translate(0,0)"/>
<path d="" fill="#693FC4" transform="translate(0,0)"/>
<path d="" fill="#6A3EC4" transform="translate(0,0)"/>
<path d="" fill="#643BC0" transform="translate(0,0)"/>
<path d="" fill="#9064E1" transform="translate(0,0)"/>
<path d="" fill="#673EC4" transform="translate(0,0)"/>
<path d="" fill="#663DC4" transform="translate(0,0)"/>
<path d="" fill="#6A3DC5" transform="translate(0,0)"/>
<path d="" fill="#683FC4" transform="translate(0,0)"/>
<path d="" fill="#8F60E0" transform="translate(0,0)"/>
<path d="" fill="#6940C6" transform="translate(0,0)"/>
<path d="" fill="#9063E2" transform="translate(0,0)"/>
<path d="" fill="#8F5FDE" transform="translate(0,0)"/>
<path d="" fill="#9062E2" transform="translate(0,0)"/>
<path d="" fill="#693FC4" transform="translate(0,0)"/>
<path d="" fill="#8F63E1" transform="translate(0,0)"/>
<path d="" fill="#8F62DF" transform="translate(0,0)"/>
<path d="" fill="#8F60E3" transform="translate(0,0)"/>
<path d="" fill="#9162E3" transform="translate(0,0)"/>
<path d="" fill="#9163E1" transform="translate(0,0)"/>
<path d="" fill="#9063E1" transform="translate(0,0)"/>
<path d="" fill="#9162E0" transform="translate(0,0)"/>
<path d="" fill="#8F61E1" transform="translate(0,0)"/>
<path d="" fill="#8F63E1" transform="translate(0,0)"/>
<path d="" fill="#9364E1" transform="translate(0,0)"/>
<path d="" fill="#9164E3" transform="translate(0,0)"/>
<path d="" fill="#9063E2" transform="translate(0,0)"/>
<path d="" fill="#673EC2" transform="translate(0,0)"/>
<path d="" fill="#9066E3" transform="translate(0,0)"/>
<path d="" fill="#683EC2" transform="translate(0,0)"/>
<path d="" fill="#9261E3" transform="translate(0,0)"/>
<path d="" fill="#9362E2" transform="translate(0,0)"/>
<path d="" fill="#8E61E4" transform="translate(0,0)"/>
<path d="" fill="#8E64E0" transform="translate(0,0)"/>
<path d="" fill="#9064E2" transform="translate(0,0)"/>
<path d="" fill="#8F60DF" transform="translate(0,0)"/>
<path d="" fill="#9061E3" transform="translate(0,0)"/>
<path d="" fill="#9164E3" transform="translate(0,0)"/>
<path d="" fill="#9366E5" transform="translate(0,0)"/>
<path d="" fill="#8F62DF" transform="translate(0,0)"/>
<path d="" fill="#8F61E0" transform="translate(0,0)"/>
<path d="" fill="#9264E3" transform="translate(0,0)"/>
<path d="" fill="#8F62E4" transform="translate(0,0)"/>
<path d="" fill="#6C3DC5" transform="translate(0,0)"/>
<path d="" fill="#976AE7" transform="translate(0,0)"/>
<path d="" fill="#8F60DF" transform="translate(0,0)"/>
<path d="" fill="#8F62E0" transform="translate(0,0)"/>
<path d="" fill="#8F61DF" transform="translate(0,0)"/>
<path d="" fill="#9B6FED" transform="translate(0,0)"/>
<path d="" fill="#9C6EF1" transform="translate(0,0)"/>
<path d="" fill="#9A6DEF" transform="translate(0,0)"/>
<path d="" fill="#8F60DD" transform="translate(0,0)"/>
<path d="" fill="#9A6DEB" transform="translate(0,0)"/>
<path d="" fill="#A072F4" transform="translate(0,0)"/>
<path d="" fill="#9C71ED" transform="translate(0,0)"/>
<path d="" fill="#966BEA" transform="translate(0,0)"/>
<path d="" fill="#9A6FEE" transform="translate(0,0)"/>
<path d="" fill="#9C6FEF" transform="translate(0,0)"/>
<path d="" fill="#996CEB" transform="translate(0,0)"/>
<path d="" fill="#986CEA" transform="translate(0,0)"/>
<path d="" fill="#8F5EDD" transform="translate(0,0)"/>
</svg>
