<?xml version="1.0" encoding="utf-8"?>
<!-- Generator: Adobe Illustrator 18.1.1, SVG Export Plug-In . SVG Version: 6.00 Build 0)  -->
<svg version="1.1" id="Layer_1" xmlns="http://www.w3.org/2000/svg" xmlns:xlink="http://www.w3.org/1999/xlink" x="0px" y="0px"
	 viewBox="0 0 542.7 759" enable-background="new 0 0 542.7 759" xml:space="preserve">
<g>
	<path fill="#D83030" d="M273.7,543.3c-54.4-0.7-104.6-14.9-149.4-46.2C73.8,462,39.2,414.9,21,356c-5-16.3-8.4-33.1-9.5-50.2
		C11,296,10,286.3,10,276.5c0-34.3,7.2-67.3,20.1-99c9.8-24,23.5-45.7,39.9-65.6c33.8-40.9,76-69.3,127.2-84
		c15.7-4.5,31.5-7.8,47.8-8.9c11.7-0.8,23.4-1.9,35.1-1.5c51.6,1.7,99.7,15,142.5,44.8c55,38.3,89.8,90.7,106.5,155.2
		c3.7,14.3,5.1,29.3,6.9,44.1c2.2,17.6,0.6,35.1-1.5,52.7c-5.2,43.8-21.7,83.2-47.1,119c-11.8,16.7-25.9,31.4-41.3,45
		c-25.6,22.7-54.3,39.9-86.7,50.8c-18,6.1-36.4,10.5-55.4,12.1C294,541.9,283.8,542.6,273.7,543.3z M516.8,284.8
		c2.4-140.7-108-247-243.5-247.2C139,37.3,26.8,143.9,29.8,285c2.8,128.7,108,240.2,249.4,237.8
		C409.8,520.6,515.1,413.1,516.8,284.8z"/>
	<path fill="#D93030" d="M68.1,607.4c0.7-0.2,1.4-0.6,2.1-0.6c29,0,58,0,87,0c0.5,0,1,0.1,1.8,0.2c0,7.5,0,14.9,0,22.7
		c-20.6,0-41.3,0-62.2,0c0,11.5,0,22.6,0,34c17.5,0,35.1,0,52.9,0c0,7.6,0,14.8,0,22.4c-17.8,0-35.4,0-53.1,0c0,10.5,0,20.7,0,30.9
		c0,1.5-0.3,3-0.5,4.5c1.5,0.4,3,1,4.5,1c18.4,0.1,36.7,0.1,55.1,0c3.2,0,4.4,0.8,4.2,4.2c-0.3,4.3-0.3,8.6,0,12.8
		c0.2,3.6-0.8,4.7-4.5,4.7c-27.3-0.2-54.6-0.2-82,0c-3.9,0-4.8-1.2-4.8-4.9c0.1-42.4,0.1-84.7,0.1-127.1
		C68.7,610.6,68.4,609,68.1,607.4z"/>
	<path fill="#D83030" d="M361,640.2c26.1,0,42.5,15.4,47.5,39c3.4,16,1.9,31.4-6.4,45.6c-8.1,13.9-21,20.1-36.8,21.4
		c-27.2,2.1-46.6-12.7-51.4-39.7c-3-17.3-1.7-33.9,8.7-48.7c7.9-11.3,19.3-16.7,32.9-17.4C357.5,640.4,359.2,640.3,361,640.2z
		 M383.9,692.8c-1.7-6.5-2.9-13.1-5.2-19.3c-2.5-6.7-7.9-10.7-15.2-11.4c-7.9-0.8-14.6,2-18.4,9c-7.5,13.8-7.3,28.3-1.3,42.5
		c3.2,7.6,9.4,11.5,17.8,11.3c8.1-0.1,14.1-4.2,16.9-11.4C381,707.1,382.1,700,383.9,692.8z"/>
	<path fill="#D83030" d="M205,744.8c-9.4,0-18.3,0-27.4,0c0-34.1,0-68,0-102.3c8.9,0,17.9,0,27.1,0c0,3.5,0,7.1,0,11.6
		c0.9-1,1.4-1.4,1.6-1.9c4.7-10.8,14.4-12.3,22.3-11.9c7.3,0.3,7.3,0.8,7.3,8.3c0,6.6,0,13.1,0,19c-5.7,0-10.9-0.5-16,0.1
		c-9.1,1-13.9,6.5-14.4,15.6c-0.4,7.6-0.5,15.2-0.5,22.7C204.9,718.8,205,731.6,205,744.8z"/>
	<path fill="#D82F2F" d="M483.8,640.8c0,9.2,0,18.1,0,27.2c-4-0.3-8-0.9-12-0.9c-11.6,0.2-17.7,6.5-17.7,18c0,18.2,0,36.4,0,54.6
		c0,1.5,0,3,0,4.8c-9.1,0-18,0-27.1,0c0-34,0-68,0-102.2c8.9,0,17.8,0,26.9,0c0,3.8,0,7.7,0,11.5C459.9,640.7,470.9,639,483.8,640.8
		z"/>
	<path fill="#D92F2F" d="M276.8,744.7c-9.1,0-17.8,0-26.8,0c0-34,0-68.1,0-102.3c8.7,0,17.6,0,26.7,0c0,4,0,7.8,0,11.6
		c3-5.3,6.2-10.7,12.5-12.1c5.7-1.3,11.7-1.5,18-2.2c0,10.3,0,19.4,0,27.8c-5.3,0-10.7-0.3-16.1,0.1c-7.6,0.5-11.5,5.7-13.3,12.4
		c-0.7,2.6-0.9,5.4-0.9,8.1c-0.1,17.7,0,35.4,0,53C276.8,742.3,276.8,743.4,276.8,744.7z"/>
	<path fill="#CA2D2D" d="M68.1,607.4c0.2,1.6,0.6,3.2,0.6,4.8c0,42.4,0.1,84.7-0.1,127.1c0,3.7,0.9,4.9,4.8,4.9
		c27.3-0.2,54.6-0.2,82,0c3.8,0,4.8-1.1,4.5-4.7c-0.3-4.3-0.3-8.6,0-12.8c0.2-3.3-1-4.2-4.2-4.2c-18.4,0.1-36.7,0.1-55.1,0
		c-1.5,0-3-0.7-4.5-1c15,0.1,30.1,0.2,45.1,0.2c6.3,0,12.7,0,19.2,0c0,7.7,0,15.2,0,23c-30.7,0-61.4,0-92.4,0
		c-0.1-1-0.2-1.9-0.2-2.8c0-43.9,0-87.7,0-131.6C68,609.3,68.1,608.4,68.1,607.4z"/>
	<path fill="#D92F2F" d="M273.4,227.8c1.4-1.5,2.8-3,4.2-4.5c30.1-30.1,60.3-60,90-90.3c6.7-6.8,19.6-7,26.3-0.4
		c10.9,10.9,22,21.6,32.6,32.7c5.2,5.4,4.2,12.2,2,18.5c-0.9,2.7-2.7,5.4-4.8,7.4c-31,30.8-62.1,61.6-93.2,92.4
		c-0.3,0.3-0.5,0.6-0.8,1c6.9,7,13.7,14,20.6,20.9c25,25,50.1,49.9,75,74.9c6.3,6.3,6.4,18.4,0.1,24.7
		c-11.1,11.3-22.3,22.6-33.7,33.7c-3.8,3.7-12.1,5.8-19.9,1.1c-0.3-0.2-0.6-0.4-0.9-0.6c-0.6-0.5-1.3-1-1.9-1.6
		c-31.3-31.2-62.5-62.5-93.7-93.7c-0.5-0.5-0.9-1-1.3-1.6c-0.3-0.3-0.6-0.6-0.9-0.9c0,0,0,0,0,0c-0.3,0-0.5-0.1-0.8-0.1
		c-31,30.9-62.2,61.6-92.9,92.8c-7.4,7.6-21.6,8.2-28.9,0c-8.8-10-18.7-19-28.1-28.4c-8.1-8.1-8.1-19.3,0.1-27.4
		c30.2-30.1,60.5-60.2,90.7-90.3c1.1-1.1,1.8-2.6,2.6-3.9c-0.3-0.3-0.6-0.5-1-0.8c-14.1-14-28.1-28-42.2-42
		c-16.1-15.9-32.1-31.8-48.3-47.7c-5.3-5.2-9.6-10.8-8.5-18.6c0.4-3.2,1.4-7,3.6-9.2c10.4-11,21.2-21.7,32.2-32.2
		c7.9-7.5,19.1-7.3,26.6,0.2c31,31,62,62.1,93,93.2c0.2,0.2,0.3,0.5,0.4,0.7C272.3,227.8,272.9,227.8,273.4,227.8z"/>
	<path fill="#CA2D2D" d="M273.4,227.8c-0.5,0-1.1,0-1.6,0C272.3,227.8,272.9,227.8,273.4,227.8z"/>
	<path fill="#CA2D2D" d="M215.2,283.5c0.3,0.3,0.6,0.5,1,0.8C215.9,284,215.5,283.7,215.2,283.5z"/>
	<path fill="#CA2D2D" d="M272.6,341.3c0.3,0,0.5,0.1,0.8,0.1C273.1,341.4,272.9,341.4,272.6,341.3z"/>
	<path fill="#CA2D2D" d="M273.4,341.4c0.3,0.3,0.6,0.6,0.9,0.9C274,342,273.7,341.7,273.4,341.4z"/>
	<path fill="#CA2D2D" d="M371.1,439.2c0.3,0.2,0.6,0.4,0.9,0.6C371.7,439.6,371.4,439.4,371.1,439.2z"/>
</g>
</svg>
