<?xml version="1.0" encoding="UTF-8"?>
<svg version="1.1" xmlns="http://www.w3.org/2000/svg" width="889" height="757">
<path d="M0 0 C11.98161446 9.22510806 20.63024221 22.23837238 29.484375 34.3359375 C30.02803711 35.07255615 30.57169922 35.8091748 31.13183594 36.56811523 C37.112488 44.83389806 41.03009304 51.48666578 39.546875 61.9609375 C37.75351601 68.12627226 33.97688376 72.60741393 28.546875 75.9609375 C21.63457775 79.24863518 15.7554663 79.48081029 8.546875 76.9609375 C-0.77242178 72.20992345 -6.37121332 62.43822782 -12.10205078 54.0402832 C-14.93842441 49.92385481 -17.78852986 46.36468472 -21.453125 42.9609375 C-22.071875 42.3834375 -22.690625 41.8059375 -23.328125 41.2109375 C-26.43090766 39.38577123 -28.86256697 39.08265133 -32.453125 38.9609375 C-39.02665809 41.03172082 -43.09269517 44.94615119 -47.953125 49.7109375 C-48.67371094 50.401875 -49.39429688 51.0928125 -50.13671875 51.8046875 C-53.54759488 55.08603669 -56.91008135 58.41223931 -60.24609375 61.76953125 C-62.50992503 64.0424101 -64.8045623 66.21236693 -67.265625 68.2734375 C-70.47646255 71.03711779 -73.47579665 73.94713346 -76.453125 76.9609375 C-79.32870159 79.87147551 -82.21186594 82.68517772 -85.328125 85.3359375 C-88.88598727 88.37524495 -92.16754191 91.6345777 -95.453125 94.9609375 C-99.28299875 98.83822535 -103.17363809 102.52337363 -107.328125 106.0546875 C-110.14706456 108.58344211 -112.79251076 111.26739996 -115.453125 113.9609375 C-118.67710587 117.22476365 -121.88830347 120.42923891 -125.390625 123.3984375 C-129.72309244 127.0796781 -133.65560346 131.13695824 -137.64916992 135.17651367 C-141.75320044 139.30945854 -145.99832561 143.20689307 -150.453125 146.9609375 C-150.783125 147.2909375 -151.113125 147.6209375 -151.453125 147.9609375 C-150.20917969 147.82816406 -148.96523437 147.69539062 -147.68359375 147.55859375 C-144.23490883 147.19133571 -140.78563411 146.83027979 -137.3359375 146.47265625 C-134.70309522 146.19962444 -132.07405039 145.91613777 -129.4453125 145.60546875 C-81.48506111 140.28511932 -31.08018537 155.51513289 6.53515625 185.4375 C11.70916538 189.772662 16.68013355 194.28467517 21.546875 198.9609375 C22.05637695 199.44852539 22.56587891 199.93611328 23.09082031 200.43847656 C30.1333436 207.21607734 36.53017518 214.2425448 42.546875 221.9609375 C46.94982613 220.55574033 51.16561874 218.88343741 55.421875 217.0859375 C72.67139161 210.0425103 90.65791464 207.54458703 109.234375 207.6484375 C110.28244324 207.65167023 110.28244324 207.65167023 111.35168457 207.65496826 C134.64356648 207.76981451 156.70408365 212.2352675 177.546875 222.9609375 C178.21332031 222.16171875 178.87976563 221.3625 179.56640625 220.5390625 C214.26807674 179.10309312 258.54696674 150.91808491 313.28173828 145.47631836 C333.58784806 143.7470319 353.51336601 145.58005806 373.546875 148.9609375 C363.82555711 139.04325792 363.82555711 139.04325792 353.53515625 129.73046875 C350.42403498 126.96163194 347.53616421 123.97050639 344.61254883 121.00708008 C342.00733856 118.38020861 339.36207735 115.86078213 336.546875 113.4609375 C332.69802595 110.17995143 329.16828452 106.61138256 325.61987305 103.0144043 C322.35322953 99.7205151 318.96793464 96.64611874 315.44140625 93.63671875 C312.67752129 91.19196278 310.12702983 88.55012198 307.5390625 85.921875 C305.64360426 84.05614944 303.69240765 82.31434495 301.671875 80.5859375 C298.48004991 77.84472301 295.50384523 74.95407862 292.546875 71.9609375 C289.63060897 69.00910725 286.70081665 66.15704891 283.546875 63.4609375 C280.39293335 60.76482609 277.46314103 57.91276775 274.546875 54.9609375 C270.3818404 50.75104868 266.12021027 46.72545147 261.546875 42.9609375 C260.90105469 42.42210937 260.25523437 41.88328125 259.58984375 41.328125 C257.36448956 39.83888223 255.87468039 39.36578616 253.234375 39.0234375 C252.51636719 38.91128906 251.79835938 38.79914063 251.05859375 38.68359375 C246.38173263 39.20001232 242.97563858 41.3663485 239.89770508 44.80151367 C238.22784065 46.99830061 236.65834736 49.23988636 235.109375 51.5234375 C234.54516846 52.32612061 233.98096191 53.12880371 233.3996582 53.95581055 C230.96816185 57.41828086 228.58066419 60.90915005 226.2109375 64.4140625 C222.29672218 70.07652419 218.85289005 74.03928273 212.546875 76.9609375 C211.0928125 77.6415625 211.0928125 77.6415625 209.609375 78.3359375 C203.12154335 79.65998478 197.17744344 78.43168365 191.40234375 75.26171875 C186.56217834 71.86850805 183.38968256 67.55637137 181.546875 61.9609375 C181.2109375 59.34765625 181.2109375 59.34765625 181.171875 56.6484375 C181.14351562 55.76542969 181.11515625 54.88242188 181.0859375 53.97265625 C182.19547112 46.72307639 186.781035 40.94154844 191.171875 35.2734375 C191.69821533 34.58427246 192.22455566 33.89510742 192.7668457 33.18505859 C193.84165165 31.77930637 194.91918492 30.37563497 195.99951172 28.97412109 C197.42438474 27.12030239 198.83431668 25.25639377 200.23828125 23.38671875 C210.60005372 9.63709719 222.42968752 -5.85719086 240.546875 -9.0390625 C258.94212466 -10.04279071 273.81814994 -6.21011786 288.2421875 5.88671875 C291.14735727 8.50137155 293.90296894 11.23146426 296.625 14.03515625 C298.48873358 15.9026779 300.41613613 17.62303651 302.421875 19.3359375 C306.5318758 22.86570289 310.29587023 26.69462992 314.1015625 30.546875 C316.83810979 33.24845044 319.69666866 35.75172485 322.6171875 38.25 C325.38932501 40.7078871 327.95238189 43.35717354 330.55078125 45.99609375 C332.46794677 47.88324494 334.44262822 49.64779125 336.484375 51.3984375 C339.47489216 53.96759021 342.27804184 56.65411006 345.046875 59.4609375 C347.7954349 62.24714891 350.57547291 64.91402142 353.546875 67.4609375 C357.33906259 70.71138401 360.81823031 74.21543319 364.32421875 77.76953125 C366.9738894 80.38194818 369.75860303 82.79396371 372.58203125 85.21484375 C375.36249332 87.68575139 377.93805718 90.3426069 380.546875 92.9921875 C382.48578502 94.90080205 384.48387051 96.68804302 386.546875 98.4609375 C390.05829148 101.47856103 393.29994902 104.69452831 396.546875 107.9921875 C398.48578502 109.90080205 400.48387051 111.68804302 402.546875 113.4609375 C405.33583893 115.85770338 407.96678285 118.34053141 410.546875 120.9609375 C413.10677634 123.56075933 415.7146704 126.02362148 418.484375 128.3984375 C422.29371696 131.67104243 425.79508609 135.19194187 429.3203125 138.765625 C431.99320674 141.40100493 434.80055803 143.83860239 437.6484375 146.28125 C440.13921911 148.48502796 442.44395499 150.84710491 444.7734375 153.21875 C446.59487915 155.00809577 448.48401779 156.67382282 450.421875 158.3359375 C453.4315503 160.92727955 456.25776116 163.63348533 459.046875 166.4609375 C461.7954349 169.24714891 464.57547291 171.91402142 467.546875 174.4609375 C471.34046233 177.71258378 474.82080147 181.21806844 478.328125 184.7734375 C480.34118132 186.75814092 482.40133903 188.62190666 484.546875 190.4609375 C488.33206384 193.70538508 491.80537599 197.20225511 495.3046875 200.75 C498.03940341 203.4466014 500.89761427 205.9634191 503.8203125 208.453125 C505.546875 209.9609375 505.546875 209.9609375 506.91186523 211.47021484 C508.75162198 213.14761588 510.05227164 213.6495494 512.43359375 214.3203125 C513.19969971 214.54533447 513.96580566 214.77035645 514.75512695 215.00219727 C515.98235474 215.35302368 515.98235474 215.35302368 517.234375 215.7109375 C523.75434846 217.67672416 530.10598127 219.82015137 536.359375 222.5234375 C536.99770264 222.79188477 537.63603027 223.06033203 538.29370117 223.33691406 C545.11025655 226.36568817 550.17161501 230.36133354 553.60058594 237.00341797 C555.52354063 243.01339556 555.2806126 249.32991287 555.19873047 255.58129883 C555.17188455 258.02256898 555.19857778 260.45925916 555.23046875 262.90039062 C555.2707781 278.19661525 555.2707781 278.19661525 549.546875 283.9609375 C549.02746338 284.50322998 548.50805176 285.04552246 547.97290039 285.60424805 C543.72089835 289.61154832 538.91498353 291.99910563 533.609375 294.3359375 C532.83013672 294.69042969 532.05089844 295.04492188 531.24804688 295.41015625 C529.35233065 296.27078816 527.45024739 297.11737313 525.546875 297.9609375 C525.69124515 299.55600417 525.8358214 301.15105219 525.98046875 302.74609375 C526.07183105 303.75430176 526.16319336 304.76250977 526.25732422 305.80126953 C526.44048283 307.79995314 526.62662339 309.79836767 526.81689453 311.79638672 C531.89370443 365.13561408 520.92275761 414.50779904 487.359375 457.4609375 C486.1023128 458.97249696 484.83173123 460.47293151 483.546875 461.9609375 C482.88816406 462.72921875 482.22945312 463.4975 481.55078125 464.2890625 C479.26195431 466.89286562 476.92013023 469.43376074 474.546875 471.9609375 C473.80074951 472.75806152 473.80074951 472.75806152 473.03955078 473.57128906 C444.79774426 503.49649524 407.00023259 522.22177171 366.546875 528.9609375 C365.26039063 529.18523438 363.97390625 529.40953125 362.6484375 529.640625 C313.58817449 536.7891264 261.14430406 524.64804968 221.0078125 495.41796875 C214.17879911 490.32185203 207.72867402 484.82476198 201.546875 478.9609375 C201.05751465 478.50412598 200.5681543 478.04731445 200.06396484 477.57666016 C186.7913088 465.12243634 175.74531015 450.65381651 166.546875 434.9609375 C166.14903809 434.28434082 165.75120117 433.60774414 165.34130859 432.91064453 C147.63391404 402.28369171 138.78289711 366.34715446 140.546875 330.9609375 C140.6085083 329.7231958 140.6085083 329.7231958 140.67138672 328.46044922 C141.84088051 307.63000871 146.28401275 287.81554336 152.546875 267.9609375 C151.44666016 267.53941406 151.44666016 267.53941406 150.32421875 267.109375 C147.80653436 266.06830719 145.49932367 264.88653348 143.109375 263.5859375 C126.23433274 255.03456676 106.6137008 253.46744031 88.546875 258.9609375 C83.37144601 260.80470526 78.3330321 262.96403098 73.31152344 265.18798828 C71.07763816 266.16647207 68.81801031 267.07280871 66.546875 267.9609375 C66.93359375 269.05148437 67.3203125 270.14203125 67.71875 271.265625 C70.46007077 279.14295313 72.97723358 287.00311956 74.796875 295.1484375 C74.94737305 295.81020996 75.09787109 296.47198242 75.25292969 297.15380859 C78.10846729 310.54275061 78.95569631 323.75956821 78.921875 337.3984375 C78.92105927 338.64376251 78.92105927 338.64376251 78.92022705 339.91424561 C78.78855629 383.82381079 63.14304661 426.47555961 34.546875 459.9609375 C33.90878906 460.70988281 33.27070313 461.45882813 32.61328125 462.23046875 C21.72524402 474.64159626 10.13722814 486.52051641 -3.453125 495.9609375 C-4.06140137 496.39180664 -4.66967773 496.82267578 -5.29638672 497.26660156 C-28.70111979 513.7048665 -55.32545225 524.16246664 -83.453125 528.9609375 C-85.37125 529.29931641 -85.37125 529.29931641 -87.328125 529.64453125 C-136.08320856 536.77103036 -188.79292913 525.00121578 -228.51757812 495.42382812 C-240.29188101 486.33003446 -252.08424545 476.56716141 -261.453125 464.9609375 C-261.85354004 464.47286621 -262.25395508 463.98479492 -262.66650391 463.48193359 C-279.19405584 443.28561512 -291.86262429 420.99645049 -299.453125 395.9609375 C-299.69256836 395.19104492 -299.93201172 394.42115234 -300.17871094 393.62792969 C-308.87081061 365.23695225 -313.00245294 327.60892131 -303.453125 298.9609375 C-304.29101562 298.70441406 -305.12890625 298.44789063 -305.9921875 298.18359375 C-316.19669382 294.57861579 -326.5686568 289.39553941 -332.453125 279.9609375 C-334.9725699 273.60425498 -334.78987711 267.42319311 -334.76879883 260.703125 C-334.76564373 258.59842876 -334.78911818 256.49514749 -334.81445312 254.390625 C-334.85940819 244.9620176 -334.23273538 236.88992908 -327.546875 229.6796875 C-319.38350782 222.97841594 -308.43680765 219.65204604 -298.55859375 216.3203125 C-297.55650879 215.9795166 -297.55650879 215.9795166 -296.53417969 215.63183594 C-295.10363175 215.17065038 -293.66000286 214.74877129 -292.20800781 214.36035156 C-286.02772533 212.60773414 -282.32342777 209.72528817 -277.828125 205.2109375 C-276.90386719 204.31761719 -276.90386719 204.31761719 -275.9609375 203.40625 C-273.4682282 200.98685568 -271.01662064 198.52822919 -268.56860352 196.0637207 C-265.67150892 193.14969528 -262.79362377 190.288985 -259.640625 187.6484375 C-256.42978745 184.88475721 -253.43045335 181.97474154 -250.453125 178.9609375 C-247.55720542 176.02975559 -244.65069929 173.19690576 -241.515625 170.5234375 C-237.64773692 167.21815133 -234.0939143 163.63098754 -230.52416992 160.01245117 C-227.27963799 156.74089555 -223.91703822 153.69137775 -220.4140625 150.703125 C-217.35946147 147.98927628 -214.53650957 145.05229998 -211.66796875 142.14453125 C-209.67653039 140.18119079 -207.64009922 138.34014081 -205.515625 136.5234375 C-202.3427658 133.80474502 -199.38974118 130.93342075 -196.453125 127.9609375 C-192.91080301 124.37535051 -189.27756839 121.01202088 -185.44921875 117.73828125 C-183.19179874 115.72824973 -181.07576787 113.61260797 -178.953125 111.4609375 C-176.24508935 108.71593208 -173.51143251 106.0882284 -170.578125 103.5859375 C-167.20754802 100.69878988 -164.0680795 97.61847511 -160.953125 94.4609375 C-157.24170083 90.69877616 -153.43454079 87.13283914 -149.4140625 83.703125 C-146.35946147 80.98927628 -143.53650957 78.05229998 -140.66796875 75.14453125 C-138.67653039 73.18119079 -136.64009922 71.34014081 -134.515625 69.5234375 C-131.3427658 66.80474502 -128.38974118 63.93342075 -125.453125 60.9609375 C-121.93206177 57.39693448 -118.32126492 54.05789582 -114.515625 50.8046875 C-112.06387811 48.61297437 -109.76426927 46.30026646 -107.453125 43.9609375 C-104.55720542 41.02975559 -101.65069929 38.19690576 -98.515625 35.5234375 C-94.64773692 32.21815133 -91.0939143 28.63098754 -87.52416992 25.01245117 C-84.27391011 21.73511996 -80.91095178 18.67623437 -77.390625 15.6953125 C-75.23688433 13.76736722 -73.30533746 11.6939949 -71.328125 9.5859375 C-52.11029718 -9.79756125 -23.37677643 -16.01241622 0 0 Z " fill="#0C161F" transform="translate(334.453125,139.0390625)"/>
<path d="M0 0 C1.67449219 0.81597656 1.67449219 0.81597656 3.3828125 1.6484375 C17.29382422 8.78830616 28.81611625 18.18685272 40 29 C40.99773437 29.92039062 40.99773437 29.92039062 42.015625 30.859375 C64.91737646 52.4769161 80.82816527 87.06957318 82.27148438 118.50537109 C82.37734895 122.28423387 82.37785684 126.05945559 82.33618164 129.83935547 C82.31243223 132.13154115 82.31567721 134.42256436 82.32226562 136.71484375 C82.29901201 150.13298487 81.07826742 163.12083499 77.0625 176 C76.76239014 176.96566895 76.46228027 177.93133789 76.15307617 178.92626953 C68.32901085 203.00001717 55.59590728 223.00978668 38 241 C37.26523437 241.79664063 36.53046875 242.59328125 35.7734375 243.4140625 C9.90884888 270.82858901 -29.23153659 284.04226433 -66.10473633 285.4050293 C-105.20293104 285.96423565 -143.86573684 270.05443374 -171.90234375 243.06640625 C-194.33163507 221.02877078 -210.52449848 193.18947118 -216 162 C-216.17354004 161.01845947 -216.17354004 161.01845947 -216.35058594 160.01708984 C-222.81250375 121.25517036 -214.41345793 81.50813355 -191.55078125 49.41015625 C-166.40989123 15.34487807 -130.8233399 -8.6831972 -88.57666016 -15.17529297 C-58.18607429 -19.19029697 -27.40930821 -13.47237183 0 0 Z " fill="#F0F8FD" transform="translate(288,343)"/>
<path d="M0 0 C23.42105306 19.30006618 41.00100861 44.32970132 49.90625 73.45703125 C50.14504883 74.23594727 50.38384766 75.01486328 50.62988281 75.81738281 C54.25373602 88.39860399 54.91002989 100.83796033 54.84375 113.83203125 C54.83952026 115.02740005 54.83952026 115.02740005 54.83520508 116.24691772 C54.60946387 158.70170527 37.5292976 196.16667329 7.53125 226.20703125 C-21.36593532 252.72851374 -61.39392022 267.55776594 -100.50390625 266.55078125 C-128.3245149 265.2697797 -156.61413267 256.29118299 -179.46875 240.20703125 C-180.41878906 239.541875 -181.36882812 238.87671875 -182.34765625 238.19140625 C-216.41761364 213.49401863 -238.17948964 177.3535473 -245.02172852 135.85302734 C-245.71636642 130.18742251 -245.65470956 124.52969303 -245.65405273 118.83105469 C-245.65621587 116.74001975 -245.67434634 114.64953406 -245.69335938 112.55859375 C-245.74606172 100.26697431 -244.72749299 88.12979289 -241.28125 76.26953125 C-241.06766846 75.5221167 -240.85408691 74.77470215 -240.6340332 74.00463867 C-238.2752477 66.08209609 -235.0749101 58.63270019 -231.46875 51.20703125 C-231.17129883 50.58231934 -230.87384766 49.95760742 -230.56738281 49.31396484 C-213.56023393 13.98506044 -181.29941819 -13.44063761 -144.68530273 -26.84448242 C-94.34188535 -44.05562342 -41.0270061 -33.26545085 0 0 Z " fill="#F0F8FC" transform="translate(763.46875,361.79296875)"/>
<path d="M0 0 C0.66 0.33 1.32 0.66 2 1 C1.25556641 1.72703125 1.25556641 1.72703125 0.49609375 2.46875 C-3.65694428 6.56662433 -7.59482304 10.76739739 -11.41015625 15.1796875 C-14.88739599 19.16099884 -18.19965466 22.66469686 -23 25 C-23.66 24.67 -24.32 24.34 -25 24 C-21.51385738 20.41580961 -17.98845345 16.93882475 -14.1875 13.6875 C-9.19565846 9.39196642 -4.61135356 4.69639902 0 0 Z " fill="#3B4249" transform="translate(143,262)"/>
<path d="M0 0 C0.33 0.66 0.66 1.32 1 2 C-11.25740697 16.28821996 -11.25740697 16.28821996 -17 19 C-17.66 18.67 -18.32 18.34 -19 18 C-13.19194647 12.08483073 -7.30456089 6.3827452 -1 1 C-0.67 0.67 -0.34 0.34 0 0 Z " fill="#2F373E" transform="translate(117,287)"/>
<path d="M0 0 C0.33 0.66 0.66 1.32 1 2 C-10.47935169 15.33192718 -10.47935169 15.33192718 -17 17 C-11.90499173 10.6656654 -6.07469335 5.37210426 0 0 Z " fill="#2D343B" transform="translate(80,322)"/>
<path d="M0 0 C0 4.33633324 -2.23660096 5.9557742 -5.05859375 9.07421875 C-7.47492508 11.47110275 -10.11643155 13.20577963 -13 15 C-14.36886951 16.29682374 -15.7169291 17.61823134 -17 19 C-17.66 18.67 -18.32 18.34 -19 18 C-14.03777812 12.9343985 -9.02135767 8.0182511 -3.62890625 3.41015625 C-2.37392427 2.32370902 -1.17374345 1.17374345 0 0 Z " fill="#363D43" transform="translate(261,151)"/>
<path d="M0 0 C0.33 0 0.66 0 1 0 C1.23302818 12.51879169 0.79849819 24.60320889 -1 37 C-1.33 37 -1.66 37 -2 37 C-2.33 34.69 -2.66 32.38 -3 30 C-2.34 30 -1.68 30 -1 30 C-1.33 26.04 -1.66 22.08 -2 18 C-1.34 18 -0.68 18 0 18 C0 12.06 0 6.12 0 0 Z " fill="#7A8389" transform="translate(862,472)"/>
<path d="M0 0 C0.66 0.33 1.32 0.66 2 1 C-2.16048113 5.84979161 -6.31778162 10.64444802 -11 15 C-11.66 15 -12.32 15 -13 15 C-11.38989473 10.92623969 -8.46177729 8.23492931 -5.375 5.25 C-4.859375 4.74339844 -4.34375 4.23679687 -3.8125 3.71484375 C-2.54616661 2.47196098 -1.2736856 1.23534724 0 0 Z " fill="#E0E5E8" transform="translate(568,365)"/>
<path d="M0 0 C0 4.3530777 -2.28980877 6.00800585 -5.12109375 9.13671875 C-7.22866224 11.22676068 -9.38079516 12.61764189 -12 14 C-13.75149165 15.58245275 -13.75149165 15.58245275 -15 17 C-15.66 16.67 -16.32 16.34 -17 16 C-12.73502369 11.61507124 -8.34080571 7.46548545 -3.69921875 3.48046875 C-2.42270555 2.36828828 -1.19716986 1.19716986 0 0 Z " fill="#373E45" transform="translate(224,186)"/>
<path d="M0 0 C0.99 0.33 1.98 0.66 3 1 C-0.3 4.3 -3.6 7.6 -7 11 C-7.33 9.68 -7.66 8.36 -8 7 C-6.74057614 5.80040625 -5.46704714 4.61560557 -4.1875 3.4375 C-3.12595703 2.44556641 -3.12595703 2.44556641 -2.04296875 1.43359375 C-1.36878906 0.96050781 -0.69460938 0.48742187 0 0 Z " fill="#2C343B" transform="translate(540,332)"/>
<path d="M0 0 C3 1 3 1 4.640625 3.80078125 C5.17171875 4.95964844 5.7028125 6.11851562 6.25 7.3125 C6.79140625 8.46363281 7.3328125 9.61476563 7.890625 10.80078125 C9.03164972 14.09127157 8.99307505 14.86023055 8 18 C6.66180502 15.3773768 5.3292849 12.75213401 4 10.125 C3.6184375 9.37863281 3.236875 8.63226562 2.84375 7.86328125 C2.4828125 7.14785156 2.121875 6.43242188 1.75 5.6953125 C1.41484375 5.03547363 1.0796875 4.37563477 0.734375 3.69580078 C0 2 0 2 0 0 Z " fill="#464D53" transform="translate(491,553)"/>
<path d="M0 0 C0.99 0.33 1.98 0.66 3 1 C-0.51310846 4.67650885 -3.55873749 7.47928344 -8 10 C-9.75149165 11.58245275 -9.75149165 11.58245275 -11 13 C-11.66 12.67 -12.32 12.34 -13 12 C-4.49685535 3.27044025 -4.49685535 3.27044025 0 0 Z " fill="#383F46" transform="translate(166,241)"/>
<path d="M0 0 C0.33 0 0.66 0 1 0 C1.33 2.31 1.66 4.62 2 7 C1.34 7 0.68 7 0 7 C0.309375 8.7634375 0.309375 8.7634375 0.625 10.5625 C1.18947526 14.90045367 0.45041373 17.90471417 -1 22 C-1.33 22 -1.66 22 -2 22 C-1.85811015 19.45805839 -1.71160845 16.91652007 -1.5625 14.375 C-1.52318359 13.66214844 -1.48386719 12.94929688 -1.44335938 12.21484375 C-1.19690319 8.08196318 -0.76529947 4.07730976 0 0 Z " fill="#5A6269" transform="translate(478,441)"/>
<path d="M0 0 C0.66 0 1.32 0 2 0 C1.45773019 3.79588866 -0.20127563 5.47211993 -3 8 C-3.99 7.67 -4.98 7.34 -6 7 C-5.04882866 5.8274869 -4.08882991 4.66212985 -3.125 3.5 C-2.59132813 2.8503125 -2.05765625 2.200625 -1.5078125 1.53125 C-0.76144531 0.77328125 -0.76144531 0.77328125 0 0 Z " fill="#323A41" transform="translate(9,367)"/>
<path d="M0 0 C0.33 0.66 0.66 1.32 1 2 C-0.09346881 3.34212062 -1.2001575 4.67347975 -2.3125 6 C-3.23482422 7.11375 -3.23482422 7.11375 -4.17578125 8.25 C-6 10 -6 10 -9 10 C-6.03 6.7 -3.06 3.4 0 0 Z " fill="#1D242C" transform="translate(152,254)"/>
<path d="M0 0 C1.12894876 0.93274109 2.25300876 1.87140122 3.375 2.8125 C4.00148438 3.33457031 4.62796875 3.85664063 5.2734375 4.39453125 C7 6 7 6 9 9 C6 9 6 9 4.39453125 7.79296875 C3.87246094 7.26316406 3.35039063 6.73335938 2.8125 6.1875 C2.01779297 5.40439453 2.01779297 5.40439453 1.20703125 4.60546875 C0 3 0 3 0 0 Z " fill="#41474E" transform="translate(767,281)"/>
<path d="M0 0 C0.66 0 1.32 0 2 0 C1.45144652 4.571279 0.58255197 8.67435795 -1 13 C-1.33 13 -1.66 13 -2 13 C-1.85851011 11.3954444 -1.71164314 9.79136233 -1.5625 8.1875 C-1.48128906 7.29417969 -1.40007813 6.40085937 -1.31640625 5.48046875 C-1 3 -1 3 0 0 Z " fill="#3F464C" transform="translate(854,526)"/>
<path d="M0 0 C0.33 0 0.66 0 1 0 C1.09733092 7.09434233 1.10087193 13.98194143 0 21 C-0.33 21 -0.66 21 -1 21 C-1.19412181 19.52168779 -1.38012131 18.04230684 -1.5625 16.5625 C-1.66691406 15.73878906 -1.77132813 14.91507812 -1.87890625 14.06640625 C-1.91886719 13.38449219 -1.95882813 12.70257813 -2 12 C-1.67 11.67 -1.34 11.34 -1 11 C-0.76636119 9.15108054 -0.58696365 7.29511969 -0.4375 5.4375 C-0.35371094 4.42558594 -0.26992188 3.41367187 -0.18359375 2.37109375 C-0.12300781 1.58863281 -0.06242187 0.80617188 0 0 Z " fill="#626A71" transform="translate(412,483)"/>
<path d="M0 0 C0 0.66 0 1.32 0 2 C-5.445 3.485 -5.445 3.485 -11 5 C-10 2 -10 2 -7.75 0.8125 C-5.00208853 0.00061706 -2.84552111 -0.16260121 0 0 Z " fill="#2F353D" transform="translate(306,175)"/>
<path d="M0 0 C0.33 0.66 0.66 1.32 1 2 C0.04882866 3.1725131 -0.91117009 4.33787015 -1.875 5.5 C-2.40867188 6.1496875 -2.94234375 6.799375 -3.4921875 7.46875 C-3.98976562 7.9740625 -4.48734375 8.479375 -5 9 C-5.66 9 -6.32 9 -7 9 C-5.44499019 5.18315774 -2.96404505 2.80804268 0 0 Z " fill="#1D252C" transform="translate(188,220)"/>
<path d="M0 0 C0.33 0.99 0.66 1.98 1 3 C-4.14285714 7.42857143 -4.14285714 7.42857143 -8 8 C-8 7.34 -8 6.68 -8 6 C-6.02678947 4.6273318 -4.02456848 3.29572383 -2 2 C-1.34 1.34 -0.68 0.68 0 0 Z " fill="#30383E" transform="translate(555,207)"/>
<path d="M0 0 C0 0.66 0 1.32 0 2 C-6.96428571 5.34821429 -6.96428571 5.34821429 -11 4 C-9.73308493 3.32591692 -8.46129251 2.66099503 -7.1875 2 C-6.47980469 1.62875 -5.77210938 1.2575 -5.04296875 0.875 C-3 0 -3 0 0 0 Z " fill="#3F454B" transform="translate(390,357)"/>
<path d="M0 0 C2.37948772 0.17625835 3.70225849 0.69719773 5.37890625 2.40234375 C6.62115486 3.90649092 7.81376056 5.45129851 9 7 C8.01 7 7.02 7 6 7 C6 6.34 6 5.68 6 5 C5.38125 4.731875 4.7625 4.46375 4.125 4.1875 C2 3 2 3 0 0 Z " fill="#333A41" transform="translate(735,253)"/>
<path d="M0 0 C-1.49097658 3.7952131 -3.75700849 5.61042731 -7 8 C-7 5 -7 5 -4.625 2.3125 C-2 0 -2 0 0 0 Z " fill="#3D434B" transform="translate(242,229)"/>
<path d="M0 0 C2.37948772 0.17625835 3.70225849 0.69719773 5.37890625 2.40234375 C6.62115486 3.90649092 7.81376056 5.45129851 9 7 C8.01 7 7.02 7 6 7 C6 6.34 6 5.68 6 5 C5.38125 4.731875 4.7625 4.46375 4.125 4.1875 C2 3 2 3 0 0 Z " fill="#343B42" transform="translate(703,223)"/>
<path d="M0 0 C1.17539996 0.92652701 2.34010577 1.86663387 3.5 2.8125 C4.1496875 3.33457031 4.799375 3.85664063 5.46875 4.39453125 C7 6 7 6 7 9 C6.67 8.34 6.34 7.68 6 7 C4.67532254 6.3162955 3.34136367 5.65035814 2 5 C1.34 4.34 0.68 3.68 0 3 C0 2.01 0 1.02 0 0 Z " fill="#3C4349" transform="translate(671,191)"/>
<path d="M0 0 C0.33 0.99 0.66 1.98 1 3 C-2.0247093 7.70510336 -2.0247093 7.70510336 -5.14453125 8.6484375 C-5.75683594 8.76445313 -6.36914062 8.88046875 -7 9 C-6.57847656 8.51789062 -6.15695312 8.03578125 -5.72265625 7.5390625 C-5.17480469 6.90742187 -4.62695312 6.27578125 -4.0625 5.625 C-3.51722656 4.99851562 -2.97195313 4.37203125 -2.41015625 3.7265625 C-0.93041376 2.04367666 -0.93041376 2.04367666 0 0 Z " fill="#1E252C" transform="translate(784,572)"/>
<path d="M0 0 C-6.75 4 -6.75 4 -9 4 C-8 1 -8 1 -6.1875 -0.25 C-3.66056586 -1.11637742 -2.47778006 -0.88492145 0 0 Z " fill="#424950" transform="translate(880,427)"/>
<path d="M0 0 C2.31 1.98 4.62 3.96 7 6 C6.34 6.66 5.68 7.32 5 8 C2.5 5.6875 2.5 5.6875 0 3 C0 2.01 0 1.02 0 0 Z " fill="#394047" transform="translate(637,159)"/>
<path d="M0 0 C2.31 1.98 4.62 3.96 7 6 C6.34 6.66 5.68 7.32 5 8 C4.67 7.01 4.34 6.02 4 5 C1.99983534 3.79117904 1.99983534 3.79117904 0 3 C0 2.01 0 1.02 0 0 Z " fill="#3D444B" transform="translate(802,314)"/>
<path d="M0 0 C6.15234375 0.5859375 6.15234375 0.5859375 8 1 C8.33 1.66 8.66 2.32 9 3 C6.03 2.67 3.06 2.34 0 2 C0 1.34 0 0.68 0 0 Z " fill="#51585E" transform="translate(532,215)"/>
<path d="M0 0 C3.25543229 0.34879632 4.01873107 1.02133261 6.25 3.5625 C6.8275 4.366875 7.405 5.17125 8 6 C7.01 6.495 7.01 6.495 6 7 C6 6.34 6 5.68 6 5 C5.38125 4.731875 4.7625 4.46375 4.125 4.1875 C2 3 2 3 0 0 Z " fill="#363C43" transform="translate(653,176)"/>
<path d="M0 0 C0.99 0.66 1.98 1.32 3 2 C-1.455 3.485 -1.455 3.485 -6 5 C-6 4.34 -6 3.68 -6 3 C-4.02 2.01 -2.04 1.02 0 0 Z " fill="#394047" transform="translate(868,430)"/>
<path d="M0 0 C2.46800047 1.15173355 4.04783565 2.04783565 6 4 C5.67 4.99 5.34 5.98 5 7 C3.29115995 5.37660195 1.62553283 3.70680947 0 2 C0 1.34 0 0.68 0 0 Z " fill="#383F45" transform="translate(646,227)"/>
</svg>
