<?xml version="1.0" encoding="UTF-8"?>
<svg version="1.1" xmlns="http://www.w3.org/2000/svg" width="682" height="685">
<path d="M0 0 C225.06 0 450.12 0 682 0 C682 226.05 682 452.1 682 685 C456.94 685 231.88 685 0 685 C0 458.95 0 232.9 0 0 Z " fill="#F1F4F8" transform="translate(0,0)"/>
<path d="M0 0 C0.85625977 0.17241211 1.71251953 0.34482422 2.59472656 0.52246094 C29.44243144 6.12378066 55.33759867 16.63712398 76 35 C76.79921875 35.67933594 77.5984375 36.35867188 78.421875 37.05859375 C83.42262362 41.36292939 87.78796592 45.93097198 92 51 C92.69867188 51.79921875 93.39734375 52.5984375 94.1171875 53.421875 C100.39785306 60.76742849 105.34066572 68.56981684 110 77 C110.35481445 77.64098633 110.70962891 78.28197266 111.07519531 78.94238281 C116.68552916 89.23576542 120.66060109 99.77797058 124 111 C124.31839844 112.03511719 124.63679688 113.07023437 124.96484375 114.13671875 C135.30195875 151.01090508 127.46472944 191.52072692 110.0625 224.875 C104.1590254 235.16619221 97.2341749 244.4509427 89 253 C88.31550781 253.73089844 87.63101562 254.46179688 86.92578125 255.21484375 C84.28122129 257.66629183 82.24272895 257.97252125 78.6875 258.375 C73.79698299 257.87765929 72.42915508 256.42915508 69 253 C67.3524256 249.70485119 67.3759687 246.54841327 68 243 C70.53550527 237.69672944 74.52529847 233.37583443 78.3125 228.9375 C90.94618026 213.70902346 98.02340941 195.11365531 102.51123047 176.06347656 C102.90306248 174.40924872 103.32379102 172.76187682 103.75390625 171.1171875 C110.72464349 140.79691783 100.6306061 107.63654227 85.03125 81.73046875 C67.80337136 55.10245791 42.05070056 34.89578961 11 27 C10.17242187 26.77586426 9.34484375 26.55172852 8.4921875 26.32080078 C-4.99242294 22.76476302 -18.11714328 21.5202944 -32 21.5 C-32.72159302 21.49559906 -33.44318604 21.49119812 -34.18664551 21.48666382 C-64.25867289 21.4099888 -93.7251729 30.60007854 -116.13671875 51.1171875 C-118.06470647 52.87001517 -118.06470647 52.87001517 -119 55 C-118.21165771 55.01981934 -117.42331543 55.03963867 -116.61108398 55.06005859 C-57.44210652 56.61408673 -57.44210652 56.61408673 -30.07080078 64.41113281 C-28.6212404 64.8233398 -27.16880581 65.22551092 -25.71435547 65.62011719 C-1.38670493 72.22665188 20.2410944 82.31880481 40 98 C40.98033203 98.74830078 40.98033203 98.74830078 41.98046875 99.51171875 C54.57102731 109.56687879 64.78329011 125.56411809 67.62109375 141.484375 C71.56704999 178.09634013 58.26914449 221.57539411 35.296875 250.25 C34.53890625 251.1575 33.7809375 252.065 33 253 C32.14991974 254.06160258 31.30100717 255.12414101 30.453125 256.1875 C2.47356177 290.78720491 -38.66529457 309.40249282 -82 316 C-82.91185059 316.17200928 -83.82370117 316.34401855 -84.76318359 316.52124023 C-102.55017286 319.15212619 -123.55635528 318.23713614 -141 314 C-141.8161377 313.80664062 -142.63227539 313.61328125 -143.47314453 313.4140625 C-173.81422761 306.01017554 -201.29151603 291.45486104 -224 270 C-224.83789062 269.23816406 -225.67578125 268.47632813 -226.5390625 267.69140625 C-255.9165878 239.91707923 -274.56557415 198.40299475 -276 158 C-276.07734375 156.69289063 -276.07734375 156.69289063 -276.15625 155.359375 C-276.84151866 135.82921819 -269.06992612 119.11273937 -256 105 C-255.37609375 104.30777344 -254.7521875 103.61554688 -254.109375 102.90234375 C-231.0436411 78.5282594 -192.17224961 61.93514496 -158.87109375 59.6640625 C-155.37234549 59.3940861 -152.32432364 59.12696929 -149 58 C-147.02573246 55.67654228 -146.11679768 53.58506192 -145.06640625 50.73046875 C-143.28811977 46.1772737 -140.10979087 42.71593655 -137 39 C-136.23429688 38.03191406 -135.46859375 37.06382812 -134.6796875 36.06640625 C-131.9780903 32.83650123 -128.94842166 30.25750588 -125.625 27.6875 C-125.017771 27.21675049 -124.41054199 26.74600098 -123.78491211 26.26098633 C-112.7222528 17.8538187 -101.11117116 11.56287449 -88 7 C-87.03126953 6.6599292 -87.03126953 6.6599292 -86.04296875 6.31298828 C-59.30220627 -2.92365083 -27.82790532 -5.73493484 0 0 Z " fill="#3963AB" transform="translate(279,365)"/>
<path d="M0 0 C1.49498555 -0.00346348 2.98996853 -0.00823265 4.48494625 -0.01418173 C8.56210704 -0.02662671 12.63905533 -0.02055124 16.71621656 -0.01122308 C21.12528848 -0.00440608 25.5343251 -0.0149269 29.94338989 -0.02316284 C38.56853974 -0.03647419 47.1936111 -0.03363404 55.81876397 -0.02492492 C62.83115802 -0.01813853 69.84353012 -0.01723578 76.85592651 -0.02049637 C77.85551673 -0.02095607 78.85510694 -0.02141577 79.88498777 -0.0218894 C81.91589459 -0.02284861 83.94680141 -0.02382125 85.97770822 -0.02480717 C105.0033112 -0.03335345 124.02887075 -0.02353889 143.05446661 -0.00740607 C159.36486471 0.00599641 175.67519875 0.0036681 191.9855957 -0.01016235 C210.94501709 -0.02623163 229.90440046 -0.03252955 248.86382771 -0.02332556 C250.88709322 -0.02236996 252.91035874 -0.02142684 254.93362427 -0.02049637 C255.92900379 -0.02003354 256.92438331 -0.01957072 257.94992584 -0.01909386 C264.95058447 -0.01650802 271.9512189 -0.02086622 278.95187378 -0.02793503 C287.48807379 -0.0363652 296.02419107 -0.03403803 304.56038165 -0.0180928 C308.91227058 -0.01023049 313.26402179 -0.00708354 317.61590958 -0.01704025 C321.60566655 -0.02603012 325.59515914 -0.02098427 329.58489239 -0.0051076 C331.02215094 -0.00177786 332.45943219 -0.00341278 333.89667594 -0.01073496 C349.18305525 -0.0825918 361.61838208 2.50558127 373.14477539 13.00595093 C378.93337048 19.07634375 384.01655897 28.071295 384.02242589 36.60849339 C384.02544186 37.47702359 384.02845783 38.34555379 384.03156519 39.24040309 C384.02891098 40.67542426 384.02891098 40.67542426 384.02620316 42.13943577 C384.02825579 43.15799067 384.03030842 44.17654557 384.03242326 45.22596577 C384.03812225 48.67286745 384.03663244 52.11972954 384.03521729 55.56663513 C384.03779927 58.04935246 384.04081196 60.53206937 384.04422069 63.01478571 C384.0514635 69.14434623 384.05399427 75.2738942 384.05454974 81.40345851 C384.05546238 88.74270664 384.06212697 96.08194669 384.06889657 103.42119136 C384.08497007 121.16270617 384.09086154 138.90422013 384.09564531 156.64574091 C384.09798008 165.03702993 384.10158262 173.42831826 384.10534069 181.81960675 C384.11817789 210.53758188 384.12889654 239.25555664 384.13234329 267.97353458 C384.13256493 269.77691701 384.13278671 271.58029943 384.13300864 273.38368186 C384.13322929 275.19145433 384.13344977 276.9992268 384.13367009 278.80699927 C384.13411265 282.43378198 384.13455976 286.0605647 384.13500977 289.68734741 C384.13517385 291.03619825 384.13517385 291.03619825 384.13534125 292.41229861 C384.13897176 321.56895421 384.15489068 350.72558496 384.17820013 379.88223104 C384.20279248 410.6998904 384.21651587 441.51753555 384.21771121 472.33520502 C384.21788267 475.71788466 384.2180981 479.1005643 384.21834564 482.48324394 C384.21840141 483.31616995 384.21845718 484.14909596 384.21851464 485.00726215 C384.21966567 498.41611695 384.23069216 511.82494626 384.2452327 525.23379245 C384.25959448 538.7108243 384.2628365 552.18782345 384.25479272 565.66486085 C384.25033481 573.67234811 384.25420348 581.67972986 384.27003123 589.68720327 C384.28092297 595.66565439 384.27614518 601.64398476 384.26525936 607.62244039 C384.26329491 610.04176036 384.26641507 612.46109085 384.27510372 614.88039602 C384.28616299 618.16764003 384.27873061 621.45434901 384.26671219 624.7415781 C384.27810498 626.15201704 384.27810498 626.15201704 384.28972793 627.59094968 C384.19989467 638.96505637 380.53711811 649.10068252 372.89086914 657.61141968 C361.76349009 668.22124621 348.81582802 670.68660842 333.97653198 670.64837646 C332.68352743 670.65290758 331.39052288 670.65743869 330.05833638 670.66210711 C326.48507161 670.67429635 322.91190075 670.67408151 319.33861995 670.67171836 C315.47901781 670.67130918 311.61944537 670.68235863 307.75985718 670.6918335 C300.20568025 670.70841981 292.65153454 670.71394188 285.09734093 670.71505825 C278.95818091 670.71600942 272.81903118 670.72012315 266.67987442 670.7264595 C249.27086939 670.74406196 231.86188899 670.75329941 214.452875 670.75179856 C213.04618845 670.75167869 213.04618845 670.75167869 211.61108398 670.7515564 C210.67214759 670.75147464 209.7332112 670.75139287 208.76582219 670.75130863 C193.53520542 670.75049501 178.30468737 670.76965439 163.07409917 670.79783313 C147.43217823 670.82654458 131.79030548 670.84037453 116.14835751 670.83864558 C107.36771097 670.83798129 98.58716807 670.84349105 89.80654526 670.86500168 C82.33432548 670.88319014 74.86225636 670.88757975 67.39002405 670.87398283 C63.57756797 670.86744258 59.76540116 670.86737396 55.95297241 670.88468933 C51.82144535 670.90326136 47.69059114 670.89089414 43.55905151 670.87542725 C41.74914303 670.89085794 41.74914303 670.89085794 39.90267074 670.90660036 C33.62582896 670.8544848 29.59842817 670.72804763 24.89477539 666.38095093 C22.06594559 662.13770623 22.24209538 658.36360564 22.89477539 653.38095093 C25.02162381 649.73492507 27.02949628 647.94797801 30.89477539 646.38095093 C33.40971595 646.12959391 33.40971595 646.12959391 36.30250263 646.12761784 C37.40690294 646.12200244 38.51130324 646.11638704 39.64917022 646.11060148 C40.86228368 646.11458258 42.07539714 646.11856367 43.32527161 646.12266541 C45.25859353 646.11715185 45.25859353 646.11715185 47.23097247 646.11152691 C50.81134823 646.10153327 54.39162615 646.10392271 57.9720093 646.10825384 C61.83237977 646.11072745 65.69272436 646.10166507 69.55308533 646.09387207 C76.24394485 646.08181993 82.93478054 646.07671876 89.62565041 646.07599068 C99.30718572 646.07466578 108.98866313 646.0595605 118.67017802 646.04049551 C134.38737064 646.00964245 150.10456472 645.98548258 165.82177734 645.96762085 C167.23318148 645.96601183 167.23318148 645.96601183 168.67309882 645.9643703 C179.16929197 645.95255196 189.66548571 645.94234667 200.16168213 645.93392944 C203.96667482 645.9308556 207.7716675 645.9277668 211.57666016 645.9246521 C212.51554204 645.92388676 213.45442393 645.92312142 214.42175678 645.92233289 C230.07600328 645.90925198 245.73020793 645.88461281 261.38442343 645.8509087 C271.04128277 645.83061506 280.69805259 645.82032981 290.3549334 645.8228979 C296.97264494 645.82393289 303.59028572 645.81429746 310.20797256 645.79625887 C314.02654434 645.78621293 317.8449596 645.78108673 321.66353989 645.78902626 C325.80361087 645.79753186 329.94328258 645.78297695 334.08332825 645.76622009 C335.28974954 645.77243191 336.49617083 645.77864372 337.73915035 645.78504378 C344.58697522 645.73441489 350.18919527 645.49662928 355.63696289 640.91610718 C359.00596458 636.53640498 360.01816416 633.50218552 360.02357656 628.06949151 C360.02684875 627.20772303 360.03012095 626.34595456 360.0334923 625.45807189 C360.03126686 624.04212177 360.03126686 624.04212177 360.02899647 622.5975666 C360.0313487 621.58847809 360.03370093 620.57938958 360.03612444 619.53972262 C360.04282416 616.13108534 360.04235592 612.72248609 360.04194641 609.31384277 C360.04524441 606.8562851 360.04896984 604.39872796 360.05308789 601.94117153 C360.06206917 595.87785585 360.06633663 589.81455252 360.06860686 583.75123193 C360.07156776 576.49065602 360.08026441 569.23008981 360.08902114 561.96951899 C360.10986917 544.42125751 360.12033517 526.87299435 360.12915074 509.32472337 C360.133356 501.02620504 360.13857809 492.72768744 360.14383527 484.42916972 C360.16172413 456.03179721 360.17672169 427.6344245 360.18415546 399.2370472 C360.18463022 397.45417199 360.18510611 395.67129679 360.18558313 393.88842159 C360.1858195 393.00426471 360.18605588 392.12010784 360.18629942 391.20915833 C360.18750063 386.72947591 360.18871608 382.2497935 360.18994141 377.77011108 C360.19018156 376.88110094 360.19042171 375.99209079 360.19066913 375.07614095 C360.19856602 346.23771372 360.22200657 317.39932758 360.25449735 288.5609183 C360.288773 258.08275799 360.30850441 227.60462174 360.31179971 197.12644184 C360.31221726 193.78260667 360.31269682 190.43877152 360.31322289 187.09493637 C360.31334608 186.27156922 360.31346927 185.44820208 360.31359619 184.59988441 C360.31593082 171.33440856 360.33160515 158.06898033 360.35206473 144.80352147 C360.37229157 131.47790297 360.37781492 118.15234184 360.3682941 104.82671084 C360.36306718 96.90499412 360.36901256 88.98346804 360.39082877 81.06177865 C360.40587176 75.15434226 360.40013443 69.24704722 360.38615825 63.33960401 C360.38376384 60.94393628 360.38819955 58.54825047 360.3999869 56.15261056 C360.41497417 52.90674727 360.40552413 49.66185556 360.38976002 46.41601753 C360.40509333 45.00709092 360.40509333 45.00709092 360.4207364 43.56970114 C360.36132331 37.99959894 359.62563851 34.79188578 355.89477539 30.38095093 C351.22724233 26.16878695 348.06364802 25.25680862 341.86046219 25.24672985 C340.59084995 25.24227201 339.3212377 25.23781416 338.01315236 25.23322123 C336.59619092 25.23331053 335.17922948 25.23350039 333.76226807 25.23377991 C332.26323945 25.23048136 330.76421171 25.22675582 329.26518512 25.22263843 C325.13530325 25.21260934 321.00543592 25.20890018 316.87554359 25.20624912 C312.42551682 25.2023488 307.97550159 25.19277032 303.52548218 25.18403625 C292.77392051 25.1642649 282.02235789 25.15420512 271.27078259 25.14530846 C266.21000871 25.14092696 261.14923588 25.13555982 256.08846283 25.1303196 C239.26962628 25.11330721 222.45079039 25.09881219 205.63194656 25.09157085 C201.26643116 25.0896609 196.90091577 25.08774058 192.53540039 25.08578491 C191.45034929 25.08530117 190.36529819 25.08481743 189.24736676 25.08431903 C171.66330193 25.07601559 154.07930506 25.0506734 136.49526992 25.01820423 C118.44997175 24.98515444 100.40470814 24.96712401 82.35937953 24.96392661 C72.2243788 24.96175967 62.08947719 24.95298398 51.95450592 24.92746544 C43.32461807 24.9057869 34.69485342 24.897694 26.06494144 24.90743222 C21.66102759 24.9119851 17.25736809 24.9100335 12.85348892 24.89067078 C8.82164207 24.87309669 4.79023619 24.87398969 0.75838503 24.88956807 C-0.69992278 24.89195292 -2.15826067 24.88757521 -3.6165224 24.87573942 C-14.0894519 24.71441468 -14.0894519 24.71441468 -23.10522461 29.38095093 C-26.73732251 33.39537493 -28.22971032 35.75998318 -28.23271656 41.12091351 C-28.23572421 42.12728003 -28.23873186 43.13364656 -28.24183065 44.17050904 C-28.24008027 45.28439258 -28.2383299 46.39827611 -28.23652649 47.5459137 C-28.2386422 48.72283022 -28.24075792 49.89974674 -28.24293774 51.1123274 C-28.24790939 54.3893593 -28.24843258 57.66635852 -28.24719703 60.94339287 C-28.24698224 64.47386307 -28.25255458 68.00432412 -28.25759888 71.53479004 C-28.26572021 77.65655192 -28.27065862 83.77830963 -28.27388954 89.90007591 C-28.27938146 99.57619866 -28.29627459 109.25228606 -28.31523132 118.9283905 C-28.32158847 122.23754781 -28.32789686 125.54670522 -28.33420849 128.85586262 C-28.33658413 130.09646071 -28.33658413 130.09646071 -28.33900777 131.3621214 C-28.3569531 140.7818882 -28.37317477 150.20165752 -28.38818359 159.62142944 C-28.38955947 160.48274994 -28.39093534 161.34407043 -28.3923529 162.23149154 C-28.41427568 176.18463109 -28.42503703 190.13776157 -28.43255434 204.09091529 C-28.44062542 218.4117003 -28.46391659 232.7324075 -28.50050801 247.05314809 C-28.52253678 255.88841838 -28.53219652 264.72352869 -28.52600767 273.55882505 C-28.52283303 279.61545543 -28.53416354 285.67194923 -28.55690209 291.72853734 C-28.56956992 295.22310076 -28.57574001 298.71735988 -28.56448555 302.21193504 C-28.55563464 306.00195695 -28.57123215 309.79111808 -28.5929718 313.58106995 C-28.58452926 314.68379987 -28.57608673 315.7865298 -28.56738836 316.92267579 C-28.63506052 323.29199156 -29.32524004 327.19078281 -33.10522461 332.38095093 C-36.01650551 334.77236024 -39.35364912 334.85790145 -43.07397461 334.76766968 C-46.7857404 334.06100657 -48.52173004 332.08746905 -51.10522461 329.38095093 C-52.99295282 326.3172421 -53.35555982 324.02563529 -53.35690689 320.45012474 C-53.36212239 319.4520764 -53.36733788 318.45402806 -53.37271142 317.42573583 C-53.36824998 316.33139718 -53.36378853 315.23705853 -53.35919189 314.10955811 C-53.36231188 312.94530009 -53.36543186 311.78104207 -53.36864638 310.58150351 C-53.37525093 307.3489458 -53.37286357 304.11653786 -53.36667395 300.88398385 C-53.36215512 297.39779624 -53.36913059 293.91162912 -53.37463379 290.42544556 C-53.3835372 283.5939466 -53.38160108 276.76249155 -53.37580851 269.93099086 C-53.37129353 264.37624798 -53.37067841 258.82151741 -53.37285614 253.26677322 C-53.37316261 252.4764491 -53.37346907 251.68612497 -53.37378483 250.87185163 C-53.37442428 249.26629308 -53.37507271 247.66073452 -53.37573001 246.05517597 C-53.38143665 230.98979586 -53.37487133 215.92444006 -53.36412928 200.85906394 C-53.35520385 187.94203098 -53.35673683 175.025034 -53.3659668 162.10800171 C-53.37668146 147.10618835 -53.38087635 132.10439636 -53.37474227 117.10257971 C-53.37410519 115.50106089 -53.37347644 113.89954206 -53.37285614 112.29802322 C-53.37239331 111.11610053 -53.37239331 111.11610053 -53.37192114 109.9103006 C-53.37019701 104.36753664 -53.37310344 98.82478625 -53.37781525 93.28202438 C-53.38343783 86.51911624 -53.38187918 79.75625449 -53.37125376 72.99335162 C-53.36601393 69.54505529 -53.36391119 66.09683618 -53.37055206 62.6485405 C-53.37602867 58.90369887 -53.36914726 55.15907351 -53.35919189 51.41424561 C-53.36365334 50.33329129 -53.36811478 49.25233697 -53.37271142 48.13862646 C-53.29739411 33.49979032 -49.77525292 22.390432 -39.55053711 11.64266968 C-28.21959109 1.16244964 -14.84911533 -0.07565031 0 0 Z " fill="#3963AA" transform="translate(292.105224609375,6.619049072265625)"/>
<path d="M0 0 C2.78840771 -0.00217128 5.57640876 -0.02034339 8.36474609 -0.03930664 C54.26788553 -0.18276346 106.22795494 8.91712193 140.63427734 41.49780273 C149.058618 50.14159075 154.19068754 59.01251625 154.19799805 71.14941406 C153.86517872 84.27937101 146.75363021 92.46434084 137.82177734 101.18530273 C136.73896484 102.28165039 136.73896484 102.28165039 135.63427734 103.40014648 C109.74708036 128.15968148 69.00915422 135.35728963 34.82177734 139.18530273 C33.65388672 139.31807617 32.48599609 139.45084961 31.28271484 139.58764648 C-18.7782593 144.12170494 -80.38233464 137.94680095 -120.82275391 105.03295898 C-130.82141824 96.29372702 -140.9189447 87.03226511 -142.52197266 73.22436523 C-143.10900439 60.39772182 -138.34120627 51.45417388 -130.17822266 41.99780273 C-104.61530791 14.98270353 -65.89279757 5.15931343 -30.17822266 1.18530273 C-29.33662598 1.08886475 -28.4950293 0.99242676 -27.62792969 0.89306641 C-18.43406556 -0.02078644 -9.22982081 -0.0008005 0 0 Z " fill="#F1F3F8" transform="translate(169.17822265625,443.814697265625)"/>
<path d="M0 0 C3.0717718 1.71077974 5.40485654 3.80971307 7 7 C7.09977995 9.89116631 7.13739062 12.75836285 7.13142776 15.64989185 C7.1334804 16.56073498 7.13553303 17.4715781 7.13764787 18.41002253 C7.14335286 21.49649087 7.14185633 24.58291509 7.14044189 27.66938782 C7.14302353 29.89081839 7.14603612 32.11224849 7.1494453 34.33367795 C7.15754225 40.46495678 7.15930636 46.59622393 7.16004276 52.72750747 C7.1616993 58.65235759 7.16801408 64.57720156 7.17412117 70.50204849 C7.19019766 86.38116024 7.19608622 102.26027105 7.20086992 118.13938948 C7.20320412 125.64780881 7.20680656 133.15622737 7.2105653 140.6646461 C7.22340197 166.35503707 7.2341213 192.04542761 7.2375679 217.73582172 C7.23778954 219.34916962 7.23801132 220.96251751 7.23823325 222.5758654 C7.2384539 224.19316183 7.23867438 225.81045827 7.2388947 227.4277547 C7.23933726 230.67245821 7.23978437 233.91716172 7.24023438 237.16186523 C7.24034377 237.96636588 7.24045316 238.77086652 7.24056586 239.59974597 C7.24419763 265.69391906 7.26012158 291.78806439 7.28342474 317.88222684 C7.30800392 345.45553121 7.32173984 373.02881971 7.32293582 400.60213536 C7.32310728 403.62721996 7.32332271 406.65230455 7.32357025 409.67738914 C7.3236539 410.79472113 7.3236539 410.79472113 7.32373925 411.93462549 C7.32489134 423.9376865 7.33592671 435.94071909 7.35045731 447.94377049 C7.36480208 460.00153611 7.36807075 472.05926517 7.36001733 484.11703698 C7.35594558 490.65323424 7.35710426 497.18935461 7.37107468 503.72554207 C7.38373504 509.70326308 7.38268575 515.68081534 7.37048396 521.65853586 C7.36851325 523.82678917 7.37166811 525.99505411 7.38032833 528.16329101 C7.39131961 531.09993025 7.38400517 534.03596319 7.3719368 536.97258472 C7.38332959 538.24913787 7.38332959 538.24913787 7.39495254 539.55147997 C7.34419451 545.23310132 6.24194596 548.49936797 2.375 552.8125 C-1.35421704 554.67710852 -4.91924055 554.66312341 -9 554 C-12.5847288 551.86441689 -14.57021702 549.89080318 -16 546 C-16.19205636 543.00941148 -16.27171491 540.11279169 -16.25726891 537.12242317 C-16.26077498 536.21126033 -16.26428105 535.30009749 -16.26789337 534.36132365 C-16.27725146 531.28575468 -16.27227271 528.21037322 -16.26742554 525.13479614 C-16.27115957 522.9164759 -16.2757601 520.69815698 -16.28115618 518.47984016 C-16.29343202 512.36639954 -16.29312034 506.25301346 -16.29076743 500.13956332 C-16.29040219 494.22908687 -16.29937318 488.31862942 -16.30799321 482.40816033 C-16.32735347 468.8221118 -16.33296218 455.23607833 -16.33410732 441.65001763 C-16.33502573 431.16007663 -16.33913888 420.67014156 -16.34550858 410.18020248 C-16.34730361 407.16278105 -16.34908324 404.1453596 -16.35085833 401.12793815 C-16.35130043 400.37784022 -16.35174252 399.62774228 -16.35219802 398.8549141 C-16.3645095 377.750903 -16.37239883 356.64689396 -16.37151146 335.5428791 C-16.3714803 334.74691566 -16.37144914 333.95095221 -16.37141704 333.13086866 C-16.37125082 329.09641623 -16.37105274 325.0619638 -16.37084763 321.02751137 C-16.37080774 320.22622638 -16.37076785 319.42494138 -16.37072675 318.59937502 C-16.37064587 316.97898114 -16.37056228 315.35858726 -16.37047596 313.73819338 C-16.36925021 288.52254207 -16.38426679 263.30694452 -16.41162109 238.09130859 C-16.44232654 209.77472636 -16.45955453 181.45817945 -16.45769465 153.14157951 C-16.45754538 150.12352935 -16.45744797 147.1054792 -16.45738602 144.08742905 C-16.45736271 143.34428463 -16.4573394 142.60114021 -16.45731538 141.83547626 C-16.45725378 129.86432951 -16.47003806 117.89322936 -16.48725055 105.92209647 C-16.50418485 93.89591257 -16.50619818 81.86979701 -16.4930319 69.8436078 C-16.4864807 63.32546731 -16.48646255 56.8074961 -16.5037384 50.28937149 C-16.51937906 44.32705035 -16.51669805 38.36503397 -16.49917014 32.40272067 C-16.49608031 30.24123906 -16.49980648 28.07973519 -16.51089029 25.91827978 C-16.52492492 22.988233 -16.51449301 20.05926808 -16.49777794 17.12925911 C-16.5077143 16.28302673 -16.51765066 15.43679436 -16.52788812 14.56491858 C-16.46346324 9.25153804 -15.54706567 6.2017932 -12 2 C-7.97818385 -0.68121076 -4.72763609 -0.81344335 0 0 Z " fill="#3862A9" transform="translate(462,62)"/>
<path d="M0 0 C10.60589734 8.22660434 19.61729482 20.38755652 22.59375 33.64453125 C24.81111404 51.95910541 23.35997585 69.79312323 12 85 C1.70999088 98.08018467 -11.46359116 106.35646336 -28 109 C-39.58449318 109.98877359 -51.36727407 110.14797138 -62 105 C-62.92683594 104.57589844 -63.85367188 104.15179687 -64.80859375 103.71484375 C-71.87856178 100.19456841 -77.42814406 95.55277424 -83 90 C-83.6496875 89.37351562 -84.299375 88.74703125 -84.96875 88.1015625 C-95.60549885 77.04494198 -99.49948696 61.62141862 -99.3515625 46.69799805 C-98.82998682 29.43710275 -91.33471846 14.88959014 -78.9140625 3.00390625 C-55.91014007 -16.19453459 -24.44988847 -17.01744729 0 0 Z " fill="#3963AB" transform="translate(597,501)"/>
<path d="M0 0 C0.92296875 0.40089844 1.8459375 0.80179688 2.796875 1.21484375 C19.37015302 9.2908055 29.81698559 24.04484384 35.75 41.1640625 C39.9356487 56.68584311 36.22962288 73.2841877 28.7421875 87.16015625 C19.94474124 101.50038816 7.98074662 110.00207924 -8 115 C-8.74378906 115.24492187 -9.48757813 115.48984375 -10.25390625 115.7421875 C-24.65469182 119.73177895 -40.6996142 116.92419382 -53.8125 110.3125 C-59.54521239 106.93079596 -64.30400886 102.68795006 -69 98 C-69.6496875 97.36191406 -70.299375 96.72382813 -70.96875 96.06640625 C-81.29311663 85.17601074 -85.99871015 69.72555058 -86.5 54.9375 C-85.88027251 37.36522693 -78.43860639 23.11241916 -66 11 C-48.86643562 -4.72976394 -21.31655533 -9.71425879 0 0 Z " fill="#3963AB" transform="translate(584,208)"/>
<path d="M0 0 C0.94617188 0.42410156 1.89234375 0.84820312 2.8671875 1.28515625 C18.38516164 9.00115724 28.41603386 22.31313608 35 38 C39.90759809 52.82721125 37.46934926 69.2941273 30.875 83.125 C27.43615053 89.69799076 23.30363931 94.8492584 18 100 C17.18982422 100.84111328 17.18982422 100.84111328 16.36328125 101.69921875 C4.21027381 113.36243244 -12.91107712 116.54795271 -29.11694336 116.49023438 C-45.24657222 116.01382571 -59.87775273 108.68898598 -71 97 C-82.64828747 82.82264803 -87.39428701 66.22392034 -86 48 C-83.71200157 31.50992125 -74.92473692 18.50918951 -62.5625 7.91015625 C-45.24440117 -5.10690158 -20.01052028 -9.1501097 0 0 Z " fill="#3963AB" transform="translate(584,352)"/>
<path d="M0 0 C11.93120924 9.90311942 21.00321395 23.14170056 23.3125 38.75 C24.79714938 56.21318837 20.90219301 72.38222784 10.2109375 86.53125 C-0.35915373 98.93149836 -15.31646975 107.32937341 -31.6875 108.75 C-48.89301754 109.85808368 -64.17399735 105.72530689 -77.59765625 94.65625 C-88.53922945 84.67589912 -97.89959467 70.89981489 -98.81176758 55.67602539 C-99.45462165 36.37647138 -96.13410922 21.56564915 -83.5625 6.4375 C-61.48692834 -16.66572759 -25.43185659 -18.72067221 0 0 Z " fill="#3963AB" transform="translate(394.6875,74.25)"/>
<path d="M0 0 C10.66921342 8.74837464 18.3395926 20.05700004 21.3125 33.6875 C22.36199803 46.20364846 22.58071707 59.08695579 17.3125 70.6875 C16.98507812 71.45191406 16.65765625 72.21632813 16.3203125 73.00390625 C8.41631984 89.12920515 -5.81747673 99.9304259 -22.5234375 105.66015625 C-37.86420311 110.08142248 -54.39617227 108.24014218 -68.5625 100.9375 C-84.5886322 91.32662611 -94.80159347 78.45216359 -99.5625 60.25 C-102.57881384 45.18649258 -100.82709369 30.10762322 -93 16.8125 C-82.65276703 1.42479509 -69.45620416 -8.28644787 -51.30078125 -12.921875 C-32.55746828 -15.72356603 -15.21592145 -11.17904433 0 0 Z " fill="#3963AB" transform="translate(598.6875,75.3125)"/>
<path d="M0 0 C10.75819697 9.18422245 20.15973099 22.94243602 21.43579102 37.40209961 C21.92245964 49.05838149 22.07246738 60.10202637 17.21484375 70.8984375 C16.81394531 71.82269531 16.41304688 72.74695313 16 73.69921875 C8.31622107 89.4453976 -4.72021344 98.97262334 -20.83984375 104.953125 C-35.29069103 109.59119535 -53.21093106 108.5325784 -66.78515625 101.8984375 C-81.48626513 93.79962303 -92.28946194 81.86093144 -97.78515625 65.8984375 C-99.6260984 59.39499202 -100.12230276 53.19929288 -100.09765625 46.4609375 C-100.11376953 45.58373047 -100.12988281 44.70652344 -100.14648438 43.80273438 C-100.15780971 28.43425246 -92.88419676 15.65739983 -82.67578125 4.6171875 C-59.97648224 -17.62507864 -25.16434623 -18.98796391 0 0 Z " fill="#3963AA" transform="translate(395.78515625,216.1015625)"/>
<path d="M0 0 C0.6084375 0.40089844 1.216875 0.80179688 1.84375 1.21484375 C56.42283078 36.61098291 125.45821954 44.72987232 189 34 C190.56766113 33.74259033 190.56766113 33.74259033 192.16699219 33.47998047 C219.73349996 28.81891637 251.5440503 20.32326068 273.58203125 2.03125 C275 1 275 1 277 1 C272.4024483 13.47906889 265.33516717 25.69154515 257 36 C256.195625 37.01707031 255.39125 38.03414062 254.5625 39.08203125 C249.82127287 44.99287628 244.94717734 50.30048224 239 55 C238.05640625 55.76828125 237.1128125 56.5365625 236.140625 57.328125 C217.57817169 72.22377806 196.14647999 82.43481745 173 88 C171.73800781 88.31839844 170.47601563 88.63679687 169.17578125 88.96484375 C158.64741462 91.30289936 147.98286959 91.2871039 137.25 91.3125 C136.50300842 91.31617584 135.75601685 91.31985168 134.98638916 91.32363892 C122.17544366 91.35650913 109.63502565 90.39764687 97.25 86.875 C96.50613037 86.66544678 95.76226074 86.45589355 94.99584961 86.23999023 C68.68106467 78.44904761 42.28233467 62.56137426 25 41 C24.319375 40.21753906 23.63875 39.43507813 22.9375 38.62890625 C0 11.82866753 0 11.82866753 0 0 Z " fill="#F0F3F8" transform="translate(37,568)"/>
<path d="M0 0 C8.91383305 6.22607423 14.89548022 14.13966486 17.796875 24.6796875 C19.23419399 35.13177033 17.1180344 45.38863253 10.984375 54.0546875 C3.28308442 63.35800093 -6.07679766 68.78024657 -18.17578125 69.97265625 C-29.02582068 70.45114428 -37.2769566 67.49048194 -45.578125 60.4921875 C-53.49461456 52.84297492 -58.33263527 44.0132566 -58.58349609 32.83203125 C-58.56452768 25.67231554 -58.1818804 19.82643346 -54.203125 13.6796875 C-53.75582031 12.98488281 -53.30851562 12.29007813 -52.84765625 11.57421875 C-40.60331298 -5.92238973 -18.58313213 -11.13669975 0 0 Z " fill="#F1F3F8" transform="translate(377.203125,90.3203125)"/>
<path d="M0 0 C9.16592169 5.55074141 16.09092872 13.57685949 19 24 C20.50080712 34.81754046 19.61365588 45.67006413 13.046875 54.6796875 C5.20843844 63.91588722 -3.70460454 70.11355169 -15.94921875 71.28125 C-28.65749335 71.67177316 -37.67647473 67.62337945 -47.04296875 59.15234375 C-54.05437634 51.87184162 -57.37557255 41.58486836 -57.2109375 31.55859375 C-56.30692488 20.59325543 -51.68152315 12.31610487 -43.875 4.75 C-31.38327303 -5.64245172 -14.48249328 -7.63106905 0 0 Z " fill="#F0F3F7" transform="translate(578,89)"/>
<path d="M0 0 C9.43758342 6.59189987 14.75607262 14.56595844 17.796875 25.6796875 C19.53921406 35.85861568 15.79372011 46.26653281 10.109375 54.6171875 C4.03732701 62.32790279 -3.45510368 67.12415218 -13.203125 68.6796875 C-27.12024521 69.68980106 -37.30502861 67.92543197 -48.203125 58.6796875 C-50.60682767 56.1987781 -52.45364104 53.65381024 -54.203125 50.6796875 C-54.615625 49.9990625 -55.028125 49.3184375 -55.453125 48.6171875 C-59.81963135 39.8841748 -59.67511505 28.1686377 -57.54296875 18.76953125 C-56.62571113 16.51808072 -55.58054799 14.68023042 -54.203125 12.6796875 C-53.72875 11.926875 -53.254375 11.1740625 -52.765625 10.3984375 C-40.88120276 -6.74255611 -17.53418908 -10.50807785 0 0 Z " fill="#F0F3F7" transform="translate(580.203125,376.3203125)"/>
<path d="M0 0 C8.65049026 6.2246914 14.42092367 14.43492261 16.9296875 24.8828125 C18.62301526 35.63026014 15.85311319 44.90455693 10.02734375 53.9921875 C3.55872119 62.74472008 -5.98413395 67.62611757 -16.6875 69.3125 C-27.76015693 70.28019439 -37.11545927 67.40180936 -45.6875 60.3125 C-53.19545954 53.23128061 -58.22336175 45.2060943 -58.92578125 34.7734375 C-59.23448605 23.56951139 -57.97470578 15.87010786 -50.5 7.0625 C-36.89366836 -7.14706802 -17.1471267 -10.57646302 0 0 Z " fill="#F1F3F8" transform="translate(580.6875,232.6875)"/>
<path d="M0 0 C9.83264931 5.25818829 16.41145456 12.46232253 20.44140625 22.8828125 C23.16466401 32.90671871 22.11412472 43.06327769 17.359375 52.26171875 C12.19337737 61.1334168 4.1965084 67.43384014 -5.55078125 70.60546875 C-16.16332564 72.85946048 -27.07640216 72.10287112 -36.484375 66.59765625 C-46.54642364 59.80847827 -52.12385069 51.12651193 -54.640625 39.26171875 C-55.46328832 28.18446143 -53.38120589 19.20595108 -46.640625 10.26171875 C-34.76144409 -2.71159724 -16.36175874 -7.06530491 0 0 Z " fill="#F1F3F8" transform="translate(575.640625,515.73828125)"/>
<path d="M0 0 C7.19816646 6.27208657 11.67153915 14.64376624 12.4453125 24.19921875 C12.93779203 35.46875024 11.18366737 43.58829155 3.6875 52.3125 C-4.42603918 60.75693393 -11.70999732 64.97225526 -23.54956055 65.40527344 C-35.94269193 65.57252559 -43.69159179 63.11146823 -52.8046875 54.35546875 C-61.09596641 45.45931006 -63.67453756 35.42395011 -63.3359375 23.390625 C-62.34323652 13.37127092 -57.25200555 6.72986115 -50 0 C-34.53074465 -12.1347157 -15.73406527 -11.80727291 0 0 Z " fill="#F1F3F8" transform="translate(382,235)"/>
<path d="M0 0 C21.63699369 7.90917483 36.23983423 26.2249141 46.30078125 46.13671875 C48.66912905 51.56804151 50.19332167 56.50283268 48.73828125 62.38671875 C47.00889364 65.4907478 44.96836362 67.77167757 41.73828125 69.38671875 C34.78059153 70.08248772 34.78059153 70.08248772 30.70703125 67.36328125 C27.20972592 64.24832153 25.72877647 60.65461992 23.98828125 56.38671875 C16.66554083 39.79172357 5.8866751 29.06268808 -10.4765625 21.02734375 C-13.31590372 19.35480054 -14.69062212 18.2572987 -16.26171875 15.38671875 C-16.92539797 11.98536273 -16.86866695 8.79666407 -16.26171875 5.38671875 C-11.69152882 -0.5064209 -7.09897801 -1.92493877 0 0 Z " fill="#3962AA" transform="translate(375.26171875,353.61328125)"/>
<path d="M0 0 C-1.26941497 3.91402949 -2.51167694 5.79072873 -6 8 C-6.99 7.01 -7.98 6.02 -9 5 C-7.87926138 4.16094435 -6.75325453 3.32892169 -5.625 2.5 C-4.99851562 2.0359375 -4.37203125 1.571875 -3.7265625 1.09375 C-2 0 -2 0 0 0 Z " fill="#E1E7EF" transform="translate(314,569)"/>
<path d="M0 0 C0.99 0.33 1.98 0.66 3 1 C0.69 3.31 -1.62 5.62 -4 8 C-4.66 7.34 -5.32 6.68 -6 6 C-4.02 4.02 -2.04 2.04 0 0 Z " fill="#E5EAF1" transform="translate(44,481)"/>
<path d="M0 0 C0.66 0.66 1.32 1.32 2 2 C0.02 4.31 -1.96 6.62 -4 9 C-4.66 8.67 -5.32 8.34 -6 8 C-4.02 5.36 -2.04 2.72 0 0 Z " fill="#E8ECF2" transform="translate(609,299)"/>
<path d="M0 0 C0.33 0.99 0.66 1.98 1 3 C-2.3 2.67 -5.6 2.34 -9 2 C-5.5647952 -0.29013653 -4.014669 -0.17842973 0 0 Z " fill="#E7EBF2" transform="translate(232,423)"/>
<path d="M0 0 C2.64 1.65 5.28 3.3 8 5 C4 6 4 6 2 6 C1.34 4.02 0.68 2.04 0 0 Z " fill="#D7DFEB" transform="translate(37,568)"/>
</svg>
