<?xml version="1.0" encoding="UTF-8"?>
<svg version="1.1" xmlns="http://www.w3.org/2000/svg" width="513" height="535">
<path d="M0 0 C1.33569466 1.16396249 2.66951268 2.33008873 4 3.5 C4.99 4.16 5.98 4.82 7 5.5 C7 6.16 7 6.82 7 7.5 C7.86625 7.87125 7.86625 7.87125 8.75 8.25 C11.32939979 9.68299988 13.06121592 11.28424676 15 13.5 C15 14.16 15 14.82 15 15.5 C15.66 15.5 16.32 15.5 17 15.5 C18.84471639 17.90235125 20.56284674 20.30239991 22.25 22.8125 C22.74653076 23.54654053 23.24306152 24.28058105 23.75463867 25.03686523 C42.45352362 52.97959247 48.77110969 84.3556507 43 117.5 C42.66108231 118.73409607 42.32216461 119.96819214 41.97297668 121.23968506 C40.92477527 125.38082001 40.72605419 129.37967645 40.79956055 133.63769531 C40.81017407 134.79568571 40.81017407 134.79568571 40.82100201 135.97706985 C40.96002823 145.76534158 41.58927233 155.52961092 42.20703125 165.296875 C42.33481852 167.38052649 42.46214176 169.46420648 42.58903503 171.5479126 C42.9232929 177.01469508 43.26421642 182.48104204 43.60650635 187.94732666 C43.87654275 192.27679029 44.14195367 196.60653098 44.40706825 200.93629837 C45.7167662 222.32531453 47.07214777 243.71101081 48.48046875 265.09375 C50.17929116 290.89552084 51.72858731 316.70611423 53.27606201 342.51733398 C53.64802569 348.71733687 54.021349 354.91725787 54.39453125 361.1171875 C55.47816739 379.12709556 56.56043767 397.13708546 57.63640785 415.14745331 C57.9079907 419.69295346 58.17991393 424.23843322 58.45184326 428.78391266 C58.63731445 431.88706679 58.82221355 434.99025462 59.00708008 438.09344482 C59.77111393 450.88557605 60.57452189 463.67445113 61.45010376 476.45947266 C61.86712762 482.65331967 62.13018922 488.84817877 62.23828125 495.0546875 C62.26575439 496.35647949 62.29322754 497.65827148 62.3215332 498.99951172 C61.97858732 502.73311696 61.24758983 504.54294624 59 507.5 C55.43255301 510.19968962 52.42156923 511.06264333 48 511.5 C44.84375 510.8984375 44.84375 510.8984375 41.5 509.875 C40.27796875 509.50117187 39.0559375 509.12734375 37.796875 508.7421875 C30.23370096 506.26781575 22.73785858 503.64764721 15.375 500.625 C10.70814062 498.72483577 5.97037696 497.07105913 1.2109375 495.421875 C-9.73520558 491.60883878 -20.64704708 487.70292685 -31.55273438 483.77587891 C-34.73242481 482.63132632 -37.9130607 481.48942958 -41.09375 480.34765625 C-52.67887716 476.18185804 -64.23523285 471.94977751 -75.74591064 467.5819397 C-82.26858247 465.11500877 -88.83362441 462.80242325 -95.4375 460.5625 C-109.63507143 455.71246052 -123.69234471 450.48963338 -137.76629639 445.29425049 C-150.66508932 440.53476393 -163.57239632 435.84118292 -176.5871582 431.40698242 C-184.13452843 428.82734088 -191.59687498 426.05574067 -199.05297852 423.22436523 C-208.82582411 419.52924245 -218.66144083 416.01524032 -228.5 412.5 C-240.67735149 408.14861825 -252.83239145 403.75542374 -264.921875 399.1640625 C-266.58290993 398.53341546 -268.24565656 397.90724467 -269.91064453 397.28710938 C-271.67924977 396.62083416 -273.43330355 395.91612665 -275.18359375 395.203125 C-281.2508899 393.68840474 -286.52634924 395.88395147 -292.125 398.1875 C-292.77388184 398.45296631 -293.42276367 398.71843262 -294.09130859 398.99194336 C-299.4090335 401.19177762 -304.61388598 403.61594878 -309.8203125 406.06640625 C-314.00891299 407.95487846 -318.28814779 409.54592655 -322.58911133 411.1574707 C-325.73855927 412.39709666 -328.77431225 413.7543997 -331.83203125 415.203125 C-339.08584493 418.57842772 -346.44052964 421.68197196 -353.82324219 424.76300049 C-357.97188962 426.4949237 -362.11691764 428.23545818 -366.26171875 429.9765625 C-367.12832123 430.34055145 -367.99492371 430.70454041 -368.88778687 431.07955933 C-379.11243123 435.37990827 -389.30719113 439.74984549 -399.5 444.125 C-400.81791031 444.6906366 -400.81791031 444.6906366 -402.16244507 445.2677002 C-403.87609984 446.0033104 -405.589669 446.73912007 -407.30314636 447.47514343 C-408.93414343 448.175376 -410.56549227 448.87478989 -412.19721985 449.57331848 C-415.84561649 451.13649664 -419.48745273 452.71101901 -423.11328125 454.32592773 C-423.74778198 454.60580536 -424.38228271 454.88568298 -425.03601074 455.17404175 C-426.70541594 455.91154368 -428.37142403 456.65672252 -430.03710938 457.40258789 C-434.70934454 459.13311665 -439.15452812 459.86832262 -444 458.5 C-447.64068424 455.78027937 -449.57470313 452.77589061 -451 448.5 C-450.94730006 445.80975309 -450.83126836 443.1622177 -450.65332031 440.47998047 C-450.60428181 439.68011656 -450.5552433 438.88025265 -450.50471878 438.05615044 C-449.95353784 429.30307958 -449.26001431 420.5614025 -448.546875 411.8203125 C-448.40481118 410.05886745 -448.26292976 408.29740768 -448.12121582 406.53593445 C-447.74466669 401.86317801 -447.3652494 397.19065888 -446.98512268 392.51819229 C-446.66851322 388.62230248 -446.35356654 384.7262789 -446.0385704 380.83025837 C-443.57585473 350.37635787 -441.06225101 319.92684956 -438.50244141 289.48095703 C-437.86906882 281.94650287 -437.24132979 274.41158284 -436.61444092 266.87658691 C-436.32263884 263.3695266 -436.03048691 259.86249546 -435.73828125 256.35546875 C-435.68003174 255.65628326 -435.62178223 254.95709778 -435.56176758 254.23672485 C-435.15527598 249.35903197 -434.74774137 244.48142682 -434.33984375 239.60385132 C-434.0178914 235.75337664 -433.69624355 231.90287657 -433.37469482 228.05236816 C-433.20895154 226.06774327 -433.04313997 224.08312408 -432.8772583 222.09851074 C-431.85143798 209.820246 -430.83787232 197.54103037 -429.8394165 185.2605114 C-429.66858099 183.15987197 -429.49753379 181.05924988 -429.32641602 178.95863342 C-429.2128882 177.56478902 -429.0993628 176.17094441 -428.98583984 174.77709961 C-428.90183237 173.74572608 -428.90183237 173.74572608 -428.81612778 172.69351673 C-428.53763034 169.27249527 -428.25989047 165.85141513 -427.98370361 162.4302063 C-427.67421915 158.59918165 -427.3626712 154.76832945 -427.05078125 150.9375 C-426.95927292 149.79687607 -426.86776459 148.65625214 -426.77348328 147.48106384 C-426.52864787 144.48603648 -426.27071308 141.49278998 -426 138.5 C-425.92918716 137.6974881 -425.85837433 136.8949762 -425.78541565 136.06814575 C-425.25953611 130.98182933 -423.96072494 127.78800876 -420 124.5 C-417.49688784 122.94334867 -414.89719861 121.77606614 -412.1875 120.625 C-410.65930968 119.94199518 -409.13198455 119.25705171 -407.60546875 118.5703125 C-406.83509277 118.22774414 -406.0647168 117.88517578 -405.27099609 117.53222656 C-401.79693527 115.95317591 -398.4004391 114.23056167 -395 112.5 C-388.93045265 109.43263463 -382.81221509 106.48886231 -376.63671875 103.640625 C-369.00791446 100.09812525 -361.51442702 96.27702721 -354 92.5 C-319.02264029 74.93223263 -319.02264029 74.93223263 -304.47265625 68.06396484 C-300.51467901 66.19402552 -296.57878127 64.30577215 -292.69921875 62.27734375 C-292.0537207 61.9417041 -291.40822266 61.60606445 -290.74316406 61.26025391 C-289.10291553 60.39932302 -287.47088343 59.52278338 -285.83984375 58.64453125 C-279.9828103 56.2839937 -275.65434747 57.77810026 -270.09788513 60.11585999 C-269.22382523 60.4965715 -268.34976532 60.87728302 -267.44921875 61.26953125 C-266.52597305 61.66172348 -265.60272736 62.05391571 -264.65150452 62.45799255 C-261.65894402 63.73244573 -258.67325183 65.02218648 -255.6875 66.3125 C-253.63283898 67.19125318 -251.57782478 68.06918101 -249.52246094 68.94628906 C-237.93150204 73.90219689 -226.36707013 78.9198689 -214.84765625 84.04003906 C-208.31668478 86.94140458 -201.74548986 89.72338658 -195.11816406 92.39746094 C-192.00934022 93.65353513 -188.98665519 94.97808324 -186 96.5 C-185.93268677 95.6478894 -185.93268677 95.6478894 -185.86401367 94.77856445 C-184.97369935 83.8098476 -184.01496186 73.12477824 -181 62.5 C-180.67386719 61.26378906 -180.34773438 60.02757813 -180.01171875 58.75390625 C-175.59092649 42.77528134 -167.63375697 29.12232008 -157 16.5 C-156.25878906 15.60667969 -155.51757812 14.71335938 -154.75390625 13.79296875 C-146.8315236 4.59961562 -137.66733129 -2.74022883 -127 -8.5 C-126.4318457 -8.81324219 -125.86369141 -9.12648438 -125.27832031 -9.44921875 C-86.16238477 -30.84106616 -35.40425548 -28.30282051 0 0 Z " fill="#206BAD" transform="translate(451,23.5)"/>
<path d="M0 0 C1.82911919 1.56410476 3.64189757 3.14752922 5.4375 4.75 C6.283125 5.50023438 7.12875 6.25046875 8 7.0234375 C25.40905072 23.39882583 34.98814249 46.25908345 36.6640625 69.953125 C37.26794439 93.55941706 29.89733389 117.06591471 18.60449219 137.61743164 C17.69665362 139.27642116 16.80460498 140.94405515 15.91894531 142.61499023 C11.62102429 150.70379476 7.06900153 158.61051987 2.3125 166.4375 C1.94411011 167.04495056 1.57572021 167.65240112 1.19616699 168.27825928 C-4.76462566 178.08005974 -11.10896548 187.4921577 -18.00634766 196.66113281 C-20.17352995 199.57020274 -22.27325958 202.52573783 -24.37890625 205.47949219 C-30.47467004 214.01723363 -36.83070656 222.32483166 -43.3046875 230.578125 C-47.47849727 235.90358351 -51.5336733 241.31428144 -55.5625 246.75 C-59.53690514 245.22618099 -61.23902269 242.84820179 -63.6875 239.4375 C-64.48476253 238.34178189 -65.2829722 237.24675243 -66.08203125 236.15234375 C-66.49146973 235.58757324 -66.9009082 235.02280273 -67.32275391 234.44091797 C-69.2912342 231.7560628 -71.33528151 229.13094124 -73.375 226.5 C-99.56471342 192.55813141 -99.56471342 192.55813141 -110.5625 174.75 C-111.49551347 173.28265557 -112.4306052 171.81663158 -113.3671875 170.3515625 C-130.73955057 143.14464735 -148.37875065 112.94644929 -149.5625 79.75 C-149.62244141 78.48736328 -149.62244141 78.48736328 -149.68359375 77.19921875 C-150.26138301 54.25758618 -143.18327954 32.22214814 -128.2265625 14.703125 C-126.40999768 12.64840839 -126.40999768 12.64840839 -124.5625 9.75 C-123.9025 9.75 -123.2425 9.75 -122.5625 9.75 C-122.2325 8.76 -121.9025 7.77 -121.5625 6.75 C-120.9025 6.75 -120.2425 6.75 -119.5625 6.75 C-119.5625 6.09 -119.5625 5.43 -119.5625 4.75 C-107.81658587 -5.90649545 -93.95648772 -13.46622553 -78.5625 -17.25 C-77.72074219 -17.47429688 -76.87898438 -17.69859375 -76.01171875 -17.9296875 C-49.98672106 -23.83894047 -20.71910854 -16.48835351 0 0 Z " fill="#EBEFF8" transform="translate(437.5625,42.25)"/>
<path d="M0 0 C0.33 0 0.66 0 1 0 C2.41598018 14.65853399 3.53646175 29.31110367 4.40234375 44.01171875 C4.52557244 46.06124057 4.64909482 48.11074475 4.77288818 50.16023254 C5.09816619 55.55922868 5.41934478 60.95846086 5.73958969 66.35775757 C6.07311274 71.96911678 6.41046377 77.580246 6.74731445 83.19140625 C7.44964515 94.90298171 8.1466553 106.614869 8.84140015 118.32689667 C8.98633692 120.76971723 9.13142677 123.21252862 9.27661133 125.65533447 C10.37573376 144.14901504 11.46554815 162.6432258 12.52320862 181.139328 C12.82595937 186.42633541 13.13128179 191.7131924 13.4375 197 C13.49737091 198.0363559 13.55724182 199.07271179 13.618927 200.14047241 C14.73157307 219.31166059 16.05485065 238.4662363 17.39071655 257.62295532 C18.64799326 275.74421277 19.7169541 293.83382107 20 312 C8.71030422 308.28316743 -2.51787088 304.4389269 -13.6875 300.375 C-15.18263289 299.83307071 -16.6778342 299.29133017 -18.1730957 298.74975586 C-23.45018244 296.83716013 -28.72521005 294.91891956 -34 293 C-35.62591064 292.4085318 -35.62591064 292.4085318 -37.28466797 291.80511475 C-40.8460605 290.50948697 -44.40740565 289.21372896 -47.96875 287.91796875 C-49.18109818 287.4769281 -50.39344635 287.03588745 -51.64253235 286.58148193 C-57.68695645 284.38247359 -63.73099524 282.18242022 -69.77416992 279.97998047 C-72.04080291 279.15448522 -74.30748468 278.32912389 -76.57421875 277.50390625 C-77.65559616 277.11003723 -78.73697357 276.71616821 -79.85112 276.31036377 C-86.95098221 273.72966317 -94.06399881 271.18969224 -101.20817566 268.73402405 C-105.89308892 267.10691108 -105.89308892 267.10691108 -107 266 C-107.09639184 264.20305962 -107.12187425 262.40229107 -107.12025452 260.60276794 C-107.12162918 259.43182587 -107.12300385 258.26088379 -107.12442017 257.05445862 C-107.12082489 255.75830124 -107.11722961 254.46214386 -107.11352539 253.12670898 C-107.11324352 251.75712079 -107.11340125 250.38753244 -107.1139679 249.01794434 C-107.11425588 245.28877052 -107.10835909 241.55962859 -107.10139394 237.83046222 C-107.09516047 233.93735587 -107.09455661 230.04424887 -107.09336853 226.15113831 C-107.09025519 218.77401854 -107.08204178 211.39691351 -107.07201904 204.01980025 C-107.06085797 195.62332457 -107.05534747 187.22684821 -107.05032361 178.83036697 C-107.03985916 161.55356944 -107.02225968 144.27678628 -107 127 C-105.66195313 127.12568359 -105.66195313 127.12568359 -104.296875 127.25390625 C-103.12640625 127.35574219 -101.9559375 127.45757812 -100.75 127.5625 C-99.58984375 127.66691406 -98.4296875 127.77132812 -97.234375 127.87890625 C-94.47649725 127.98216013 -92.55229784 127.98460998 -90 127 C-88.9760334 125.25206093 -88.9760334 125.25206093 -88 123 C-86.40634633 120.86084839 -84.7913482 118.76825417 -83.125 116.6875 C-82.6388623 116.07430908 -82.15272461 115.46111816 -81.65185547 114.8293457 C-79.13391448 111.657964 -76.59959607 108.49981589 -74.0625 105.34375 C-68.27854156 98.14662147 -62.58096049 90.89667556 -56.99658203 83.54321289 C-54.2025611 79.86719693 -51.38854806 76.21082519 -48.5234375 72.58984375 C-40.72932204 62.727681 -33.4426628 52.63357898 -26.46240234 42.1796875 C-25.14271081 40.2127082 -23.80508125 38.26009858 -22.45703125 36.3125 C-15.10001791 25.60476771 -8.68851988 14.34973981 -2.23999023 3.07861328 C-1 1 -1 1 0 0 Z " fill="#EBEFF8" transform="translate(471,197)"/>
<path d="M0 0 C6.89506475 1.88047221 13.57662445 3.77862323 20.28515625 6.15234375 C21.13169266 6.44845551 21.97822906 6.74456726 22.85041809 7.0496521 C25.58906365 8.00864845 28.32578612 8.97300659 31.0625 9.9375 C32.98507966 10.61188349 34.90776993 11.28595174 36.83056641 11.9597168 C49.22091364 16.30474015 61.60070217 20.67982791 73.97982788 25.05670166 C92.11747806 31.46866865 110.30744165 37.72489857 128.51953125 43.921875 C130.02314209 44.43369576 130.02314209 44.43369576 131.55712891 44.95585632 C136.58863303 46.66842733 141.62069083 48.37933516 146.65380859 50.0871582 C148.50229352 50.71561381 150.35076424 51.3441112 152.19921875 51.97265625 C153.05925003 52.26384338 153.91928131 52.55503052 154.80537415 52.8550415 C155.59365097 53.12338806 156.3819278 53.39173462 157.1940918 53.66821289 C157.88383591 53.90230362 158.57358002 54.13639435 159.28422546 54.37757874 C161 55 161 55 163 56 C163 101.87 163 147.74 163 195 C151.74977578 191.62493274 151.74977578 191.62493274 147.29199219 189.99804688 C145.78499001 189.45040932 145.78499001 189.45040932 144.24754333 188.89170837 C143.19132278 188.50463211 142.13510223 188.11755585 141.046875 187.71875 C139.92140762 187.30883316 138.79594025 186.89891632 137.6363678 186.47657776 C134.00658347 185.15376196 130.37828051 183.82693433 126.75 182.5 C124.23807459 181.58335364 121.72583849 180.66756011 119.21362305 179.75170898 C105.60370419 174.78786881 91.9991363 169.80936744 78.40283203 164.80834961 C72.05354039 162.47570488 65.69676269 160.16509821 59.33203125 157.875 C58.56951553 157.60046494 57.80699982 157.32592987 57.02137756 157.04307556 C53.37575872 155.7308539 49.72939969 154.42078382 46.08129883 153.11547852 C30.65677457 147.57153612 15.35288164 141.75733062 0 136 C0 91.12 0 46.24 0 0 Z " fill="#EBEFF8" transform="translate(181,261)"/>
<path d="M0 0 C0 44.88 0 89.76 0 136 C-7.62998811 139.52153297 -15.21114324 143.00832014 -22.953125 146.25 C-23.84418442 146.6253186 -24.73524384 147.00063721 -25.65330505 147.3873291 C-28.51804112 148.59353376 -31.38402208 149.79674944 -34.25 151 C-37.2715613 152.2715623 -40.29278635 153.54392135 -43.31401062 154.81628418 C-45.33319767 155.66656228 -47.35249463 156.51657941 -49.37190247 157.36633301 C-58.15089822 161.06081673 -66.92085965 164.7763134 -75.6875 168.5 C-77.0204897 169.06587926 -78.35349731 169.63171632 -79.68652344 170.19750977 C-82.23424741 171.27888852 -84.78193915 172.36034314 -87.32958984 173.44189453 C-96.27894376 177.24093515 -105.22855285 181.0392342 -114.18798828 184.81445312 C-116.02815188 185.59026789 -117.86769612 186.36755376 -119.70654297 187.14648438 C-122.1146484 188.1655269 -124.52550711 189.17770063 -126.9375 190.1875 C-127.62392578 190.47939209 -128.31035156 190.77128418 -129.01757812 191.07202148 C-131.85928336 192.25324326 -133.88709555 193 -137 193 C-136.94402145 192.29511444 -136.88804291 191.59022888 -136.83036804 190.86398315 C-136.75059219 189.85941071 -136.67081635 188.85483826 -136.58862305 187.81982422 C-136.49808655 186.67975418 -136.40755005 185.53968414 -136.31427002 184.36506653 C-136.10951626 181.78636502 -135.90480558 179.20766008 -135.70013428 176.62895203 C-135.18897119 170.18872068 -134.67756391 163.74850924 -134.16491032 157.30839634 C-133.87534354 153.67045893 -133.5860311 150.03250133 -133.296875 146.39453125 C-133.2396269 145.67427954 -133.18237881 144.95402782 -133.12339592 144.2119503 C-132.44959934 135.72950631 -131.78399245 127.2465344 -131.140625 118.76171875 C-129.44387658 96.47012909 -127.31555618 74.23570753 -125 52 C-102.55018715 42.33368236 -80.09086833 32.70715111 -57.47705078 23.4296875 C-53.75126028 21.89772365 -50.0293699 20.35659043 -46.30859375 18.8125 C-24.86583171 9.91664824 -24.86583171 9.91664824 -16.1875 6.5 C-12.4295124 5.01612172 -8.78603328 3.46227932 -5.1875 1.625 C-2 0 -2 0 0 0 Z " fill="#EBEFF8" transform="translate(160,261)"/>
<path d="M0 0 C12.24572387 4.4529905 12.24572387 4.4529905 17.8984375 7.1953125 C27.35146478 11.70520744 36.99020106 15.77215969 46.625 19.875 C48.40244281 20.6338826 50.17978691 21.39299646 51.95703125 22.15234375 C52.83749619 22.52780838 53.71796112 22.90327301 54.62510681 23.29011536 C56.39636344 24.04781366 58.16588306 24.80958591 59.93360901 25.57548523 C64.54231719 27.56504988 69.16419737 29.45848453 73.86303711 31.22583008 C74.81838348 31.59874176 75.77372986 31.97165344 76.75802612 32.35586548 C78.57481177 33.06317305 80.40244802 33.74346478 82.2414856 34.39071655 C87.14931785 36.33976688 89.46561574 38.0088602 91.65942383 42.90332031 C92.90377047 46.39457324 93.96849187 49.89788076 94.6953125 53.53515625 C95.83916314 58.61509446 97.51081669 63.15438509 99.6875 67.875 C100.1820166 68.95744995 100.1820166 68.95744995 100.68652344 70.06176758 C116.27213858 103.55620575 136.98403604 133.48292802 159 163 C159.42619629 163.57153809 159.85239258 164.14307617 160.29150391 164.73193359 C162.85205374 168.1613755 165.42580017 171.58080056 168 175 C170.18849773 177.91591863 172.37546064 180.83298746 174.5625 183.75 C175.60544375 185.14064375 176.64841033 186.53127038 177.69140625 187.921875 C178.83416016 189.44554687 178.83416016 189.44554687 180 191 C176.43042101 192.18985966 175.48708815 191.7386391 171.99609375 190.55078125 C170.96242676 190.20321777 169.92875977 189.8556543 168.86376953 189.49755859 C167.73310059 189.10648926 166.60243164 188.71541992 165.4375 188.3125 C164.25526855 187.91111816 163.07303711 187.50973633 161.85498047 187.09619141 C150.60463176 183.25677513 139.40120019 179.28116543 128.19897461 175.30395508 C120.65652778 172.62804994 113.10502428 169.99376947 105.5 167.5 C95.71043528 164.28714285 86.00314026 160.84789667 76.29284668 157.40490723 C66.12915884 153.80122889 55.95096555 150.24686886 45.75 146.75 C37.08012162 143.77326089 28.42883915 140.75363981 19.8125 137.625 C18.53101074 137.1604541 18.53101074 137.1604541 17.22363281 136.68652344 C11.42979414 134.56772609 5.73373035 132.29349214 0 130 C0 87.1 0 44.2 0 0 Z " fill="#EBEFF8" transform="translate(181,108)"/>
<path d="M0 0 C0 41.91 0 83.82 0 127 C-43.10497238 145.31961326 -43.10497238 145.31961326 -61.12890625 152.74609375 C-70.37632808 156.56137761 -79.60585227 160.41943878 -88.83432007 164.28030396 C-90.75784142 165.08495722 -92.68152371 165.88922588 -94.6053772 166.69308472 C-97.31548431 167.82558849 -100.02501118 168.95946933 -102.734375 170.09375 C-103.93736488 170.5961898 -103.93736488 170.5961898 -105.16465759 171.10877991 C-109.86903879 173.08068121 -114.5294469 175.12583243 -119.16168213 177.2623291 C-121 178 -121 178 -123 178 C-121.88995158 157.04445173 -120.32983602 136.14498553 -118.53662109 115.23730469 C-117.68521869 105.29439496 -116.86057307 95.35212247 -116.14453125 85.3984375 C-116.07825027 84.48778534 -116.0119693 83.57713318 -115.94367981 82.6388855 C-115.63216469 78.35280442 -115.32877676 74.06643429 -115.03930664 69.77880859 C-114.9302216 68.26397061 -114.8207864 66.74915778 -114.7109375 65.234375 C-114.62118652 63.92694336 -114.53143555 62.61951172 -114.43896484 61.27246094 C-114.02505665 58.18679605 -113.62324252 56.58777645 -112 54 C-110.24385071 52.75779724 -110.24385071 52.75779724 -108.09887695 51.70092773 C-107.29149582 51.29587006 -106.48411469 50.89081238 -105.65226746 50.47348022 C-104.77315201 50.04781769 -103.89403656 49.62215515 -102.98828125 49.18359375 C-102.07673782 48.73069977 -101.1651944 48.27780579 -100.22602844 47.81118774 C-97.26048174 46.34156717 -94.28676927 44.88937486 -91.3125 43.4375 C-89.27151835 42.43052642 -87.23099113 41.42263122 -85.19091797 40.41381836 C-74.52520306 35.14982893 -63.83422079 29.93695636 -53.07788086 24.86035156 C-43.85248605 20.49685848 -34.74402073 15.89985979 -25.63525391 11.29907227 C-3.22501073 0 -3.22501073 0 0 0 Z " fill="#EBEFF8" transform="translate(160,111)"/>
<path d="M0 0 C15.40546034 10.54176875 23.50416007 24.33443491 26.9375 42.4375 C28.50081515 59.3213036 24.90764811 74.65443298 14.4765625 88.2109375 C7.84052202 95.9646269 0.51901906 101.56527539 -8.75 105.8125 C-9.59304688 106.22628906 -10.43609375 106.64007813 -11.3046875 107.06640625 C-18.22858737 109.94634721 -24.97655428 110.1946471 -32.375 110.25 C-33.34083008 110.26015137 -34.30666016 110.27030273 -35.30175781 110.28076172 C-50.39216625 110.09798809 -62.6671031 103.47898521 -73.50390625 93.1796875 C-85.12213964 80.93507979 -91.3629138 64.84619179 -90.99609375 48.015625 C-89.58606921 29.66292464 -81.37327126 14.95367032 -67.6328125 2.95703125 C-47.50566784 -12.01560075 -21.32731612 -12.48283967 0 0 Z " fill="#1F6BAD" transform="translate(412.75,67.1875)"/>
<path d="M0 0 C8.50851878 8.04383508 12.71195513 17.20411065 13.19921875 28.8984375 C13.0121294 39.91332299 8.49161557 49.4035868 0.76171875 57.2109375 C-9.14708902 65.35222821 -18.76109228 67.22406395 -31.29882812 66.43115234 C-35.4530738 65.95945929 -38.74974993 64.42672992 -42.23828125 62.2109375 C-43.26953125 61.6128125 -44.30078125 61.0146875 -45.36328125 60.3984375 C-53.60591561 54.12686788 -59.32379424 46.67293215 -61.23828125 36.2109375 C-62.1747579 23.16167266 -60.14433128 13.46210892 -51.59375 3.24609375 C-37.84069773 -11.79543185 -15.74479844 -12.58484762 0 0 Z " fill="#EBEFF8" transform="translate(405.23828125,88.7890625)"/>
<path d="M0 0 C0.66 0.33 1.32 0.66 2 1 C0.89718873 2.27200971 -0.20730769 3.54255853 -1.3125 4.8125 C-1.92738281 5.52019531 -2.54226563 6.22789063 -3.17578125 6.95703125 C-4.73334335 8.70136739 -6.32658875 10.36778041 -8 12 C-8.66 11.67 -9.32 11.34 -10 11 C-8.89718873 9.72799029 -7.79269231 8.45744147 -6.6875 7.1875 C-6.07261719 6.47980469 -5.45773437 5.77210937 -4.82421875 5.04296875 C-3.26665665 3.29863261 -1.67341125 1.63221959 0 0 Z " fill="#5E91C2" transform="translate(305,28)"/>
<path d="M0 0 C-1.0975223 2.99324263 -1.67682892 3.84610901 -4.625 5.25 C-5.40875 5.4975 -6.1925 5.745 -7 6 C-5.52522876 2.59668175 -4.14385429 0 0 0 Z " fill="#528ABD" transform="translate(35,147)"/>
</svg>
