<?xml version="1.0" encoding="utf-8"?>
<!-- Generator: Adobe Illustrator 18.1.1, SVG Export Plug-In . SVG Version: 6.00 Build 0)  -->
<svg version="1.1" id="Layer_1" xmlns="http://www.w3.org/2000/svg" xmlns:xlink="http://www.w3.org/1999/xlink" x="0px" y="0px"
	 viewBox="0 0 726.4 652.7" enable-background="new 0 0 726.4 652.7" xml:space="preserve">
<g>
	<path fill="#BD5CD8" d="M120.4,201.3c0,76.8,0,153.4,0,230.7c5.4,0,11,0,16.6,0c73.6,0,147.3,0,220.9,0.1c3.2,0,6.7,0.7,9.5,2.1
		c4.5,2.4,6.4,7.7,5.2,11.9c-1.6,5.7-5.8,8.8-12.3,8.8c-52,0-104,0-156,0c-42.2,0-84.3-0.2-126.5,0.2c-7.4,0.1-13.3-4.7-13.7-12.1
		c-0.3-6.1,6-11,13.6-11c6.5,0,13,0,20.1,0c0-2.1,0-3.8,0-5.6c0.1-39.7,0.1-79.3,0.3-119c0.2-37.3,0.4-74.6,0.7-112
		c0-3.6-0.9-5.9-3.8-8.4c-12-10.5-17.8-24.2-14.2-39.7c5.9-25.4,13.3-50.4,20.3-75.6c5.2-18.7,10.6-37.2,15.9-55.8
		c0.7-2.5,1.7-5,2.9-7.4c2.7-5.1,6.8-7.7,12.8-7.7c31.3,0.1,62.5,0.1,93.8,0c11.5,0,23.1-0.7,34.6-0.8c6.1,0,12.2,0.8,18.3,0.8
		c24.1,0.1,48.1,0.1,72.2,0c9.9-0.1,19.7-0.8,29.6-0.8c19.3,0.1,38.6,0.6,58,0.8c20.2,0.1,40.4,0,60.6,0c9.1,0,13.3,2.9,16.1,11.8
		c4.3,13.7,8.4,27.5,12.5,41.3c8.3,27.5,16.7,55,24.8,82.6c4.8,16.4,3.5,32.4-8.7,45.1c-5.6,5.8-5.9,11.5-5.9,18.2
		c0.1,24.6,0.2,49.3,0.2,73.9c0,6.8-3.5,12.1-8.5,13.1c-7.4,1.4-13.5-3.7-13.5-11.4c0-23.3,0-46.7,0-70c0-1.8,0-3.6,0-6
		c-34.3,7.8-64.3,2.6-87.6-25.2c-33.5,40.1-85.2,35.5-111.9,0c-2.1,2-4.3,4-6.4,6c-10.7,10.7-23.2,18.5-38.2,21
		c-25.2,4.3-47.1-1.6-63.6-22.5c-1-1.3-2.2-2.5-3.5-4C183.4,202.9,153.4,205.4,120.4,201.3z M162.8,23.1c-6.5,0-13,0.3-19.5-0.1
		c-4-0.2-5.5,1.4-6.4,4.9c-3.1,11.2-6.5,22.3-9.8,33.4c-8.1,27.7-16.5,55.3-24.2,83c-4.6,16.7,2.9,29.2,19.3,34.4
		c10.8,3.4,21.8,3.8,33,2.1c18.6-2.9,32.5-11.9,39.4-30.2c1-2.6,1.4-5.5,2.4-8.1c1.8-4.7,5.6-6.6,10.9-5.8c4.4,0.7,7.6,4.3,8,8.9
		c0.1,1.3,0.1,2.7,0.5,3.9c8.7,24.3,28.5,35.4,52.2,31.6c20.4-3.3,33.7-16.2,40.2-35.8c2.2-6.7,5.2-9.1,11-8.7
		c5.2,0.4,7.9,3.5,9.1,10.1c0.6,3.1,1.2,6.3,2.6,9c17.3,35.7,58.7,31.4,78.2,8c4.7-5.7,7.3-13.2,10.5-20c1.7-3.5,3.4-7.1,7.6-6.9
		c2.8,0.1,6,1.5,8.2,3.3c1.6,1.2,2,4.1,2.6,6.3c5.6,20.9,25.4,36.6,46.9,36.1c7.8-0.2,15.7-2,23.4-3.5c16.1-3.1,29.3-18.1,23-38.7
		c-11.7-37.8-23.1-75.8-34.4-113.7c-1-3.3-2.8-3.8-5.8-3.8c-65.3,0.1-130.6,0.1-195.9,0.1C251.4,23.1,207.1,23.1,162.8,23.1z"/>
	<path fill="#BD5CD8" d="M397.8,420.4c-0.6-61.1,49.7-116.9,117.3-116.2c63.5,0.7,114.1,50.8,115.6,113.6
		c1.6,68.8-56,117.1-117.1,117.1C446.8,534.9,396.4,479.8,397.8,420.4z M494.9,384.8c0.4,0.3,0.7,0.7,1.1,1l0,0c0.3,0.3,0.7,0.7,1,1
		l0,0c0.3,0.4,0.7,0.7,1,1.1l0,0c0.3,0.3,0.7,0.7,1,1l0,0c0.3,0.3,0.7,0.7,1,1l0,0c0.3,0.3,0.7,0.7,1,1c0,0,0,0,0,0
		c0.3,0.3,0.7,0.7,1,1l0,0c0.3,0.3,0.7,0.7,1,1c0,0,0,0,0,0c0.4,0.3,0.7,0.7,1.1,1c14.3,14.2,28.6,28.4,42.9,42.6
		c13.8,13.7,27.6,27.4,41.4,41.1c25.6-27.6,30.7-87.5-9.1-125c-37.8-35.7-93.6-31.7-123.6-5c6.8,6.2,13.6,12.3,20.3,18.5
		c0.3,0.3,0.7,0.5,1,0.8l0,0c0.3,0.3,0.7,0.7,1,1l0,0c0.3,0.3,0.7,0.7,1,1l0,0c0.3,0.3,0.7,0.7,1,1l0,0c0.3,0.3,0.7,0.7,1,1l0,0
		c0.3,0.3,0.7,0.7,1,1l0,0c0.3,0.3,0.7,0.7,1,1l0,0c0.3,0.3,0.7,0.7,1,1l0,0c0.3,0.3,0.7,0.7,1,1l0,0c0.3,0.3,0.7,0.7,1,1l0,0
		c0.3,0.3,0.7,0.7,1,1l0,0c0.3,0.3,0.7,0.7,1,1l0,0c0.3,0.3,0.7,0.7,1,1l0,0c0.3,0.3,0.7,0.7,1,1l0,0c0.3,0.3,0.7,0.7,1,1l0,0
		c0.3,0.3,0.7,0.7,1,1l0,0c0.3,0.3,0.7,0.7,1,1l0,0c0.3,0.3,0.7,0.7,1,1l0,0C494.2,384.2,494.6,384.5,494.9,384.8
		C494.9,384.8,494.9,384.8,494.9,384.8z M439.7,363.3c-25.3,27.8-30.2,81.6,3.2,118.7c33,36.7,89.3,41.7,127.9,11.2
		C527.1,449.9,483.5,406.7,439.7,363.3z"/>
	<path fill="#BD5CD8" d="M285.8,265.9c19.5-11.5,39.5-11.7,59.6,1c6.8-10.8,15.4-19.6,26.3-26.1c33.4-19.9,74.5-10,94.6,23.2
		c4.6,7.7,7.8,16.3,11.2,24.7c2.1,5.2,0,10.2-4.4,12.5c-4.7,2.4-9.3,1.4-12.7-3.3c-2-2.8-3.4-6-4.5-9.2
		c-6.3-18.4-19.1-33.6-39.6-36.6c-28.6-4.2-51.9,13.2-58.4,38.9c-6.3,25.1,5.4,45.7,24.3,57.6c3.4,2.1,7.6,3.1,11.6,4.2
		c7,2.1,10.6,8.5,8.1,15c-2,5.4-6.6,7.3-13.7,5.6c-14.3-3.6-26.2-11.2-35.2-22.9c-11.8-15.3-19.2-32.2-18.2-51.9
		c0.3-4.9,1.5-9.7,2.4-15.3c-7.5-1.8-15-5.1-22.6-5c-7.3,0.1-14.6,3.6-21.9,5.6c11.8,48.2-21.4,84.1-56.4,90
		c-51.3,8.6-81-26.4-84.9-69.3c-0.4-0.2-1-0.5-1.6-0.7c-5.2-1.3-8.6-4.7-9-9.3c-0.4-4.2,2.7-9.1,7.6-10.6c3.8-1.2,5.4-3.3,7-6.9
		c10.7-23.4,28.4-39,54-44.2c20.7-4.2,40.2-1.1,56.7,12.7C273.4,251.5,279.2,258.9,285.8,265.9z M273.1,305.1
		c0.1-29-20.8-52.2-47.1-52.3c-30.9-0.1-52.7,21.2-52.8,49.3c-0.1,26.3,18.7,52.5,49.1,52.4C254.4,354.5,273.3,331,273.1,305.1z"/>
	<path fill="#BE5DD8" d="M0,591.9c2.3-3.2,7.9-3.1,10.5,0.4c9.6,12.9,19,26,28.5,38.9c0.6,0.8,1.2,1.4,2.6,2.9c0-15.2,0-29.4,0-44.3
		c2.4,0,4.4-0.4,6.2,0.1c1.2,0.3,2.9,1.9,2.9,2.9c0.2,19.3,0.1,38.6,0.1,57.8c-5.2,1-8.3-0.1-11.2-4.2c-9.2-13-19-25.6-28.5-38.3
		c-0.4-0.5-0.3-1.3-0.5-2c-0.5,0.3-1,0.7-1.6,1c0,14.5,0,29.1,0,45.2c-3.6-1-6.4-1.8-9.1-2.6c0.3-1.2,0.8-2.5,0.8-3.8
		c0.1-16.8,0.1-33.6,0-50.4C0.8,594.4,0.3,593.2,0,591.9z"/>
	<path fill="#BE61D6" d="M717.3,607.6c0-6.5,0-12.6,0-19.3c2.7-0.7,5.6-1.5,9.1-2.4c0,21.8,0,43.2,0,64.9c-3.4-0.7-7.5,2.5-10-2.4
		c-11,5.2-19.8,4.5-25.4-2.1c-7.3-8.5-8.1-22.3-1.8-32.1C694.5,606,704.3,603.6,717.3,607.6z M717.1,627.4c0-2.8,0.1-5.6-0.1-8.5
		c-0.1-1.2-0.5-2.8-1.3-3.5c-6.1-5-17.1-2.3-19.7,5.2c-1.4,4-1.6,8.7-1.1,13c0.8,7,5.7,10.8,11.7,10.2c7.2-0.7,10.5-4.5,10.5-12
		C717.1,630.4,717.1,628.9,717.1,627.4z"/>
	<path fill="#BE5ED7" d="M184.7,605.9c-5.6-6.1-12-9.1-20.2-8.2c-9.3,1-16.9,7.3-18.4,17.4c-1.9,12.8,1.4,23.8,13.8,27.9
		c7.7,2.6,14.7,0,21.2-4.2c5.8-3.7,5.7-3.9,10.5,2c-7.7,13.2-34.7,14.1-44.8,5.7c-14-11.6-14.4-35.9-3.9-47.5
		c12.2-13.5,38-12.7,47.8,0.3C188.9,601.3,187,603.4,184.7,605.9z"/>
	<path fill="#BE5ED7" d="M430.1,597.6c-2.1,1.9-3.9,3.5-6.1,5.4c-4.5-4.1-9.6-6.9-16-6.2c-4.2,0.4-8.1,1.5-9,6.2
		c-1,4.8,2.1,7.5,6,9.2c5.3,2.4,10.9,4.1,16,6.8c8.7,4.5,11.9,11.6,9.9,20.1c-1.4,5.6-4.9,9.5-10.3,11.2
		c-11.6,3.9-25.2,2.4-34.5-9.3c2.2-1.9,4.4-3.9,6.2-5.5c4.6,2.5,9.2,5.3,14,7.6c1.7,0.8,3.9,0.8,5.9,0.6c4.5-0.7,8.5-2.7,9.5-7.5
		c1-4.7-1.8-8.1-5.9-9.9c-5.4-2.5-11.1-4.3-16.5-6.8c-8.2-3.8-11.6-10.9-9.3-19.1c1.7-6.3,6.3-9.4,12.4-10.9
		C413.1,586.9,424.5,589.9,430.1,597.6z"/>
	<path fill="#BE5ED7" d="M475.6,638.1c1.7,1.2,3.4,2.5,5,3.8c-5.3,8.7-14.5,12.2-25.6,9.9c-8.3-1.7-13.8-8.7-15.4-18.1
		c-1.1-6.4,0-12.2,2.8-17.7c4.4-8.5,11.8-11,20.9-10.1c6.9,0.7,14.2,7,16.3,14.4c0.9,3.1,1,6.5,1.6,10.4c-11.1,0-21.4,0-32,0
		c-1.2,5.7,1.1,9.3,5.1,11.9C459.4,645.8,468.2,643.9,475.6,638.1z M448.9,624.5c6.8,0,13.1,0.1,19.3-0.2c0.7,0,2.1-2.5,1.9-3.5
		c-1-4.9-4.4-7-10.2-6.9C452.9,613.9,451.2,615.4,448.9,624.5z"/>
	<path fill="#BD5DD7" d="M676.4,630.9c-10.6,0-20.8,0-31.6,0c0.5,5,1.2,9.5,6,11.5c7.9,3.3,14.9,1.5,21-4.7c1.8,1.4,3.5,2.7,5.1,3.9
		c-3,7.1-11.9,11.4-20.8,10.7c-9.1-0.8-15.9-4.6-18.7-13.7c-3.3-10.4-2.1-20.1,5.7-28.2c5.3-5.4,15.9-6.3,22.9-2.6
		C673.5,611.8,677.6,620.6,676.4,630.9z M666.5,623.7c-0.8-5.3-7-11.2-11.1-10.8c-5,0.5-9.6,5.9-9,10.8
		C653.2,623.7,659.8,623.7,666.5,623.7z"/>
	<path fill="#BD5DD8" d="M518.7,632.8c1.4,13,16.4,14.6,27.1,5.2c6.4,4.3,6.6,5.6,0.3,9.9c-7.6,5.2-16.2,5.9-24.6,2.4
		c-8.3-3.4-11.1-11.1-11.6-19.3c-0.2-4.2,0.5-8.6,1.9-12.5c4.2-11.8,13.3-13.9,23.6-12.3c8.6,1.3,15.9,11.8,15,20.8
		c-0.1,1.3-1.8,2.5-2.7,3.7c-9.4-0.3-18.8-0.5-28.2-0.7C519.3,630,519,631.8,518.7,632.8z M541,623.8c-1.4-4.1-2.1-8.5-7.1-9.8
		c-5-1.3-8.9,1.3-12.4,4.4c-0.9,0.8-1.2,2.6-1.1,4c0,0.6,1.8,1.4,2.8,1.4C528.9,623.9,534.8,623.8,541,623.8z"/>
	<path fill="#BD5ED6" d="M83.3,605.9c11.9-1.3,21.2,9.5,21.4,22.9c0.2,13.1-9.3,23.8-21,23.9c-13.3,0.2-22-9.7-22-24.7
		C61.9,614.9,70.6,605.9,83.3,605.9z M70.5,629.7c0.1,0,0.2,0,0.4,0.1c0,0.8-0.1,1.7,0,2.5c0.7,5.9,5,10.8,10,11.5
		c6.2,0.9,11.3-2,13.3-7.8c1.9-5.5,1.7-11.1-0.9-16.3c-2.3-4.7-6.3-6.3-11.5-6c-5.1,0.3-7.8,3.3-9.5,7.5
		C71.3,623.8,71.1,626.8,70.5,629.7z"/>
	<path fill="#BE60D7" d="M276,617.9c-2.3-3.4-4.9-6.3-9.4-4.1c-4.8,2.3-10.7,3.8-10.8,10.8c-0.1,6.5,0,13,0,19.5
		c0,8.1-1.2,8.9-9.6,6.6c0-14.3,0-28.8,0-43.7c3.8,0.8,8.4-2.9,10.2,3.6c1.9-1.1,3.7-2.2,5.6-3.2c9.7-5.3,23.7-0.9,23.6,14
		c0,8.3,0.1,16.7,0,25c0,1.7-0.9,4.7-1.3,4.7c-2.8-0.1-5.6-0.8-8.4-1.3c0.3-7.1,0.7-14.1,0.8-21.2
		C276.8,625.1,276.3,621.5,276,617.9z"/>
	<path fill="#BE5ED7" d="M356.9,615.3c-2.3,1.5-4.4,2.9-6.6,4.4c-3.8-4.1-7.7-8.1-14.1-5.9c-6.7,2.3-9.9,9.6-8.2,19.3
		c1.3,7.7,5.2,11.4,12.9,10.6c3.9-0.4,7.6-2.9,12.5-4.8c6.2,3.1,6.4,4.5-0.3,9.3c-7.2,5.1-15.2,5.9-23.1,2.4
		c-8.1-3.6-11.2-11.1-11.9-19.3c-1.1-12.5,5-22,15.2-24.8C342.7,603.7,350.9,606.7,356.9,615.3z"/>
	<path fill="#BE5ED7" d="M597.1,615.6c-2.3,1.5-4.3,2.9-6.5,4.4c-3.4-5.2-7.8-8.3-13.9-6c-2.5,1-6.1,3.3-6.4,5.4
		c-0.8,6.2-1.5,12.9,0,18.9c1.6,6.4,12.7,7.8,18.4,3.1c1.3-1,2.2-2.5,3.5-3.9c2.4,1.7,4.4,3,6.3,4.4c-3.6,8.3-13,12.1-24.1,10.1
		c-8.3-1.6-15.2-10.1-15.6-19.5c-0.7-14.7,3.9-22.7,14.8-25.9C583.4,603.6,592.2,606.9,597.1,615.6z"/>
	<path fill="#BD5ED7" d="M617.9,591.3c0,5.2,0,9.9,0,15.4c3.7,0,7,0,10.7,0c0,2.7,0,4.8,0,7c-0.2,0.1-0.5,0.5-0.7,0.5
		c-9.9-0.3-9.9-0.3-9.9,9.8c0,4.6,0,9.1,0.1,13.7c0,6.6,2.4,7.7,10.1,4.6c0.2,0.2,0.6,0.5,0.6,0.7c-0.5,2.9,3.9,6.8-1.7,8.7
		c-7.4,2.5-13.6,0.8-16.3-5.1c-1.2-2.6-1.7-5.7-1.8-8.6c-0.2-7.8-0.1-15.6-0.1-23.6c-2.7-0.2-4.9-0.4-7.5-0.6c0-2.1,0-4.1,0-6.5
		c2.3-0.2,4.7-0.4,7.7-0.6C606.9,598.8,611.2,594.7,617.9,591.3z"/>
	<path fill="#C066D6" d="M499.5,651.5c-1.7,0.1-2.9,0-4,0.2c-4.3,0.7-5.8-0.9-5.7-5.4c0.3-18,0.1-35.9,0.1-53.9c0-1.3,0-2.6,0-4.1
		c3.3-0.8,6.3-1.5,9.6-2.4C499.5,607.9,499.5,629.4,499.5,651.5z"/>
	<path fill="#BF65D6" d="M201,588.3c3.3-0.8,6.3-1.6,9.6-2.4c0,22,0,43.6,0,65.5c-1.5,0.1-2.7,0.2-4,0.4c-4.2,0.6-5.8-0.8-5.7-5.4
		c0.3-17.8,0.1-35.6,0.1-53.4C201,591.4,201,589.9,201,588.3z"/>
	<path fill="#BE60D6" d="M297.8,607c3.5,0,6.3,0,9.7,0c0,2.9,0,5.6,0,8.4c0,10.6-0.2,21.3,0.1,31.9c0.1,4.2-2,4.4-5.2,4.4
		c-3.3,0.1-4.7-0.6-4.7-4.3C298,634.1,297.8,620.8,297.8,607z"/>
	<path fill="#BF63D6" d="M223.9,607c3.5,0,6.3,0,9.5,0c0.1,1.3,0.4,2.6,0.4,3.9c0,12.1-0.1,24.3,0.1,36.4c0.1,3.8-1.5,4.5-4.7,4.4
		c-3-0.1-5.5,0.3-5.4-4.3C224.1,634.1,223.9,620.9,223.9,607z"/>
	<path fill="#BE60D6" d="M227.5,598.8c-1.5-2-4.5-4.2-4.2-5.9c0.3-1.9,3.3-4.2,5.5-4.8c3.3-0.9,5.7,1.9,5.3,4.9
		c-0.3,2.1-2.8,3.9-4.3,5.9C229.1,598.8,228.3,598.8,227.5,598.8z"/>
	<path fill="#BD5ED6" d="M302.5,600.2c-2.6-3.5-5.5-5.7-5.2-7.4c0.4-2,3.4-4.3,5.6-4.8c3.1-0.7,5.8,1.8,5.3,4.9
		C307.8,595.1,305.2,596.9,302.5,600.2z"/>
	<path fill="#B760C1" d="M0,591.9c0.3,1.3,0.8,2.5,0.8,3.8c0.1,16.8,0.1,33.6,0,50.4c0,1.3-0.5,2.5-0.8,3.8C0,630.5,0,611.2,0,591.9
		z"/>
	<path fill="#B866C0" d="M276,617.9c0.3,3.6,0.9,7.1,0.8,10.7c-0.1,7.1-0.5,14.1-0.8,21.2C276,639.2,276,628.6,276,617.9z"/>
	<path fill="#B760C1" d="M518.7,632.8c0.3-1,0.6-2.8,0.9-2.8c9.4,0.1,18.8,0.4,28.2,0.7c-8.3,0.1-16.5,0-24.8,0.2
		C521.5,631,520.1,632.2,518.7,632.8z"/>
	<path fill="#B866C0" d="M500.9,390.8c0.3,0.3,0.7,0.7,1,1C501.6,391.5,501.2,391.2,500.9,390.8z"/>
	<path fill="#B866C0" d="M501.9,391.8c0.3,0.3,0.7,0.7,1,1C502.6,392.5,502.2,392.2,501.9,391.8z"/>
	<path fill="#B866C0" d="M502.9,392.8c0.4,0.3,0.7,0.7,1.1,1C503.6,393.5,503.2,393.2,502.9,392.8z"/>
	<path fill="#B866C0" d="M481.9,371.8c0.3,0.3,0.7,0.7,1,1C482.6,372.5,482.2,372.2,481.9,371.8z"/>
	<path fill="#B866C0" d="M475.9,366c0.3,0.3,0.7,0.5,1,0.8C476.6,366.6,476.2,366.3,475.9,366z"/>
	<path fill="#B866C0" d="M476.9,366.8c0.3,0.3,0.7,0.7,1,1C477.6,367.5,477.2,367.2,476.9,366.8z"/>
	<path fill="#B866C0" d="M499.9,389.8c0.3,0.3,0.7,0.7,1,1C500.6,390.5,500.2,390.2,499.9,389.8z"/>
	<path fill="#B866C0" d="M497.9,387.8c0.3,0.3,0.7,0.7,1,1C498.5,388.5,498.2,388.2,497.9,387.8z"/>
	<path fill="#B866C0" d="M477.9,367.8c0.3,0.3,0.7,0.7,1,1C478.6,368.5,478.2,368.2,477.9,367.8z"/>
	<path fill="#B866C0" d="M498.9,388.8c0.3,0.3,0.7,0.7,1,1C499.6,389.5,499.2,389.2,498.9,388.8z"/>
	<path fill="#B866C0" d="M478.9,368.8c0.3,0.3,0.7,0.7,1,1C479.6,369.5,479.2,369.2,478.9,368.8z"/>
	<path fill="#B866C0" d="M479.9,369.8c0.3,0.3,0.7,0.7,1,1C480.6,370.5,480.2,370.2,479.9,369.8z"/>
	<path fill="#B866C0" d="M480.9,370.8c0.3,0.3,0.7,0.7,1,1C481.6,371.5,481.2,371.2,480.9,370.8z"/>
	<path fill="#B866C0" d="M496.9,386.8c0.3,0.4,0.7,0.7,1,1.1C497.6,387.5,497.2,387.1,496.9,386.8z"/>
	<path fill="#B866C0" d="M482.9,372.8c0.3,0.3,0.7,0.7,1,1C483.6,373.5,483.2,373.2,482.9,372.8z"/>
	<path fill="#B866C0" d="M483.9,373.8c0.3,0.3,0.7,0.7,1,1C484.6,374.5,484.2,374.2,483.9,373.8z"/>
	<path fill="#B866C0" d="M484.9,374.8c0.3,0.3,0.7,0.7,1,1C485.6,375.5,485.2,375.2,484.9,374.8z"/>
	<path fill="#B866C0" d="M485.9,375.8c0.3,0.3,0.7,0.7,1,1C486.6,376.5,486.2,376.2,485.9,375.8z"/>
	<path fill="#B866C0" d="M486.9,376.8c0.3,0.3,0.7,0.7,1,1C487.6,377.5,487.2,377.2,486.9,376.8z"/>
	<path fill="#B866C0" d="M487.9,377.8c0.3,0.3,0.7,0.7,1,1C488.6,378.5,488.2,378.2,487.9,377.8z"/>
	<path fill="#B866C0" d="M491.9,381.8c0.3,0.3,0.7,0.7,1,1C492.6,382.5,492.2,382.2,491.9,381.8z"/>
	<path fill="#B866C0" d="M495.9,385.8c0.3,0.3,0.7,0.7,1,1C496.6,386.5,496.2,386.1,495.9,385.8z"/>
	<path fill="#B866C0" d="M488.9,378.8c0.3,0.3,0.7,0.7,1,1C489.5,379.5,489.2,379.2,488.9,378.8z"/>
	<path fill="#B866C0" d="M489.9,379.8c0.3,0.3,0.7,0.7,1,1C490.6,380.5,490.2,380.2,489.9,379.8z"/>
	<path fill="#B866C0" d="M490.9,380.8c0.3,0.3,0.7,0.7,1,1C491.6,381.5,491.2,381.2,490.9,380.8z"/>
	<path fill="#B866C0" d="M492.9,382.8c0.3,0.3,0.7,0.7,1,1C493.6,383.5,493.2,383.2,492.9,382.8z"/>
	<path fill="#B866C0" d="M493.9,383.8c0.3,0.3,0.7,0.7,1,1C494.6,384.5,494.2,384.2,493.9,383.8z"/>
	<path fill="#B866C0" d="M494.9,384.8c0.4,0.3,0.7,0.7,1.1,1C495.6,385.5,495.2,385.1,494.9,384.8z"/>
</g>
</svg>
