<?xml version="1.0" encoding="utf-8"?>
<!-- Generator: Adobe Illustrator 18.1.1, SVG Export Plug-In . SVG Version: 6.00 Build 0)  -->
<svg version="1.1" id="Layer_1" xmlns="http://www.w3.org/2000/svg" xmlns:xlink="http://www.w3.org/1999/xlink" x="0px" y="0px"
	 viewBox="0 0 612 792" enable-background="new 0 0 612 792" xml:space="preserve">
<g>
	<g>
		<path fill="#BD5BD9" d="M353.4,301.2c8.4-8.6,18.7-14,29.6-18.4c8-3.2,16.2-6.2,24.5-8.5c14.6-4.1,29.6-4.4,44.7-2.9
			c12.4,1.2,24.5,3.9,36,8.5c13.6,5.4,26.1,12.6,37.4,22.1c12.3,10.3,21.7,22.5,29.4,36.6c7.2,13.3,10.2,27.2,11.9,41.9
			c1.8,16-0.3,31.5-4.7,46.8c-4.1,14.1-11.7,26.4-21.3,37.5c-1.3,1.5-2.5,3.1-3.8,4.7c-10.1,12.3-23,21.4-37,28.5
			c-20.8,10.6-43.2,16.5-66.6,15.1c-22.5-1.3-44.2-5.9-63.9-18.1c-18.3-11.3-33.2-25.4-44.5-43.8c-8.1-13.1-11.5-27.3-15-41.9
			c-1.8-7.5-3.1-14.9-2.1-22.3c2.1-17.3,5.5-34.4,14.3-49.8c3.8-6.7,8.5-12.8,12.9-19.1c1.4-2,3.5-3.4,5.3-5.1
			c0.3-0.3,0.5-0.7,0.8-1c0,0,0,0.1,0,0.1c0.3-0.3,0.7-0.7,1-1l-0.1,0c0.6-0.4,1.2-0.7,1.8-1.1l0,0.1c0.3-0.3,0.7-0.7,1-1
			c0,0-0.1,0.1-0.1,0.1c0.4-0.6,0.7-1.3,1.1-1.9c1.5-1.5,3-3,4.6-4.6C351.4,302.1,352.4,301.6,353.4,301.2z M463.8,440.2
			c0.3,0.3,0.6,0.6,0.9,0.9l0,0c0.3,0.3,0.6,0.6,1,0.9l0,0c0.3,0.3,0.6,0.6,1,0.9l0,0c0.3,0.3,0.7,0.6,1,1l0,0c0.3,0.3,0.7,0.6,1,1
			l0,0c0.9,0.6,1.9,1.3,2.8,1.9l0,0c0.3,0.3,0.7,0.7,1,1l0,0c0.3,0.3,0.7,0.7,1,1l0,0c0.3,0.3,0.7,0.7,1,1c0,0,0,0,0,0
			c0.3,0.3,0.7,0.7,1,1l0,0c0.3,0.3,0.7,0.7,1,1l0,0c0.3,0.3,0.7,0.7,1,1l0,0c0.3,0.3,0.7,0.7,1,1l0,0c0.3,0.3,0.7,0.7,1,1l0,0
			c0.3,0.3,0.7,0.7,1,1l0,0c0.3,0.3,0.7,0.7,1,1l0,0c0.3,0.3,0.7,0.7,1,1l0,0c0.3,0.3,0.7,0.7,1,1l0,0c0.4,0.3,0.7,0.6,1.1,1
			c0.3,0,0.5,0,0.8,0.1c2.3,2.6,4.8,2.5,7.4,0.6c2.3-1.2,4.6-2.4,6.8-3.7c4.6-2.6,7.5-6.3,9.2-11.6c3.2-9.9-2.3-15.5-8.6-21.2
			c-11.6-10.5-23-21.2-34.2-31.5c4.5-4.8,8.7-9.6,13.2-14c2.6-2.5,5.8-4.5,8.7-6.7c0.6-0.4,1.3-0.7,1.9-1.1l-0.1,0.1
			c0.3-0.3,0.7-0.7,1-1l0,0.1c0.3-0.3,0.7-0.7,1-1c0,0,0,0.1,0,0.1c0.3-0.3,0.7-0.7,1-1l-0.1,0.1c0.4-0.6,0.7-1.2,1.1-1.9
			c0,0,0,0,0,0c0.6-0.7,1.3-1.3,1.9-2c0.6-0.6,1.2-1.2,1.7-1.7c1-0.7,2-1.3,2.9-2c0.3-0.3,0.5-0.5,0.8-0.8c0.7-0.7,1.3-1.3,2-2
			c0.5-0.9,0.7-2.1,1.4-2.8c5.4-5.7,4.9-12.1,2.3-18.6c-1-2.4-3-4.3-4.3-6.6c-3.8-6.6-16.5-9.1-22-2.1c-2.6,3.3-5.4,6.4-8.5,9.2
			c-8.9,8.2-17.8,16.3-26.8,24.3c-2.1,1.9-4.5,3.5-6.7,5.2c-2.8-2.6-5-4.7-7.3-6.9c-0.6-0.6-1.2-1.1-1.9-1.7l0,0
			c-0.3-0.3-0.6-0.6-0.9-0.9l0,0c-0.3-0.3-0.6-0.6-0.9-0.9l0,0c-0.9-0.6-1.9-1.2-2.8-1.9l0,0c-0.3-0.3-0.6-0.6-0.9-0.9l0,0
			c-0.3-0.3-0.6-0.6-0.9-0.9l0,0c-0.3-0.3-0.6-0.6-1-0.9l0,0c-0.3-0.3-0.6-0.6-1-0.9c0,0,0,0,0,0c-0.3-0.3-0.6-0.6-1-1l0,0
			c-0.3-0.3-0.6-0.6-1-0.9l0,0c-0.3-0.3-0.6-0.6-1-1l0,0c-0.3-0.3-0.6-0.6-1-1l0,0c-0.3-0.3-0.6-0.6-1-1l0,0c-0.3-0.3-0.6-0.6-1-0.9
			l0,0c-0.3-0.3-0.6-0.6-1-1l0,0c-0.3-0.3-0.6-0.6-1-1l0,0c-0.9-0.6-1.9-1.3-2.8-1.9l0,0c-0.3-0.3-0.6-0.6-1-1l0,0
			c-0.3-0.3-0.6-0.6-1-1l0,0c-0.3-0.3-0.6-0.6-1-1l0,0c-0.3-0.3-0.7-0.6-1-1l0,0c-0.3-0.3-0.7-0.6-1-1l0,0c-0.3-0.3-0.7-0.6-1-1l0,0
			c-0.3-0.3-0.7-0.7-1-1l0,0c-0.3-0.3-0.7-0.7-1-1l0.1,0.1c-0.3-0.3-0.7-0.7-1-1l0,0c-1-0.9-2-1.9-3-2.8c-0.9-0.2-1.9-0.2-2.6-0.7
			c-11.9-6.9-17-5.3-25.5,4.1c-1.9,2.1-4.4,3.5-4.5,7.1c-0.1,4.8-0.3,8.8,4.3,12.2c4.5,3.4,7.9,8.3,12,12.3c7,6.8,14.2,13.3,21.3,20
			c0.4,0.6,0.7,1.3,1.1,1.9c0,0-0.1-0.1-0.1-0.1c0.6,0.4,1.3,0.7,1.9,1.1c0.9,0.9,1.8,1.8,2.7,2.7c0,1.3,0,2.6,0,4l0-0.1
			c-0.3,0.4-0.7,0.7-1,1.1c-2.8,2.8-5.5,5.5-8.3,8.3c-0.4,0.3-0.7,0.7-1.1,1l0.1,0c-1,0.7-1.9,1.3-2.9,2c-3.7,3.7-7.4,7.4-11.1,11.1
			c-1,0.7-2,1.3-2.9,2c-3.1,3.1-6.1,6.1-9.2,9.2c-0.7,0.7-1.3,1.3-2,2c-4.5,5.6-5.3,11.6-1.7,17.8c1.4,2.4,3.7,4.2,5.3,6.4
			c4.5,6.1,11,7.4,17.5,3.6c1.8-1.1,3.8-1.8,5.7-2.7c0.7-0.4,1.3-0.7,2-1.1l-0.1,0.1c0.3-0.3,0.7-0.7,1-1l-0.1,0.1
			c0.4-0.6,0.7-1.3,1.1-1.9c2.8-2.8,5.5-5.5,8.3-8.3c1-0.7,2-1.3,2.9-2c1.8-1.8,3.7-3.6,5.5-5.5c0.4-0.3,0.7-0.7,1.1-1l-0.1,0.1
			c0.3-0.3,0.7-0.7,1-1c0,0-0.1,0.1-0.1,0.1c0.3-0.3,0.7-0.7,1-1c0,0-0.1,0.1-0.1,0.1c0.3-0.3,0.7-0.7,1-1l-0.1,0.1
			c0.3-0.3,0.7-0.7,1-1l-0.1,0.1c0.3-0.3,0.7-0.7,1-1l-0.1,0c0.9-0.6,1.9-1.3,2.8-1.9c0,0,0,0.1,0,0.1c0.3-0.3,0.7-0.7,1-1l-0.1,0
			c0.4-0.6,0.9-1.2,1.3-1.8c1.1-1,2.1-2,3.2-3c0.4-0.3,0.8-0.7,1.1-1l-0.1,0.1c0.3-0.3,0.7-0.7,1-1c0,0-0.1,0.1-0.1,0.1
			c0.3-0.3,0.7-0.7,1-1c0,0-0.1,0.1-0.1,0.1c0.3-0.3,0.7-0.7,1-1c0,0-0.1,0.1-0.1,0.1c0.3-0.3,0.7-0.7,1-1l-0.1,0c0.7,0,1.5,0,2.2,0
			c0,0-0.1,0-0.1,0c1,0.6,1.9,1.3,2.9,1.9l-0.1,0c0.3,0.3,0.7,0.7,1,1l-0.1-0.1c0.3,0.3,0.7,0.7,1,1l-0.1-0.1c0.3,0.3,0.7,0.7,1,1
			l-0.1-0.1c0.3,0.3,0.7,0.7,1,1l-0.1-0.1c0.3,0.3,0.7,0.7,1,1l-0.1-0.1c0.3,0.3,0.7,0.7,1,1l-0.1-0.1c0.3,0.3,0.7,0.7,1,1L448,426
			c0.3,0.3,0.7,0.7,1,1l-0.1-0.1c0.3,0.3,0.7,0.7,1,1l-0.1-0.1c0.3,0.3,0.7,0.7,1,1l-0.1-0.1c0.3,0.3,0.7,0.7,1,1l-0.1-0.1
			c0.6,0.4,1.1,0.8,1.7,1.2l0,0c0.9,0.6,1.9,1.2,2.8,1.8l0,0c0.3,0.3,0.6,0.6,1,0.9l0,0c0.3,0.3,0.6,0.6,0.9,1l0,0
			c0.3,0.3,0.6,0.6,0.9,1l0,0c0.3,0.3,0.6,0.6,0.9,0.9l0,0c0.3,0.3,0.6,0.6,0.9,0.9l0,0c0.3,0.3,0.6,0.6,0.9,0.9l0,0
			c0.3,0.3,0.6,0.6,0.9,0.9l0,0C463.2,439.5,463.5,439.8,463.8,440.2L463.8,440.2z"/>
		<path fill="#BD5CD9" d="M98,536.3c-15.1-2.1-26.9-8.8-35-22.4c-4.2-7-6-14-6-21.8c0-123,0.2-246-0.3-369.1
			c-0.1-17.2,13.1-35,28.7-40.4c8.7-3,17.6-4.4,26.9-3c4.7,0.7,9.5,0.5,13.7,0.6c0,13.5,0,26.2,0,38.9c-8.9,0-17.4,0-25.9,0
			c-0.4,1.4-1.2,2.8-1.2,4.2c-0.1,123.8-0.1,247.6,0,371.4c0,1.4,0.7,2.8,1.1,4.3c77.3,0,154.6,0,231.9-0.1c4.1,0,6.7,2.3,9.2,4.5
			c12.6,11.3,27.1,19.3,42.7,25.5c4,1.6,7.8,3.7,11.7,5.6c-1.9,0.3-3.8,1-5.7,1c-95.5,0-190.9,0-286.4,0.1
			C101.6,535.6,99.8,536.1,98,536.3z"/>
		<path fill="#BD5BD9" d="M366.3,123.8c-1,5.1-2.7,9.8-7.8,12.3c-2.1,1-4.6,1.3-6.9,1.9c-34.1,0-68.3,0-102.4,0
			c-1.5,0-2.9,0.6-4.4,0.9c-1.5,0.3-2.9,0.8-4.4,0.8c-23.8,0-47.7,0-71.5,0.1c-8.1,0-15.5-1.9-20.5-8.6c-2.2-2.9-3.6-6.9-3.9-10.6
			c-1-13-2.1-26.1,1.3-38.9c1.9-6.9,7-11.8,14.6-13.1c11.9,0,23.7,0.1,35.6,0c1.3,0,2.6-0.6,3.9-0.9c2.9-1.1,4.2-3.4,4.7-6.3
			c1.7-10.1,6.2-19.1,12.6-26.8c9.1-11,21-17.4,35.5-18.7c10.6-1,20.6,0.7,29.9,5.6c15.1,8,22.6,21.5,25.7,37.7
			c0.8,4,2.7,6.6,5.8,8.6c1.5,0.3,2.9,0.8,4.4,0.8c7.1,0.1,14.3,0.1,21.4,0c3.2,0,6.4-0.4,9.6-0.6c7.4,0.5,12.7,4,15.4,11
			c0.6,1.6,0.5,3.5,0.7,5.3c0,12-0.1,24,0,36C365.6,121.4,366,122.6,366.3,123.8z M237.5,62.4c0,10,8.5,18.4,18.7,18.4
			c11.6,0,20.3-8,20.4-18.7c0.1-9.8-9.6-18.8-19.9-18.6C246.2,43.7,237.5,52.2,237.5,62.4z"/>
		<path fill="#BD5BD9" d="M453.6,245.4c-13.5,0-27.1,0-41.1,0c0-41.6,0-83.1,0-125.3c-9.3,0-18.2,0-27.4,0c0-13.4,0-26.3,0-40
			c13.5,0.6,27-0.3,40,2c14.5,2.7,27.3,16.1,28.6,31.1C453.6,157.3,453.6,201.3,453.6,245.4z"/>
		<path fill="#BC5CD7" d="M173.7,259.7c-11,0.2-21.1-2.7-29.5-9.5c-11.3-9.3-17-21-15.6-36.4c2-23.1,26.9-39.4,48.2-36.8
			c13.1,1.6,23.8,7,31.6,17.1c3.8,4.9,5.7,11.7,7,17.9c1.8,8.5,0.4,17.3-3.7,24.9C203.7,251.8,190.6,259.2,173.7,259.7z
			 M153.9,218.4c-0.4,10.9,7.5,17.3,18.3,17.7c10,0.4,20-8.5,20.2-17.3c0.2-9.7-9.4-19.4-20-18.9C162.5,200.3,154.2,206,153.9,218.4
			z"/>
		<path fill="#BC5BD8" d="M172.7,365.5c-15.1-0.2-27.3-5.5-36.9-17.9c-9.2-12-9.9-29.8-3.1-41.8c12-21,36.7-28.2,57.5-19.3
			c11.8,5.1,20.5,13,23.9,25.9c3.2,12.5,2.7,25-5.3,35.4C200.6,358.3,189.5,366,172.7,365.5z M153.9,323.9
			c-0.6,10.8,7.3,18.5,18.8,18.4c11.5-0.1,18.3-7.4,18.8-17.2c0.6-10.4-7.7-18.8-18.2-18.9C161.6,306,154,312.9,153.9,323.9z"/>
		<path fill="#BC5BD8" d="M173.6,472c-26.2,0-45-18.1-45.5-42.1c-0.4-22.4,18.8-39.8,40.9-41.2c26-1.7,46.4,17.2,46.9,40
			C216.3,454.2,197.7,470.5,173.6,472z M173.1,410.9c-0.2,0.4-0.4,0.8-0.5,1.1c-10.6-0.1-19,8-19.3,18.5c-0.2,9.5,8.5,17.9,18.8,18
			c10,0.1,21.2-8.9,20.4-17.7c-0.5-4.8-3.1-10.2-6.5-13.7C182.8,413.9,177.5,412.9,173.1,410.9z"/>
		<path fill="#BD5ED8" d="M59.6,660.9c-5,0-10,0-15,0c0-22.8,0-45.6,0.1-68.3c3.3-0.2,6.5-0.2,9.8-0.5c5.1-0.5,6.8,3.8,9.1,6.7
			c8.7,11.1,16.9,22.4,25.9,34.4c0-13.8,0-26.9,0-40.5c6.4,0,12.3,0,18.5,0c0,22.6,0,45.2,0,68.3c-4.7,0-9.3,0.3-13.9-0.2
			c-1.6-0.2-3.4-1.9-4.5-3.4c-8.8-12.1-17.5-24.2-26.3-36.3c-0.1-2.1-0.8-3-2.7-1.3l0,0c-0.3,1.4-0.9,2.9-0.9,4.3
			C59.5,636.4,59.6,648.7,59.6,660.9z"/>
		<path fill="#BB5BD6" d="M97.2,751.9c5.4,0,10.5,0,15.6,0c2.3,12.6,14.9,12.5,23.1,8.5c1.6-0.8,3.3-4,2.9-5.7
			c-0.5-2.2-2.6-4.7-4.7-5.6c-7.1-2.9-14.6-5.1-21.8-7.8c-2.7-1-5.4-2.5-7.8-4.1c-8.4-5.9-8.2-21.2,0.1-27.3
			c11.8-8.7,33.3-9,44.4,2.1c3,3,3.8,8.1,5.9,12.9c-6.5,0-11.7,0-16.8,0c-3.1-10-13.7-10.2-20.4-6.9c-1.5,0.7-3,3.6-2.7,5.2
			c0.4,2.1,2.1,4.7,3.9,5.6c4.6,2.2,9.6,3.3,14.4,5.2c5.4,2.2,11,4.2,16,7.2c8.6,5.1,7.4,23.7-1.4,28.6c-14.9,8.2-29.2,7.5-43.7-0.5
			C100,766.9,96.8,758.9,97.2,751.9z"/>
		<path fill="#BB5CD7" d="M262.1,611.8c-4.9,0-9.8,0-14.7,0c-3.8-9.2-12.1-9.6-17.8-7.5c-2,0.7-4.5,3.1-4.8,5
			c-0.3,1.9,1.5,4.7,3.2,6.1c2.2,1.7,5.2,2.5,8,3.5c6.2,2.2,12.6,4,18.7,6.6c7.5,3.2,10.3,9.3,9.9,17.3c-0.4,7.9-4.3,13.7-11.2,16.3
			c-12.4,4.7-25.2,5-37.2-1.8c-6.3-3.5-10-11.4-9.4-18.5c5.2,0,10.4,0,15.6,0c4.9,10.8,11.8,13.5,22.5,9.2c2.8-1.1,4.1-3.1,3.5-5.7
			c-0.5-2.1-1.8-4.9-3.5-5.6c-7.5-3.2-15.3-5.8-23-8.4c-9-3.1-13.7-9.4-13.6-18.4c0.1-8.3,6-14.4,14.6-17.6
			c10.2-3.8,19.9-1.9,29.4,1.6C258,596,264.1,605.3,262.1,611.8z"/>
		<path fill="#BD5BD9" d="M356.6,197.7c4.4,2,6.9,6.3,6.1,10.3c-1.1,5.4-6.1,9.3-11.8,9.3c-33-0.1-66-0.2-99-0.3
			c-4.7,0-9.1-1.4-11.1-6.2c-1.4-3.5-1.5-7.4,1.5-10.4c1.5-1.5,3.6-2.2,5.4-3.3c1,0.2,2,0.7,3.1,0.7
			C286.1,197.8,321.3,197.7,356.6,197.7z"/>
		<path fill="#BC5BD7" d="M505.8,768.4c-11.9,11.8-28.8,8.1-35.5-7.1c-3.2-7.2-3.9-14.5-1.6-21.5c1.7-5.2,4.9-10.4,8.8-14.1
			c4.8-4.6,11.7-4.6,18-3.5c3.5,0.6,6.7,2.5,10.3,3.9c0-6.6,0-13.9,0-21.5c5.3,0,10,0,15.3,0c0,11.5,0,23.1,0,34.6
			c0,11.5,0,23,0,34.7c-4.5,0-9,0-14,0c-0.3-1.6-0.6-3.4-0.9-5.1c0.1-0.3,0.1-0.6,0.2-1C506.2,768.1,506,768.3,505.8,768.4z
			 M506.2,748c-0.5-2.6-0.9-5.2-1.6-7.7c-1.9-7-13-8.9-17.2-4.4c-4.2,4.5-7,12.7-4.4,18.2c2.5,5.5,6.5,10.6,14.4,8.1
			C503,760.5,505.9,756.2,506.2,748z"/>
		<path fill="#BB5DD6" d="M287.4,639.4c-0.1,8.3,11.1,13.7,18.3,9.2c6.2-3.9,12.5-3.5,19.2-3.3c-0.8,6.6-8.4,13.9-15.7,15.6
			c-10.5,2.4-20.3,1-29.2-5.2c-1.6-1.1-3-2.8-3.9-4.6c-5.3-10.7-5.8-21.6,0.6-31.8c4.2-6.7,10.8-10.9,19.3-10.9
			c7.2,0,14.4-0.3,20.2,5c6.7,6.1,9.9,13.8,10.1,22.8c0.1,2.9-1.7,3.2-4,3.1c-10.1,0-20.2,0-30.4,0
			C290.4,639.4,288.9,639.4,287.4,639.4z M287.8,627.3c-1.6,2.2-0.3,2.7,1.7,2.8c6.4,0,12.8,0.1,19.1,0c2.9,0,3.8-1.3,1.6-3.7
			c-0.4-0.1-1.1-0.1-1.3-0.3c-6.3-7.7-11.6-8.4-19.1-2.5c-0.6,1-1.2,2-1.8,3C287.9,626.8,287.9,627.1,287.8,627.3z"/>
		<path fill="#BB5CD7" d="M422.2,756.4c3.8,6.5,12.8,9.4,19.3,5c4.4-2.9,8.6-2.9,13.1-3c1.7,0,3.3,0,5,0c0,8.6-13.5,16.7-20.6,16.7
			c-4.3,0-8.7-0.2-12.9-0.9c-13.6-2.3-20.6-14.4-19.3-27.8c1.1-10.8,6.1-19.4,16.1-22.9c18-6.3,35.7,1.4,37.9,23.2
			c0,0.4-0.4,0.8-0.7,1.2c-0.9,3-2.8,3.9-6,3.9c-9.9-0.2-19.8-0.1-29.8-0.1C420.3,751.8,419.9,752.8,422.2,756.4z M442.2,735.9
			L442.2,735.9c-0.3-0.3-0.7-0.6-1-0.9c-8.8-3.6-13.5-1.8-18.5,3.7c-0.3,1-0.6,1.9-0.9,2.9c0,0.3,0,0.5,0.1,0.8c0,0.3-0.1,0.5,0,0.8
			c0,0.1,0.2,0.2,0.4,0.2c6.7,0,13.4,0.1,20,0c1.2,0,2.5-0.7,3.7-1.1c-0.8-1.5-1.5-3-2.3-4.5c-0.2-0.2-0.3-0.5-0.3-0.8
			C442.9,736.6,442.5,736.2,442.2,735.9z"/>
		<path fill="#BB5CD6" d="M554.7,609.5c0.3,0,0.6,0,0.9,0.1c0.9,0.3,1.9,0.5,2.8,0.8c0.3,0.1,0.6,0.1,0.9,0.2c0.3,0.2,0.7,0.5,1,0.7
			c0.3,0,0.6,0.1,0.8,0.3c0.3,0.2,0.6,0.5,0.9,0.7l0,0c0.3,0.3,0.6,0.6,1,0.9l0,0c0.4,0.3,0.7,0.6,1.1,0.9c0.6,0.6,1.2,1.2,1.7,1.8
			c0.4,0.6,0.8,1.2,1.3,1.9c4.8,6.2,7.5,12.9,5.8,21.5c-6.2,0-12.5,0-18.8,0c-6.4,0-12.8,0-19.1,0c-0.6,8.8,11.3,14,19.2,8.7
			c6.1-4.1,12.3-2.5,19.6-3c-4.8,8.9-10.4,14.9-20,16.3c-11.3,1.7-21.6-0.3-28.9-9.5c-7-8.9-6.2-26.1,1.1-35.1
			c1.9-2.4,5.2-3.7,7.8-5.5c0.7-0.3,1.4-0.6,2.2-1c0,0-0.1,0-0.1,0c0.7-0.3,1.3-0.5,2-0.8c0.2-0.2,0.4-0.2,0.6-0.1
			C543.8,609.5,549.2,609.5,554.7,609.5z M558.1,627.3c-2.9-2.9-4.7-7.2-9.7-7.5c-6.1-0.4-10.8,1.6-13.2,7.5
			c-1.7,1.7-1.1,2.7,1.1,2.7c6.9,0.1,13.9,0.1,20.8,0C559.2,630,559.8,629,558.1,627.3z"/>
		<path fill="#BC5CD7" d="M251.4,740.5c1.4-10,9.9-18,20-18.6c7.7-0.5,14.9,0,21.6,5c5.9,4.4,8.9,9.9,9.1,17.2c0,2.4,0,4.8,0,7.7
			c-2.5,0-4.1,0-5.8,0c-9.8,0-19.6,0-29.4,0c-1,0-2.1,0.6-3.1,1c4,10.7,14.3,13.8,23.4,7c1.5-1.1,4-1.2,6.1-1.3
			c2.9-0.2,5.8-0.1,8.7-0.1c0,8.9-6.8,13-14.9,15.6c-7.8,2.5-16,2.1-23.6-1.3c-6.8-3-11.1-8.3-11.9-15.9
			C251.3,751.3,251.4,745.9,251.4,740.5z M287.9,741.6c-0.5-1-0.9-1.9-1.4-2.9c-6.3-8.2-15.4-7.9-20.8,0.8c-0.1,0.2-0.6,0.1-0.9,0.2
			c-1.8,1.4-1.9,3.4,0.4,3.5c7.6,0.2,15.2-0.2,22.8-0.4c-0.1-0.1-0.1-0.3-0.2-0.4C287.8,742.1,287.8,741.9,287.9,741.6z"/>
		<path fill="#BB5CD7" d="M176.5,754.6c5.5,9.8,14.1,11.7,23.1,5.5c1.8-1.2,4.5-1.3,6.9-1.6c2.6-0.3,5.3-0.1,8.4-0.1
			c-1.4,6.3-4.6,10.3-10,13.3c-10.3,5.7-28.9,4.7-36.5-4.9c-6.2-7.8-8.3-16.9-5.5-25.7c7.3-23.2,32.8-24.8,46.3-11.1
			c2.5,2.5,3.3,6.8,4.8,10.2c0,3.7,0,7.5,0,11.6c-2.4,0-4,0-5.5,0c-9.9,0-19.8,0-29.7,0C177.2,751.8,174.4,751.2,176.5,754.6z
			 M197.1,735.8c-0.3-0.3-0.7-0.6-1-0.9c0,0,0,0,0,0c-1-0.6-2-1.2-2.9-1.9c-0.3,0-0.5,0-0.8-0.1c-2.5,0.1-5,0.2-7.4,0.2
			c0,0,0.1,0,0.1,0c-0.4,0.2-0.7,0.5-1.1,0.7c-0.2,0.1-0.5,0.2-0.8,0.2c-0.4,0.3-0.8,0.6-1.1,0.9c-0.1,0.1-0.3,0.2-0.4,0.1
			c-0.4,0.4-0.9,0.9-1.3,1.3c0.1,0.2,0,0.3-0.1,0.5c-4.2,0.3-3.8,3.1-3.3,6.6c7.4,0,14.6,0,21.9-0.1c0.4,0,0.8-1.7,1.1-2.7
			c-0.4-0.8-0.8-1.7-1.1-2.5C198.3,737.3,197.7,736.6,197.1,735.8C197.1,735.8,197.1,735.8,197.1,735.8z"/>
		<path fill="#BB5BD6" d="M145.9,608.6c10.9-0.2,19.8,3.4,24.6,13.7c4.8,10.3,2.9,24.8-4.7,32.1c-7.3,7-16.4,8.8-26.2,7.3
			c-16.5-2.6-23.5-19-21.3-32.5c2.1-12.5,12.1-20.6,24.8-20.5C144,608.6,144.9,608.6,145.9,608.6z M158.7,635.4
			c0-9-5.4-15.4-13.2-15.4c-5.7,0-13.4,5.9-13.6,15.9c-0.1,6.5,7.4,14.5,13.6,14.6C152.8,650.6,158.8,643.7,158.7,635.4z"/>
		<path fill="#BB5DD6" d="M347.3,755c5.3,0,10.1,0,14.9,0c-0.9,12.9-9.6,19.9-22.8,20.2c-3.7,0.1-7.5,0.1-11.1-0.7
			c-9.9-2-15.7-8.3-17.4-18.2c-1.6-9.7-1.2-19.1,5.6-27.2c3.3-4,7.7-6.1,12.4-6.7c8.7-1.3,17.5-1.3,25.1,4.1
			c4.8,3.4,6.9,8.5,7.9,14.6c-5.2,0-10.1,0-15.2,0c-4.3-7.9-9.3-10.2-15.9-6.5c-1.9,1-4.2,3.2-4.3,5.1c-0.5,5.8-0.6,11.7,0.3,17.3
			c0.8,4.9,4.1,6.3,9.9,6.4c4.6,0.1,8.4-0.9,9.6-6C346.7,756.4,347,755.7,347.3,755z"/>
		<path fill="#BB5CD6" d="M513.9,628.2c-4.3,0-8.5,0.2-12.7-0.1c-1.5-0.1-3.6-1.3-4.1-2.5c-2.5-5.4-6.7-6.1-11.9-5.4
			c-5.6,0.8-8.4,4.4-8.6,9.3c-0.3,5.1,0.3,10.5,1.6,15.5c0.5,2.2,3.6,5.3,5.5,5.3c4.7,0,10.6,1.5,13.3-4.3c1.5-3.2,3.6-3.8,6.6-3.7
			c3.5,0.1,7,0,10.7,0c-5.4,18.3-15.4,21.3-31.7,19.4c-13.4-1.6-20.2-8.3-21.5-21.6c-1.6-16.7,4.2-27,17.7-30.6
			c7.1-1.9,14.8-1.8,22,1C508.4,613.4,511.4,620.2,513.9,628.2z"/>
		<path fill="#BB5DD6" d="M372.3,608.6c5.3,0,9.5-0.2,13.7,0.1c1.1,0.1,2.7,1.3,3.1,2.4c1.2,3.2,2,6.5,3,9.8
			c2.6,8.3,5.2,16.6,8.2,26c2.6-9.2,4.9-17.4,7.3-25.6c4.4-15,0.7-12.4,16.7-12.7c0.9,0,1.8,0.2,3.5,0.4c-1.6,3.8-3.2,7.2-4.5,10.7
			c-3.3,9.3-6.4,18.8-9.7,28.1c-1.4,3.9-3.1,7.6-4.9,11.3c-0.5,0.9-2,1.8-3.1,1.8c-4.7,0.2-9.3,0.1-14.1,0.1
			C385.3,643.8,379,626.7,372.3,608.6z"/>
		<path fill="#BD5DD8" d="M400.8,733.9c-3.5,0-7.1,0.1-10.6,0.1c-0.4,0.6-1.2,1.2-1.2,1.8c-0.1,7.7-0.1,15.4,0,23.1
			c0,0.7,1.1,1.5,1.7,2.2c3.5,0.5,6.9,1,11.1,1.7c0,3,0.3,6.4-0.2,9.7c-0.2,1.1-2.4,2.6-3.7,2.5c-5.4-0.2-10.9-0.4-16.1-1.7
			c-4.9-1.2-6.6-5.9-7-10.5c-0.5-6.8-0.6-13.7-0.8-20.5c-0.1-2.3,0-4.6,0-7.4c-2.7-0.2-5.1-0.3-7.6-0.5c0-3.8,0-7.5,0-11.4
			c2.5-0.1,4.8-0.3,7.4-0.4c0.3-4.6,0.5-9,0.8-13.9c4.3,0,8.2-0.2,12,0.1c1,0.1,1.9,1.8,2.8,2.8c-0.2,3.9-0.5,7.8-0.8,11.8
			c4.3,0.2,7.6,0.3,10.9,0.5C400.1,727.6,400.5,730.7,400.8,733.9z"/>
		<path fill="#BD5DD8" d="M243.8,325.2c-4.3-2.2-7.1-6.7-6.4-10.2c0.8-4.5,4.4-8.3,9.1-8.5c9.8-0.5,19.6-0.7,29.3-0.8
			c7.5-0.1,15-0.4,22.4,0.1c3.7,0.3,7.3,2.1,10.8,3.5c0.6,0.2,1.4,2.1,1.1,2.5c-3.2,4.4-6.6,8.7-10.1,12.9c-0.3,0.4-1.1,0.4-1.7,0.5
			C280.2,325.1,262,325.1,243.8,325.2z"/>
		<path fill="#BD5BD8" d="M248.7,249.9c-6.2-1.6-8.7-4.7-8.6-10.8c0.1-5,3.3-8.1,9.6-9.4c1,0.2,2,0.7,3.1,0.7c14.8,0,29.5,0,44.3,0
			c1,0,2-0.5,3.1-0.7c6.9,1.9,7.9,6.5,8,10.9c0.1,4.5-3.9,7.9-9.9,9.3C281.6,250,265.2,249.9,248.7,249.9z"/>
		<path fill="#BD5BD8" d="M348.7,660.9c-4.4,0-8.7,0-13.1,0c0-13,0-26,0-39.1c0-4-0.9-9.2,1.1-11.5c1.8-2,7.3-0.7,11.1-0.9l0,0
			c0,2.3-0.1,4.5,0.1,6.7c0,0.5,0.8,1,1.3,1.5c0.5-0.6,0.9-1.3,1.4-1.9c1.5-1.5,3-3,4.4-4.5c0.7-0.6,1.5-1.1,2.2-1.7
			c0.3-0.1,0.5-0.2,0.8-0.1c2.2,0,4.3,0.2,6.5,0c3-0.3,4.1,0.9,4,3.9c-0.1,2.4,0.4,4.8,0.6,7.2c-1.1,0.2-2.3,0.7-3.3,0.5
			c-9.4-1.7-15.9,3.6-16,13.2c0,0.8-0.1,1.5-0.1,2.3c-0.3,1.5-0.8,2.9-0.8,4.4C348.7,647.7,348.7,654.3,348.7,660.9z"/>
		<path fill="#BD5BD9" d="M226.2,704.8c4.3,0,8.6,0,13,0c0,20,0.1,39.9,0,59.9c0,9.9,1.9,8.4-9.1,8.7c-3,0.1-4.1-0.9-4-4
			C226.2,747.9,226.2,726.3,226.2,704.8z"/>
		<path fill="#BC5BD8" d="M244,433.3c-4.4-1.1-7.3-4.2-8.4-8.2c-1.4-4.8,3.8-11,9-11.2c9.5-0.2,19-0.5,28.4,0
			c7,0.4,13.6,7.4,8.5,14.1c-1.8,2.3-5.5,3.2-8.3,4.7c-4.8,0-9.6-0.1-14.4,0C253.8,432.8,248.9,433.1,244,433.3z"/>
		<path fill="#BD5BD9" d="M450.8,660.9c-4.9,0-9.7,0-14.8,0c0-17.2,0-34.4,0-51.9c4.7,0,9.6,0,14.8,0
			C450.8,626.1,450.8,643.3,450.8,660.9z"/>
		<path fill="#AD55C7" d="M100,499.1c-0.4-1.4-1.1-2.8-1.1-4.3c0-123.8,0-247.6,0-371.4c0-1.4,0.8-2.8,1.2-4.2
			c-0.1,1.7-0.3,3.4-0.3,5.1c0,123.2,0,246.4,0,369.6C99.8,495.6,99.9,497.4,100,499.1z"/>
		<path fill="#AC56C6" d="M98,536.3c1.8-0.2,3.6-0.7,5.4-0.7c95.5,0,190.9,0,286.4-0.1c1.9,0,3.8-0.6,5.7-1c1.4,0.4,2.7,0.7,4.1,1.1
			c-0.1,0.3-0.1,0.6-0.2,0.8c-1.2,0-2.4,0-3.6,0c-97.9,0-195.8,0-293.7,0C100.8,536.5,99.4,536.4,98,536.3z"/>
		<path fill="#A55CBE" d="M453.6,245.4c0-44,0-88.1,0.1-132.1c0.6,1.2,1.7,2.4,1.7,3.7c0.1,41.7,0.1,83.4,0,125.2
			C455.3,243.2,454.2,244.3,453.6,245.4z"/>
		<path fill="#BB5DD6" d="M444,588c4.5,0,8.6,4,8.5,8.2c-0.1,4.3-4.6,8.7-8.7,8.7c-5.1,0-8.8-3.7-9-8.6
			C434.5,590.8,438.7,588.7,444,588z"/>
		<path fill="#AC56C6" d="M226.2,704.8c0,21.5,0,43-0.1,64.5c0,3.1,1,4,4,4c11-0.3,9,1.2,9.1-8.7c0.1-19.9,0-39.9,0-59.9
			c0.3,0.5,1,1,1,1.5c0,22.4,0,44.8,0,67.6c-4.9,0-9.6,0-14.7,0c-0.1-1-0.3-2-0.3-3.1c0-20.9,0-41.7,0-62.6
			C225.2,707.1,225.9,706,226.2,704.8z"/>
		<path fill="#AD55C7" d="M356.6,197.7c-35.3,0-70.5,0.1-105.8,0c-1,0-2-0.5-3.1-0.7c14.3-0.1,28.6-0.2,42.9-0.2
			c20.2,0,40.4,0,60.6,0C353,196.9,354.8,197.4,356.6,197.7z"/>
		<path fill="#AD55C7" d="M244.8,138.8c1.5-0.3,2.9-0.9,4.4-0.9c34.1,0,68.3,0,102.4,0c-1.8,0.3-3.5,0.9-5.3,0.9
			C312.5,138.8,278.7,138.8,244.8,138.8z"/>
		<path fill="#A757C2" d="M44.6,592.6c0,22.8,0,45.6-0.1,68.3c-0.3-0.9-0.9-1.9-0.9-2.8c-0.1-21,0-42,0-63
			C43.7,594.2,44.3,593.4,44.6,592.6z"/>
		<path fill="#A65FC0" d="M347.9,609.5c-3.8,0.2-9.3-1.1-11.1,0.9c-2.1,2.3-1.1,7.5-1.1,11.5c-0.1,13,0,26,0,39.1
			c-0.3-0.5-0.8-0.9-0.9-1.4c-0.1-1.1-0.1-2.2-0.1-3.2c0-15.6,0-31.3,0-47.8C339.3,608.8,343.6,609.1,347.9,609.5z"/>
		<path fill="#AD55C7" d="M243.8,325.2c18.2,0,36.4,0,54.6-0.1c-1.2,0.3-2.3,0.9-3.5,0.9c-16,0.1-32.1,0-48.1,0
			C245.8,325.9,244.8,325.4,243.8,325.2z"/>
		<path fill="#A65FC0" d="M176.5,754.6c-2.2-3.4,0.7-2.8,2.3-2.8c9.9-0.1,19.8,0,29.7,0c1.5,0,3,0,5.5,0c0-4.1,0-7.8,0-11.6
			c0.5,4,1,8,1.5,12.5c-12.6,0-23.9-0.1-35.2,0.1C179.1,752.8,177.8,753.9,176.5,754.6z"/>
		<path fill="#AC56C6" d="M300,229.8c-1,0.2-2,0.7-3.1,0.7c-14.8,0-29.5,0-44.3,0c-1,0-2-0.5-3.1-0.7
			C266.4,229.8,283.2,229.8,300,229.8z"/>
		<path fill="#A757C2" d="M248.7,249.9c16.5,0,33,0,49.5,0.1C281.6,250,265.2,249.9,248.7,249.9z"/>
		<path fill="#A65FC0" d="M263.6,752.8c1-0.3,2.1-1,3.1-1c9.8-0.1,19.6,0,29.4,0c1.7,0,3.4,0,5.8,0c0-2.9,0-5.3,0-7.7
			c0.4,2.7,0.8,5.3,1.3,8.8C289.6,752.8,276.6,752.8,263.6,752.8z"/>
		<path fill="#A65FC0" d="M422.2,756.4c-2.2-3.6-1.9-4.6,2.1-4.6c9.9-0.1,19.9-0.2,29.8,0.1c3.2,0.1,5.1-0.8,6-3.9
			c0,1.4,0,2.8,0,4.6c-12.8,0-25.3,0-38.3,0C421.9,754.2,422,755.3,422.2,756.4z"/>
		<path fill="#A65FC0" d="M59.6,660.9c0-12.3,0-24.5,0-36.8c0-1.4,0.6-2.9,0.9-4.3c0,12.3,0,24.6-0.1,36.9
			C60.4,658.1,59.9,659.5,59.6,660.9z"/>
		<path fill="#A757C2" d="M366.3,123.8c-0.2-1.2-0.7-2.4-0.7-3.6c0-12,0-24,0-36c0.3,0.7,0.8,1.4,0.8,2.1
			C366.4,98.8,366.3,111.3,366.3,123.8z"/>
		<path fill="#AD55C7" d="M199.9,67.7c-1.3,0.3-2.6,0.9-3.9,0.9c-11.9,0-23.7,0-35.6,0c1.3-0.3,2.6-0.8,3.9-0.8
			C176.2,67.7,188,67.7,199.9,67.7z"/>
		<path fill="#AD55C7" d="M349.6,68c-3.2,0.2-6.4,0.6-9.6,0.6c-7.1,0.1-14.3,0.1-21.4,0c-1.5,0-2.9-0.5-4.4-0.8
			C326,67.9,337.8,67.9,349.6,68z"/>
		<path fill="#A65FC0" d="M400.8,733.9c-0.4-3.2-0.7-6.3-1.1-10c-3.3-0.1-6.6-0.3-10.9-0.5c0.3-4.1,0.5-7.9,0.8-11.8
			c0.2,3.5,0.3,7.1,0.5,11c3.5,0,6.9,0,10.7,0C400.8,726.6,400.8,730.2,400.8,733.9z"/>
		<path fill="#AE66C6" d="M251.4,740.5c0,5.4,0,10.8-0.1,16.3c-0.6-0.6-1.7-1.2-1.7-1.8c-0.1-4.3-0.1-8.5,0.1-12.8
			C249.7,741.6,250.8,741,251.4,740.5z"/>
		<path fill="#A757C2" d="M244,433.3c4.9-0.2,9.8-0.6,14.7-0.7c4.8-0.1,9.6,0,14.4,0c-1.3,0.3-2.6,0.8-3.8,0.8
			C260.9,433.5,252.4,433.4,244,433.3z"/>
		<path fill="#AC56C6" d="M390.8,761.1c-0.6-0.7-1.7-1.5-1.7-2.2c-0.1-7.7-0.1-15.4,0-23.1c0-0.6,0.8-1.2,1.2-1.8
			C390.4,743.1,390.6,752.1,390.8,761.1z"/>
		<path fill="#AC56C6" d="M348.7,660.9c0-6.6-0.1-13.3,0-19.9c0-1.5,0.5-2.9,0.8-4.4c0,7,0.1,14,0,21
			C349.6,658.7,349,659.8,348.7,660.9z"/>
		<path fill="#AC56C6" d="M369,620.7c-0.2-2.4-0.7-4.8-0.6-7.2c0.1-3-1-4.2-4-3.9c-2.1,0.2-4.3,0-6.5,0c3.5-0.4,7.1-0.9,11.1-1.3
			C369,612.8,369,616.7,369,620.7z"/>
		<path fill="#AC56C6" d="M554.7,609.5c-5.5,0-10.9,0-16.4-0.1C543.8,609.5,549.2,609.5,554.7,609.5z"/>
		<path fill="#A65FC0" d="M350.5,615.8c-0.5,0.6-0.9,1.3-1.4,1.9c-0.4-0.5-1.2-1-1.3-1.5c-0.1-2.2-0.1-4.5-0.1-6.7
			c0.3,2,0.6,4.1,1,6.1C348.9,615.7,349.9,615.7,350.5,615.8z"/>
		<path fill="#A65FC0" d="M60.5,619.9c1.9-1.7,2.6-0.8,2.7,1.3C62.3,620.7,61.4,620.3,60.5,619.9z"/>
		<path fill="#AC56C6" d="M558.4,610.5c-0.9-0.3-1.9-0.5-2.8-0.8C556.5,609.9,557.4,610.2,558.4,610.5z"/>
		<path fill="#AC56C6" d="M353.4,301.2c-1,0.5-1.9,0.9-2.9,1.4C351.4,302.1,352.4,301.6,353.4,301.2z"/>
		<path fill="#AC56C6" d="M357.1,609.6c-0.7,0.6-1.5,1.1-2.2,1.7C355.7,610.8,356.4,610.2,357.1,609.6z"/>
		<path fill="#AC56C6" d="M535.9,610.3c-0.7,0.3-1.4,0.6-2.2,1C534.4,611,535.1,610.7,535.9,610.3z"/>
		<path fill="#AC56C6" d="M567.1,617.9c-0.4-0.6-0.8-1.2-1.3-1.9C566.2,616.6,566.7,617.3,567.1,617.9z"/>
		<path fill="#AC56C6" d="M537.7,609.6c-0.7,0.3-1.3,0.5-2,0.8C536.4,610.1,537.1,609.8,537.7,609.6z"/>
		<path fill="#AC56C6" d="M345.9,307.1c-0.4,0.6-0.7,1.3-1.1,1.9C345.2,308.4,345.5,307.7,345.9,307.1z"/>
		<path fill="#AC56C6" d="M343.9,309.9c-0.6,0.4-1.2,0.7-1.8,1.1C342.7,310.6,343.3,310.2,343.9,309.9z"/>
		<path fill="#AC56C6" d="M344.9,309c-0.3,0.3-0.7,0.7-1,1C344.2,309.6,344.5,309.3,344.9,309z"/>
		<path fill="#AC56C6" d="M342.1,310.9c-0.3,0.3-0.7,0.7-1,1C341.5,311.6,341.8,311.3,342.1,310.9z"/>
		<path fill="#AC56C6" d="M341.2,311.9c-0.3,0.3-0.5,0.7-0.8,1C340.7,312.5,340.9,312.2,341.2,311.9z"/>
		<path fill="#AC56C6" d="M560.3,611.4c-0.3-0.2-0.7-0.5-1-0.7C559.6,610.9,560,611.1,560.3,611.4z"/>
		<path fill="#AC56C6" d="M562.1,612.3c-0.3-0.2-0.6-0.5-0.9-0.7C561.5,611.9,561.8,612.1,562.1,612.3z"/>
		<path fill="#AC56C6" d="M564.1,614.2c-0.4-0.3-0.7-0.6-1.1-0.9C563.4,613.5,563.7,613.9,564.1,614.2z"/>
		<path fill="#AC56C6" d="M563,613.3c-0.3-0.3-0.6-0.6-1-0.9C562.4,612.7,562.7,613,563,613.3z"/>
		<path fill="#AE66C6" d="M484.4,459c2.5,0.2,5,0.4,7.4,0.6C489.2,461.4,486.7,461.6,484.4,459z"/>
		<path fill="#A757C2" d="M408.6,389.4c2.2,1.3,2.4,2.6,0,4C408.6,392.1,408.6,390.8,408.6,389.4z"/>
		<path fill="#A757C2" d="M496.4,361.5c1-0.7,2-1.3,2.9-2C498.4,360.2,497.4,360.8,496.4,361.5z"/>
		<path fill="#AE66C6" d="M426.4,354.9c-0.9-0.6-1.9-1.2-2.8-1.9C424.5,353.7,425.5,354.3,426.4,354.9z"/>
		<path fill="#AE66C6" d="M453.5,430.9c0.9,0.6,1.9,1.2,2.8,1.8C455.4,432.1,454.4,431.5,453.5,430.9z"/>
		<path fill="#A757C2" d="M409.4,442.9c1-0.7,2-1.3,2.9-2C411.3,441.6,410.4,442.2,409.4,442.9z"/>
		<path fill="#A757C2" d="M398.4,403.7c-1,0.7-1.9,1.3-2.9,2C396.5,405,397.4,404.4,398.4,403.7z"/>
		<path fill="#AE66C6" d="M468.5,444.8c0.9,0.6,1.9,1.3,2.8,1.9C470.4,446,469.5,445.4,468.5,444.8z"/>
		<path fill="#A757C2" d="M423.5,429.8c0.9-0.6,1.9-1.3,2.8-1.9C425.4,428.5,424.5,429.2,423.5,429.8z"/>
		<path fill="#A757C2" d="M384.4,416.8c-1,0.7-2,1.3-2.9,2C382.5,418.1,383.5,417.5,384.4,416.8z"/>
		<path fill="#AE66C6" d="M412.3,341.9c-0.9-0.6-1.9-1.3-2.8-1.9C410.4,340.7,411.4,341.3,412.3,341.9z"/>
		<path fill="#AE66C6" d="M401.1,331.7c-1-0.9-2-1.9-3-2.8C399.1,329.8,400.1,330.7,401.1,331.7z"/>
		<path fill="#AE66C6" d="M438.6,417.5c1,0.6,1.9,1.3,2.9,1.9C440.6,418.8,439.6,418.2,438.6,417.5z"/>
		<path fill="#AE66C6" d="M436.5,417.5c0.3-0.4,0.6-0.9,0.9-1.3c0.4,0.4,0.9,0.9,1.3,1.3C438,417.5,437.2,417.5,436.5,417.5z"/>
		<path fill="#A757C2" d="M427.3,427c0.4-0.6,0.9-1.2,1.3-1.8C428.1,425.8,427.7,426.4,427.3,427z"/>
		<path fill="#AE66C6" d="M430.1,358.5c-0.6-0.6-1.2-1.1-1.9-1.7C428.9,357.4,429.5,357.9,430.1,358.5z"/>
		<path fill="#A757C2" d="M492.7,365.2c0.6-0.7,1.3-1.3,1.9-2C494,363.9,493.4,364.6,492.7,365.2z"/>
		<path fill="#A757C2" d="M500.1,358.7c0.7-0.7,1.3-1.3,2-2C501.5,357.4,500.8,358,500.1,358.7z"/>
		<path fill="#A757C2" d="M372.3,428c-0.7,0.7-1.3,1.3-2,2C370.9,429.3,371.6,428.7,372.3,428z"/>
		<path fill="#A757C2" d="M487.1,370.9c0.6-0.4,1.3-0.7,1.9-1.1C488.4,370.1,487.7,370.5,487.1,370.9z"/>
		<path fill="#AE66C6" d="M451.7,429.7c0.6,0.4,1.1,0.8,1.7,1.2C452.9,430.4,452.3,430.1,451.7,429.7z"/>
		<path fill="#A757C2" d="M403,383.9c0.4,0.6,0.7,1.3,1.1,1.9C403.8,385.1,403.4,384.5,403,383.9z"/>
		<path fill="#A757C2" d="M397.2,455.1c0.7-0.4,1.3-0.7,2-1.1C398.5,454.3,397.8,454.7,397.2,455.1z"/>
		<path fill="#A757C2" d="M491.7,367.1c0.4-0.6,0.7-1.2,1.1-1.9C492.4,365.8,492.1,366.4,491.7,367.1z"/>
		<path fill="#A757C2" d="M404,385.7c0.6,0.4,1.3,0.7,1.9,1.1C405.3,386.4,404.7,386,404,385.7z"/>
		<path fill="#A757C2" d="M400,453.2c0.4-0.6,0.7-1.3,1.1-1.9C400.7,451.9,400.4,452.5,400,453.2z"/>
		<path fill="#AE66C6" d="M464.7,441.1c0.3,0.3,0.6,0.6,1,0.9C465.4,441.7,465.1,441.4,464.7,441.1z"/>
		<path fill="#AE66C6" d="M465.7,442c0.3,0.3,0.6,0.6,1,0.9C466.3,442.6,466,442.3,465.7,442z"/>
		<path fill="#AE66C6" d="M466.6,442.9c0.3,0.3,0.7,0.6,1,1C467.3,443.6,467,443.2,466.6,442.9z"/>
		<path fill="#AE66C6" d="M467.6,443.8c0.3,0.3,0.7,0.6,1,1C468.2,444.5,467.9,444.2,467.6,443.8z"/>
		<path fill="#AE66C6" d="M471.3,446.6c0.3,0.3,0.7,0.7,1,1C472,447.3,471.7,447,471.3,446.6z"/>
		<path fill="#AE66C6" d="M472.3,447.6c0.3,0.3,0.7,0.7,1,1C472.9,448.2,472.6,447.9,472.3,447.6z"/>
		<path fill="#AE66C6" d="M473.2,448.5c0.3,0.3,0.7,0.7,1,1C473.9,449.1,473.5,448.8,473.2,448.5z"/>
		<path fill="#AE66C6" d="M474.1,449.4c0.3,0.3,0.7,0.7,1,1C474.8,450.1,474.5,449.8,474.1,449.4z"/>
		<path fill="#AE66C6" d="M475.1,450.4c0.3,0.3,0.7,0.7,1,1C475.7,451,475.4,450.7,475.1,450.4z"/>
		<path fill="#AE66C6" d="M476,451.3c0.3,0.3,0.7,0.7,1,1C476.7,452,476.3,451.6,476,451.3z"/>
		<path fill="#AE66C6" d="M476.9,452.2c0.3,0.3,0.7,0.7,1,1C477.6,452.9,477.3,452.6,476.9,452.2z"/>
		<path fill="#A757C2" d="M399.1,454.1c0.3-0.3,0.7-0.7,1-1C399.7,453.4,399.4,453.7,399.1,454.1z"/>
		<path fill="#AE66C6" d="M477.9,453.2c0.3,0.3,0.7,0.7,1,1C478.5,453.8,478.2,453.5,477.9,453.2z"/>
		<path fill="#AE66C6" d="M402,332.6c-0.3-0.3-0.7-0.7-1-1C401.4,331.9,401.7,332.3,402,332.6z"/>
		<path fill="#AE66C6" d="M478.8,454.1c0.3,0.3,0.7,0.7,1,1C479.5,454.8,479.1,454.4,478.8,454.1z"/>
		<path fill="#AE66C6" d="M479.8,455c0.3,0.3,0.7,0.7,1,1C480.4,455.7,480.1,455.4,479.8,455z"/>
		<path fill="#AE66C6" d="M480.7,456c0.3,0.3,0.7,0.7,1,1C481.3,456.6,481,456.3,480.7,456z"/>
		<path fill="#AE66C6" d="M481.6,456.9c0.3,0.3,0.7,0.7,1,1C482.3,457.6,482,457.2,481.6,456.9z"/>
		<path fill="#AE66C6" d="M482.6,457.9c0.4,0.3,0.7,0.6,1.1,1C483.3,458.5,482.9,458.2,482.6,457.9z"/>
		<path fill="#AE66C6" d="M403,333.5c-0.3-0.3-0.7-0.7-1-1C402.3,332.9,402.6,333.2,403,333.5z"/>
		<path fill="#AE66C6" d="M403.9,334.5c-0.3-0.3-0.7-0.7-1-1C403.2,333.8,403.6,334.1,403.9,334.5z"/>
		<path fill="#AE66C6" d="M404.8,335.4c-0.3-0.3-0.7-0.6-1-1C404.2,334.7,404.5,335.1,404.8,335.4z"/>
		<path fill="#AE66C6" d="M405.8,336.3c-0.3-0.3-0.7-0.6-1-1C405.1,335.7,405.5,336,405.8,336.3z"/>
		<path fill="#AE66C6" d="M406.7,337.3c-0.3-0.3-0.7-0.6-1-1C406.1,336.6,406.4,336.9,406.7,337.3z"/>
		<path fill="#AE66C6" d="M407.7,338.2c-0.3-0.3-0.6-0.6-1-1C407,337.5,407.3,337.9,407.7,338.2z"/>
		<path fill="#AE66C6" d="M408.6,339.1c-0.3-0.3-0.6-0.6-1-1C407.9,338.5,408.3,338.8,408.6,339.1z"/>
		<path fill="#AE66C6" d="M409.5,340.1c-0.3-0.3-0.6-0.6-1-1C408.9,339.4,409.2,339.7,409.5,340.1z"/>
		<path fill="#AE66C6" d="M413.3,342.9c-0.3-0.3-0.6-0.6-1-1C412.6,342.2,413,342.5,413.3,342.9z"/>
		<path fill="#AE66C6" d="M414.2,343.8c-0.3-0.3-0.6-0.6-1-1C413.6,343.1,413.9,343.5,414.2,343.8z"/>
		<path fill="#AE66C6" d="M415.2,344.7c-0.3-0.3-0.6-0.6-1-0.9C414.5,344.1,414.8,344.4,415.2,344.7z"/>
		<path fill="#AE66C6" d="M416.1,345.6c-0.3-0.3-0.6-0.6-1-1C415.5,345,415.8,345.3,416.1,345.6z"/>
		<path fill="#AE66C6" d="M417,346.6c-0.3-0.3-0.6-0.6-1-1C416.4,345.9,416.7,346.3,417,346.6z"/>
		<path fill="#AE66C6" d="M418,347.5c-0.3-0.3-0.6-0.6-1-1C417.3,346.9,417.6,347.2,418,347.5z"/>
		<path fill="#AE66C6" d="M418.9,348.4c-0.3-0.3-0.6-0.6-1-0.9C418.3,347.8,418.6,348.1,418.9,348.4z"/>
		<path fill="#AE66C6" d="M419.8,349.4c-0.3-0.3-0.6-0.6-1-1C419.2,348.8,419.5,349.1,419.8,349.4z"/>
		<path fill="#AE66C6" d="M420.8,350.3c-0.3-0.3-0.6-0.6-1-0.9C420.1,349.7,420.5,350,420.8,350.3z"/>
		<path fill="#AE66C6" d="M421.7,351.2c-0.3-0.3-0.6-0.6-1-0.9C421.1,350.6,421.4,350.9,421.7,351.2z"/>
		<path fill="#AE66C6" d="M422.7,352.2c-0.3-0.3-0.6-0.6-0.9-0.9C422,351.5,422.3,351.8,422.7,352.2z"/>
		<path fill="#AE66C6" d="M423.6,353.1c-0.3-0.3-0.6-0.6-0.9-0.9C423,352.5,423.3,352.8,423.6,353.1z"/>
		<path fill="#AE66C6" d="M427.3,355.9c-0.3-0.3-0.6-0.6-0.9-0.9C426.7,355.3,427,355.6,427.3,355.9z"/>
		<path fill="#AE66C6" d="M428.3,356.8c-0.3-0.3-0.6-0.6-0.9-0.9C427.7,356.2,428,356.5,428.3,356.8z"/>
		<path fill="#A757C2" d="M490.8,368c0.3-0.3,0.7-0.7,1-1C491.5,367.3,491.1,367.7,490.8,368z"/>
		<path fill="#A757C2" d="M489.9,368.9c0.3-0.3,0.7-0.7,1-1C490.5,368.3,490.2,368.6,489.9,368.9z"/>
		<path fill="#A757C2" d="M488.9,369.9c0.3-0.3,0.7-0.7,1-1C489.6,369.2,489.3,369.5,488.9,369.9z"/>
		<path fill="#A757C2" d="M408.7,393.4c-0.3,0.4-0.7,0.7-1,1.1C408,394.1,408.4,393.7,408.7,393.4z"/>
		<path fill="#A757C2" d="M399.4,402.7c-0.4,0.3-0.7,0.7-1.1,1C398.7,403.4,399.1,403.1,399.4,402.7z"/>
		<path fill="#AE66C6" d="M435.6,418.5c0.3-0.3,0.7-0.7,1-1C436.3,417.9,435.9,418.2,435.6,418.5z"/>
		<path fill="#AE66C6" d="M434.7,419.5c0.3-0.3,0.7-0.7,1-1C435.3,418.8,435,419.1,434.7,419.5z"/>
		<path fill="#AE66C6" d="M433.7,420.4c0.3-0.3,0.7-0.7,1-1C434.4,419.7,434.1,420.1,433.7,420.4z"/>
		<path fill="#AE66C6" d="M441.4,419.4c0.3,0.3,0.7,0.7,1,1C442.1,420.1,441.8,419.7,441.4,419.4z"/>
		<path fill="#AE66C6" d="M432.8,421.3c0.3-0.3,0.7-0.7,1-1C433.5,420.7,433.1,421,432.8,421.3z"/>
		<path fill="#AE66C6" d="M442.4,420.3c0.3,0.3,0.7,0.7,1,1C443,421,442.7,420.7,442.4,420.3z"/>
		<path fill="#AE66C6" d="M431.7,422.3c0.4-0.3,0.8-0.7,1.1-1C432.5,421.6,432.1,422,431.7,422.3z"/>
		<path fill="#AE66C6" d="M443.3,421.3c0.3,0.3,0.7,0.7,1,1C444,421.9,443.7,421.6,443.3,421.3z"/>
		<path fill="#AE66C6" d="M444.3,422.2c0.3,0.3,0.7,0.7,1,1C444.9,422.9,444.6,422.5,444.3,422.2z"/>
		<path fill="#AE66C6" d="M445.2,423.1c0.3,0.3,0.7,0.7,1,1C445.9,423.8,445.5,423.5,445.2,423.1z"/>
		<path fill="#AE66C6" d="M446.1,424.1c0.3,0.3,0.7,0.7,1,1C446.8,424.7,446.5,424.4,446.1,424.1z"/>
		<path fill="#AE66C6" d="M447.1,425c0.3,0.3,0.7,0.7,1,1C447.7,425.7,447.4,425.3,447.1,425z"/>
		<path fill="#AE66C6" d="M448,426c0.3,0.3,0.7,0.7,1,1C448.7,426.6,448.3,426.3,448,426z"/>
		<path fill="#A757C2" d="M426.3,428c0.3-0.3,0.7-0.7,1-1C427,427.3,426.6,427.6,426.3,428z"/>
		<path fill="#AE66C6" d="M448.9,426.9c0.3,0.3,0.7,0.7,1,1C449.6,427.5,449.3,427.2,448.9,426.9z"/>
		<path fill="#AE66C6" d="M449.9,427.8c0.3,0.3,0.7,0.7,1,1C450.5,428.5,450.2,428.2,449.9,427.8z"/>
		<path fill="#AE66C6" d="M450.8,428.8c0.3,0.3,0.7,0.7,1,1C451.5,429.4,451.1,429.1,450.8,428.8z"/>
		<path fill="#A757C2" d="M422.6,430.8c0.3-0.3,0.7-0.7,1-1C423.2,430.1,422.9,430.4,422.6,430.8z"/>
		<path fill="#A757C2" d="M421.6,431.7c0.3-0.3,0.7-0.7,1-1C422.3,431,422,431.4,421.6,431.7z"/>
		<path fill="#A757C2" d="M420.7,432.6c0.3-0.3,0.7-0.7,1-1C421.4,432,421,432.3,420.7,432.6z"/>
		<path fill="#A757C2" d="M419.8,433.6c0.3-0.3,0.7-0.7,1-1C420.4,432.9,420.1,433.2,419.8,433.6z"/>
		<path fill="#AE66C6" d="M456.3,432.7c0.3,0.3,0.6,0.6,1,0.9C457,433.3,456.6,433,456.3,432.7z"/>
		<path fill="#A757C2" d="M418.8,434.5c0.3-0.3,0.7-0.7,1-1C419.5,433.8,419.2,434.2,418.8,434.5z"/>
		<path fill="#AE66C6" d="M457.3,433.6c0.3,0.3,0.6,0.6,0.9,1C457.9,434.2,457.6,433.9,457.3,433.6z"/>
		<path fill="#A757C2" d="M417.8,435.4c0.4-0.3,0.7-0.7,1.1-1C418.5,434.8,418.2,435.1,417.8,435.4z"/>
		<path fill="#AE66C6" d="M458.2,434.5c0.3,0.3,0.6,0.6,0.9,1C458.8,435.2,458.5,434.8,458.2,434.5z"/>
		<path fill="#AE66C6" d="M459.1,435.5c0.3,0.3,0.6,0.6,0.9,0.9C459.7,436.1,459.4,435.8,459.1,435.5z"/>
		<path fill="#AE66C6" d="M460.1,436.4c0.3,0.3,0.6,0.6,0.9,0.9C460.7,437,460.4,436.7,460.1,436.4z"/>
		<path fill="#AE66C6" d="M461,437.4c0.3,0.3,0.6,0.6,0.9,0.9C461.6,438,461.3,437.7,461,437.4z"/>
		<path fill="#AE66C6" d="M461.9,438.3c0.3,0.3,0.6,0.6,0.9,0.9C462.6,438.9,462.2,438.6,461.9,438.3z"/>
		<path fill="#AE66C6" d="M462.9,439.2c0.3,0.3,0.6,0.6,0.9,0.9C463.5,439.8,463.2,439.5,462.9,439.2z"/>
		<path fill="#AE66C6" d="M463.8,440.2c0.3,0.3,0.6,0.6,0.9,0.9C464.4,440.8,464.1,440.5,463.8,440.2z"/>
		<path fill="#A65FC0" d="M287.8,627.3c1,0.6,2,1.7,3,1.7c5.6,0.2,11.1,0,16.7,0.1c2.1,0,3.4-0.3,2.7-2.8c2.3,2.4,1.4,3.6-1.6,3.7
			c-6.4,0.1-12.7,0.1-19.1,0C287.5,630.1,286.2,629.5,287.8,627.3z"/>
		<path fill="#A65FC0" d="M289.7,623.5c-0.6,1-1.2,2-1.8,3C288.5,625.5,289.1,624.5,289.7,623.5z"/>
		<path fill="#AE66C6" d="M421.8,742.3c7.6,0,15.3,0,23.4,0c-0.7-1.8-1.2-3.2-1.7-4.6c0.8,1.5,1.5,3,2.3,4.5
			c-1.2,0.4-2.5,1.1-3.7,1.1c-6.7,0.1-13.4,0-20,0c-0.1,0-0.3-0.1-0.4-0.2C421.7,742.9,421.8,742.6,421.8,742.3z"/>
		<path fill="#AE66C6" d="M422.7,738.7c-0.3,1-0.6,1.9-0.9,2.9C422,740.6,422.3,739.6,422.7,738.7z"/>
		<path fill="#AE66C6" d="M442.3,735.9c-0.4-0.3-0.7-0.7-1.1-1C441.6,735.3,441.9,735.6,442.3,735.9z"/>
		<path fill="#AE66C6" d="M443.2,737c-0.3-0.4-0.7-0.7-1-1.1C442.5,736.2,442.9,736.6,443.2,737z"/>
		<path fill="#A55CBE" d="M535.2,627.3c0.4,0.6,0.9,1.7,1.3,1.7c6.8,0.1,13.5,0.1,20.3,0c0.4,0,0.9-1.1,1.3-1.7
			c1.7,1.7,1.2,2.7-1,2.7c-6.9,0.1-13.9,0.1-20.8,0C534.1,630,533.5,629.1,535.2,627.3z"/>
		<path fill="#AE66C6" d="M264.9,739.7c-0.9,2.5,0.6,2.8,2.6,2.8c6.8-0.1,13.6-0.1,20.4-0.1c0.1,0.1,0.1,0.3,0.2,0.4
			c-7.6,0.2-15.2,0.6-22.8,0.4C263,743.1,263,741.1,264.9,739.7z"/>
		<path fill="#AE66C6" d="M287.9,741.6c-0.5-1-0.9-1.9-1.4-2.9C286.9,739.7,287.4,740.7,287.9,741.6z"/>
		<path fill="#AE66C6" d="M180.2,736.8c-1,1.6-2,3.2-3.4,5.6c7.8,0,14.7,0,21.6-0.1c0.5,0,1.1-1.1,1.6-1.7c-0.4,0.9-0.7,2.7-1.1,2.7
			c-7.3,0.2-14.5,0.1-21.9,0.1C176.5,739.9,176,737.1,180.2,736.8z"/>
		<path fill="#AE66C6" d="M192.4,732.9c-2.5,0.1-5,0.2-7.4,0.2C187.5,733.1,189.9,733,192.4,732.9z"/>
		<path fill="#AE66C6" d="M196.2,735c-1-0.6-2-1.2-2.9-1.9C194.2,733.7,195.2,734.3,196.2,735z"/>
		<path fill="#AE66C6" d="M198.9,738c-0.6-0.7-1.2-1.5-1.8-2.2C197.7,736.6,198.3,737.3,198.9,738z"/>
		<path fill="#AE66C6" d="M185.1,733.1c-0.4,0.2-0.7,0.5-1.1,0.7C184.4,733.6,184.7,733.4,185.1,733.1z"/>
		<path fill="#AE66C6" d="M183.2,734c-0.4,0.3-0.8,0.6-1.1,0.9C182.5,734.6,182.9,734.3,183.2,734z"/>
		<path fill="#AE66C6" d="M181.7,735c-0.4,0.4-0.9,0.9-1.3,1.3C180.8,735.8,181.2,735.4,181.7,735z"/>
		<path fill="#AE66C6" d="M197.1,735.8c-0.3-0.3-0.7-0.6-1-0.9C196.5,735.2,196.8,735.5,197.1,735.8z"/>
	</g>
</g>
</svg>
