<?xml version="1.0" encoding="UTF-8"?>
<svg version="1.1" xmlns="http://www.w3.org/2000/svg" width="654" height="793">
<path d="M0 0 C1.59536475 -0.00373921 3.19072766 -0.00834181 4.78608769 -0.01373065 C9.15920632 -0.02594241 13.53224835 -0.02570233 17.90538013 -0.02334189 C22.62602403 -0.02293327 27.34664352 -0.03397717 32.067276 -0.04345703 C41.31158323 -0.06005764 50.55586495 -0.06556614 59.80018584 -0.06668179 C67.31516041 -0.06763264 74.83012658 -0.07174478 82.3450985 -0.07808304 C103.65773877 -0.09569232 124.97035892 -0.10492231 146.28300653 -0.10342209 C148.00583768 -0.10330222 148.00583768 -0.10330222 149.76347351 -0.10317993 C150.913432 -0.10309817 152.06339049 -0.10301641 153.24819621 -0.10293217 C171.88652015 -0.1021192 190.52476329 -0.12126053 209.16306386 -0.14945666 C228.30691609 -0.17818881 247.45072891 -0.1919968 266.59460324 -0.19026911 C277.33998254 -0.18960536 288.08527711 -0.19509128 298.83063698 -0.21662521 C307.9788847 -0.23484125 317.12700927 -0.23918078 326.27526728 -0.22560637 C330.94096076 -0.21907909 335.60641803 -0.21895091 340.272089 -0.23631287 C344.54758363 -0.25205902 348.82265503 -0.2491643 353.09813943 -0.2317446 C354.6404834 -0.22867812 356.18285908 -0.23229381 357.72516564 -0.24346475 C373.949838 -0.35314834 385.10977786 4.03755362 396.7844696 15.29135132 C398.75663147 17.25126385 400.70782658 19.23122661 402.6582489 21.21273804 C403.71131176 22.27141219 404.76505084 23.32941409 405.81942749 24.38677979 C408.57160473 27.15031506 411.31465494 29.92273372 414.05577087 32.69723511 C416.84680934 35.51905821 419.64643138 38.33233678 422.44535828 41.14633179 C427.36279444 46.092344 432.27274677 51.04567706 437.17724609 56.0045166 C438.66617577 57.50684856 440.1788899 58.98599337 441.71481323 60.44024658 C443.41996765 62.26742554 443.41996765 62.26742554 443.41996765 64.26742554 C443.99746765 64.49430054 444.57496765 64.72117554 445.16996765 64.95492554 C447.98424378 66.59658661 449.44734498 68.70301606 451.41996765 71.26742554 C452.07996765 71.59742554 452.73996765 71.92742554 453.41996765 72.26742554 C453.41996765 72.92742554 453.41996765 73.58742554 453.41996765 74.26742554 C454.07996765 74.26742554 454.73996765 74.26742554 455.41996765 74.26742554 C456.84706688 75.71620274 456.84706688 75.71620274 458.5125885 77.73191833 C462.43427689 82.33966355 466.63366979 86.58699863 470.93803406 90.83554077 C471.76007828 91.65130585 472.5821225 92.46707092 473.42907715 93.30755615 C475.20131859 95.06602474 476.97462816 96.82341738 478.74890518 98.57983208 C481.56033863 101.36445771 484.36742339 104.1534192 487.17274475 106.94419861 C488.13801048 107.90432221 489.10328344 108.86443854 490.06856346 109.82454777 C490.55153413 110.30493287 491.03450479 110.78531798 491.53211093 111.28026021 C498.05192545 117.76418303 504.57654506 124.2432142 511.1113739 130.71200562 C515.53722432 135.09322149 519.9557997 139.48163754 524.36641634 143.87819058 C526.69346118 146.19720597 529.02511871 148.51125443 531.36362076 150.81872368 C533.97199726 153.39323615 536.56757808 155.98004181 539.16069031 158.56991577 C539.92652939 159.3198027 540.69236847 160.06968964 541.48141479 160.84230042 C550.97829913 170.39325461 554.59991654 180.0207574 554.68776593 193.44273701 C554.68336944 194.29136047 554.67897296 195.13998392 554.67444324 196.01432323 C554.67925296 197.41273315 554.67925296 197.41273315 554.68415985 198.83939376 C554.69243454 201.95073711 554.68654438 205.06188668 554.68066406 208.17323303 C554.6836859 210.43156508 554.68757555 212.6898961 554.69225663 214.94822532 C554.70254129 221.14475271 554.70035358 227.34122227 554.69607604 233.53775442 C554.69386307 239.53731677 554.70102057 245.53686353 554.70783629 251.53642062 C554.72306521 265.32034081 554.72478245 279.1042426 554.72231326 292.88816943 C554.7204794 303.53473517 554.72224218 314.18129489 554.7265377 324.82785988 C554.72714011 326.35837727 554.72774131 327.88889466 554.72834131 329.41941205 C554.72924858 331.7258788 554.73015725 334.03234554 554.73107366 336.33881229 C554.73950175 357.78005497 554.74383994 379.22129538 554.73966694 400.66253948 C554.73951056 401.47060847 554.73935419 402.27867745 554.73919307 403.11123338 C554.73838731 407.20667469 554.73754154 411.30211598 554.73667977 415.39755728 C554.73650868 416.21089686 554.73633759 417.02423644 554.73616132 417.86222267 C554.73581467 419.50699304 554.73546614 421.1517634 554.73511574 422.79653376 C554.72975993 448.3824664 554.73768553 473.96836456 554.75614929 499.55429077 C554.77687901 528.31377901 554.78759006 557.0732459 554.78357381 585.83274204 C554.78317847 588.90113214 554.78281692 591.96952225 554.78247643 595.03791237 C554.78238569 595.79340248 554.78229496 596.5488926 554.78220148 597.32727635 C554.78103689 608.71811376 554.78767337 620.10892957 554.79828835 631.49976158 C554.81035386 644.46021746 554.81188384 657.42062584 554.79949818 670.38108244 C554.79346318 676.99147945 554.79250915 683.60180376 554.80450058 690.21220016 C554.81536004 696.26907967 554.81225501 702.32578894 554.7982389 708.38266049 C554.79559215 710.56834742 554.79795775 712.75404771 554.80597476 714.93972155 C554.85576561 729.53250419 554.89745693 744.3745961 547.79496765 757.57992554 C547.27664368 758.57572632 547.27664368 758.57572632 546.74784851 759.59164429 C543.47108604 765.62975644 539.38600059 770.52324287 534.41996765 775.26742554 C533.71098328 775.98414429 533.0019989 776.70086304 532.27153015 777.43930054 C520.05973498 789.16615078 504.2153522 793.4326392 487.66970158 793.40164661 C486.80872438 793.40399884 485.94774718 793.40635107 485.06067976 793.40877458 C482.17384292 793.41543487 479.28705139 793.41500726 476.40020752 793.41459656 C474.31016994 793.41789703 472.22013299 793.42162298 470.13009685 793.42573804 C464.38480167 793.43574523 458.63951693 793.43947277 452.89421427 793.44212735 C446.69833154 793.44603417 440.50245705 793.45561221 434.30657959 793.46434021 C420.05022973 793.48315981 405.79388177 793.49335884 391.53752278 793.50180089 C384.48870269 793.50601075 377.43988345 793.51123229 370.39106407 793.51648542 C346.25041706 793.53437393 322.10976981 793.54936871 297.96911716 793.55680561 C296.45419224 793.55728036 294.93926731 793.55775625 293.42434239 793.55823327 C292.29747218 793.55858784 292.29747218 793.55858784 291.14783692 793.55894956 C287.34181864 793.56015073 283.53580037 793.56136619 279.7297821 793.56259155 C278.97447437 793.5628317 278.21916663 793.56307185 277.44097077 793.56331928 C252.96064618 793.57120948 228.48037008 793.59463641 204.00006666 793.6271475 C178.10318684 793.66147692 152.20633539 793.68115963 126.30943245 793.68444985 C123.46425274 793.68486737 120.61907305 793.68534693 117.77389336 793.68587303 C117.07335718 793.68599622 116.37282101 793.68611941 115.65105647 793.68624634 C104.39708583 793.68857448 93.14317169 793.70421278 81.88922116 793.72471488 C70.56784017 793.74501191 59.24654613 793.75009953 47.92514337 793.74094424 C41.79661187 793.73640322 35.66826314 793.73827467 29.53975677 793.75770569 C23.92182757 793.77536362 18.30421412 793.77431802 12.68628144 793.7588084 C10.66131649 793.75643636 8.63632952 793.7607347 6.61139817 793.77263705 C-14.34575757 793.88812322 -32.67496918 790.45381371 -48.4679718 775.52474976 C-60.12927905 763.98305571 -66.76161797 749.25555439 -66.84783062 732.82986638 C-66.8412359 731.20801601 -66.8412359 731.20801601 -66.83450794 729.55340099 C-66.83771442 728.38417633 -66.8409209 727.21495167 -66.84422454 726.01029596 C-66.85108967 722.76827941 -66.84902527 719.52641121 -66.84316882 716.28439725 C-66.83899366 712.75597229 -66.84640322 709.22756832 -66.85232133 705.69914848 C-66.86108318 699.51614405 -66.86239549 693.33317274 -66.85881805 687.15016365 C-66.85351224 677.95568496 -66.85960514 668.76123834 -66.86790099 659.56676314 C-66.88314801 642.19019041 -66.88484532 624.81363225 -66.88237796 607.43705424 C-66.88054583 594.01914391 -66.88230322 580.60123836 -66.8866024 567.18332863 C-66.8872048 565.25609224 -66.887806 563.32885586 -66.888406 561.40161947 C-66.88931325 558.49750994 -66.89022192 555.59340041 -66.89113836 552.68929089 C-66.89956902 525.68518513 -66.9039028 498.68108118 -66.89973164 471.6769743 C-66.89949707 470.14969651 -66.89949707 470.14969651 -66.89925777 468.59156464 C-66.89845198 463.43091638 -66.89760621 458.27026813 -66.89674447 453.10961988 C-66.89657338 452.08468634 -66.89640229 451.0597528 -66.89622602 450.00376066 C-66.89587936 447.93109561 -66.89553083 445.85843055 -66.89518043 443.7857655 C-66.88982304 411.53395452 -66.89775371 379.28217087 -66.91621399 347.03036499 C-66.93692692 310.80048724 -66.94765804 274.57062642 -66.9436385 238.34074241 C-66.94324315 234.47815152 -66.94288161 230.61556063 -66.94254112 226.75296974 C-66.94245039 225.80189272 -66.94235966 224.85081569 -66.94226618 223.87091815 C-66.94109988 209.50924662 -66.947751 195.14759217 -66.95835304 180.78592491 C-66.97039754 164.45355389 -66.97197266 148.12122054 -66.95956288 131.78884896 C-66.95292869 122.64844341 -66.95457823 113.5081279 -66.96815139 104.36772953 C-66.97638831 98.26123265 -66.9737082 92.1548033 -66.96217612 86.04831192 C-66.95591218 82.56967419 -66.95433818 79.09121232 -66.96603946 75.61258467 C-66.97612227 71.86121676 -66.96774252 68.11032236 -66.95476246 64.3589735 C-66.9620718 63.28476342 -66.96938115 62.21055335 -66.97691199 61.10379145 C-66.86378995 45.34952933 -60.81979206 30.72484226 -49.80659485 19.43539429 C-49.07182922 18.7199646 -48.3370636 18.00453491 -47.58003235 17.26742554 C-46.69444641 16.33349976 -46.69444641 16.33349976 -45.79096985 15.38070679 C-41.57630222 11.24958984 -36.79943516 8.60389988 -31.58003235 5.95492554 C-30.91544006 5.61703003 -30.25084778 5.27913452 -29.56611633 4.93099976 C-19.82185849 0.19961457 -10.6420708 -0.02363098 0 0 Z " fill="#F6FAFE" transform="translate(84.58003234863281,-0.267425537109375)"/>
<path d="M0 0 C1.59536475 -0.00373921 3.19072766 -0.00834181 4.78608769 -0.01373065 C9.15920632 -0.02594241 13.53224835 -0.02570233 17.90538013 -0.02334189 C22.62602403 -0.02293327 27.34664352 -0.03397717 32.067276 -0.04345703 C41.31158323 -0.06005764 50.55586495 -0.06556614 59.80018584 -0.06668179 C67.31516041 -0.06763264 74.83012658 -0.07174478 82.3450985 -0.07808304 C103.65773877 -0.09569232 124.97035892 -0.10492231 146.28300653 -0.10342209 C148.00583768 -0.10330222 148.00583768 -0.10330222 149.76347351 -0.10317993 C150.913432 -0.10309817 152.06339049 -0.10301641 153.24819621 -0.10293217 C171.88652015 -0.1021192 190.52476329 -0.12126053 209.16306386 -0.14945666 C228.30691609 -0.17818881 247.45072891 -0.1919968 266.59460324 -0.19026911 C277.33998254 -0.18960536 288.08527711 -0.19509128 298.83063698 -0.21662521 C307.9788847 -0.23484125 317.12700927 -0.23918078 326.27526728 -0.22560637 C330.94096076 -0.21907909 335.60641803 -0.21895091 340.272089 -0.23631287 C344.54758363 -0.25205902 348.82265503 -0.2491643 353.09813943 -0.2317446 C354.6404834 -0.22867812 356.18285908 -0.23229381 357.72516564 -0.24346475 C373.949838 -0.35314834 385.10977786 4.03755362 396.7844696 15.29135132 C398.75663147 17.25126385 400.70782658 19.23122661 402.6582489 21.21273804 C403.71131176 22.27141219 404.76505084 23.32941409 405.81942749 24.38677979 C408.57160473 27.15031506 411.31465494 29.92273372 414.05577087 32.69723511 C416.84680934 35.51905821 419.64643138 38.33233678 422.44535828 41.14633179 C427.36279444 46.092344 432.27274677 51.04567706 437.17724609 56.0045166 C438.66617577 57.50684856 440.1788899 58.98599337 441.71481323 60.44024658 C443.41996765 62.26742554 443.41996765 62.26742554 443.41996765 64.26742554 C443.99746765 64.49430054 444.57496765 64.72117554 445.16996765 64.95492554 C447.98424378 66.59658661 449.44734498 68.70301606 451.41996765 71.26742554 C452.07996765 71.59742554 452.73996765 71.92742554 453.41996765 72.26742554 C453.41996765 72.92742554 453.41996765 73.58742554 453.41996765 74.26742554 C454.07996765 74.26742554 454.73996765 74.26742554 455.41996765 74.26742554 C456.84706688 75.71620274 456.84706688 75.71620274 458.5125885 77.73191833 C462.43427689 82.33966355 466.63366979 86.58699863 470.93803406 90.83554077 C471.76007828 91.65130585 472.5821225 92.46707092 473.42907715 93.30755615 C475.20131859 95.06602474 476.97462816 96.82341738 478.74890518 98.57983208 C481.56033863 101.36445771 484.36742339 104.1534192 487.17274475 106.94419861 C488.13801048 107.90432221 489.10328344 108.86443854 490.06856346 109.82454777 C490.55153413 110.30493287 491.03450479 110.78531798 491.53211093 111.28026021 C498.05192545 117.76418303 504.57654506 124.2432142 511.1113739 130.71200562 C515.53722432 135.09322149 519.9557997 139.48163754 524.36641634 143.87819058 C526.69346118 146.19720597 529.02511871 148.51125443 531.36362076 150.81872368 C533.97199726 153.39323615 536.56757808 155.98004181 539.16069031 158.56991577 C539.92652939 159.3198027 540.69236847 160.06968964 541.48141479 160.84230042 C550.97829913 170.39325461 554.59991654 180.0207574 554.68776593 193.44273701 C554.68336944 194.29136047 554.67897296 195.13998392 554.67444324 196.01432323 C554.67925296 197.41273315 554.67925296 197.41273315 554.68415985 198.83939376 C554.69243454 201.95073711 554.68654438 205.06188668 554.68066406 208.17323303 C554.6836859 210.43156508 554.68757555 212.6898961 554.69225663 214.94822532 C554.70254129 221.14475271 554.70035358 227.34122227 554.69607604 233.53775442 C554.69386307 239.53731677 554.70102057 245.53686353 554.70783629 251.53642062 C554.72306521 265.32034081 554.72478245 279.1042426 554.72231326 292.88816943 C554.7204794 303.53473517 554.72224218 314.18129489 554.7265377 324.82785988 C554.72714011 326.35837727 554.72774131 327.88889466 554.72834131 329.41941205 C554.72924858 331.7258788 554.73015725 334.03234554 554.73107366 336.33881229 C554.73950175 357.78005497 554.74383994 379.22129538 554.73966694 400.66253948 C554.73951056 401.47060847 554.73935419 402.27867745 554.73919307 403.11123338 C554.73838731 407.20667469 554.73754154 411.30211598 554.73667977 415.39755728 C554.73650868 416.21089686 554.73633759 417.02423644 554.73616132 417.86222267 C554.73581467 419.50699304 554.73546614 421.1517634 554.73511574 422.79653376 C554.72975993 448.3824664 554.73768553 473.96836456 554.75614929 499.55429077 C554.77687901 528.31377901 554.78759006 557.0732459 554.78357381 585.83274204 C554.78317847 588.90113214 554.78281692 591.96952225 554.78247643 595.03791237 C554.78238569 595.79340248 554.78229496 596.5488926 554.78220148 597.32727635 C554.78103689 608.71811376 554.78767337 620.10892957 554.79828835 631.49976158 C554.81035386 644.46021746 554.81188384 657.42062584 554.79949818 670.38108244 C554.79346318 676.99147945 554.79250915 683.60180376 554.80450058 690.21220016 C554.81536004 696.26907967 554.81225501 702.32578894 554.7982389 708.38266049 C554.79559215 710.56834742 554.79795775 712.75404771 554.80597476 714.93972155 C554.85576561 729.53250419 554.89745693 744.3745961 547.79496765 757.57992554 C547.27664368 758.57572632 547.27664368 758.57572632 546.74784851 759.59164429 C543.47108604 765.62975644 539.38600059 770.52324287 534.41996765 775.26742554 C533.71098328 775.98414429 533.0019989 776.70086304 532.27153015 777.43930054 C520.05973498 789.16615078 504.2153522 793.4326392 487.66970158 793.40164661 C486.80872438 793.40399884 485.94774718 793.40635107 485.06067976 793.40877458 C482.17384292 793.41543487 479.28705139 793.41500726 476.40020752 793.41459656 C474.31016994 793.41789703 472.22013299 793.42162298 470.13009685 793.42573804 C464.38480167 793.43574523 458.63951693 793.43947277 452.89421427 793.44212735 C446.69833154 793.44603417 440.50245705 793.45561221 434.30657959 793.46434021 C420.05022973 793.48315981 405.79388177 793.49335884 391.53752278 793.50180089 C384.48870269 793.50601075 377.43988345 793.51123229 370.39106407 793.51648542 C346.25041706 793.53437393 322.10976981 793.54936871 297.96911716 793.55680561 C296.45419224 793.55728036 294.93926731 793.55775625 293.42434239 793.55823327 C292.29747218 793.55858784 292.29747218 793.55858784 291.14783692 793.55894956 C287.34181864 793.56015073 283.53580037 793.56136619 279.7297821 793.56259155 C278.97447437 793.5628317 278.21916663 793.56307185 277.44097077 793.56331928 C252.96064618 793.57120948 228.48037008 793.59463641 204.00006666 793.6271475 C178.10318684 793.66147692 152.20633539 793.68115963 126.30943245 793.68444985 C123.46425274 793.68486737 120.61907305 793.68534693 117.77389336 793.68587303 C117.07335718 793.68599622 116.37282101 793.68611941 115.65105647 793.68624634 C104.39708583 793.68857448 93.14317169 793.70421278 81.88922116 793.72471488 C70.56784017 793.74501191 59.24654613 793.75009953 47.92514337 793.74094424 C41.79661187 793.73640322 35.66826314 793.73827467 29.53975677 793.75770569 C23.92182757 793.77536362 18.30421412 793.77431802 12.68628144 793.7588084 C10.66131649 793.75643636 8.63632952 793.7607347 6.61139817 793.77263705 C-14.34575757 793.88812322 -32.67496918 790.45381371 -48.4679718 775.52474976 C-60.12927905 763.98305571 -66.76161797 749.25555439 -66.84783062 732.82986638 C-66.8412359 731.20801601 -66.8412359 731.20801601 -66.83450794 729.55340099 C-66.83771442 728.38417633 -66.8409209 727.21495167 -66.84422454 726.01029596 C-66.85108967 722.76827941 -66.84902527 719.52641121 -66.84316882 716.28439725 C-66.83899366 712.75597229 -66.84640322 709.22756832 -66.85232133 705.69914848 C-66.86108318 699.51614405 -66.86239549 693.33317274 -66.85881805 687.15016365 C-66.85351224 677.95568496 -66.85960514 668.76123834 -66.86790099 659.56676314 C-66.88314801 642.19019041 -66.88484532 624.81363225 -66.88237796 607.43705424 C-66.88054583 594.01914391 -66.88230322 580.60123836 -66.8866024 567.18332863 C-66.8872048 565.25609224 -66.887806 563.32885586 -66.888406 561.40161947 C-66.88931325 558.49750994 -66.89022192 555.59340041 -66.89113836 552.68929089 C-66.89956902 525.68518513 -66.9039028 498.68108118 -66.89973164 471.6769743 C-66.89949707 470.14969651 -66.89949707 470.14969651 -66.89925777 468.59156464 C-66.89845198 463.43091638 -66.89760621 458.27026813 -66.89674447 453.10961988 C-66.89657338 452.08468634 -66.89640229 451.0597528 -66.89622602 450.00376066 C-66.89587936 447.93109561 -66.89553083 445.85843055 -66.89518043 443.7857655 C-66.88982304 411.53395452 -66.89775371 379.28217087 -66.91621399 347.03036499 C-66.93692692 310.80048724 -66.94765804 274.57062642 -66.9436385 238.34074241 C-66.94324315 234.47815152 -66.94288161 230.61556063 -66.94254112 226.75296974 C-66.94245039 225.80189272 -66.94235966 224.85081569 -66.94226618 223.87091815 C-66.94109988 209.50924662 -66.947751 195.14759217 -66.95835304 180.78592491 C-66.97039754 164.45355389 -66.97197266 148.12122054 -66.95956288 131.78884896 C-66.95292869 122.64844341 -66.95457823 113.5081279 -66.96815139 104.36772953 C-66.97638831 98.26123265 -66.9737082 92.1548033 -66.96217612 86.04831192 C-66.95591218 82.56967419 -66.95433818 79.09121232 -66.96603946 75.61258467 C-66.97612227 71.86121676 -66.96774252 68.11032236 -66.95476246 64.3589735 C-66.9620718 63.28476342 -66.96938115 62.21055335 -66.97691199 61.10379145 C-66.86378995 45.34952933 -60.81979206 30.72484226 -49.80659485 19.43539429 C-49.07182922 18.7199646 -48.3370636 18.00453491 -47.58003235 17.26742554 C-46.69444641 16.33349976 -46.69444641 16.33349976 -45.79096985 15.38070679 C-41.57630222 11.24958984 -36.79943516 8.60389988 -31.58003235 5.95492554 C-30.91544006 5.61703003 -30.25084778 5.27913452 -29.56611633 4.93099976 C-19.82185849 0.19961457 -10.6420708 -0.02363098 0 0 Z M-29.58003235 40.26742554 C-33.65643008 45.81708657 -35.70218887 50.2320854 -35.70998418 57.17060101 C-35.7135126 58.16465238 -35.71704102 59.15870376 -35.72067636 60.1828779 C-35.71947859 61.27490538 -35.71828081 62.36693286 -35.71704674 63.49205208 C-35.71969856 64.65696096 -35.72235039 65.82186984 -35.72508258 67.02207899 C-35.73144519 70.27059194 -35.73331185 73.51907235 -35.73330535 76.76759041 C-35.73437404 80.29613062 -35.7411638 83.82466053 -35.74721205 87.35319507 C-35.7582916 94.35841869 -35.76393726 101.36363729 -35.76792093 108.36886812 C-35.77292818 116.75699146 -35.78365537 125.14510506 -35.79440266 133.53322265 C-35.82003836 153.80884016 -35.83506898 174.08446144 -35.84791313 194.3600905 C-35.85216713 201.0746888 -35.85673284 207.78928683 -35.86149645 214.50388479 C-35.88675479 250.19630852 -35.90880564 285.8887327 -35.92122459 321.58116341 C-35.92414598 329.85158413 -35.92711349 338.12200484 -35.93013 346.39242554 C-35.93050091 347.41993302 -35.93087182 348.4474405 -35.93125397 349.50608457 C-35.94341198 382.82722714 -35.97436016 416.14831692 -36.01605153 449.46943469 C-36.05882471 483.71756222 -36.08546372 517.96566187 -36.09069931 552.21381684 C-36.09143977 557.04954609 -36.09235046 561.88527529 -36.09335709 566.72100449 C-36.0935477 567.67273494 -36.09373832 568.62446539 -36.09393471 569.60503615 C-36.09745019 584.93024082 -36.11775682 600.25537943 -36.14415372 615.58055983 C-36.17028035 630.98087593 -36.17803339 646.3811156 -36.16705243 661.7814507 C-36.16106987 670.93322194 -36.16901746 680.08473415 -36.19688327 689.23646626 C-36.21412053 695.34939332 -36.21319871 701.46214351 -36.19751558 707.5750743 C-36.1890955 711.05837446 -36.18854994 714.54117994 -36.21012704 718.02443446 C-36.22917438 721.77931742 -36.21748108 725.53289953 -36.1980648 729.28775215 C-36.21091402 730.36573263 -36.22376325 731.44371312 -36.23700184 732.55435967 C-36.13332552 741.65726764 -33.35403037 748.51791002 -27.14253235 755.20492554 C-20.14279519 761.65804548 -13.17882071 762.41902485 -3.99383926 762.3988533 C-3.12631908 762.40090594 -2.2587989 762.40295857 -1.36499023 762.4050734 C1.55608004 762.4107497 4.47710327 762.40928537 7.3981781 762.40786743 C9.50797748 762.4104507 11.61777637 762.41346375 13.72757459 762.41687083 C19.53651055 762.42494848 25.34543416 762.42673083 31.15437508 762.4274683 C37.41491656 762.42931751 43.67545161 762.43686413 49.93598938 762.44360352 C64.34425212 762.4579011 78.75251082 762.46371389 93.16077914 762.46829546 C100.28056416 762.47063149 107.40034837 762.47423413 114.52013276 762.47799084 C138.89136965 762.49082563 163.26260609 762.50154527 187.63384628 762.50499344 C189.16362133 762.50521507 190.69339638 762.50543686 192.22317143 762.50565879 C193.75663985 762.50587943 195.29010827 762.50609991 196.82357669 762.50632024 C199.89997784 762.50676279 202.976379 762.50720991 206.05278015 762.50765991 C206.81554835 762.5077693 207.57831654 762.50787869 208.36419893 762.5079914 C233.1008156 762.51162259 257.83740298 762.52754534 282.57400843 762.55085028 C308.72655718 762.57544417 334.87908918 762.58916606 361.03164983 762.59036136 C363.90229241 762.59053281 366.77293499 762.59074824 369.64357758 762.59099579 C370.35041131 762.59105156 371.05724505 762.59110733 371.78549799 762.59116478 C383.16182718 762.59231556 394.53812631 762.60333972 405.91444534 762.61788284 C417.34796134 762.63224641 428.78142792 762.63523302 440.21495435 762.62744287 C446.40940699 762.62353011 452.60375844 762.6244966 458.7981987 762.63850021 C464.46822526 762.65120126 470.13807419 762.65007496 475.80810037 762.6379095 C477.85991612 762.63594593 479.91174428 762.63906126 481.96354255 762.64775386 C484.75271402 762.6588228 487.54125599 762.6513742 490.33041 762.63936234 C491.12676251 762.64695753 491.92311502 762.65455272 492.74359941 762.66237807 C500.66121261 762.58878043 507.6986244 760.64558899 513.66996765 755.26742554 C514.4588739 754.58680054 515.24778015 753.90617554 516.06059265 753.20492554 C524.80826007 742.31378994 524.11864759 730.96317959 524.02124023 717.67192078 C524.02342211 715.45978064 524.02780275 713.24764177 524.03418607 711.03550977 C524.04534609 704.97175575 524.02539381 698.90844478 524.00029576 692.84474719 C523.98090219 686.97279771 523.98510083 681.10089636 523.98870497 675.22892291 C523.99526335 663.22247995 523.97860988 651.21617494 523.94861794 639.20977211 C523.91900866 627.32603586 523.89978334 615.44235709 523.89435387 603.55858421 C523.89401017 602.81903117 523.89366647 602.07947812 523.89331236 601.31751438 C523.89162064 597.561529 523.89011374 593.80554356 523.88867798 590.04955807 C523.87818257 563.46239213 523.84451439 536.87530119 523.79716492 510.28817749 C523.75122555 484.46298623 523.71581592 458.6378155 523.69462585 432.81259155 C523.69396822 432.01621248 523.69331059 431.21983341 523.69263303 430.39932165 C523.6860403 422.40158206 523.67966125 414.40384231 523.67343874 406.40610242 C523.66075848 390.11452963 523.64665222 373.82295817 523.63168335 357.53138733 C523.63065367 356.40785599 523.63065367 356.40785599 523.6296032 355.26162704 C523.58361837 305.26352805 523.50429037 255.26547293 523.41996765 205.26742554 C522.76104397 205.26503718 522.10212029 205.26264883 521.42322922 205.2601881 C505.34604971 205.20089865 489.26904118 205.12526023 473.19202805 205.03171062 C465.4171103 204.98685861 457.64223728 204.94741991 449.86723328 204.92098999 C443.08584135 204.89792367 436.30459223 204.86443037 429.52331376 204.81872398 C425.93692084 204.79490735 422.35066833 204.77610328 418.7641983 204.76981163 C414.74788504 204.76256964 410.73205662 204.73203539 406.71586609 204.69979858 C404.95718704 204.70195122 404.95718704 204.70195122 403.16297913 204.70414734 C387.63448001 204.52879627 376.02240461 200.27587794 364.7129364 189.65023804 C358.36984051 183.05860517 355.18114786 175.90496361 352.41996765 167.26742554 C352.08996765 166.27742554 351.75996765 165.28742554 351.41996765 164.26742554 C351.3178672 162.46622665 351.27365158 160.66151872 351.26174927 158.85746765 C351.24706604 157.17265793 351.24706604 157.17265793 351.23208618 155.45381165 C351.22633072 154.22094925 351.22057526 152.98808685 351.21464539 151.71786499 C351.20474579 150.42020203 351.19484619 149.12253906 351.18464661 147.78555298 C351.15760189 144.22594652 351.13658999 140.6663268 351.11664462 137.10667443 C351.0947824 133.38705544 351.06739486 129.66747729 351.04058838 125.94789124 C350.99066469 118.90377758 350.94572466 111.85964127 350.90256602 104.81548327 C350.85319088 96.79619233 350.79827377 88.77694235 350.74288642 80.75769103 C350.62907134 64.26097363 350.52223126 47.76421867 350.41996765 31.26742554 C304.2187577 31.17586406 258.01755736 31.10538378 211.81627456 31.06316422 C206.3614182 31.05816141 200.90656202 31.05298412 195.45170593 31.04769897 C194.36574526 31.04664973 193.27978459 31.04560049 192.16091602 31.04451945 C174.57869192 31.02711566 156.99652015 30.99557809 139.4143271 30.95881435 C121.37250409 30.92140426 103.33070848 30.89918953 85.28884828 30.89107156 C74.15663165 30.88558394 63.02456294 30.86825357 51.89239185 30.83575967 C44.25797061 30.81461097 36.62362582 30.80822632 28.98917742 30.81342003 C24.5849076 30.81598124 20.1808962 30.81206332 15.77667236 30.79060364 C11.74085649 30.77108298 7.70547189 30.77019105 3.66963582 30.78382996 C2.21320041 30.78551466 0.75673767 30.78048709 -0.69964425 30.76789281 C-11.91856847 30.67655305 -21.48579376 31.98494884 -29.58003235 40.26742554 Z " fill="#2B6AB3" transform="translate(84.58003234863281,-0.267425537109375)"/>
<path d="M0 0 C0.73396839 -0.00551417 1.46793678 -0.01102833 2.22414663 -0.0167096 C4.67916677 -0.03028563 7.13317106 -0.01541853 9.58817196 -0.00063419 C11.36773067 -0.00452774 13.14728627 -0.01016862 14.92683452 -0.01740509 C19.81362442 -0.03216979 24.70009242 -0.02197243 29.58687198 -0.00766838 C34.85823111 0.00343163 40.12954473 -0.00849794 45.40090084 -0.01751041 C55.72589364 -0.03145119 66.05076422 -0.02388062 76.3757512 -0.00883483 C88.39562324 0.00801494 100.41546474 0.00481633 112.43534493 0.00107109 C133.87888503 -0.00480896 155.32236644 0.00937014 176.76589108 0.03401852 C197.58166866 0.05794269 218.39736783 0.06502178 239.2131567 0.05452633 C261.87254872 0.04312181 284.53190446 0.04118107 307.19129604 0.05562443 C309.60659722 0.05715029 312.02189841 0.05867065 314.43719959 0.06018543 C315.62562193 0.06094325 316.81404427 0.06170106 318.03847941 0.06248184 C326.42048244 0.06722803 334.80246929 0.06537087 343.18447208 0.06112003 C353.39604595 0.05619777 363.60754562 0.06215817 373.81910247 0.08201433 C379.03094088 0.09189835 384.24266621 0.09697943 389.45451069 0.08912182 C394.22317138 0.08207936 398.9916036 0.08883602 403.76023411 0.10672545 C405.4875721 0.11077924 407.21493083 0.10975453 408.94226117 0.10320658 C411.2866213 0.09507852 413.63020742 0.10534111 415.97451782 0.12025452 C417.27772069 0.12128365 418.58092356 0.12231278 419.92361742 0.12337309 C425.05211105 0.67596166 428.28926406 2.24278624 431.73683834 6.06307125 C435.17408635 11.02798504 435.01081183 15.57718899 434.42433834 21.50057125 C432.07117766 26.67752475 428.56765215 29.28773561 423.42433834 31.50057125 C419.79941893 32.00196791 419.79941893 32.00196791 415.85146999 32.00393581 C415.1178012 32.00974958 414.38413241 32.01556334 413.62823123 32.02155328 C411.17422829 32.03613035 408.72122918 32.02227944 406.26723385 32.00850582 C404.48838716 32.01311565 402.70954428 32.01946913 400.93070936 32.0274148 C396.04585707 32.0441199 391.16131719 32.03585633 386.27646375 32.02346992 C381.00712509 32.01442663 375.73784048 32.02838559 370.46851254 32.03938961 C360.14720019 32.05718708 349.82600412 32.05332935 339.50468719 32.04173905 C331.11722253 32.03270985 322.72979048 32.03147851 314.34232235 32.03583431 C313.14911114 32.03644724 311.95589994 32.03706018 310.72653082 32.03769168 C308.30263467 32.03897057 305.87873852 32.04026742 303.45484239 32.04158205 C280.71965416 32.05299145 257.98453041 32.03986848 235.24935275 32.01838058 C215.73652268 32.00050929 196.22378779 32.0036133 176.71095943 32.02205563 C154.05778005 32.04345596 131.40465721 32.05189278 108.75146914 32.03960657 C106.33643088 32.03833236 103.92139261 32.03707488 101.50635433 32.03583431 C100.31807271 32.03521721 99.12979108 32.03460011 97.90550092 32.03396431 C89.52696504 32.0305089 81.14846499 32.03634387 72.76993465 32.04575253 C62.56093591 32.05696457 52.35206021 32.05394913 42.14307559 32.03262955 C36.93310531 32.02210851 31.72334028 32.01801536 26.51337147 32.03122616 C21.74521757 32.04313391 16.9774594 32.03661411 12.20934147 32.01531595 C10.48333119 32.01084304 8.75728758 32.01313159 7.0312987 32.0228191 C4.68612524 32.03497353 2.34230924 32.02251896 -0.00279331 32.00393581 C-1.30561646 32.0032864 -2.60843961 32.002637 -3.95074224 32.00196791 C-9.7085999 31.20554453 -13.38285869 29.02980583 -17.01316166 24.37557125 C-19.23743501 19.89813787 -19.35811663 15.38083163 -18.57566166 10.50057125 C-14.86075794 2.47637923 -8.384522 0.00069049 0 0 Z " fill="#2C6AB4" transform="translate(119.57566165924072,345.4994287490845)"/>
<path d="M0 0 C1.09668926 -0.00654048 1.09668926 -0.00654048 2.21553385 -0.0132131 C4.66675113 -0.02416611 7.11740555 -0.01374735 9.56861877 -0.00342751 C11.34318804 -0.00688405 13.11775515 -0.01164859 14.89231777 -0.01760924 C19.76991307 -0.0301493 24.64733259 -0.02393517 29.52492857 -0.01465058 C34.78471292 -0.00787275 40.04446669 -0.01833504 45.304245 -0.02659035 C55.60863183 -0.03994339 65.91295319 -0.03704294 76.21734262 -0.02835242 C84.59053349 -0.02158247 92.96370598 -0.02065618 101.3368988 -0.02392387 C102.52775886 -0.02438357 103.71861892 -0.02484327 104.94556564 -0.0253169 C107.36463206 -0.02627606 109.78369846 -0.0272487 112.20276487 -0.02823468 C134.89641777 -0.03679317 157.59003433 -0.02694722 180.28368127 -0.01083358 C199.76385116 0.00257001 219.24396743 0.00024205 238.72413635 -0.01358986 C261.33554117 -0.02963754 283.94691414 -0.03596916 306.55832386 -0.02675307 C308.96858533 -0.0257974 311.3788468 -0.02485429 313.78910828 -0.02392387 C315.5680381 -0.02322963 315.5680381 -0.02322963 317.3829059 -0.02252137 C325.74786768 -0.01992905 334.11280929 -0.0243077 342.47776794 -0.03136253 C352.66923262 -0.03976871 362.86062797 -0.03751596 373.05208468 -0.0215203 C378.25379297 -0.01362572 383.45538557 -0.01056622 388.65709305 -0.02046776 C393.41653648 -0.02939055 398.17575672 -0.0245217 402.93517983 -0.0085351 C404.65918511 -0.00517705 406.38320914 -0.00690429 408.10720241 -0.01416247 C410.44707363 -0.02325978 412.78617623 -0.01395439 415.12600708 0 C417.07706785 0.00073059 417.07706785 0.00073059 419.06754398 0.00147593 C423.52177469 0.48066966 426.91403882 1.83822856 430.20753479 4.91267967 C433.75485129 9.55147817 435.04400356 12.13127183 434.96925354 17.92439842 C434.24553105 22.29456883 431.87347568 25.5140622 428.56300354 28.37752342 C423.49126193 30.92442846 419.80281216 31.75325382 414.03978062 31.75784016 C413.31147654 31.76250008 412.58317247 31.76715999 411.83279857 31.77196112 C409.39718723 31.78389314 406.96213558 31.77452287 404.52651978 31.76520348 C402.76076193 31.76937718 400.99500676 31.7748549 399.22925657 31.78152329 C394.38058989 31.79599175 389.53209299 31.79172878 384.68341696 31.78435647 C379.45291965 31.77963061 374.22245937 31.79212949 368.99197388 31.80237389 C358.74654731 31.81957841 348.50118203 31.82039849 338.25574476 31.81516098 C329.92931421 31.81112126 321.60290178 31.81256049 313.27647209 31.81790924 C311.49957749 31.81903187 311.49957749 31.81903187 309.68678604 31.82017719 C307.28036662 31.82170865 304.87394721 31.82324699 302.4675278 31.82479215 C279.89589677 31.83852309 257.3243004 31.83307525 234.75267016 31.82160694 C214.09793322 31.81167314 193.44328585 31.82461674 172.78856272 31.84854113 C151.58474047 31.87291669 130.38095995 31.88254385 109.17712396 31.87588841 C97.2709702 31.87239286 85.36488533 31.87465044 73.45874214 31.89213943 C63.32370535 31.90684206 53.18878598 31.90752218 43.05375154 31.89006852 C37.88213275 31.88154035 32.71072389 31.87945337 27.53911591 31.89472008 C22.80484015 31.90852286 18.07095506 31.90386087 13.33670216 31.88448084 C11.62413014 31.88070697 9.91152715 31.8836826 8.1989826 31.89409249 C-7.76435587 31.9842269 -7.76435587 31.9842269 -14.43699646 27.37752342 C-17.94716447 23.77960121 -18.73842247 20.82679305 -18.99949646 15.94002342 C-18.8178409 11.33599447 -17.90234714 8.4564132 -15.11668396 4.81502342 C-10.43602226 0.80924783 -6.02719455 0.00225692 0 0 Z " fill="#2B6AB4" transform="translate(120.43699645996094,442.6224765777588)"/>
<path d="M0 0 C0.7288386 -0.00465992 1.45767721 -0.00931984 2.20860183 -0.01412097 C4.6520517 -0.02607655 7.09494609 -0.01667357 9.53840065 -0.00736332 C11.30742024 -0.011536 13.07643715 -0.01701315 14.84544909 -0.02368313 C19.70777647 -0.0381652 24.56993474 -0.03388438 29.43227148 -0.02651632 C34.6757381 -0.02179376 39.91916764 -0.03428643 45.16262245 -0.04453373 C55.43559165 -0.06174518 65.70849975 -0.06255685 75.98147963 -0.05732083 C84.33034065 -0.05328214 92.67918359 -0.0547191 101.02804375 -0.06006908 C102.215551 -0.06081751 103.40305825 -0.06156593 104.62655056 -0.06233703 C107.03884851 -0.06386848 109.45114646 -0.06540683 111.8634444 -0.066952 C134.4946826 -0.08068561 157.12588625 -0.07523337 179.75712366 -0.06376678 C200.46688957 -0.05383423 221.17656613 -0.06677397 241.88631825 -0.09070098 C263.14434942 -0.11507663 284.40233895 -0.12470357 305.66038382 -0.11804825 C317.59785155 -0.11455253 329.53525057 -0.11681135 341.47270775 -0.13429928 C351.63521703 -0.1490021 361.7976092 -0.14968185 371.96011613 -0.13222837 C377.14590464 -0.12370007 382.33148377 -0.12161348 387.51726151 -0.13687992 C392.26452975 -0.15068249 397.01140839 -0.14602098 401.75865383 -0.12664068 C403.47596635 -0.12286672 405.19330975 -0.1258427 406.91059487 -0.13625234 C422.92973072 -0.22644985 422.92973072 -0.22644985 429.58420753 4.38031673 C432.96554396 7.93071998 433.84420459 10.66443755 434.02170753 15.44281673 C433.79214337 20.38955432 432.78439548 23.27030043 429.15452003 26.75141048 C424.24974505 31.05833977 420.92527495 31.50573495 414.55317593 31.51453781 C413.82948723 31.51689004 413.10579853 31.51924227 412.36017987 31.52166578 C409.91635231 31.52836386 407.47257782 31.52789732 405.02874184 31.52748775 C403.26643883 31.53078588 401.50413658 31.53451133 399.7418353 31.53862923 C394.88418353 31.54866322 390.02654411 31.55236827 385.16888344 31.55501854 C379.93560009 31.55891744 374.70232655 31.56849604 369.46904945 31.57723141 C356.82350891 31.59700727 344.17796756 31.60706332 331.53241542 31.6159592 C325.58067143 31.62034015 319.62892834 31.62570745 313.67718506 31.63094807 C293.89795841 31.64796125 274.11873232 31.66245619 254.33949947 31.66969681 C249.20500437 31.67160677 244.07050926 31.67352709 238.93601418 31.67548275 C237.65982604 31.67596649 236.38363791 31.67645023 235.0687774 31.67694863 C214.38792684 31.68525178 193.70713407 31.71059313 173.02630875 31.74306343 C151.8045411 31.77611202 130.58280283 31.79414357 109.3610093 31.79734105 C97.44137215 31.79950815 85.52181929 31.80828615 73.60220718 31.83380222 C63.45244616 31.85547914 53.30278987 31.86357445 43.15300832 31.85383544 C37.97330794 31.84928206 32.79382381 31.85123727 27.61415291 31.87059689 C22.87232991 31.88816713 18.13088191 31.88728081 13.38905527 31.87169959 C11.67366622 31.86931418 9.95825162 31.87369527 8.24290172 31.88552824 C-7.74656761 31.98899566 -7.74656761 31.98899566 -14.41579247 27.38031673 C-17.92596047 23.78239452 -18.71721847 20.82958636 -18.97829247 15.94281673 C-18.7966369 11.33878778 -17.88114315 8.45920652 -15.09547997 4.81781673 C-10.42263732 0.8187328 -6.01749236 0.00477622 0 0 Z " fill="#2B6AB3" transform="translate(120.41579246520996,539.619683265686)"/>
<path d="M0 0 C4.83932569 4.03603966 9.40276643 8.25816353 13.84985352 12.72045898 C14.49472717 13.36358032 15.13960083 14.00670166 15.80401611 14.66931152 C17.91481871 16.77574715 20.0219824 18.88577903 22.12890625 20.99609375 C23.60653847 22.47305145 25.08431904 23.94986076 26.5622406 25.42652893 C29.65111306 28.5139314 32.73818072 31.60312416 35.82397461 34.69360352 C39.76679552 38.64212126 43.71408921 42.58613221 47.6627512 46.52880764 C50.7127062 49.57513817 53.76026192 52.62386001 56.80711174 55.67329597 C58.26114578 57.12799407 59.71591464 58.58195809 61.17144966 60.03515434 C63.2099187 62.07106582 65.24512435 64.11018663 67.27954102 66.15014648 C67.87347153 66.74205276 68.46740204 67.33395905 69.07933044 67.94380188 C72.44603863 71.32740606 75.58708091 74.82758916 78.66584682 78.47401142 C80.24285847 80.27777864 81.93127332 81.827086 83.77929688 83.35009766 C88.6043388 87.46287557 93.05551704 91.91183691 97.53125 96.3984375 C98.40777222 97.27400299 99.28429443 98.14956848 100.18737793 99.05166626 C102.02393355 100.8875455 103.8592435 102.72467164 105.69335938 104.56298828 C107.57699975 106.4502334 109.46191165 108.33606586 111.34960938 110.21923828 C114.07949332 112.94298235 116.80593553 115.67012213 119.53125 118.3984375 C120.38110474 119.24626801 121.23095947 120.09409851 122.10656738 120.96762085 C123.2690802 122.13486191 123.2690802 122.13486191 124.45507812 123.32568359 C125.14154419 124.01294525 125.82801025 124.70020691 126.53527832 125.40829468 C128 127 128 127 128 128 C112.97917134 128.09350696 97.95836527 128.16401032 82.93730736 128.20724869 C75.96250037 128.22786011 68.98787439 128.2559532 62.01318359 128.30175781 C55.28288914 128.34593628 48.55282164 128.36913441 41.82237625 128.37950897 C39.25392318 128.38690285 36.68548046 128.40134118 34.11710739 128.42292023 C30.52104147 128.45193365 26.92575387 128.45595669 23.32958984 128.45410156 C22.26647583 128.46848267 21.20336182 128.48286377 20.10803223 128.49768066 C12.51515982 128.45526368 9.4574865 126.97728004 3.75 122.0625 C0.62944545 118.38470357 -0.25090026 114.78686744 -0.24050903 110.03288269 C-0.24325836 109.05838165 -0.24600769 108.08388062 -0.24884033 107.07984924 C-0.24164978 106.02249069 -0.23445923 104.96513214 -0.22705078 103.87573242 C-0.22734283 102.75334167 -0.22763489 101.63095093 -0.22793579 100.47454834 C-0.22654349 96.76810959 -0.2109867 93.06187235 -0.1953125 89.35546875 C-0.19158202 86.78428762 -0.18873521 84.21310506 -0.18673706 81.641922 C-0.17988343 75.56821201 -0.16412368 69.49458508 -0.14403808 63.42090636 C-0.12166294 56.5043663 -0.1106816 49.58782273 -0.10064721 42.67125547 C-0.07975695 28.4474649 -0.04459106 14.22373502 0 0 Z " fill="#F5FAFD" transform="translate(466,46)"/>
<path d="M0 0 C1.23468137 -0.00761181 1.23468137 -0.00761181 2.49430579 -0.0153774 C3.39837411 -0.01587516 4.30244242 -0.01637292 5.23390675 -0.01688576 C6.19454385 -0.02126801 7.15518096 -0.02565027 8.14492828 -0.03016531 C11.3783505 -0.0435678 14.61174546 -0.04973544 17.84518909 -0.0558567 C20.1577463 -0.06375651 22.47030227 -0.07202539 24.78285694 -0.08063698 C32.38996673 -0.10687063 39.99708206 -0.12216576 47.6042223 -0.13642311 C50.22134181 -0.1417822 52.83846128 -0.1471597 55.45558071 -0.15255547 C66.34076168 -0.17418596 77.22594033 -0.19307454 88.11113739 -0.20417786 C90.93557394 -0.2071075 93.76001045 -0.21006917 96.58444691 -0.21308327 C97.63743205 -0.21420234 97.63743205 -0.21420234 98.71168963 -0.21534403 C110.08079096 -0.22799477 121.4497358 -0.26121458 132.81876399 -0.3028851 C144.49418969 -0.34532744 156.16952702 -0.36846803 167.84502918 -0.37409842 C174.39917282 -0.37775444 180.95305117 -0.38980305 187.50712109 -0.42220116 C193.6737975 -0.45224709 199.84004761 -0.45860567 206.00678158 -0.4468174 C208.26908296 -0.44659638 210.53140393 -0.45492482 212.79363728 -0.47247124 C215.88499905 -0.49514174 218.97481229 -0.48687672 222.06618214 -0.47098732 C223.4055542 -0.49181045 223.4055542 -0.49181045 224.77198428 -0.51305425 C231.02557511 -0.4339873 235.08369346 1.22348665 239.96750355 5.13701439 C243.02874009 8.38957821 243.19062707 11.25771767 243.34250355 15.57451439 C243.20139206 20.13916431 242.66263732 23.32665284 239.96750355 27.13701439 C236.11518854 30.70040577 233.15108839 32.25814169 227.91659641 32.27123547 C226.67576491 32.27792223 226.67576491 32.27792223 225.40986609 32.28474408 C224.50122471 32.28455972 223.59258333 32.28437536 222.65640736 32.28418541 C221.20826802 32.28970044 221.20826802 32.28970044 219.73087335 32.29532689 C216.48129424 32.30637963 213.23174709 32.31021026 209.98215199 32.31401634 C207.65812039 32.32027975 205.3340898 32.32692643 203.01006031 32.33392906 C196.68559297 32.35134914 190.36113319 32.36189339 184.0366478 32.37013459 C180.08719914 32.37528219 176.13775285 32.381358 172.18830585 32.38764572 C161.25250892 32.40451586 150.31671406 32.41915108 139.38090611 32.42639446 C136.54339821 32.42830434 133.70589032 32.43022467 130.86838245 32.4321804 C129.81051792 32.43290601 129.81051792 32.43290601 128.73128238 32.43364628 C117.30656642 32.44194677 105.88195515 32.46728446 94.4572849 32.49976108 C82.72649528 32.53283592 70.99575887 32.55084358 59.26492238 32.5540387 C52.67899567 32.55639197 46.09323447 32.5653887 39.50735188 32.59049988 C33.31199344 32.61374024 27.11690996 32.61802991 20.92151928 32.60773849 C18.64751682 32.60724206 16.373501 32.61359405 14.09953976 32.62729454 C10.99487365 32.64495354 7.89120068 32.63793623 4.78653431 32.62476158 C3.43695656 32.64121545 3.43695656 32.64121545 2.06011462 32.65800172 C-3.79935748 32.59797739 -7.20906303 31.50876341 -12.03249645 28.13701439 C-14.92955307 24.68087667 -16.26294135 20.55260728 -16.53249645 16.07451439 C-15.79212703 10.24410517 -13.85317035 6.82446825 -9.46999645 2.76201439 C-6.25074237 0.615845 -3.78440315 0.01239759 0 0 Z " fill="#2968B3" transform="translate(116.03249645233154,148.8629856109619)"/>
<path d="M0 0 C0.81963751 -0.00507454 1.63927503 -0.01014909 2.48375005 -0.0153774 C3.38392741 -0.01587516 4.28410478 -0.01637292 5.21156025 -0.01688576 C6.64639058 -0.02345914 6.64639058 -0.02345914 8.11020738 -0.03016531 C11.32981008 -0.04356755 14.54938539 -0.04973539 17.76900959 -0.0558567 C20.07171471 -0.06375653 22.37441859 -0.07202541 24.67712116 -0.08063698 C32.25176528 -0.10687042 39.82641496 -0.12216575 47.40108967 -0.13642311 C50.00706518 -0.14178221 52.61304064 -0.14715972 55.21901608 -0.15255547 C66.05787388 -0.17418594 76.89672936 -0.1930745 87.73560333 -0.20417786 C90.54800833 -0.2071075 93.36041328 -0.21006917 96.17281818 -0.21308327 C96.87181767 -0.21382932 97.57081715 -0.21457537 98.29099844 -0.21534403 C109.61160115 -0.2279947 120.9320467 -0.26121443 132.25257596 -0.3028851 C143.87828112 -0.34532789 155.50389754 -0.36846809 167.1296795 -0.37409842 C173.65587795 -0.37775439 180.18180997 -0.38980243 186.70793438 -0.42220116 C192.84834649 -0.4522478 198.98833048 -0.45860541 205.12880039 -0.4468174 C207.3814265 -0.44659638 209.63407228 -0.45492435 211.88663006 -0.47247124 C214.96485678 -0.49514293 218.04152852 -0.4868762 221.11976337 -0.47098732 C222.45329901 -0.49181045 222.45329901 -0.49181045 223.81377476 -0.51305425 C230.05601206 -0.43380068 234.10749547 1.23330723 238.98312092 5.13701439 C242.63986106 9.02230079 242.48595537 13.36799163 242.33468342 18.47685814 C241.83561265 22.25316028 240.5528622 24.3589157 237.98312092 27.13701439 C233.77443596 30.18831098 230.02994751 31.25927727 224.88725281 31.26844215 C223.66956019 31.27420387 223.66956019 31.27420387 222.42726773 31.28008199 C221.54099393 31.27921551 220.65472013 31.27834902 219.74158955 31.27745628 C218.79572666 31.28042741 217.84986377 31.28339853 216.87533838 31.28645968 C213.69795946 31.29514866 210.52061821 31.2966551 207.34322834 31.2981472 C205.06830992 31.3027752 202.79339227 31.30779983 200.51847553 31.31319237 C194.33248955 31.32631934 188.14651443 31.33276181 181.96051669 31.33720303 C178.09699498 31.34013301 174.23347624 31.34423766 170.36995602 31.3487072 C159.67002132 31.36081546 148.97009024 31.37119794 138.27014923 31.37458229 C137.58556484 31.37480186 136.90098045 31.37502142 136.19565107 31.37524764 C135.50944376 31.37546592 134.82323644 31.3756842 134.11623496 31.37590909 C132.72575358 31.37635255 131.33527221 31.37679912 129.94479084 31.37724876 C128.91020417 31.37758091 128.91020417 31.37758091 127.85471676 31.37791976 C116.67904564 31.38186768 105.50343973 31.39932234 94.3277938 31.42260829 C82.85009082 31.44633033 71.37243521 31.4585266 59.89470464 31.45995021 C53.4519063 31.4609991 47.00919996 31.4669251 40.56642437 31.48476982 C34.50651259 31.50122758 28.44676219 31.50341708 22.38683605 31.49463081 C20.16282692 31.49385924 17.93880918 31.49821898 15.71482182 31.50808907 C12.67822277 31.52077513 9.64219817 31.51494967 6.60560322 31.50450706 C5.28623076 31.51659167 5.28623076 31.51659167 3.94020432 31.52892041 C-2.0297058 31.48092151 -7.10732762 30.70081197 -11.75906658 26.60185814 C-15.77593709 21.18600859 -16.83190833 17.84968585 -16.01687908 11.13701439 C-12.5948108 4.4196211 -7.69959064 0.02533178 0 0 Z " fill="#2C6AB4" transform="translate(117.01687908172607,249.8629856109619)"/>
<path d="M0 0 C0.95729883 -0.0055344 1.91459766 -0.01106879 2.90090555 -0.0167709 C6.09919675 -0.03035207 9.29670417 -0.01542159 12.49497986 -0.00050354 C14.79167003 -0.0042876 17.08835793 -0.00978835 19.38504028 -0.01687622 C25.61633195 -0.03083584 31.84734767 -0.01965758 38.07862401 -0.00316501 C44.5994458 0.01068583 51.12025157 0.00422543 57.64108276 0.0007019 C68.59047489 -0.00199999 79.53975487 0.01138659 90.48912048 0.03465271 C101.74990405 0.05857779 113.01054262 0.06565428 124.27134705 0.05516052 C137.85019001 0.04252925 151.42892158 0.04504556 165.00776482 0.06081963 C170.19145207 0.06657985 175.3750908 0.06649645 180.55877876 0.06175423 C186.6614382 0.05698438 192.76389679 0.06708674 198.86651802 0.08870888 C201.10706403 0.09427652 203.34762935 0.09474227 205.58817673 0.08975601 C208.64470123 0.08380652 211.70061097 0.09630235 214.75708008 0.11352539 C215.64531009 0.10751535 216.53354011 0.1015053 217.44868618 0.09531313 C223.17860475 0.15409226 227.59603163 0.96302607 231.95957947 5.03636169 C235.79278968 10.0490212 236.95504885 13.1604584 236.31504822 19.50120544 C234.45647995 24.76714888 231.71190626 27.29516312 227.31504822 30.50120544 C224.6186135 31.40001702 223.07584807 31.62842111 220.31099319 31.63542652 C219.49422238 31.63988437 218.67745156 31.64434221 217.83593011 31.64893514 C216.93896157 31.64875078 216.04199303 31.64856641 215.11784363 31.64837646 C214.16466806 31.65205315 213.2114925 31.65572984 212.22943282 31.65951794 C209.02131225 31.67057007 205.81322405 31.67440121 202.60508728 31.6782074 C200.31061194 31.68447085 198.01613763 31.69111754 195.72166443 31.69812012 C189.47777307 31.71553977 183.23388938 31.72608434 176.98997974 31.73432565 C173.09078399 31.73947335 169.19159062 31.74554916 165.29239655 31.75183678 C154.49556842 31.76870686 143.698744 31.78334206 132.90190506 31.79058552 C130.10049183 31.79249539 127.29907861 31.79441573 124.49766541 31.79637146 C123.45325864 31.79709707 123.45325864 31.79709707 122.38775274 31.79783734 C111.10853297 31.80613772 99.82941925 31.83147524 88.55024579 31.86395214 C76.96861587 31.89702791 65.38704531 31.91470197 53.80536819 31.91822976 C47.30327761 31.92058294 40.80135467 31.92957851 34.29930878 31.95469093 C28.18274378 31.97793273 22.06645728 31.98222039 15.94985962 31.97192955 C13.70488307 31.97143315 11.45989299 31.97778413 9.21495819 31.9914856 C6.14969946 32.009147 3.08544641 32.00212615 0.02018738 31.98895264 C-1.3118811 32.00540651 -1.3118811 32.00540651 -2.67086005 32.02219278 C-8.50865758 31.96163499 -11.8803251 30.8607075 -16.68495178 27.50120544 C-20.17310054 23.83417726 -20.97775079 20.92724194 -21.18495178 16.00120544 C-20.97775079 11.07516895 -20.17310054 8.16823363 -16.68495178 4.50120544 C-11.00370067 0.53196128 -6.83847217 -0.07413501 0 0 Z " fill="#2B6AB4" transform="translate(122.68495178222656,636.4987945556641)"/>
<path d="M0 0 C120.12 0 240.24 0 364 0 C363.67 3.3 363.34 6.6 363 10 C362.67 10 362.34 10 362 10 C362 7.36 362 4.72 362 2 C242.54 2 123.08 2 0 2 C0 1.34 0 0.68 0 0 Z " fill="#D2DEEA" transform="translate(71,31)"/>
<path d="M0 0 C3.72056011 0.57292104 5.41557215 2.04949006 8.03417969 4.69360352 C8.81468689 5.47433731 9.59519409 6.25507111 10.39935303 7.0594635 C11.23178528 7.90737961 12.06421753 8.75529572 12.921875 9.62890625 C13.78186096 10.49313705 14.64184692 11.35736786 15.52789307 12.24778748 C18.27570575 15.01240612 21.01291036 17.78726862 23.75 20.5625 C25.60998825 22.43753251 27.47065707 24.31189018 29.33203125 26.18554688 C33.89594973 30.78256017 38.45119938 35.38802955 43 40 C42.34 40.66 41.68 41.32 41 42 C35.58126115 36.63181251 30.17025351 31.25592414 24.76464844 25.87451172 C22.92333894 24.04328357 21.08024169 22.21385123 19.23535156 20.38623047 C16.58971926 17.76475271 13.95050303 15.13696465 11.3125 12.5078125 C10.48129639 11.68693146 9.65009277 10.86605042 8.79370117 10.02029419 C8.0329126 9.25965668 7.27212402 8.49901917 6.48828125 7.71533203 C5.81321533 7.04470734 5.13814941 6.37408264 4.44262695 5.68313599 C3 4 3 4 3 2 C2.01 1.67 1.02 1.34 0 1 C0 0.67 0 0.34 0 0 Z " fill="#5485BD" transform="translate(472,9)"/>
<path d="M0 0 C1.1725131 0.95117134 2.33787015 1.91117009 3.5 2.875 C4.47453125 3.67550781 4.47453125 3.67550781 5.46875 4.4921875 C5.9740625 4.98976563 6.479375 5.48734375 7 6 C7 6.66 7 7.32 7 8 C7.99 8.33 8.98 8.66 10 9 C9.01 9.33 8.02 9.66 7 10 C5.82438854 8.90536178 4.6597511 7.79892814 3.5 6.6875 C2.52546875 5.76517578 2.52546875 5.76517578 1.53125 4.82421875 C0 3 0 3 0 0 Z " fill="#5585BC" transform="translate(521,56)"/>
<path d="M0 0 C0.87324262 2.44507934 1.10151327 3.67700322 0.3125 6.1875 C-1 8 -1 8 -3.125 8.75 C-4.053125 8.87375 -4.053125 8.87375 -5 9 C-4.360625 8.071875 -3.72125 7.14375 -3.0625 6.1875 C-0.91377907 3.15780057 -0.91377907 3.15780057 0 0 Z " fill="#E0E9F0" transform="translate(358,656)"/>
</svg>
